<svg xmlns="http://www.w3.org/2000/svg" viewBox="0 0 58.53 306.72"><defs><style>.cls-1{fill:#065060;}.cls-2{fill:#013842;}.cls-3{fill:#fff;}.cls-4{fill:#348898;}</style></defs><title>bg1</title><path class="cls-1" d="M1.33 222.73v-59.97l6.15-6.15v-11l2.68-2.68V66.27l5.58-5.59v-6.34l33.38-33.37V2.94L52.06 0v69.27l4.23 4.23v58.02l-5.19 5.19v10.33l7.43 7.43v152.25H0l1.33-83.99z"/><path class="cls-2" d="M42.39 151.16l-8.33-8.33v-38.67l4.58-4.58V73.5l4.01-4.01-.26 81.67z"/><path class="cls-3" d="M37.81 105.39h1.09v1.09h-1.09zM37.81 107.39h1.09v1.09h-1.09zM37.81 109.39h1.09v1.09h-1.09zM37.81 111.39h1.09v1.09h-1.09zM37.81 113.39h1.09v1.09h-1.09z"/><path class="cls-2" d="M20.06 56.83L43.89 33v-8.34l3.25-3.25L26.39.66v24.5l-6.5 6.5.17 25.17z"/><path class="cls-4" d="M15.36 212.71v-41.33l5.51-5.51V148.6l4.39-4.39v162.51h-9.9v-94.01z"/><path class="cls-3" d="M19.76 174.74h1.09v1.09h-1.09zM19.76 176.74h1.09v1.09h-1.09zM19.76 178.74h1.09v1.09h-1.09zM19.76 180.74h1.09v1.09h-1.09zM19.76 182.74h1.09v1.09h-1.09zM32.76 188.41h1.09v1.09h-1.09zM32.76 190.41h1.09v1.09h-1.09zM32.76 192.41h1.09v1.09h-1.09zM32.76 194.41h1.09v1.09h-1.09zM32.76 196.41h1.09v1.09h-1.09zM19.76 200.38h1.09v1.09h-1.09zM19.76 202.38h1.09v1.09h-1.09zM19.76 204.38h1.09v1.09h-1.09zM19.76 206.38h1.09v1.09h-1.09zM19.76 208.38h1.09v1.09h-1.09z"/></svg>