<svg xmlns="http://www.w3.org/2000/svg" viewBox="0 0 36.3 44.2" enable-background="new 0 0 36.3 44.2"><style type="text/css">.st0{fill:#023942;} .st1{fill:#095160;} .st2{fill:#B4E2EB;} .st3{fill:#FFFFFF;} .st4{fill:#F68C58;}</style><title>bg2</title><path class="st0" d="M11.497 30.412l15.5-.024.006 4.3-15.5.024z"/><path class="st1" d="M32.1 32.3H6.5s3.7-4.7 3.7-12.8c0-8.1 9.1-18.4 9.1-18.4s8.9 9.6 8.9 18.4 3.9 12.8 3.9 12.8z"/><ellipse transform="matrix(1 -.002 .002 1 -.029 .029)" class="st2" cx="19.5" cy="19.3" rx="3.8" ry="3.8"/><ellipse transform="matrix(1 -.002 .002 1 -.029 .029)" class="st3" cx="19.5" cy="19.3" rx="2.5" ry="2.5"/><path class="st4" d="M22.1 38.2c-.1-1.4-1.3-2.5-2.7-2.4-1.3.1-2.4 1.1-2.4 2.4 0 1.4 2.1 4.4 2.6 4.4s2.5-3 2.5-4.4z"/></svg>