<svg xmlns="http://www.w3.org/2000/svg" width="1489" height="351" viewBox="0 0 1489 351"><defs><style>.cls-1 { fill: #01161a; fill-rule: evenodd; }</style></defs><path id="bg3" class="cls-1" d="M1489 351V0h-47.99v30.87h-54.19v119.88h-253.39v-10.57h-15.35V127.8h-21.06v12.38h-9.1v10.57h-3.71v15.7h-23.15v-21.52h-13.15v21.52h-7.56v38.54h-23.14V180.6h-14.87v-29.97h8.11v-18.55h-8.11v-12.72h-9.98v-5.83h-27.78v5.83H950.8v-18.32h-22.77v18.32h-18.14v85.63h-30.35v31.39h-32.37v-38.86H745.76v38.86h-18.748v-28.24H696.87v-35.32h-45.14v63.56H622.5v-39.05h-24.857v39.05h-20.466v-70.05H543.55v19.99h-33.624v15.24h-21.01v21h-40.392v-54.8h-49.7v19.95H387.8v27.73h11.018v28.08h-42.39v-34.38H333.01v-40.01h10.11v-36.76h-10.11v-18.56h-13.133v-13.13h-17.545v13.13h-13.156v19.7h-24.85v-7.14h-45.32v-19.98H211.7v-21.4h-36.547v41.38h-7.31V93.55h-24.855v32.82h-10.232v87.06h-5.85V159.2h-83.33v29.97H21.65v24.26H0V351h1489z"/></svg>