<svg xmlns="http://www.w3.org/2000/svg" viewBox="0 0 665.56 212.51"><defs><style>.cls-1{fill:#05252c;}</style></defs><title>bg4</title><path class="cls-1" d="M549.07 101.18h-4.76v-9.21H539v9.21h-21.4v-5.41H516v-1.81h-7v1.81h-12.85v5.41h-3v41.15h-3v27.07h3v16.24h-3v14.3h58.86v-28.2h-2.18v-6.13h2.18v-4.69h-2.18v-6.14h2.18v-4.65h-2.18v-6.14h2.18v-17.36h2.38v-2.17h-2.37v-8.66h2.38v-2.17h-2.37v-12.45zm-52.76 106.57h-3.92V206h3.92v1.74zm0-4.17h-3.92v-1.74h3.92v1.74zm0-4.17h-3.92v-1.73h3.92v1.73zm0-22.49h-3.92v-1.74h3.92v1.74zm0-4.17h-3.92V171h3.92v1.74zm0-4.16h-3.92v-1.73h3.92v1.73zm0-4.17h-3.92v-1.72h3.92v1.73zm0-8.33h-3.92v-1.74h3.92v1.74zM398.53 169.68v-10.21h2.83v-7.94h-2.83v-10.22h2.83v-10.18H360v-.09h.64v-3.34H360v-1.67h.64v-3.33H360v-1.67h.64v-3.34H360v-.19h-3.33v-1.48h4v-3.33h-4v-1h-1v-2.5h3.11v-1.25h-3.11v-7.08h3.11v-1.25h-3.08v1h-.18v-1h.14v-7.08h3.11v-1.25h-3.11v1h-.14v-1h.14v-7.09h3.11v-1.25h-3.11v-4.59h-.14V77.2h-9.15l-6.72-8.56H335V57.51h-21v1.25h6v1.25h-6v8.33h-16.6v10h-4v4.58h-3.11v1.25h3.11v7.09h-3.11v1.25h3.11v7.08h6.75v1h-6.85v-1h-3v1.25h3.11v7.08h-3.11v1.25h3.11v2.71h3.15v60h-3.16v2.71h-3.11v1.25h3.11v7.09h-3.11v1.25h3.11v7.09h6.75v1h-6.85v-1h-3v1.25h3.11v7.09h-3.11v.31h3.21v-.29h6.66v.31h101.19v-30.26h-2.83zm-98.38 24.12h-6.66v-1h6.66v1zm0-8.33h-6.47v-1h6.47v1zm0-66.68h-6.66v-1h6.66v1zm-4.29-29.06h2.51v2h-2.51v-2zm4.29 12.39h-6.66v-1h6.66v1zm0-8.33h-6.47v-1h6.47v1zm3.19-10.35h-3.4v-2.72h3.4v2.71zm16.43-4.69h-3.4V76h3.4v2.71zm0-4.17h-3.4v-2.72h3.4v2.71zm13.31 1h-3.4v-2.67h3.4v2.71zm0-4.17h-3.4v-2.67h3.4v2.71zm23.6 66.09v-.73h.68v.73h-.68zm.68-5h-.68v-1.67h.68v1.67zM279.84 53.13h-3.21V27.81h3v-17h-20.38V0h-4.53v8.51h-2.27V0h-18.12v10.78h-3.4v18.16h1.74v2.64h-4.76v1.55h4.76v3h-4.76v1.56h4.76v3h-4.76v1.56h4.76v3h-4.76v1.58h4.76v3h-4.76v1.56h4.76v3h-4.76v1.56h4.76v3h-4.76v1.56h4.76v3h-4.76v1.62h4.76v3h-4.76v1.56h4.76v3h-4.76v1.56h4.76v3h-4.76v1.56h4.76v3h-4.76v1.56h4.76v3h-4.76v1.56h4.76v2.89h-1.74v4.76h-38.5V81.93h-10.87v-.33h3.87v-1.13h-3.87v-2.34h3.87v-1.16h-3.87v-1.91h6.23v-8.51h-6.23v-2.27h6.61v-.94h-2.74v-.33h-3.87v-2.36h3.87v-1.13h-3.87v-2.39h3.87v-1.11h-3.87v-2.35h3.87v-1.14h-3.87v-2.4h3.87v-1.09h-3.87v-2.36h3.87v-1.13h-3.87v-2.36h3.87v-1.13h-3.87v-2.75h-4v-9.64h-13.37v-1.7h-5.66v1.7h-.75v9.64h-12.47V37.8H141v1.51h-2.45v7.75H140v2.84h-1.51v8.51H140v2.84h-1.51v8.51H140v2.84h-1.51v8.53H140v2.84h-1.51v101.74h32.84v1.71h-2.48v1.41h2.48v2.42h-2.48v1.4h2.48v2.48h-2.48v1.38h2.48v2.45h-2.48v1h114v-1.14h-3v-3h3v-1.56h-3v-11.79h3v-1.56h-3v-3h3v-1.56h-3v-3h3v-1.56h-3v-3h3v-1.56h-3v-3h3v-1.56h-3v-3h3v-1.54h-3v-3h3v-1.6h-3v-3h3v-1.56h-3v-3h3v-1.56h-3v-3h3v-1.56h-3v-3h3v-1.56h-3v-3h3v-1.56h-3v-3h3v-1.6h-3v-11.75h3v-1.56h-3v-3h3v-1.56h-3v-3h3v-1.56h-3v-3h3v-1.57h-3v-3h3v-1.56h-3v-3h3v-1.56h-3v-3h3v-1.57h-3v-3h3v-1.56h-3v-3h3v-1.57h-3v-3h3v-1.56h-3v-3h3v-1.56h-3v-3h3v-1.56h-3v-3h3v-1.57h-3v-4.93zm-98.43-1.2h.14v1.14h-.14v-1.14zm0 3.49h.14v1.14h-.14v-1.14zm0 3.49h.14V60h-.14v-1.09zm0 3.49h.14v1.14h-.14V62.4zm0 3.49h.14V67h-.14v-1.11zm0 3.49h.14v1.13h-.14v-1.12zm0 3.49h.14V74h-.14v-1.12zm0 14h.14V88h-.14v-1.16zm0 3.49h.14v1.13h-.14v-1.15zm8.38 14.7h-3.4v-3.78h3.4V105zm0-6.81h-3.4v-3.8h3.4v3.78zM447.8 89.13h-26.5L408 95.76l.1.05h-6.76v104.14l60.52.06v-102H447.8v-8.88zm-18.4 20.53h-6.72v-2.76h6.72v2.76zm0-5.28h-6.72v-3.44h6.72v3.44zm13.44 5.28h-6.72v-2.76h6.72v2.76zm0-5.28h-6.72v-3.44h6.72v3.44zM90.92 112.56h-4V73.81h-4V45.13h-13v-7.21H51.67v7.21H33.55v154.62l63.4.1v-57.14h-6.03v-30.15zM67.34 65.79h-3.77v-5.74h3.78v5.74zm12.84 7h-3.77v-4.6h3.77V63zm8.31 97.87H85v.84h-.29v-5.74h3.78v4.9zm0-12.56h-3.78v-5.74h3.78v5.74zM665.56 133.51v-.94h-4.85v-.33h-6.85v-2.36h6.85v-1.13h-6.85v-2.36h6.85v-1.13h-6.85v-2.36h6.85v-1.14h-6.85v-2.36h6.85v-1.13h-6.85v-2.36h6.85v-1.14h-6.85v-2.36h6.85v-1.14h-6.85v-2.74h-7v-9.65h-23.75v-1.7h-10v1.7h-1.34v9.65H589.7v-1.5H582v1.51h-4.34v7.75h2.67v2.84h-2.67v8.51h2.67v2.84h-2.67v8.51h2.67v2.84h-2.67v8.51h2.67v2.84h-2.67v46.77h76.19v-.23h6.85v-1.13h-6.85v-2.36h6.85v-1.1h-6.85v-2.4h6.85v-1.13h-6.85v-2.36h6.85v-1.11h-6.85v-2.35h6.85v-1.14h-6.85v-2.36h6.85v-1.15h-6.85v-5.85h6.85v-1.15h-6.85v-2.36h6.85v-1.14h-6.85v-2.36h6.85v-1.14h-6.85v-2.35h6.85v-1.14h-6.85v-2.36h6.85v-1.15h-6.85v-2.36h6.85v-1.14h-6.85v-2.36h6.85v-1.13h-6.85v-2.31h6.85v-1.13h-6.85v-2.36h6.85v-1.13h-6.85v-1.91h11v-8.51h-11v-2.27h11.7zm-11.73 76.07h-.24v-1.13h.24v1.13zm0-3.49h-.24V205h.24v1.13zm0-3.49h-.24v-1.13h.24v1.13zm0-3.49h-.24V198h.24v1.14zm0-3.49h-.24v-1.14h.24v1.14zm0-3.49h-.24V191h.24v1.13zm0-7h-.24V184h.24v1.13zm0-3.49h-.24v-1.14h.24v1.14zm0-3.49h-.24V177h.24v1.13zm0-3.49h-.24v-1.14h.24v1.14zm0-3.49h-.24V170h.24v1.14zm0-3.49h-.24v-1.14h.24v1.14zm0-3.49h-.24v-1.13h.24v1.13zm0-3.49h-.24v-1.13h.24v1.13zm0-3.49h-.24v-1.13h.24v1.13zm0-14h-.24v-1.13h.24v1.13zm0-3.49h-.24v-1.13h.24v1.13zm0-3.49h-.24v-1.13h.24v1.13zm0-3.49h-.24v-1.14h.24v1.14zm0-3.49h-.24v-1.13h.24v1.13zm0-3.49h-.24v-1.14h.24v1.14zm0-3.49h-.24v-1.14h.24v1.14zM24.57 111.48h-6.49v-1.81h6.49v-.87h-6.49v-1.81h6.49v-.86h-6.49v-1.81h6.49v-.89h-6.49v-1.81h6.49v-.87h-6.49v-1.81h6.49v-.87h-6.49v-1.81h6.49v-.87h-6.49v-2.11h-6.64v-7.41H0v126.65h17.44v-6.77h.64v-7.55h6.49v-.87h-6.49v-1.81h6.49v-.87h-6.49v-4.52h6.49v-.87h-6.49v-1.81h6.49v-.87h-6.49v-1.81h6.49v-.87h-6.49v-1.77h6.49v-.9h-6.49v-1.81h6.49v-.87h-6.49v-1.82h6.49v-.87h-6.49v-7.18h6.49v-.87h-6.49V166h6.49v-.87h-6.49v-1.81h6.49v-.87h-6.49v-1.81h6.49v-.87h-6.49v-1.81h6.49v-.83h-6.49v-1.81h6.49v-.87h-6.49v-1.81h6.49v-.87h-6.49v-1.81h6.49v-.87h-6.49v-4.49h6.49v-.87h-6.49v-1.81h6.49v-.87h-6.49v-1.92h6.49v-.87h-6.49v-1.81h6.49v-.87h-6.49v-1.81h6.49v-.87h-6.49v-1.77h6.49v-.87h-6.49v-1.81h6.49v-.87h-6.49v-1.81h6.49v-.87h-6.49v-1.77h6.49v-.87h-6.49v-1.47h10.45v-6.54H18.08v-1.74h11.08v-.78h-4.59v-.25zm-6.52 96.58h-.61v-.87h.61v.87zm0-2.68h-.61v-.87h.61v.87zm0-5.36h-.61v-.87h.61v.85zm0-2.68h-.61v-.87h.61v.87zm0-2.68h-.61v-.87h.61v.87zm0-2.68h-.61v-.88h.61v.9zm0-2.68h-.61v-.87h.61v.87zm0-2.68h-.61v-.87h.61v.87zm0-8h-.61v-.87h.61v.87zm0-2.68h-.61V175h.61v.87zm0-2.68h-.61v-.87h.61v.87zm0-2.68h-.61v-.87h.61v.87zm0-2.68h-.61v-.9h.61v.87zm0-2.68h-.61v-.87h.61v.87zm0-2.68h-.61v-.87h.61v.87zm0-2.68h-.61v-.87h.61v.87zm0-5.36h-.61v-.87h.61v.87zm0-2.68h-.61v-.87h.61v.87zm0-2.68h-.61v-.87h.61v.73zm0-2.68h-.61v-.87h.61v.87zm0-2.68h-.61v-.87h.61v.87zm0-2.68h-.61v-.87h.61v.77zm0-2.69h-.61v-.87h.61v.87zm0-2.68h-.61v-.87h.61v.87zm0-2.68h-.61v-.87h.61v.82zm0-10.73h-.61v-.87h.61v.87zm0-2.68h-.61v-.87h.61v.87zm0-2.68h-.61V116h.61v.87zm0-2.68h-.61v-.98h.61v.87zm0-2.68h-.61v-.87h.61v.87zm0-2.68h-.61v-.87h.61v.87zm0-2.68h-.61v-.87h.61v.87z"/></svg>