<svg xmlns="http://www.w3.org/2000/svg" width="1489" height="612" viewBox="0 0 1489 612"><defs><style>.cls-1 { fill: #013842; fill-rule: evenodd; }</style></defs><path id="bg5" class="cls-1" d="M1489 290.35h-6.82v-25.83h-21.04v-18.76h-33.67v-24.58h-33.66v86.17h-20.49v-48.03h-24.89v48.03h-29.27v-78.19h-45.2v43.44h-30.18v34.75h-18.77v-47.81h-101.54v47.81h-32.41v-38.62h-30.4V163.4h-18.16v-22.53h-22.79v22.53h-13.8v-7.17H978.1v7.17h-10v15.65h-8.12v22.82h8.12v36.86h-14.88v30h-23.18v-47.4h-7.57v-26.48H909.3v26.48h-23.17v-19.31h-3.72v-13.01h-9.11v-15.23h-21.09v15.23h-15.36v13.01H583.126V54.564h-54.253V16.58h-49.92V.463h-12.97v16.12h-14.5v26.137h-40.1v11.844h-24.4v47.395h-47.094V38.805h-1.46V-.007h-11.717v38.813h-33.656V116h-73.194V66.7h-21.958V116h-67.083v76.147h-5.5v-77.02H98.37V91.28H74.952v-15.8H50.067v39.647H30.185v77.023H0v418.49L1489 612V290.35z"/></svg>