<svg xmlns="http://www.w3.org/2000/svg" viewBox="0 0 693 334.9" enable-background="new 0 0 693 334.9"><style type="text/css">.st0{fill:#015060;} .st1{fill:#024E71;}</style><title>bg6</title><path class="st0" d="M687.2 15.7v16h-4v4.5h-3.9v1.9h3.9V42h-3.9v1.9h3.9v3.9h-3.9v1.9h3.9v3.9h-3.9v1.9h3.9v3.9h-3.9v1.9h3.9v3.9h-3.9v1.9h3.9V71h-3.9v.6h-2.7v1.6h6.6V77H677v14h6.2v3.2h-3.9v1.9h3.9v4h-3.9v1.9h3.9v3.9h-3.9v1.9h3.9v3.9h-3.9v1.9h3.9v3.9h-3.9v1.9h3.9v3.9h-3.9v1.9h3.9v3.9h-3.9v1.9h3.9v3.9h-3.9v1.9h3.9v3.9h-3.9v1.9h3.9v9.7h-3.9v1.8h3.9v3.9h-3.9v1.9h3.9v3.9h-3.9v1.9h3.9v3.9h-3.9v1.9h3.9v3.9h-3.9v1.9h3.9v3.9h-3.9v1.9h3.9v3.9h-3.9v1.9h3.9v3.9h-3.9v1.9h3.9v15.5h-3.9v1.9h3.9v3.9h-3.9v1.9h3.9v3.9h-3.9v1.9h3.9v3.9h-3.9v1.9h3.9v3.9h-3.9v1.9h3.9v3.9h-3.9v1.9h3.9v9.7h-3.9v1.9h3.9v3.9h-3.9v1.9h3.9v16.3h.5v7.3h9.2V15.7h-5.7zm-3.4 242.7h-.5v-1.9h.5v1.9zm0-5.8h-.5v-1.9h.5v1.9zm0-11.6h-.5v-1.9h.5v1.9zm0-5.8h-.5v-1.9h.5v1.9zm0-5.8h-.5v-1.9h.5v1.9zm0-5.8h-.5v-1.9h.5v1.9zm0-5.8h-.5v-1.9h.5v1.9zm0-5.8h-.5v-1.9h.5v1.9zm0-17.4h-.5v-1.9h.5v1.9zm0-5.8h-.5V187h.5v1.8zm0-5.8h-.5v-1.9h.5v1.9zm0-5.8h-.5v-1.9h.5v1.9zm0-5.7h-.5v-1.9h.5v1.9zm0-5.8h-.5v-1.9h.5v1.9zm0-5.8h-.5V158h.5v1.9zm0-5.8h-.5v-1.9h.5v1.9zm0-11.6h-.5v-1.9h.5v1.9zm0-5.8h-.5v-1.9h.5v1.9zm0-5.8h-.5V129h.5v1.9zm0-5.8h-.5v-1.9h.5v1.9zm0-5.8h-.5v-1.9h.5v1.9zm0-5.8h-.5v-1.9h.5v1.9zm0-5.8h-.5v-1.9h.5v1.9zm0-5.8h-.5V100h.5v1.9zm0-5.8h-.5v-1.9h.5v1.9zm0-23.1h-.5v-2h.5v2zm0-5.8h-.5v-1.9h.5v1.9zm0-5.8h-.5v-1.9h.5v1.9zm0-5.8h-.5v-1.9h.5v1.9zm0-5.8h-.5v-1.9h.5v1.9zm0-5.8h-.5v-2h.5v2zm0-5.8h-.5v-1.9h.5v1.9z"/><path class="st1" d="M609.9 235h2.5v1.4h-2.5zM609.9 196.7h2.5v1.5h-2.5zM609.9 246.5h2.5v1.3h-2.5zM609.9 200.5h2.5v1.5h-2.5zM609.9 204.3h2.5v1.5h-2.5zM609.9 208.2h2.5v1.4h-2.5zM609.9 227.3h2.5v1.4h-2.5zM609.9 254.1h2.5v1.3h-2.5zM609.9 231.1h2.5v1.4h-2.5zM609.9 223.5h2.5v1.4h-2.5zM609.9 212h2.5v1.4h-2.5zM609.9 215.8h2.5v1.4h-2.5zM609.9 219.6h2.5v1.4h-2.5zM609.9 242.6h2.5v1.3h-2.5z"/><path class="st0" d="M633.4 114.1H617v13.6h-4.5V138h2.8v10.2h-2.8v7.9h2.8v10.2h-2.8v3.5h.4v1.6h-.4v2.3h.4v1.6h-.4v2.3h.4v1.5h-.4v2.3h.4v1.5h-.4v2.3h.4v1.5h-.4v2.4h-2.6v1.5h2.6v2.3h-2.6v1.5h2.6v2.3h.4v1.5h-.4v2.3h.4v1.5h-.4v2.4h.4v1.5h-.4v2.4h.4v1.4h-.4v2.4h.4v1.4h-.4v2.4h.4v1.4h-.4v2.4h.4v1.4h-.4v2.4h.4v1.4h-.4v2.4h.4v1.4h-.4v2.4h.4v1.4h-.4v2.5h.4v1.4h-.4v2.5h-2.6v1.4h2.6v2.5h.4v1.3h-.4v2.5h.4v1.3h-.4v2.5h-2.6v1.3h2.6v2.5h8.5v1.3h-8.6v2.5h-2.6v1.3h2.6v2.5h8.6v1.3h-8.6v2.6h8.6v1.3h-8.6v2.6h-2.6v1.2h2.6v6.9h62.3V166.4h-2.8v-10.2h2.8v-7.9h-2.8V138h2.8v-10.2h-41.3v-13.7zm-14.7 40.1h-3.4v-3.8h3.4v3.8zm.2-19.2h-3.4v-3.8h3.4v3.8zm11.9-7.6h-3.4v-3.8h3.4v3.8zm0-6.8h-3.4v-3.8h3.4v3.8z"/><path class="st1" d="M609.9 261.8h2.5v1.3h-2.5zM609.9 177.5h2.5v1.6h-2.5zM609.9 173.7h2.5v1.6h-2.5zM609.9 169.9h2.5v1.6h-2.5zM609.9 185.2h2.5v1.5h-2.5zM609.9 265.6h2.5v1.3h-2.5zM609.9 181.3h2.5v1.5h-2.5z"/><path class="st0" d="M605.9 40.6c0-2.2-3-4.1-6.6-4.1s-6.6 1.8-6.6 4.1V49H569v7.2h-4.7v5.4h-1.6v3.1h1.6v2.6h-1.6v3.1h1.6V73h-1.6v3h1.6v2.6h-1.6v3.1h1.6v2.6h-1.6v3.1h1.6V90h-1.6v3h1.6v2.6h-1.6v3.1h1.6v2.6h-1.6v3.1h1.6v2.6h-1.6v3.1h1.6v2.6h-1.6v3.1h1.6v2.6h-1.6v3.1h1.6v2.6h-1.6v3.1h1.6v2.6h-1.6v3.1h1.6v2.6h-1.6v3.1h1.6v2.6h-1.6v3.1h1.6v2.6h-1.6v3.1h1.6v2.6h-1.6v3.1h1.6v2.5h-1.6v3.1h1.6v2.6h-1.6v3.1h1.6v2.6h-1.6v3.1h1.6v2.5h-1.6v3.1h1.6v2.6h-1.6v3.1h1.6v2.6h-1.6v3.1h1.6v2.5h-1.6v3.1h1.6v2.6h-1.6v3.1h1.6v2.6h-1.6v3.1h1.6v2.6h-1.6v3.1h1.6v2.6h-1.6v3.1h1.6v2.6h-1.6v3.1h1.6v2.6h-1.6v3.1h1.6v2.6h-1.6v3.1h1.6v2.6h-1.6v3.1h1.6v2.6h-1.6v3.1h1.6v2.6h-1.6v3.1h1.6v2.5h-1.6v3.1h1.6v2.5h-1.6v3.1h1.6v2.5h-1.6v3.1h1.6v8.5h44.8V56.2h-3.2V40.6zM386 37.9h40.5v228.6H386zM382.1 119.6h-3.2v-2.3h3.2V116h-3.2v-2.3h3.2v-1.1h-3.2v-2.4h3.2v-1.1h-3.2v-2.3h3.2v-1.1h-3.2v-2.3h3.2v-1.1h-3.2v-2.4h3.2v-1.1h-3.2v-2.7h-3.3v-9.7h-11.1v-1.7h-4.7v1.7h-.6v9.7H349v-1.5h-3.6v1.5h-2v7.8h1.2v2.8h-1.2v8.5h1.2v2.8h-1.2v8.5h1.2v2.8h-1.2v8.5h1.2v2.8h-1.2v101.8h9.6v8.8h25.6v-8.8h.3v-9.8h3.2v-1.1h-3.2V229h3.2v-1.1h-3.2V222h3.2v-1.1h-3.2v-2.4h3.2v-1.1h-3.2V215h3.2v-1.1h-3.2v-2.4h3.2v-1.1h-3.2V208h3.2v-1.1h-3.2v-2.4h3.2v-1.1h-3.2V194h3.2v-1.1h-3.2v-2.4h3.2v-1.1h-3.2V187h3.2v-1.1h-3.2v-2.4h3.2v-1.1h-3.2V180h3.2v-1.1h-3.2v-2.4h3.2v-1.1h-3.2V173h3.2v-1.1h-3.2v-2.4h3.2v-1.1h-3.2v-5.9h3.2v-1.1h-3.2V159h3.2v-1h-3.2v-2.4h3.2v-1.1h-3.2v-2.4h3.2V151h-3.2v-2.4h3.2v-1.1h-3.2v-2.4h3.2V144h-3.2v-2.4h3.2v-1.1h-3.2v-2.4h3.2V137h-3.2v-2.4h3.2v-1.1h-3.2v-1.9h5.1v-8.5h-5.1v-2.3h5.5v-.9h-2.3v-.3zm-3.2 112.8h-.3v-1.1h.3v1.1zm0-3.4h-.3v-1.1h.3v1.1zm0-7h-.3v-1.1h.3v1.1zm0-3.5h-.3v-1.1h.3v1.1zm0-3.5h-.3v-1.1h.3v1.1zm0-3.5h-.3v-1.1h.3v1.1zm0-3.5h-.3v-1.1h.3v1.1zm0-3.5h-.3v-1.1h.3v1.1zm0-10.5h-.3v-1.1h.3v1.1zm0-3.5h-.3v-1.1h.3v1.1zm0-3.5h-.3v-1.1h.3v1.1zm0-3.4h-.3v-1.1h.3v1.1zm0-3.5h-.3V179h.3v1.1zm0-3.5h-.3v-1.1h.3v1.1zm0-3.5h-.3V172h.3v1.1zm0-3.5h-.3v-1.1h.3v1.1zm0-7h-.3v-1.1h.3v1.1zm0-3.5h-.3V158h.3v1.1zm0-3.5h-.3v-1.1h.3v1.1zm0-3.5h-.3V151h.3v1.1zm0-3.5h-.3v-1.1h.3v1.1zm0-3.5h-.3V144h.3v1.1zm0-3.5h-.3v-1.1h.3v1.1zm0-3.4h-.3V137h.3v1.2zm0-3.5h-.3v-1.1h.3v1.1zm0-14h-.3v-1.1h.3v1.1zm0-3.5h-.3V116h.3v1.2zm0-3.5h-.3v-1.1h.3v1.1zm0-3.5h-.3v-1.1h.3v1.1zm0-3.5h-.3v-1.1h.3v1.1zm0-3.5h-.3v-1.1h.3v1.1zm0-3.5h-.3v-1.1h.3v1.1zM337.5 83.1h-24.9v-3.9h-5.4v23.9h.1v215.2h30.2V209.8h2.3v-1h-2.3v-2h2.3v-1h-2.3v-2h2.3v-1h-2.3v-5h2.3v-1h-2.3v-2h2.3v-1h-2.3v-2h2.3v-1h-2.3v-2h2.3v-1h-2.3v-2h2.3v-1h-2.3v-8h2.3v-1h-2.3v-5h2.3v-1h-2.3v-2h2.3v-1h-2.3v-2h2.3v-1h-2.3v-2h2.3v-1h-2.3v-5h2.3v-1h-2.3v-2h2.3v-1h-2.3v-2h2.3v-1h-2.3v-2h2.3v-1h-2.3v-5h2.3v-1h-2.3v-2h2.3v-1h-2.3v-8h2.3v-1h-2.3v-2h2.3v-1h-2.3v-2h2.3v-1h-2.3v-2h2.3v-1h-2.3v-2h2.3v-1h-2.3v-2h2.3v-1h-2.3v-2h2.3v-1h-2.3v-8h2.3v-1h-2.3v-2h2.3v-1h-2.3v-2h2.3v-1h-2.3v-2h2.3v-1h-2.3v-2h2.3v-1h-2.3v-5.7zM311 198.6h-2.1v-1h2.1v1zm0-3.2h-2.1v-1h2.1v1zm0-3.2h-2.1v-1h2.1v1zm0-3.1h-2.1v-1h2.1v1zm0-3.2h-2.1v-1h2.1v1zm0-3.2h-2.1v-1h2.1v1zm0-3.2h-2.1v-1h2.1v1zm0-3.2h-2.1v-1h2.1v1zm0-3.1h-2.1v-1h2.1v1zm0-3.2h-2.1v-1h2.1v1zm0-3.2h-2.1v-1h2.1v1zm0-3.2h-2.1v-1h2.1v1zm0-3.2h-2.1v-1h2.1v1zm0-3.1h-2.1v-1h2.1v1zm0-3.2h-2.1v-1h2.1v1zm0-3.2h-2.1v-1h2.1v1zm0-3.2h-2.1v-1h2.1v1zm0-3.2h-2.1v-1h2.1v1zm0-3.1h-2.1v-1h2.1v1zm0-3.2h-2.1v-1h2.1v1zm0-3.2h-2.1v-1h2.1v1zm0-3.2h-2.1v-1h2.1v1zm0-3.2h-2.1v-1h2.1v1zm0-3.1h-2.1v-1h2.1v1zm0-3.2h-2.1v-1h2.1v1zm0-3.2h-2.1v-1h2.1v1zm0-3.2h-2.1v-1h2.1v1zm0-3.2h-2.1v-1h2.1v1zm0-3.1h-2.1v-1h2.1v1zm0-3.2h-2.1v-1h2.1v1zm0-3.2h-2.1v-1h2.1v1zm0-3.2h-2.1v-1h2.1v1zm0-3.2h-2.1v-1h2.1v1zm0-3.1h-2.1v-1h2.1v1zm0-3.2h-2.1v-1h2.1v1zm0-3.2h-2.1v-1h2.1v1zm0-3.2h-2.1V83h2.1v1.1zm0-3.2h-2.1v-1h2.1v1zM214.5 86.7h20.8v150.2h-20.8zM185.9 304.3h.6v7.5H211v-7.5h.7V55.5h-25.9v248.8zm23.2-240h1.5V72h-1.5v-7.7zm-2.4 0h1.5V72h-1.5v-7.7zm-2.5 0h1.5V72h-1.5v-7.7zm-2.4 0h1.5V72h-1.5v-7.7zm-2.4 0h1.5V72h-1.5v-7.7zm-2.5 0h1.5V72h-.7v.1h-.8v-7.8zm-2.4 0h1.5v7.9h-1.5v-7.9zm-2.4 0h1.5v7.9h-1.5v-7.9zm-2.5 0h1.5v7.8h-1.5v-7.8zm-2.4 0h1.5v7.9h-1.5v-7.9zM180.7 53.1h-3.2V27.8h3v-17h-20.4V0h-4.5v8.5h-2.3V0h-18.1v10.8h-3.4V29h1.7v2.6h-4.8v1.6h4.8v3h-4.8v1.6h4.8v3h-4.8v1.6h4.8v3h-4.8V47h4.8v3h-4.8v1.6h4.8v3h-4.8v1.6h4.8v3h-4.8v1.6h4.8v3h-4.8v.2h-3v-2.4h3.9v-1.1h-3.9v-2.4h3.9V57h-3.9v-2.8h-4v-9.7h-13.3v-1.7h-5.7v1.7h-.8v9.6H89.6v-1.5h-4.3v1.5h-2.5V62h1.5v2.8h-1.5v8.5h1.5v2.8h-1.5v8.5h1.5v2.8h-1.5V96h1.5v2.8h-1.5v101.8h43v-9.8h2.8v2.7h3.2v1h-3.2v2.9h3.2v1h-3.2v2.9h3.2v1h-3.2v2.9h3.2v1h-3.2v2.9h3.2v1h-3.2v3h3.2v1h-3.2v2.9h3.2v4.9h-3.2v2.9h3.2v4.9h-3.2v2.9h3.2v1h-3.2v2.9h3.2v1h-3.2v2.9h3.2v1h-3.2v2.9h3.2v1h-3.2v2.9h3.2v1h-3.2v2.9h3.2v4.9h-3.2v2.9h3.2v1h-3.2v2.9h3.2v1h-3.2v2.9h3.2v13h48.7v-9.6h.1V254h.1v-3.5h3V249h-3v-3h3v-1.6h-3v-3h3v-1.6h-3v-3h3v-1.6h-3v-3h3v-1.6h-3v-3h3V226h-3v-3h3v-1.6h-3v-3h3V217h-3v-3h3v-1.6h-3v-3h3v-1.6h-3v-3h3v-1.6h-3v-3h3v-1.6h-3v-3h3V194h-3v-11.8h3v-1.6h-3v-3h3V176h-3v-3h3v-1.6h-3v-3h3v-1.6h-3v-3h3v-1.6h-3v-3h3V158h-3v-3h3v-1.6h-3v-3h3v-1.6h-3v-3h3v-1.6h-3v-3h3v-1.6h-3v-3h3V135h-3v-3h3v-1.6h-3v-3h3v-1.5h-3v-11.8h3v-1.6h-3v-3h3v-1.6h-3v-3h3v-1.6h-3v-3h3v-1.6h-3v-3h3v-1.6h-3v-3h3V90h-3v-3h3v-1.6h-3v-3h3v-1.6h-3v-3h3v-1.6h-3v-3h3v-1.6h-3v-3h3V67h-3v-3h3v-1.6h-3v-3h3V58h-3v-4.9zm-54.9 137.8h-.1v-1.1h.1v1.1zm0-3.5h-.1v-1.1h.1v1.1zm0-7h-.1v-1.1h.1v1.1zm0-3.5h-.1v-1.1h.1v1.1zm0-3.5h-.1v-1.1h.1v1.1zm0-3.5h-.1v-1.1h.1v1.1zm0-3.5h-.1v-1.1h.1v1.1zm0-3.5h-.1v-1.1h.1v1.1zm0-10.5h-.1v-1.1h.1v1.1zm0-3.5h-.1v-1.1h.1v1.1zm0-3.4h-.1v-1.1h.1v1.1zm0-3.5h-.1v-1.1h.1v1.1zm0-3.5h-.1v-1.1h.1v1.1zm0-3.5h-.1v-1.1h.1v1.1zm0-3.5h-.1v-1.1h.1v1.1zm0-3.5h-.1v-1.1h.1v1.1zm0-7h-.1v-1.1h.1v1.1zm0-3.5h-.1v-1.1h.1v1.1zm0-3.5h-.1v-1.1h.1v1.1zm0-3.5h-.1v-1.1h.1v1.1zm0-3.5h-.1v-1.1h.1v1.1zm0-3.4h-.1v-1.1h.1v1.1zm0-3.5h-.1V99h.1v1.1zm0-3.5h-.1v-1.1h.1v1.1zm0-3.5h-.1V92h.1v1.1zm0-14h-.1V78h.1v1.1zm0-3.5h-.1v-1.1h.1v1.1zm0-3.5h-.1V71h.1v1.1zm0-3.5h-.1v-1.1h.1v1.1zm0-3.5h-.1V64h.1v1.1zm0-3.5h-.1v-1.1h.1v1.1zm0-3.5h-.1V57h.1v1.1zm0 7h3.9V65h3.8v3h-3.8v-.5h-3.9v-2.4zm0 10.5h3.9v-1.1h-3.9v-2.4h3.9V71h-3.9v-2.4h3v1h4.8v3h-4.8v1.6h4.8v3h-4.8v.8h-3v-2.4zm0 3.6h6.6v-.5h1.1v3H132v-.2h-6.2v-2.3zm7.8 4.1v3h-1.5v-3h1.5zm-1.8 107.3h-2.1v-.9h-3.9v-2.4h3.9v-1.1h-3.9v-5.9h3.9v-1.1h-3.9v-2.4h3.9v-1.1h-3.9v-2.4h3.9v-1.1h-3.9v-2.4h3.9v-1.1h-3.9v-2.4h3.9v-1.1h-3.9v-2.4h3.9v-1.1h-3.9v-9.3h3.9v-1.1h-3.9V149h3.9v-1.1h-3.9v-2.4h3.9v-1.1h-3.9V142h3.9v-1.1h-3.9v-2.4h3.9v-1.1h-3.9V135h3.9v-1.1h-3.9v-2.4h3.9v-1.1h-3.9V128h3.9v-1.1h-3.9V121h3.9v-1.1h-3.9v-2.3h3.9v-1.1h-3.9V114h3.9v-1.1h-3.9v-2.4h3.9v-1.1h-3.9V107h3.9v-1.1h-3.9v-2.4h3.9v-1.1h-3.9V100h3.9v-1.1h-3.9v-2.4h3.9v-1.1h-3.9V93h3.9v-1.1h-3.9V90h6.2v-2.2h1.5v2.9h-1.7v99.9zm5 77.2H132v-.2h4.9l-.1.2zM23.5 54H7.1v13.7H2.6v10.2h2.8v10.2H2.6V96h2.8v10.2H2.6v1h-.1v2.5H0v1.6h2.5v2.3H0v1.6h2.5v2.3H0v1.6h2.5v2.3H0v1.5h2.5v2.3H0v1.5h2.5v2.3H0v1.5h2.5v2.3H0v1.5h2.5v2.3H0v1.4h2.5v2.4H0v1.5h2.5v2.4H0v1.5h2.5v2.4H0v1.4h2.5v2.4H0v1.4h2.5v2.4H0v1.4h2.5v2.4H0v1.4h2.5v2.4H0v1.4h2.5v2.4H0v1.4h2.5v2.5H0v1.4h2.5v2.5H0v1.4h2.5v2.5H0v1.3h2.5v2.5H0v1.3h2.5v2.5H0v1.3h2.5v2.5H0v1.3h2.5v2.6H0v1.3h2.5v2.5H0v1.3h2.5v2.6H0v1.3h2.5v2.6H0v1.3h2.5v2.6H0v1.2h2.5v4.1h.1v2.8h62.3V106.3h-2.8V96h2.8v-7.9h-2.8V77.9h2.8V67.7H23.5V54zm9.3 138.2h25.5v1.1H32.8v-1.1zm0 3.4h25.5v1.1H32.8v-1.1zm0 3.5h25.5v1.1H32.8v-1.1zm-5.5-7h4.1v1.1h-4.1v-1.1zm0 3.5h4.1v1.1h-4.1v-1.1zm0 3.5h4.1v1.1h-4.1v-1.1zM8.8 94.1H5.4v-3.7h3.4v3.7zM9 74.9H5.6v-3.8H9v3.8zm11.9-7.6h-3.4v-3.8h3.4v3.8zm0-6.8h-3.4v-3.8h3.4v3.8zM556.9 153.9h-4.3v-1.5h-.4v-10.5h-5v10.5h-7.9v-4.9h-2.5V139h-.7v13.4h-1.3l-2.9 2.8v-36.6h-6.4v-9h-12l-6 6.7v.1h-3.1v42.2h-10.7v-.6h1v-2h4v-3.3h-4V151h4v-3.3h-4V146h4v-3.3h-4V141h4v-3.3h-4V136h4v-3.3h-4V131h4v-3.3h-4V126h4v-3.3h-4V121h4v-3.3h-4V116h4v-3.3h-4V111h4v-3.3h-4V106h4v-3.3h-4v-1h-1v-2.5h3.1V98h-3.1v-7.1h3.1v-1.2h-3.1v1h-.2v-1h.1v-7.1h3.1v-1.2h-3.1v1h-.1v-1h.1v-7.1h3.1v-1.2h-3.1v-4.6h-.1v-1.2h-9.2l-6.7-8.6H473V47.4h-21v1.2h6v1.2h-6v8.3h-16.6v10h-4v4.6h-3.1v1.2h3.1V81h-3.1v1.3h3.1v7.1h6.8v1h-6.9v-1h-3v1.2h3.1v7.1h-3.1v1.2h3.1v2.7h3.1v60h-3.1v2.7h-3.1v1.2h3.1v7.1h-3.1v1.2h3.1v7.1h6.8v1h-6.9v-1h-3v1.2h3.1v7.1h-3.1v1.2h3.1v2.3h2.9v58.6h-3v1.2h-1.5v3.3h1.5v1.7h-1.5v3.3h1.5v1.7h-1.5v3.3h1.5v1.7h-1.5v3.3h1.5v1.7h-1.5v3.3h1.5v1.7h-1.5v3.3h1.5v1.7h-1.5v3.3h1.5v1.7h-1.5v3.3h1.5v1.7h-1.5v3.3h1.5v1.7h-1.5v3.3h1.5v1.7h-1.5v3.3h1.5v28.6h61.5V330h.9v-26H526v-8.3h36.2V163.9H557l-.1-10zm-118.8 36.6h-6.7v-1h6.7v1zm0-16.6h-6.7v-1h6.7v1zm0-8.4h-6.5v-1h6.5v1zm0-66.7h-6.7v-1h6.7v1zm-4.2-29h2.5v2h-2.5v-2zm4.2 12.4h-6.7v-1h6.7v1zm0-8.4h-6.5v-1h6.5v1zm3.2-10.3h-3.4v-2.7h3.4v2.7zm16.5-4.7h-3.4V56h3.4v2.8zm0-4.2h-3.4v-2.7h3.4v2.7zm13.3 1h-3.4V53h3.4v2.6zm0-4.1h-3.4v-2.7h3.4v2.7zm46 68.7h-3v-2.8h3v2.8zm0-5.3h-3v-3.5h3v3.5zm6.1 5.3h-3v-2.8h3v2.8zm0-5.3h-3v-3.5h3v3.5zm35.5 170.4h-4.5v-2.9h4.5v2.9z"/></svg>