<svg xmlns="http://www.w3.org/2000/svg" viewBox="0 0 687 404.2" enable-background="new 0 0 687 404.2"><style type="text/css">.st0{fill:#348898;}</style><title>bg7</title><path class="st0" d="M129.9 27.7h-12.6V8.4h-11.6V.2h-3v8.2h-3.4v13.3H90v6h-5.7v24.1h-11V19.7H73V0h-2.7v19.7h-7.9v39.2h-17v-25h-5.1v25H24.7v38.7h-1.3V58.5h-6.3V46.3h-5.5v-8H5.9v20.2H1.2v39.1H0v212.5l162.2-.1V102.6h-32.3zM673.5 115.2V106H669V95.2h-6.1V106h-2.6v9.2h-1.1v13.7h-6.7v-18.8h-3.8v18.8h-2.2v33.5h-6.7v-21.2h-4.3v-26.1h2.3V98.9h-2.3v-11h-3v-5.1h-8v5.1h-4v-16h-6.6v16h-5.3v74.5h-8.8v27.4h-9.4v-33.9H561v33.9h-3.5v30.5H531v-68.9h-10.9v-15.1H515v-18.7h-19.5v33.8h-1.3V97.1h-2.4V76.6H486v20.5h-1.7V71.2h-8.5v13.4h-1.7v12.5h-10.6v4.4h-5.8V89.2h-3.1V81h-4.1v8.2h-3v11.6h-2.4v23h2.4v25H442V166h-.7v-34.8h2.9v-32h-2.9V83h-3.8V71.6h-5.1V83h-3.9v17.2h-7.2V94h-13.1V76.6h-2.1V57.9h-10.6V94h-2.2V65.4h-7.2V94h-2.9v47.4h-1.7v-18.8h-24.2v25.5h-1.6v.5h-4.4v-7.1h-23.6v24.3h-7.6v-19.6H313V92.7h-4.2V81.3h-5.3v11.4h-3.2v-3.6h-6.5v3.6h-2.3v7.9h-1.9v11.6h1.9v18.7H288v15.3l.2 173.6 49.2-.1v84.1l349.6.4v-289z"/></svg>