<svg xmlns="http://www.w3.org/2000/svg" width="1480" height="755" viewBox="0 0 1480 755"><defs><style>.cls-1 { fill: #fff; fill-rule: evenodd; }</style></defs><path id="bg8" class="cls-1" d="M194.59 434.5a1.817 1.817 0 1 0-1.817 1.816 1.817 1.817 0 0 0 1.817-1.816zm20.76 22.824a1.817 1.817 0 1 0-1.816 1.816 1.816 1.816 0 0 0 1.817-1.814zm41.523-43.573a1.817 1.817 0 1 0-1.817 1.817 1.817 1.817 0 0 0 1.817-1.814zm-43.6-41.5a1.817 1.817 0 1 0-1.817 1.816 1.817 1.817 0 0 0 1.82-1.81zM130.23 478.076a1.817 1.817 0 1 0-1.816 1.815 1.817 1.817 0 0 0 1.817-1.815zm43.6 41.5a1.817 1.817 0 1 0-1.816 1.815 1.817 1.817 0 0 0 1.815-1.817zm62.284 2.074a1.817 1.817 0 1 0-1.817 1.815 1.817 1.817 0 0 0 1.815-1.818zm43.6 83a1.817 1.817 0 1 0-1.817 1.814 1.817 1.817 0 0 0 1.813-1.82zm85.12-83a1.817 1.817 0 1 0-1.817 1.815 1.817 1.817 0 0 0 1.813-1.818zm103.8-126.57a1.817 1.817 0 1 0-1.816 1.815 1.817 1.817 0 0 0 1.817-1.816zm-62.282-43.573a1.817 1.817 0 1 0-1.817 1.815 1.817 1.817 0 0 0 1.817-1.815zm126.642-62.247a1.817 1.817 0 1 0-1.817 1.816 1.817 1.817 0 0 0 1.817-1.816zm22.837 83a1.817 1.817 0 1 0-1.816 1.815 1.816 1.816 0 0 0 1.817-1.82zm22.838 20.75a1.817 1.817 0 1 0-1.817 1.814 1.816 1.816 0 0 0 1.818-1.82zm20.76 22.822a1.817 1.817 0 1 0-1.816 1.816 1.816 1.816 0 0 0 1.817-1.82zM724 355.657a1.817 1.817 0 1 0-1.817 1.815 1.816 1.816 0 0 0 1.817-1.815zm-41.522 64.32a1.817 1.817 0 1 0-1.817 1.817 1.816 1.816 0 0 0 1.813-1.816zm64.36 83a1.817 1.817 0 1 0-1.817 1.817 1.816 1.816 0 0 0 1.812-1.82zm20.76-64.32a1.817 1.817 0 1 0-1.816 1.816 1.815 1.815 0 0 0 1.81-1.82zm43.6-124.493a1.817 1.817 0 1 0-1.816 1.816 1.816 1.816 0 0 0 1.81-1.82zm83.044 80.92a1.817 1.817 0 1 0-1.816 1.816 1.816 1.816 0 0 0 1.81-1.82zm-39.446 41.5a1.817 1.817 0 1 0-1.816 1.816 1.816 1.816 0 0 0 1.81-1.823zM626.418 480.15a1.817 1.817 0 1 0-1.816 1.815 1.816 1.816 0 0 0 1.816-1.815zm-64.36 103.744a1.817 1.817 0 1 0-1.815 1.816 1.816 1.816 0 0 0 1.816-1.816zm-85.12 62.247a1.817 1.817 0 1 0-1.815 1.816 1.816 1.816 0 0 0 1.816-1.815zm-22.836 41.5a1.817 1.817 0 1 0-1.816 1.817 1.816 1.816 0 0 0 1.814-1.82zm41.522 2.076a1.817 1.817 0 1 0-1.816 1.816 1.816 1.816 0 0 0 1.816-1.82zm-103.8-85.07a1.817 1.817 0 1 0-1.824 1.812 1.816 1.816 0 0 0 1.82-1.815zm83.044-105.82a1.817 1.817 0 1 0-1.816 1.816 1.816 1.816 0 0 0 1.81-1.818zm20.76 39.424a1.817 1.817 0 1 0-1.815 1.815 1.816 1.816 0 0 0 1.81-1.818zm-34.692-134.87a1.817 1.817 0 1 0-1.817 1.815 1.815 1.815 0 0 0 1.816-1.816zm-44.2 39.422a1.817 1.817 0 1 0-1.816 1.815 1.816 1.816 0 0 0 1.812-1.817zm-103.8 22.824a1.817 1.817 0 1 0-1.816 1.815 1.816 1.816 0 0 0 1.807-1.814zm465.047 67.347a1.817 1.817 0 1 0-1.817 1.815 1.817 1.817 0 0 0 1.808-1.815zm20.752 22.827a1.817 1.817 0 1 0-1.817 1.815 1.817 1.817 0 0 0 1.817-1.815zm41.522-43.573a1.817 1.817 0 1 0-1.817 1.815 1.817 1.817 0 0 0 1.817-1.818zm-43.6-41.5a1.817 1.817 0 1 0-1.817 1.816 1.817 1.817 0 0 0 1.82-1.817zm-83.042 105.818a1.817 1.817 0 1 0-1.817 1.816 1.817 1.817 0 0 0 1.817-1.815zm43.6 41.5a1.817 1.817 0 1 0-1.817 1.816 1.816 1.816 0 0 0 1.815-1.817zm62.283 2.075a1.817 1.817 0 1 0-1.817 1.815 1.817 1.817 0 0 0 1.82-1.817zm43.6 83a1.817 1.817 0 1 0-1.817 1.816 1.817 1.817 0 0 0 1.814-1.823zm85.12-82.995a1.817 1.817 0 1 0-1.817 1.815 1.817 1.817 0 0 0 1.814-1.822zM1052.02 493.55a1.815 1.815 0 1 0-1.82 1.816 1.815 1.815 0 0 0 1.82-1.816zm-62.284-43.573a1.817 1.817 0 1 0-1.817 1.816 1.817 1.817 0 0 0 1.816-1.816zm126.644-62.246a1.82 1.82 0 1 0-1.82 1.816 1.82 1.82 0 0 0 1.82-1.815zm22.83 83a1.815 1.815 0 1 0-1.81 1.817 1.813 1.813 0 0 0 1.81-1.82zm22.84 20.75a1.815 1.815 0 1 0-1.81 1.816 1.813 1.813 0 0 0 1.81-1.82zm20.76 22.824a1.815 1.815 0 1 0-1.81 1.815 1.813 1.813 0 0 0 1.81-1.82zm124.57-60.172a1.815 1.815 0 1 0-1.82 1.816 1.815 1.815 0 0 0 1.82-1.82zm-41.52 64.322a1.82 1.82 0 1 0-1.82 1.815 1.82 1.82 0 0 0 1.82-1.82zm64.36 83a1.82 1.82 0 1 0-1.82 1.815 1.82 1.82 0 0 0 1.82-1.826zm20.76-64.32a1.82 1.82 0 1 0-1.82 1.814 1.82 1.82 0 0 0 1.82-1.825zm43.6-124.495a1.82 1.82 0 1 0-1.82 1.815 1.82 1.82 0 0 0 1.82-1.826zm83.04 80.92a1.815 1.815 0 1 0-1.82 1.816 1.815 1.815 0 0 0 1.82-1.826zm-39.45 41.5a1.815 1.815 0 1 0-1.81 1.815 1.813 1.813 0 0 0 1.81-1.827zm-228.37 43.56a1.815 1.815 0 1 0-1.81 1.816 1.813 1.813 0 0 0 1.81-1.816zm-64.36 103.744a1.815 1.815 0 1 0-1.81 1.816 1.813 1.813 0 0 0 1.81-1.816zm-85.12 62.247a1.815 1.815 0 1 0-1.81 1.817 1.813 1.813 0 0 0 1.81-1.816zm-22.83 41.5a1.82 1.82 0 1 0-1.82 1.816 1.82 1.82 0 0 0 1.82-1.817zm41.52 2.076a1.82 1.82 0 1 0-1.82 1.815 1.82 1.82 0 0 0 1.82-1.816zM975.2 703.113a1.817 1.817 0 1 0-1.817 1.816 1.816 1.816 0 0 0 1.817-1.817zm83.047-105.82a1.82 1.82 0 1 0-1.82 1.817 1.82 1.82 0 0 0 1.823-1.816zm20.76 39.424a1.82 1.82 0 1 0-1.82 1.816 1.82 1.82 0 0 0 1.823-1.816zM1044.32 501.85a1.815 1.815 0 1 0-1.82 1.815 1.815 1.815 0 0 0 1.82-1.815zm-44.2 39.422a1.82 1.82 0 1 0-1.82 1.816 1.82 1.82 0 0 0 1.82-1.816zM896.31 564.1a1.817 1.817 0 1 0-1.815 1.816 1.815 1.815 0 0 0 1.816-1.816zM788.355 195.285a1.817 1.817 0 1 0-1.816 1.816 1.816 1.816 0 0 0 1.816-1.815zm20.76 22.824a1.817 1.817 0 1 0-1.815 1.815 1.815 1.815 0 0 0 1.815-1.816zm41.523-43.574a1.817 1.817 0 1 0-1.816 1.816 1.816 1.816 0 0 0 1.817-1.816zm-43.6-41.5a1.817 1.817 0 1 0-1.817 1.815 1.816 1.816 0 0 0 1.82-1.81zM724 238.858a1.817 1.817 0 1 0-1.817 1.815 1.816 1.816 0 0 0 1.817-1.815zm43.6 41.5a1.817 1.817 0 1 0-1.816 1.815 1.816 1.816 0 0 0 1.81-1.817zm62.283 2.074a1.817 1.817 0 1 0-1.816 1.816 1.816 1.816 0 0 0 1.81-1.818zm43.6 83a1.817 1.817 0 1 0-1.816 1.815 1.816 1.816 0 0 0 1.807-1.82zm85.12-83a1.817 1.817 0 1 0-1.816 1.816 1.816 1.816 0 0 0 1.807-1.818zm103.797-126.57a1.815 1.815 0 1 0-1.82 1.816 1.815 1.815 0 0 0 1.82-1.815zm-62.28-43.572a1.82 1.82 0 1 0-1.82 1.815 1.82 1.82 0 0 0 1.82-1.815zm126.64-62.247a1.815 1.815 0 1 0-1.82 1.816 1.82 1.82 0 0 0 1.82-1.817zm22.84 83a1.82 1.82 0 1 0-1.82 1.815 1.82 1.82 0 0 0 1.82-1.82zm22.83 20.75a1.815 1.815 0 1 0-1.81 1.814 1.813 1.813 0 0 0 1.81-1.82zm20.76 22.822a1.815 1.815 0 1 0-1.81 1.816 1.813 1.813 0 0 0 1.81-1.82zm124.57-60.17a1.815 1.815 0 1 0-1.82 1.814 1.815 1.815 0 0 0 1.82-1.82zm-41.52 64.32a1.82 1.82 0 1 0-1.82 1.816 1.82 1.82 0 0 0 1.82-1.82zm64.36 83a1.82 1.82 0 1 0-1.82 1.815 1.82 1.82 0 0 0 1.82-1.823zm20.76-64.322a1.82 1.82 0 1 0-1.82 1.816 1.82 1.82 0 0 0 1.82-1.825zm43.6-124.493a1.82 1.82 0 1 0-1.82 1.816 1.82 1.82 0 0 0 1.82-1.824zm83.04 80.913a1.815 1.815 0 1 0-1.82 1.815 1.815 1.815 0 0 0 1.82-1.815zm-39.45 41.5a1.815 1.815 0 1 0-1.81 1.816 1.813 1.813 0 0 0 1.81-1.82zm-228.37 43.573a1.815 1.815 0 1 0-1.81 1.815 1.813 1.813 0 0 0 1.81-1.817zm-64.36 103.744a1.815 1.815 0 1 0-1.81 1.816 1.813 1.813 0 0 0 1.81-1.82zm-85.12 62.247a1.815 1.815 0 1 0-1.81 1.815 1.813 1.813 0 0 0 1.81-1.818zm-22.83 41.5a1.82 1.82 0 1 0-1.82 1.816 1.82 1.82 0 0 0 1.82-1.822zm41.52 2.075a1.815 1.815 0 1 0-1.82 1.816 1.815 1.815 0 0 0 1.82-1.818zm-103.806-85.07a1.817 1.817 0 1 0-1.817 1.815 1.817 1.817 0 0 0 1.817-1.82zm83.046-105.82a1.82 1.82 0 1 0-1.82 1.816 1.82 1.82 0 0 0 1.82-1.82zm20.76 39.424a1.815 1.815 0 1 0-1.82 1.815 1.815 1.815 0 0 0 1.82-1.82zm-34.69-134.874a1.815 1.815 0 1 0-1.82 1.816 1.814 1.814 0 0 0 1.82-1.816zm-44.2 39.423a1.82 1.82 0 1 0-1.82 1.815 1.82 1.82 0 0 0 1.82-1.815zM906.692 226.41a1.817 1.817 0 1 0-1.817 1.814 1.817 1.817 0 0 0 1.817-1.815zm-830.7-44.352a1.817 1.817 0 1 0-1.817 1.815 1.816 1.816 0 0 0 1.818-1.815zm20.76 22.824a1.817 1.817 0 1 0-1.816 1.815 1.816 1.816 0 0 0 1.818-1.815zm41.524-43.573a1.817 1.817 0 1 0-1.817 1.815 1.817 1.817 0 0 0 1.816-1.816zm-43.6-41.5a1.817 1.817 0 1 0-1.817 1.815 1.816 1.816 0 0 0 1.817-1.814zM11.634 225.63a1.817 1.817 0 1 0-1.817 1.816 1.816 1.816 0 0 0 1.817-1.815zm43.6 41.5a1.817 1.817 0 1 0-1.817 1.817 1.816 1.816 0 0 0 1.815-1.82zm62.283 2.076a1.817 1.817 0 1 0-1.817 1.816 1.817 1.817 0 0 0 1.815-1.822zm43.6 83a1.817 1.817 0 1 0-1.817 1.816 1.817 1.817 0 0 0 1.813-1.822zm85.12-82.995a1.817 1.817 0 1 0-1.817 1.817 1.817 1.817 0 0 0 1.813-1.827zm103.8-126.575a1.817 1.817 0 1 0-1.816 1.816 1.817 1.817 0 0 0 1.818-1.815zm-62.282-43.572a1.817 1.817 0 1 0-1.817 1.815 1.817 1.817 0 0 0 1.817-1.815zM414.4 36.816a1.817 1.817 0 1 0-1.817 1.816 1.817 1.817 0 0 0 1.817-1.816zm22.837 83a1.817 1.817 0 1 0-1.817 1.816 1.817 1.817 0 0 0 1.814-1.82zm22.837 20.75a1.817 1.817 0 1 0-1.817 1.815 1.817 1.817 0 0 0 1.814-1.82zm20.76 22.823a1.817 1.817 0 1 0-1.816 1.815 1.817 1.817 0 0 0 1.814-1.82zM605.4 103.21a1.817 1.817 0 1 0-1.817 1.816 1.817 1.817 0 0 0 1.817-1.816zm-41.522 64.322a1.817 1.817 0 1 0-1.817 1.815 1.817 1.817 0 0 0 1.816-1.816zm64.36 83a1.817 1.817 0 1 0-1.818 1.816 1.816 1.816 0 0 0 1.815-1.82zM649 186.208a1.817 1.817 0 1 0-1.817 1.815 1.816 1.816 0 0 0 1.817-1.815zm43.6-124.493a1.817 1.817 0 1 0-1.817 1.816 1.816 1.816 0 0 0 1.81-1.815zm83.044 80.92a1.817 1.817 0 1 0-1.817 1.816 1.816 1.816 0 0 0 1.81-1.815zm-39.446 41.5a1.817 1.817 0 1 0-1.816 1.815 1.816 1.816 0 0 0 1.81-1.817zm-228.377 43.57a1.817 1.817 0 1 0-1.815 1.816 1.816 1.816 0 0 0 1.816-1.815zM443.463 331.45a1.817 1.817 0 1 0-1.816 1.815 1.816 1.816 0 0 0 1.816-1.815zm-85.12 62.25a1.817 1.817 0 1 0-1.817 1.816 1.816 1.816 0 0 0 1.817-1.816zm-22.837 41.5a1.817 1.817 0 1 0-1.817 1.815 1.816 1.816 0 0 0 1.817-1.82zm41.522 2.075a1.817 1.817 0 1 0-1.817 1.815 1.816 1.816 0 0 0 1.817-1.82zM273.222 352.2a1.817 1.817 0 1 0-1.817 1.816 1.816 1.816 0 0 0 1.817-1.816zm83.044-105.82a1.817 1.817 0 1 0-1.817 1.817 1.816 1.816 0 0 0 1.816-1.818zm20.76 39.42a1.817 1.817 0 1 0-1.816 1.816 1.816 1.816 0 0 0 1.817-1.816zM342.34 150.935a1.817 1.817 0 1 0-1.818 1.815 1.817 1.817 0 0 0 1.817-1.815zm-44.2 39.422a1.817 1.817 0 1 0-1.817 1.816 1.816 1.816 0 0 0 1.812-1.816zm-103.8 22.824a1.817 1.817 0 1 0-1.826 1.82 1.816 1.816 0 0 0 1.816-1.82z" transform="translate(-8 -35)"/></svg>