<svg xmlns="http://www.w3.org/2000/svg" viewBox="0 0 800 170.84"><defs><style>.cls-1{fill:#81d1df;}.cls-2{fill:#cbebf3;}.cls-3{fill:#3ab2bc;}</style></defs><title>bg2</title><path class="cls-1" d="M0 35l19.17-23s14-12.32 20.66-12 25 10.5 25 10.5 1.33 10.68 16.7 8.09 53.87 6.13 53.87 6.13L151.6 32l21.88 4 37.68-3 36.59-8.54 20.57 2.5 19.45 5 30.38 1 30.38 5 25.52 10 25.52 2 37.68 3 28 9 12.16 17 34 18 89.94 51H0v-113z"/><path class="cls-2" d="M530.86 65s29.33-7.33 39.67-7.67 36.67 11.33 54 8.33 14.33-13.67 48.33-10.67 54 9.33 64.33 8 23.33 19 23.33 19l29.33 32.33v43.67H478.54s-3.35-70 23-76 28.66-16.32 28.66-16.32"/><path class="cls-3" d="M623.93 131.46c-14.93-4-13.57-10.67-25.45-17.68s-26.8-17.65-45.12-25.65-14.94-16.67-21.05-18.67-14.22 1.57-19-2.67c-10.18-9-27.82 1-27.82 1S464 81.09 458.34 83.46c-31.9 13.67-16.29 15.33-43.43 18.67s-19.68 6-34.61 12-20.36 8.67-41.4 14-33.25 4-48.86 8.67-42.75 22.67-60.4 32l285.7 2s79.4-19.33 105.19-26 18.33-9.34 3.4-13.34z"/><path class="cls-1" d="M800 64.46s-3.5-10-18.5-23.5-29 13.5-29 13.5-2 9-14 11.5-29.5 25.5-45 23S654 112.46 649 114s-19 8-5.5 9.5 8.5 9 8.5 9-17.5 9.5 10.5 11.5S800 158 800 158V64.46z"/></svg>