<svg xmlns="http://www.w3.org/2000/svg" viewBox="0 0 802.8 126.18"><defs><style>.cls-1{fill:#65c8d0;}.cls-2{fill:#b0e0e7;}</style></defs><title>bg3</title><path class="cls-1" d="M802.8 28.35c-16.34-3.33-41.52-8.8-46.81-11.84-8-4.58-14.61-1.83-17.27 2.75s-12.62 11.92-18.59 8.25S688.92 0 678.29 0s-30.55 32.09-40.51 33-49.16 14.68-59.13 14.68-38.52 2.75-42.51-2.75-9.3 0-13.28 3.67-33.86 2.75-42.5 3.66-27.23-6.42-38.52-1.83-59.11 31.17-67.75 28.43S322.95 43.1 307 44.93s-24.57-12.84-49.81-11-59.77 7.33-73.06 4.58-90.32.92-102.94-7.33S34 14.68 24.73 15.59c-4.45.44-15 3.18-24.73 5.93v104.66l802.8-.33v-97.5z"/><path class="cls-2" d="M386.89 33.27S397 29 399.42 26.44s6.55-7.69 10.82-7.83 6.41-2 12.53 4.7 6 8.83 8.12 9.26 6.27-1.28 8.26-6 3.28-10.54 7.12-11.82 5.41-1.14 9.26-2.85 4.13-4 8.83.85.56 5.43 6.64 8.13 13.67-1.14 17.8 5.13 8.83 29.48 19.22 31.9 11.68 52.11 11.68 52.11H341.32s32.75-76.75 45.28-76.46"/></svg>