<svg xmlns="http://www.w3.org/2000/svg" viewBox="0 0 802.81 173.66"><defs><style>.cls-1{fill:#3ab2bc;}.cls-2{fill:#007b86;}</style></defs><title>bg4</title><path class="cls-1" d="M0 156.89h802.81v16.77H0z"/><path class="cls-2" d="M451.75 102.62v-11.1h10.74s5.63-2.28 8.51-7.3c0 0-17.94.15-21.43-5.78V68.29h10.34s5.32-2 7.6-6.23c0 0-17.78-.46-20.22-5.78V49h10s4-.61 6.53-6.08c0 0-21.06-.27-29.61-13.67l-.29-6.35h1.21v-1.74h-1.24l-.19-4.27h1.43v-1.72h-1.51l-.19-4.27h1.7V9.18h-1.78L432.93 0h-.61l-.42 9.16h-1.77v1.72h1.7l-.19 4.27h-1.51v1.72h1.47l-.19 4.27h-1.28v1.72h1.2l-.28 6.35c-8.55 13.4-29.61 13.67-29.61 13.67C404 48.35 408 49 408 49h10v7.33c-2.43 5.32-20.22 5.78-20.22 5.78 2.26 4.22 7.58 6.22 7.58 6.22h10.34v10.12c-3.5 5.93-21.43 5.78-21.43 5.78 2.89 5 8.51 7.3 8.51 7.3h10.72v11.1c-4.26 6.79-21.5 5.57-21.5 5.57-.41 2.74 6.83 7.71 6.83 7.71h9.57v13.19h-9.58v33.64h67.57v-33.66h-9.58V115.9h9.57s7.23-5 6.82-7.71c.03 0-17.2 1.22-21.45-5.57zm-31 26.6h-7.46v-13.68h7.45v13.68zm10.43 0h-7.45v-13.68h7.45v13.68zm10.44 0h-7.44v-13.68h7.45v13.68zm10.44 0h-7.46v-13.68h7.4v13.68h.06z"/></svg>