<svg xmlns="http://www.w3.org/2000/svg" viewBox="0 0 802.8 136.66"><defs><style>.cls-1{fill:#3ab2bc;}</style></defs><title>bg5</title><path class="cls-1" d="M802.81 136.66V34.22c-10.29.84-21.57 1.32-25.56-.12-8-2.87-29.22-3.35-41.18-2.87s-37.86-1-47.82-5.74-17.27-3.35-24.57.48-29.23-1.44-39.19 0-16.6 10.53-29.22 10.53-49.82-11.48-62.43-7.66-40.51 17.7-49.15 16.75-27.23-10-41.18-7.66-25.91 17.69-32.55 15.77-13.95-6.7-13.95-6.7-8 7.17-19.26 1.91-21.25-10-36.53-8.61-27.9 6.22-32.54 1.91-13.28-4.78-21.25-4.78-27.9-13.4-43.83-13.4-33.21 8.61-39.19 7.66-19.93-12-26.57-18.18-15.95-4.29-21.93-3.35-8.63-8.61-25.24-10S99.78 10.69 93.14 12.6s-14.61 0-17.93 1.91S71.89 23.56 66.6 25s-19.26.48-23.91-1.91-10-4.78-13.28-.48-13.31 9.61-17.29 6.69C10.6 28.22 5.6 26.87 0 25.6v111.06h802.8z"/></svg>