<svg xmlns="http://www.w3.org/2000/svg" viewBox="0 0 802.8 169.25"><defs><style>.cls-1{fill:#50a8ac;}.cls-2{fill:#65c8d0;}.cls-3{fill:#81d1df;}</style></defs><title>bg6</title><path class="cls-1" d="M805.8 168.25v-87c-3.48 1.24-7.32 2.09-9.62.71-4-2.39-10 2.87-15.94 2.87s-11.48-11.63-19.61-13.66-8.95 7-17.58 7.49-27.89-.48-35.86-3.83-17.27-4.31-29.19-4.31-23.1-4.27-27.23-5.74c-8.68-3.1-10-4.78-25.9 5.74-8.45 5.58-84.22-5.86-161.07 19.75-26.29 8.76-71.45 5.59-92.87-7S312 67.65 302 63.82s-17.93-3.35-25.9-2.87-23.21-1.95-32.51-6.22-17.27-2.87-23.91 1-30.55 11-39.18 12-35.87-1-35.87-1a13.66 13.66 0 0 0-6.63 2.83c-2.67 2.44-16 4.79-22.6 2.44S92.16 55.68 84.85 49.47s-19.26-6.7-21.25-1-2.66 8.61-10 12.92-29.85 7.21-29.85 7.21-15-.45-20.75-9.21v108.86h802.8z" transform="translate(-3 1)"/><path class="cls-2" d="M3 168.25V89.78a26.21 26.21 0 0 1 3 .46c10.6 2.4 25.87 7.68 37.83 6.76s30.57-9.54 44.52-9.05 46.51-8.57 59.79-8.55 27.25-10 39.21-15.28 20.5-35 38.43-35 14.67 20.07 28.68 20.71 27.8-32.9 43-32.9c13.72 0 40.93 27.47 53.33 36.82s22.91.84 37.52 4.25 29.09 25.1 43.7 20.33 28.66-8 38.62-6.1 21.55 7 33.5 7S534 78.77 547.3 84a103 103 0 0 0 36.52 6.73c9.3 0 37.19 1 53.78 8.18s63.07 14.41 73 8.2 20.64-27.25 29.27-27.73 18.6-1.9 21.93-7.16 15.31-18.17 33.89-6.67c3.37 2.09 6.77 4.11 10.07 6v96.59H3z" transform="translate(-3 1)"/><path class="cls-3" d="M805.8 168.25V89.78a26.22 26.22 0 0 0-3 .46c-10.6 2.4-25.87 7.68-37.8 6.76s-30.57-9.54-44.52-9.05-46.51-8.57-59.79-8.55-27.25-10-39.21-15.28S565.95-1.63 551.94-1c-6.77.31-19.4 22.6-32.53 32.52-14 10.6-9.15-14.23-43.7 23.38-10.51 11.43-28.94 10.31-43.55 13.67s-37.19 1-51.81-3.78-28.56-1.89-38.52 0-25.21 14.38-37.17 14.39-29.88-.41-43.16 4.82a103 103 0 0 1-36.5 6.78c-9.3 0-37.19 1-53.78 8.18s-63.07 14.41-73 8.2-20.7-27.24-29.34-27.71-18.6-1.9-21.88-7.16-15.36-18.17-33.93-6.67C9.69 67.71 6.3 69.74 3 71.65v96.59h802.8z" transform="translate(-3 1)"/></svg>