<svg xmlns="http://www.w3.org/2000/svg" viewBox="0 0 648 253.3" enable-background="new 0 0 648 253.3"><style type="text/css">.st0{fill:#CFF7FF;}</style><title>bg7</title><path class="st0" d="M0 248.8S197.2 162 213.2 144.6s23.3-22.7 31.3-26.7c8.4-4.4 16.2-9.8 23.3-16 6-5.3 12-20.7 35.3-28s24-7.3 36-13.3c12-6 20-8.7 30.7-20.7s12-12.7 24-23.3S432.6 0 437.9 0s2.7 15.3 28 19.3 26 11.3 27.3 14.7 1.3 25.3 6.7 25.3c5.3 0 25.7 12.7 32 17.3 6.3 4.7 24 21.3 34 24 10 2.7 56.7 103.3 72.7 112s6.7 40.7 6.7 40.7L0 248.8"/></svg>