<svg xmlns="http://www.w3.org/2000/svg" viewBox="0 0 577.94 99.61"><title>cloud-parallax</title><path d="M151.18 21.11h.35c1.37-5.19 6.77-9.07 13.24-9.07a15.57 15.57 0 0 1 4.44.65 22.14 22.14 0 0 1 16.33-6.81c7.47 0 14 3.38 17.68 8.45a16.34 16.34 0 0 1 3.1-.3c7.78 0 14.09 5.41 14.09 12.08a10.81 10.81 0 0 1-2.24 6.52s-.62 1.1-2.93 1.1h-67.52a3.74 3.74 0 0 1-3.05-1.1 6.48 6.48 0 0 1-1.79-4.41c0-3.92 3.72-7.11 8.3-7.11zM375.13 13.94h.23C376.25 10.56 379.78 8 384 8a10.17 10.17 0 0 1 2.9.42A14.46 14.46 0 0 1 397.58 4a14.18 14.18 0 0 1 11.55 5.52 10.64 10.64 0 0 1 2-.2c5.08 0 9.2 3.53 9.2 7.89a7.06 7.06 0 0 1-1.46 4.26 2.09 2.09 0 0 1-1.92.72h-44.09a2.44 2.44 0 0 1-2-.72 4.24 4.24 0 0 1-1.17-2.88c.01-2.59 2.44-4.65 5.44-4.65zM261.79 83.92h.54c2.13-8.07 10.55-14.12 20.67-14.12a24.29 24.29 0 0 1 6.93 1c5.9-6.45 15.07-10.6 25.43-10.6 11.64 0 21.85 5.27 27.56 13.18a25.44 25.44 0 0 1 4.83-.47c12.12 0 22 8.43 22 18.82a16.85 16.85 0 0 1-3.49 10.16s-1 1.72-4.57 1.72H256.38c-3.5 0-4.76-1.72-4.76-1.72a10.12 10.12 0 0 1-2.79-6.89c0-6.11 5.8-11.08 12.96-11.08zM470.79 53.92h.54c2.13-8.07 10.55-14.12 20.67-14.12a24.29 24.29 0 0 1 6.93 1c5.9-6.45 15.07-10.6 25.43-10.6 11.64 0 21.85 5.27 27.56 13.18a25.44 25.44 0 0 1 4.83-.47c12.12 0 22 8.43 22 18.82a16.85 16.85 0 0 1-3.49 10.16s-1 1.72-4.57 1.72H465.38c-3.5 0-4.76-1.72-4.76-1.72a10.12 10.12 0 0 1-2.79-6.89c0-6.11 5.8-11.08 12.96-11.08zM7.6 56.54h.29c1.13-4.27 5.58-7.47 10.9-7.47a12.83 12.83 0 0 1 3.66.53A18.22 18.22 0 0 1 35.9 44a17.87 17.87 0 0 1 14.55 7 13.46 13.46 0 0 1 2.55-.28c6.4 0 11.6 4.45 11.6 9.94A8.9 8.9 0 0 1 62.75 66s-.51.91-2.41.91H4.75A3.08 3.08 0 0 1 2.24 66a5.34 5.34 0 0 1-1.48-3.6c0-3.23 3.07-5.86 6.84-5.86zM147.74 77.76h.2c.81-3.07 4-5.36 7.82-5.36a9.2 9.2 0 0 1 2.63.38 13.07 13.07 0 0 1 9.65-4 12.82 12.82 0 0 1 10.44 5 9.66 9.66 0 0 1 1.83-.18c4.59 0 8.32 3.19 8.32 7.13a6.39 6.39 0 0 1-1.32 3.85 1.89 1.89 0 0 1-1.73.65h-39.89a2.21 2.21 0 0 1-1.8-.65 3.83 3.83 0 0 1-1.06-2.6c0-2.34 2.17-4.22 4.91-4.22z" transform="translate(-.76 -4)" fill="#fff"/></svg>