<svg xmlns="http://www.w3.org/2000/svg" viewBox="0 0 262.92 839.63"><defs><clipPath id="a" transform="translate(-465.29 -87.37)"><path fill="none" d="M508.19 565.46h28.79v42.98h-28.79z"/></clipPath><clipPath id="d" transform="translate(-465.29 -87.37)"><path fill="none" d="M508 549.33h52.25V651H508z"/></clipPath><radialGradient id="b" cx="43.81" cy="502.2" r="43.31" gradientUnits="userSpaceOnUse"><stop offset="0" stop-color="#fff"/><stop offset=".09" stop-color="#fff" stop-opacity=".97"/><stop offset=".48" stop-color="#fff" stop-opacity=".53"/><stop offset=".84" stop-color="#fff" stop-opacity=".15"/><stop offset="1" stop-color="#fff" stop-opacity="0"/></radialGradient><radialGradient id="c" cx="43.81" cy="502.2" r="43.81" gradientUnits="userSpaceOnUse"><stop offset=".21" stop-color="#fff" stop-opacity=".8"/><stop offset=".39" stop-color="#fff" stop-opacity=".63"/><stop offset=".81" stop-color="#fff" stop-opacity=".25"/><stop offset="1" stop-color="#fff" stop-opacity=".1"/></radialGradient></defs><title>ilustra-capa2</title><path d="M236.92 138.63c-1.67-18.53-10.48-50.37-26.31-69.42-20.46-24.64-35.69-36.09-61.64-52.15C123.47 1.29 89.08 1 57.21.06c-4.8-.14-9.65 0-14.33 0v441.95l2.37.19c99.11 8.42 138.67-65.15 164.92-97.45 26.92-33.12 31.4-154.65 26.75-206.12z" fill="#cadaeb"/><path d="M236.5 175.43s16.59 28.8 18.1 39.57c2 14.24-2.43 43.89-8.6 56.88-3.57 7.51-20 26.6-20 26.6z" fill="#8d9faf"/><path d="M711.29 359.25a86 86 0 0 0 5.48-17.64l-1.75-.79-16.53 11.7-4.88 30.64c4.64-5.54 14.94-18.16 17.68-23.91z" transform="translate(-465.29 -87.37)" fill="#afc4d2"/><path d="M235.48 187.41l2.71 8.77 15.21 14.06c-4.17-12.72-16.9-34.82-16.9-34.82z" fill="#7c8c99"/><path d="M94.81 95.05C89.42 59.7 68.36 44.81 42.88 40.58v212.8l31.92 10.81h81.43c38.14-24.48 60.06-62.79 60.06-62.79C75.96 186.63 101.04 135.96 94.81 95.05z" fill="#a7bdd1"/><path d="M210.45 69.31c-20.47-24.68-35.74-36.09-61.65-52.14-12.09-7.54-26.3-11.35-41.26-13.41l61.57 36.41s78.6 51.86 58.1 160.46c0 0-12.46 43-6.57 89.81 0 0 2.33 45.35-60.25 85.52l.26 27.86c22.31-20.36 37.25-44 49.36-58.93 26.91-33.12 31.39-154.66 26.7-206.16-1.63-18.53-10.44-50.37-26.26-69.42z" fill="#e5f0f9"/><path d="M249.9 260.75c4-14.6 6.24-34.77 4.7-45.76-.4-2.86-1.87-7-3.8-11.51.04 13.5-.09 36.55-.9 57.27z" fill="#3f4d56"/><path d="M42.88 233.77v98.52l81.94-1.3s52.35-22.29 86.47-78.13l4.29-50.47s-80.25 24.64-172.7 31.38z" fill="#fdd1b1"/><path d="M188.04 738.3s-13.44-49.87-28-65.54c.6.05-2.12-11.29-21.45-53.29 0 0-45-15.91-95.83-16.2v107.24c1.63-2.48 3.4-5 5.33-7.55 0 0 23.5.76 38.81 60.58 3.58 14 47.73-2.79 98.11 23.33 0 0 3.89 5.09 4.56-4.24-.05 0 4.47-18-1.53-44.33z" fill="#cadaeb"/><path d="M183.94 724.53c-5.08-16-14.25-41.38-23.94-51.77.6.05-2.12-11.29-21.45-53.29 0 0-39.83-14.08-86.84-16l-9 29.53v8.72c15.72.27 96.68 1.31 97.94-6.23 0 0 6 50.45 41.72 90.79z" fill="#a7bdd1"/><path d="M173.85 271.92c-.46 9.91-20.12 18.2-43.92 18.51s-42.72-7.47-42.22-17.38 20.13-18.19 43.93-18.5 42.67 7.47 42.21 17.37z" fill="#fff"/><path d="M596.89 341.91a100.6 100.6 0 0 0-14.09 1.17c-8.28 4.07-14 11.27-14.2 19.27a17.8 17.8 0 0 0 5.78 13.46 91.93 91.93 0 0 0 20.84 2 95.9 95.9 0 0 0 20.62-2.43c4.69-4.05 7.65-9.36 7.81-15.08.2-7.37-4.28-13.71-11.29-17.37a96.8 96.8 0 0 0-15.47-1.02z" transform="translate(-465.29 -87.37)" fill="#3a342d"/><circle cx="596.26" cy="359.75" r="9.29" transform="translate(-277.96 836.04) rotate(-85.14)" fill="#26221e"/><path d="M162.13 229.63c-1.83.7-3.8 1.4-5.86 2.13l-3.79 1.35-4 1.32-4.12 1.36-4.25 1.31c-2.85.9-5.77 1.74-8.69 2.57s-5.84 1.65-8.73 2.44-5.74 1.49-8.49 2.21-5.43 1.34-8 1.91-4.94 1.15-7.16 1.63c-4.44 1-8.15 1.72-10.74 2.24l-4.06.77 1.27 6.63 4.2-.87c2.63-.6 6.37-1.51 10.82-2.68 2.23-.58 4.64-1.23 7.18-1.95s5.2-1.53 8-2.33 5.59-1.72 8.46-2.66 5.79-1.87 8.68-2.92 5.78-2.05 8.6-3.14l4.2-1.59 4.06-1.63 3.93-1.58 3.73-1.6c2.42-1 4.71-2 6.79-3q2.24-1 4.17-2z" fill="#3a342d"/><path d="M508 699.36v22.7c33.74-.77 72.67-2.14 94.66-4.51 1.54-.17 3.43-1.79 4.68-3q-1.65-3.66-3.5-7.68a307.21 307.21 0 0 0-38.3-10z" transform="translate(-465.29 -87.37)" fill="#e5f0f9"/><circle cx="589" cy="352.43" r="4.36" transform="translate(-277.32 822.11) rotate(-85.14)" fill="#fff"/><path d="M214.46 202.09s-7.12 2.19-19.55 5.43l-.83 52.71 6.45 6.65c3.33-4.5 6.56-9.27 9.64-14.32z" fill="#ebf0f1"/><path d="M134.95 610.22c-.63-1.95 2.34-6.42 7.93-8.23 6.13-2 11.57-1.28 11.78 1.83.14 2-3.38 5-9 6.82s-10.08 1.53-10.71-.42z" fill="#959596"/><path d="M178.96 688.63l-4.09-12.59-15.09 4.91 1.09 3.36s8.84 7.5 18.09 4.32z"/><path fill="#cdcccf" d="M174.715 676.16l3.595-1.168 2.672 8.226-3.594 1.168z"/><path d="M624.22 764.87l18.42-6.34-23.16-67a1.46 1.46 0 0 0 0-.23c-.68-1.94-5.35-2.1-10.44-.34s-8.37 5.7-7.7 7.64a1.46 1.46 0 0 0 .1.21z" transform="translate(-465.29 -87.37)" fill="#cdcccf"/><path fill="#4d4c4d" d="M143.15 609.16l1.88-1.38 1.86-.7 2.57-.31 9.33 28.77-1.65 1.37-1.86.78-2.14.22-9.99-28.75z"/><path fill="#232323" d="M144.67 606.72l1.82-.69 11.08 32.21-1.82.69-11.08-32.21zM134.25 612.45l1.83-.69 11.08 32.21-1.83.69-11.08-32.21z"/><path d="M601 697.73l18 51 9.9-3.37-19.24-54.56-.66.2c-5.09 1.73-8.57 5.09-8 6.59a.9.9 0 0 0 0 .14z" transform="translate(-465.29 -87.37)" opacity=".1"/><path d="M612.42 731.47l12.26 34.35 10.56-2.29-13.77-37.73-.65.21c-5.1 1.71-8.8 4.37-8.44 5.35a.42.42 0 0 0 .04.11z" transform="translate(-465.29 -87.37)" opacity=".2"/><path fill="#232323" d="M154.08 605.4l1.85-.65 10.19 32.51-1.85.64-10.19-32.5z"/><path d="M644.38 754.29s2.16 4.53 2 6.13a5.3 5.3 0 0 1-1.92 2.63c-4.71 3.2-22 5.72-22 5.72l-1.46-4.23s7.54-1.21 9.28-2.91a7.63 7.63 0 0 0 .85-2.5z" transform="translate(-465.29 -87.37)" fill="#232323"/><path d="M621 764.54l1.37 4.22s7.21-1.05 13.59-2.66l-2.7-7.76-2.14.79a7.63 7.63 0 0 1-.85 2.5c-1.69 1.7-9.27 2.91-9.27 2.91z" transform="translate(-465.29 -87.37)" opacity=".2"/><path d="M682.12 598.6a40.34 40.34 0 0 0-8.46-24.71 59 59 0 0 0 1.46-11.16c1.17-34.22-42-65.6-81.93-63.34-38.71 2.19-80.34-10.19-80.34 12.72 0 4.05 2.12 9.86 5.81 16.67q-5.25-.16-10.49-.22v142.76q7.76-.76 15.74-1.81c8-1.06 15.9-1.94 23.62-2.74a24.86 24.86 0 0 0-2.25 7.4c-4 27.67 24.14 25.78 67.33 35.67 14.56 3.33 31 4.06 42.33-1.67 13.26-6.7 19.45-45.75 20.19-56.33.58-8.37.85-16-.45-22 4.84-8.06 7.46-18.25 7.44-31.24z" transform="translate(-465.29 -87.37)" fill="#fdd1b1"/><path fill="#212326" d="M212.55 224.52l-8.42 3.8-.64 7.59 8.36-3.16.7-8.23z"/><path d="M117.01 489.63s29.78-15.51 59.74-10.76l30.71-18.67s-62.52-88.93-90.45 29.43z" fill="#fbb88a"/><path d="M673.66 573.89a59 59 0 0 0 1.46-11.16c.33-9.81-3-19.38-8.81-28 1.3 9.85-.14 31.26-38.81 26.17 0 0 40.19 13 38.26 21.79s-7.25 9-8.75 14 1.91 20.69 2.75 26 13.73 27.67 5.25 29-12.4-.56-18.59-3.79 12.68 12.78 19.58 21.35c4.79 5.94-3.84 25.12-5.41 33.73 9.4-12.89 13.92-42.19 14.55-51.13.58-8.37.85-16-.45-22 4.84-8.08 7.45-18.27 7.43-31.26a40.34 40.34 0 0 0-8.46-24.7zM673.66 573.89a59 59 0 0 0 1.46-11.16c.33-9.81-3-19.38-8.81-28 1.3 9.85-.14 31.26-38.81 26.17 0 0 40.19 13 38.26 21.79s-7.25 9-8.75 14 1.91 20.69 2.75 26 13.73 27.67 5.25 29-12.4-.56-18.59-3.79 12.68 12.78 19.58 21.35c4.79 5.94-3.84 25.12-5.41 33.73 9.4-12.89 13.92-42.19 14.55-51.13.58-8.37.85-16-.45-22 4.84-8.08 7.45-18.27 7.43-31.26a40.34 40.34 0 0 0-8.46-24.7z" transform="translate(-465.29 -87.37)" fill="#fbb88a"/><path d="M124.85 328.28l-82 1.53v2.28l81.94-1.3s52.35-22.29 86.47-78.13l-1.35-.68c-38.32 55.77-85.06 76.3-85.06 76.3z" fill="#96b2cc"/><path d="M148.66 434.17l31-16.5-44.88-10.04-91.9 5.21v206.61l47.78-9.82c17.93-5.67 25.25-35.53 26.05-48.54.84-13.59-8.19-20.48-8.19-20.48l13.89 1.76c-9.5-19.5-4.75-30.74-4.75-30.74 1-14.5 7.88-26.37 14.5-33 5-5 36-14.5 36-14.5-2-1.5-24-3.5-24-3.5l30-16c-12.5 2.54-25.5-10.46-25.5-10.46z" fill="#cadaeb"/><path d="M53.71 599.12c-3.22 1.12-7.3 4.28-10.84 5.74v14.58l44.84-9.17c-15.06-3.94-28.32-7.95-34-11.15z" fill="#8d9faf"/><path d="M215.58 202.19l-1.89.57-3.75 49.23 1.31.75v-.07z" fill="#788e9e"/><path d="M620.08 497.3c23.67-5.12 72.26-10 104.14 25.48 7.73 8.6-37.11 8.95-42.36 23.19-2.05 5.57-36.91-6-32.86 11-39.55 1.35-54.64 12.52-54.64 12.52l-17.14-27.43 6.5-42.56 22.43 1.53a122.73 122.73 0 0 1 13.93-3.73z" transform="translate(-465.29 -87.37)" fill="#cadaeb"/><path d="M182.01 407.53s-2.62-14.45-13-.93c-6 7.79-11.19 53.64-10.14 65.57l4.07-6.89s7.2-60.91 19.07-57.75z" fill="#8d9faf"/><path d="M205.9 459c4.38-12.16 38.91-22.51 51.49-25.22.52.54 1 1.07 1.54 1.63 7.73 8.6-43.65 17.62-50 30.08-.83 1.63-.61-.32-.86-2.32z" fill="#65747f"/><path d="M182.37 406.36s-3.31-14.84-14.49-2c-7.67 8.85-15.74 56.87-14.69 68.8l9-1.66s7.59-75.2 20.18-65.14z" fill="#a7bdd1"/><path d="M219.6 410.81s-2.62-14.45-13-.93c-6 7.79-13.1 25.41-12.06 37.33l6.06 1.63s7.11-41.21 19-38.03z" fill="#8d9faf"/><path d="M219.6 410.81s-3.73-16.64-14.13-3.12c-6 7.79-13.09 29.94-13.85 52.47h8.34s5.94-62.2 19.64-49.35z" fill="#a7bdd1"/><path d="M42.88 243.35c83.15-5.73 148.41-22.64 172-33.19l.68-8s-80.25 24.64-172.7 31.38v9.79z" opacity=".1"/><path d="M537.21 318.4l1.26 51.69s-.22 20.32 22.21 22.22l75.61-4.8L638 386l17.72-21.61 4.81-16.72.62-52.67a912.28 912.28 0 0 1-123.95 23.23v.17z" transform="translate(-465.29 -87.37)" fill="#74c158" opacity=".8"/><path d="M193.85 208.19l.47.48-.82 51.7-4.92 15.78-18.28 22.36-76.5 5.12c-15.39-2.81-18.67-17.41-18.67-17.41l-2.25-55.52-1 .11v.17l1.26 51.69s-.22 20.32 22.21 22.22l75.61-4.8 1.75-1.46 17.72-21.61 4.81-16.72.62-52.67z" fill="#438a40" opacity=".9"/><path d="M150.76 218.16l-6.09 32 14.68-7.23-17 59.06 8.92-.57 21.93-74.63-19.61 10 9.05-21.16q-5.7 1.25-11.88 2.53z" fill="#fff" opacity=".6"/><path d="M631.13 115.29l-12 67.44-51 26.83 9.42 103.08 5.77-.91-8.45-97.55 46.76-24.51a5.89 5.89 0 0 0 3.08-4.24l11.47-66.62c-1.66-1.15-3.33-2.36-5.05-3.52z" transform="translate(-465.29 -87.37)" fill="#8d9faf"/><path fill="#f5fbfe" d="M42.88 399.72v100.26l50.5-66.94-50.5-33.32z"/><path d="M627.29 112.71l-11.71 68.13-51 27 10 105.31 5.59-.9-8.85-99.72 46.72-24.63a5.91 5.91 0 0 0 3.07-4.28l11.16-67.48c-1.6-1.14-3.27-2.29-4.98-3.43z" transform="translate(-465.29 -87.37)" fill="#e5f0f9"/><path fill="#65747f" d="M42.88 512.54l.03-.01 57.58 10.01 21.73-29.06-3.41-82.82-75.93 3.99v97.89z"/><path fill="#cadaeb" d="M42.88 412.8v96.46l.07-.02 57.54 10.86 21.73-30.27 2.11-77.65-81.45.62z"/><path fill="#a7bdd1" d="M42.71 398.6v75.52l38.04-50.42-38.04-25.1z"/><path fill="#282d30" d="M60.63 450.38v-7.07l6.39-1.37-6.39 8.44zM42.71 449.93v1h2.32c2.87 0 5.75 0 8.62.07h.55l.22-.48 1.84-4 4.37-2-4.92 1.11h-.13l-.14.19-2.33 3.28c-2.71.26-5.42.45-8.13.62-.75.14-1.51.18-2.27.21zM59.37 452.04l-6.55 1.45-.23.05-.11.29-1.38 3.8c-2.79.3-5.59.49-8.38.63v.83c3 0 6 0 9 .12h.62l.13-.62.92-4.26 6-2.3zM50.1 464.33l-4.13.37h-.21l-.13.24-2.07 3.88-.85.09v.72c.39 0 .78.07 1.17.13h.28l.16-.31 2.1-3.94 3.67-1.23z"/><path d="M582.95 599c.06-.87.14-1.73.25-2.58 0-.35.1-.68.14-1 .07-.49.13-1 .22-1.47s.16-.88.25-1.32.14-.73.22-1.1.23-1 .35-1.51c.07-.27.13-.55.2-.82.15-.56.31-1.11.47-1.66l.17-.57c.19-.6.38-1.19.59-1.78l.12-.35q.34-1 .71-1.88l.06-.16q.4-1 .82-2l4-7.35-4 3.7-21.74 32.72 8.75 21.95.64 1.6-1.46-4.69a6.28 6.28 0 0 0 .52.63c-.25-.9-.42-1.38-.42-1.38l13.89 1.76c-9.5-19.45-4.75-30.74-4.75-30.74z" transform="translate(-465.29 -87.37)" fill="#65747f"/><path fill="#e5f0f9" d="M42.88 480.23l8.8 8.08 41.7-55.27-20.11.57-30.56 40.51.17 6.11z"/><path fill="#8d9faf" d="M64.21 445.75l5.31 4.92.31.29-.12.55-1.46 6.82-.56-1.79 4.15 5.06-.1.13-5.99-2.63-1.16-.5.6-1.3 2.97-6.31.2.84-4.92-5.31.77-.77z"/><path fill="#a7bdd1" d="M95.39 430.83l2.05 1.36-54.73 73.36v-5.34l52.68-69.38z"/><path fill="#8d9faf" d="M42.88 509.46l56.39 10.64 1.23-1.79-57.53-10.96-.09-.89v3z"/><path d="M592.15 572.67a31.66 31.66 0 0 1 10-7.14c-3-46.63 11.4-54.53 11.4-54.53l-13.18-11.23c-10 14.1-10.59 43-10.59 43h-7.49v16.83l8-.11a98.29 98.29 0 0 0 1.86 13.18z" transform="translate(-465.29 -87.37)" fill="#8d9faf"/><path d="M148.25 474.39l7.52-55.59-5.07-5-15.49 2.83-1.42 7.25-5.08 13.92-1.5 16.83.58 3.33h-8.08v9.2l1.49 2.39h6.51l1.81 13.08c1.19-.82 6.88-5.19 18.73-8.24z" fill="#cadaeb"/><path d="M594.18 570.59c.39-.34.82-.69 1.28-1a80.13 80.13 0 0 1-1.59-13h-8.28v-10.5h8.08c-3.63-25.57 15.49-54.34 27.41-69.42-22.56 20.59-27.64 50-27.64 50a137.77 137.77 0 0 0-1.52 18.21h-7.28v12.41h7.67a117.13 117.13 0 0 0 1.87 13.3z" transform="translate(-465.29 -87.37)" fill="#e5f0f9"/><path d="M54.8 290.63q-6.1-.07-11.91.4v151h-1.05l1.53.12c57.94 4.92 96-16.71 122.5-43.2-6.85-51.63-49.79-107.66-111.07-108.32z" fill="#3b454c"/><path d="M42.88 456.63c50.89-4.21 95.9-9.63 115-47.08 0-.09.07-.18.11-.27l-115.11 8.07v39.28z" fill="#1a1e21" opacity=".25"/><path d="M526.61 390.76a126.5 126.5 0 0 0-18.44.38v138.32h.48c43.65 3.71 75.61-7 100.11-24.53 2.29-48.48-37.68-112-82.15-114.17z" transform="translate(-465.29 -87.37)" fill="#cadaeb"/><rect x="533.17" y="460.9" width="8.68" height="37.2" rx="3.93" ry="3.93" transform="translate(-455.41 -98.22) rotate(1.17)"/><path d="M508.17 391.15v5.36a94.51 94.51 0 0 1 51.25 6.57c-10.22-7.23-21.37-11.76-32.81-12.32a126.45 126.45 0 0 0-18.44.39z" transform="translate(-465.29 -87.37)" fill="#e5f0f9"/><path d="M508.84 460.45h-.67v37.2h.67a3.94 3.94 0 0 0 3.93-3.93v-29.34a3.94 3.94 0 0 0-3.93-3.93z" transform="translate(-465.29 -87.37)"/><path d="M671.19 546.37l1.72 4.84c-3 1.08.3 4 1.13 2.37.08-.15.16-.3.25-.45a46.28 46.28 0 0 0-2.47-8.14 9.78 9.78 0 0 0-.63 1.38z" transform="translate(-465.29 -87.37)" fill="#fbb88a"/><circle cx="124.33" cy="463.71" r="2.26" fill="#3f4d56"/><path d="M77.2 532.63c-9.57.78-22.84-3.37-34.33-8v6.6l70.52 16.18c-2.05-12.97-36.19-14.78-36.19-14.78z" fill="#e5f0f9"/><path fill="#fff" d="M110.74 495.03l-13.77 16.75-46.3-9.23-1.3-11.55 3.01 9.48 43.98 9.11 14.38-14.56z"/><g clip-path="url(#a)"><path d="M520.28 584.85L509 602.07a5.91 5.91 0 0 1-.08-.62v-4.9a2.19 2.19 0 0 1 .37-1.15c1.73-2.45 3.49-4.88 5.25-7.3a2.09 2.09 0 0 1 .6-.61c1.65-.93 3.31-1.83 5-2.75z" transform="translate(-465.29 -87.37)" fill="#fff"/><path d="M508.53 606.46A15.58 15.58 0 1 1 524.35 591a15.61 15.61 0 0 1-15.82 15.46zm-.69-4.46h.16v-5.9a1.52 1.52 0 0 0-.34-.77q-2.55-3.56-5.12-7.11a1.59 1.59 0 0 0-.4-.48c-1.77-1-3.55-2-5.32-3l-.11.13zm12.43-17.16l-.13-.11c-1.66.91-3.32 1.82-5 2.75a2.09 2.09 0 0 0-.6.61c-1.76 2.43-3.52 4.85-5.25 7.3a2.19 2.19 0 0 0-.37 1.15v4.9a5.91 5.91 0 0 0 .08.62zm-25.47 8.4a13.75 13.75 0 0 0 4.77 8.2c1-1.36 1.91-2.63 2.81-3.93a.77.77 0 0 0 0-.68q-1.36-2.17-2.79-4.3a.84.84 0 0 0-.67-.34c-1.37.32-2.71.69-4.11 1.06zm23.87-8.76H498.3c1.48.83 2.79 1.57 4.1 2.28a1.83 1.83 0 0 0 .83.17h10.51a1.23 1.23 0 0 0 .54 0c1.43-.8 2.84-1.58 4.4-2.44zm-13.08-1.81h5.33a.67.67 0 0 0 .51-.32c.53-1.5 1-3 1.55-4.57a14.3 14.3 0 0 0-9 .08zm16.58 11.13c-1.52-.37-3-.74-4.48-1.07a.74.74 0 0 0-.63.24q-1.27 1.86-2.45 3.77a.68.68 0 0 0 0 .61c1 1.37 2 2.72 3 4.07 2.08-1.42 4.39-5.27 4.58-7.62zm-13.66 1a6.91 6.91 0 0 0 .53-1 6.47 6.47 0 0 1 1.24-2.61c.38-.4.6-1.18 1-1.27.95-.2.87-1 1.33-1.61a23.44 23.44 0 0 1-8.24-.25 4 4 0 0 0 .15.5 5.26 5.26 0 0 0 1.27 1.51 15.38 15.38 0 0 1 2.1 2.79l-.52.25zm.88 9.92a13.71 13.71 0 0 0 6.77-2.2l-2.82-3.86zm-8.39-2.23a14 14 0 0 0 6.49 2.19l-3.83-5.89zm12.24-19.88h6.56a14 14 0 0 0-5.18-4.17zm-10.87-4.1a13.87 13.87 0 0 0-4.94 4.11h6.31zm19.28 7.49l-3.33 5.11 4.21 1a13.24 13.24 0 0 0-.88-6.11zm-26.09.39h-.33l-.78 5.18 3.82-1z" transform="translate(-465.29 -87.37)" fill="#3b454c"/><path d="M507.84 602l-11.16-17.16.11-.13c1.78 1 3.55 2 5.32 3a1.59 1.59 0 0 1 .4.48q2.57 3.55 5.12 7.11a1.52 1.52 0 0 1 .34.77v5.9zM494.81 593.25c1.4-.37 2.74-.74 4.09-1.05a.84.84 0 0 1 .67.34q1.44 2.13 2.79 4.3a.77.77 0 0 1 0 .68c-.89 1.3-1.83 2.57-2.81 3.93a13.75 13.75 0 0 1-4.74-8.2zM518.68 584.49c-1.56.86-3 1.64-4.4 2.4a1.23 1.23 0 0 1-.54 0h-10.51a1.83 1.83 0 0 1-.83-.17c-1.32-.71-2.62-1.45-4.1-2.28h20.38zM505.6 582.67l-1.6-4.82a14.3 14.3 0 0 1 9-.08c-.53 1.56-1 3.07-1.55 4.57a.67.67 0 0 1-.51.32c-1.76.02-3.52.01-5.34.01zM522.19 593.8c-.17 2.35-2.5 6.17-4.61 7.61-1-1.35-2-2.7-3-4.07a.68.68 0 0 1 0-.61q1.19-1.91 2.45-3.77a.74.74 0 0 1 .63-.24c1.53.34 3.01.71 4.53 1.08zM508.53 594.79l-1.14-1.67.52-.25a15.38 15.38 0 0 0-2.1-2.79 5.26 5.26 0 0 1-1.27-1.51 4 4 0 0 1-.15-.5 23.44 23.44 0 0 0 8.24.25c-.45.58-.38 1.41-1.33 1.61-.4.08-.62.87-1 1.27a6.47 6.47 0 0 0-1.24 2.61 6.91 6.91 0 0 1-.53.98zM509.41 604.7l4-6.06 2.82 3.86a13.71 13.71 0 0 1-6.82 2.2zM501 602.49l2.66-3.69 3.83 5.89a14 14 0 0 1-6.49-2.2zM513.24 582.62l1.38-4.17a14 14 0 0 1 5.18 4.17h-6.56zM502.37 578.52l1.37 4.11h-6.31a13.87 13.87 0 0 1 4.94-4.11zM521.65 586a13.24 13.24 0 0 1 .87 6.12l-4.21-1z" transform="translate(-465.29 -87.37)" fill="#fff"/><path d="M30.28 498.97l2.71 4.18-3.82 1 .78-5.18h.33z" fill="#fff"/></g><circle cx="43.81" cy="502.2" r="43.31" stroke-miterlimit="10" fill="url(#b)" stroke="url(#c)" clip-path="url(#d)"/><path d="M90.66 609.63" fill="#2d353a"/><path d="M50.88 597.71c.83.51 1.65 1 2.46 1.41 0 0-.88-.49-2.46-1.41z" fill="#a7bdd1"/><path d="M508.17 680.76c3.43 1.78 6.18 3.3 8 4.32a75.75 75.75 0 0 1-8-5.75v1.43z" transform="translate(-465.29 -87.37)" fill="#a7bdd1"/><path d="M42.88 607.2c6.85-4.79 11.17-8.24 11.17-8.24-3.83 1.83-7.56 3.43-11.17 4.82v3.41z" fill="#a7bdd1"/><path d="M550.24 726.29l-5.87 12.54-22 5-6.83 47.17 2.14.59 6.84-46.08 20-3.61a2.33 2.33 0 0 0 1.61-1.35l6.49-14.55z" transform="translate(-465.29 -87.37)" fill="#8d9faf"/><path d="M547.74 726.3L543 736.85l-22 5-7.38 48.47 2.3.73 7.13-46.56 20.18-4.59a2.34 2.34 0 0 0 1.61-1.37l5.39-12.29h-2.5z" transform="translate(-465.29 -87.37)" fill="#e5f0f9"/><path d="M103.33 738.54l-16.48 25 4.1 14.42-31.62 44.67 2.38 11.13 92.61-2.29 21.3 8.07 35-5.31 3.09-4.34 3.86 3.7 45.41-5.89-11.27-13.26-44.3 3.07-30.79-42.57 40.61-43.15 4.82-11-3.84-19.41-29 5.2-2.27 21.48s-42.44-2.43-83.61 10.48zM103.33 738.54l-16.48 25 4.1 14.42-31.62 44.67 2.38 11.13 92.61-2.29 21.3 8.07 35-5.31 3.09-4.34 3.86 3.7 45.41-5.89-11.27-13.26-44.3 3.07-30.79-42.57 40.61-43.15 4.82-11-3.84-19.41-29 5.2-2.27 21.48s-42.44-2.43-83.61 10.48z" fill="#3b454c"/><path fill="#cadaeb" d="M176.6 774.94l31.31-33.27-.41-6.22-17.86-.56-26.77 9.99-5.05 18.39 7.6 47.37 46.88-1.69-35.7-34.01z"/><path d="M215.71 808.57s-4.82-6.14-7.19-6.94c-5-1.68-32.24-4.69-37.31 1.54-24.41 30-71.43 6.6-106.69 12.05l-5.19 7.41 2.38 11.13 92.61-2.29s15.64 7.47 21.3 8.07c8.79.93 35-5.31 35-5.31l3.09-4.34 3.86 3.7 45.41-5.89-11.27-13.26s-16.64-13.41-23.37-13.35c-3.68.03-12.63 7.48-12.63 7.48z" fill="#8d9faf"/><path opacity=".2" d="M86.85 763.54l4.11 14.42-31.63 44.63 2.36 11.17 27.5-.68 18.02-35.18-15.03-42.44-5.33 8.08z"/><path d="M640.63 842.92s.32-.16.89-.38 1.38-.52 2.36-.8a44.82 44.82 0 0 1 7.3-1.47 46.19 46.19 0 0 1 7.45-.34c1 0 1.89.12 2.5.2s1 .15 1 .15-.32.16-.89.38-1.38.51-2.36.8a46 46 0 0 1-7.3 1.48 45 45 0 0 1-7.45.34c-1 0-1.89-.12-2.5-.2s-1-.16-1-.16zM646 866.26c-1 .06-1.94.15-2.92.27a44.82 44.82 0 0 0-7.3 1.47c-1 .28-1.8.58-2.36.8s-.89.38-.89.38.35.08 1 .15 1.47.17 2.5.2a45 45 0 0 0 7.45-.34c1.65-.21 3.3-.49 4.77-.82zM645.93 848.72a44.82 44.82 0 0 0-7.3 1.47c-1 .28-1.8.58-2.36.8s-.89.38-.89.38.35.08 1 .15 1.47.17 2.5.2a45 45 0 0 0 7.45-.34 46 46 0 0 0 7.29-1.48l1.34-1.43c-.45 0-1-.08-1.53-.09a46.2 46.2 0 0 0-7.5.34zM636.79 858.33c-1 .28-1.8.58-2.36.8s-.89.38-.89.38.35.08 1 .15 1.47.17 2.5.2a45 45 0 0 0 7.45-.34h.07l2.76-2.94c-1 .06-2.12.16-3.19.29a44.82 44.82 0 0 0-7.34 1.46z" transform="translate(-465.29 -87.37)" fill="#8d9faf"/><path d="M693.61 888.46c-3.16 0-10.25 5.59-12.12 7.1a104.18 104.18 0 0 0 2.27 15.22c-12.2 8.28-9.8 13.66-64.17 8.07 0 0 15.64 7.47 21.3 8.07 8.79.93 35-5.31 35-5.31l3.09-4.34 3.86 3.7 45.41-5.89-25.65-3.24s-2.26-23.44-8.99-23.38z" transform="translate(-465.29 -87.37)" opacity=".2"/><path d="M679.08 917.55l.51-3.53c.14-1 .33-2.25.48-3.52a9.35 9.35 0 0 1 .65-1.94 3.56 3.56 0 0 0 .12-2c-.21-.67-.52-1.33-.75-2a4 4 0 0 1 0-1.88c.09-.61.25-1.22.31-1.78s.26-1.13.32-1.63.19-1 .3-1.43.14-.81.23-1.14a8.61 8.61 0 0 1 .3-1.05 9 9 0 0 1 1 .74 13 13 0 0 1 1 .93 16.13 16.13 0 0 1 1 1.32 9 9 0 0 1 .87 1.66 9.12 9.12 0 0 1 .58 1.94 3.4 3.4 0 0 1 0 2.12 19.59 19.59 0 0 1-1.19 2.18 5.41 5.41 0 0 0-.65 2.13 6.64 6.64 0 0 1-.41 2.06 24.49 24.49 0 0 1-2 3.53 19.83 19.83 0 0 1-2.67 3.29z" transform="translate(-465.29 -87.37)" fill="#506470"/><path d="M189.16 706.56l-2.27 21.48-1.71-.07-3 12.18 13.37 14.7 21.7-23.06 4.82-11-3.84-19.41z" fill="#2d353a"/><path fill="#cadaeb" d="M107.04 526.31l3.96-7.15.24-.42.49.3 4.68 2.89-1.4.1 1.18-.39.71.71-.38 1.18-.35 1.09-1.05-1-4-3.79.72-.13-4.8 6.61z"/><circle cx="573.25" cy="612.49" r="2.08" transform="translate(-651.72 880.99) rotate(-72)" fill="#cadaeb"/><path d="M574.13 622.23l5.66-5.9.25-.26.43.26a31.4 31.4 0 0 1 4 3l-1.47 1.58a31.42 31.42 0 0 1-3.26-3.84h.68z" transform="translate(-465.29 -87.37)" fill="#cadaeb"/><circle cx="575.32" cy="621.31" r="2.08" transform="translate(-723.93 680.68) rotate(-57.18)" fill="#cadaeb"/></svg>