<svg xmlns="http://www.w3.org/2000/svg" viewBox="0 0 394.72 838.06"><title>ilustra-capa1</title><path d="M321.19 413.75l-52.61 17.15-25-21.43 36-34.91 41.61 39.19z"/><path fill="#424243" d="M231.08 426.23l52-54.17-38.5-39.5-48.21 56.03 34.71 37.64z"/><path fill="#353535" d="M196.37 388.59l48.21-56.03 16.12 16.54-54.29 38.12 24.67 39.01-34.71-37.64z"/><path d="M230.79 392.94c5.11-1.56 13.21-7 16-11.54 1.62-2.7 4.58-10.08 3.38-16.25-.22-1.12-2.84-4-2.84-4L134.5 258.48l-26.06 28.64 116.4 102.28s3.73 4.16 5.95 3.54z" fill="#2d2d2d"/><path d="M341 470.75L229.75 369.39 245.91 353l108.94 99.08c-1.48 9.83 3.48 6.3 3.48 6.3 2.33-4.59.75-9.61-1.46-13.52l3.87 3.52s2.62 2.88 2.84 4c1.21 6.17-1.76 13.55-3.37 16.25-2.75 4.58-10.85 10-16 11.54a2.82 2.82 0 0 1-2-.32c4.35-1.79 7.19-7.71 7.19-7.71.8-3.39-8.4-1.39-8.4-1.39z" transform="translate(-113.5 -87.44)" fill="#1e1e1e"/><path fill="#d79f29" d="M163.277 306.13l-8.18 3.486-3.484-8.18 8.18-3.484zM143.283 288.14l-8.18 3.486-3.484-8.18 8.178-3.484zM182.283 323.12l-8.18 3.484-3.484-8.18 8.178-3.484zM202.29 340.12l-8.18 3.484-3.485-8.18 8.18-3.484zM218.287 356.11l-8.18 3.486-3.484-8.18 8.18-3.484zM234.287 371.103l-8.18 3.485-3.484-8.18 8.18-3.484z"/><path d="M88.29 287.36c6.79 10.2 20.72-.07 35.45-10.8s20-29.27 12.88-34.95c-6.67-5.32-16 3.11-30.75 13.83s-22.31 24.82-17.58 31.92z" fill="#424243"/><path d="M87.13 273.07c3.5 6.06 14.95 5.16 26.2-8.84 7.55-9.4 15.42-13.23 12.49-19.59-3.41-7.41-13.74-4.66-23.41 3.21-9.35 7.61-18.78 19.16-15.28 25.22z" fill="#c6c6c5"/><path d="M203.58 374.83c27.7 1.35 45.72-34.55 49.11-41.87 2.49 7.85-3.21 22.13-15.44 31-14.73 10.73-28.67 21-35.45 10.8-.11-.16-.2-.33-.3-.5a7.5 7.5 0 0 0 2.08.57z" transform="translate(-113.5 -87.44)" fill="#2d2d2d"/><path d="M86.4 269.64c.36-6.36 8.21-15.44 16-21.8 9.67-7.87 20-10.62 23.41-3.21.01 0-25.6 4.93-39.41 25.01z" fill="#e2e2e2"/><path d="M274.5 782.39s-47.83 27-50 44.33c0 0-1.83 11 18.67 11.33 0 0 71.17.5 81-9.67 0 0 .4 2.93 1 3.67 1.34 1.66 11.17 4.08 43.5 0 0 0 17.5-3 10.67-30.67 0 0 4.33-5.5-2.5-17.5l-56-17.67z" fill="#191919"/><path d="M409.64 862.28L388 869.83a273 273 0 0 0-28.55 18.94l1.22.81S418 869.33 430 876c0 0 53.37 16.68 63 1.14a32.72 32.72 0 0 0-2-4.57z" transform="translate(-113.5 -87.44)"/><path d="M394.67 603.2c-38.83-.24-81.08 8.62-109.23 40.7 0 0-21.61 41.3-19.61 41.67 2.75.5 17.82-4.57 17.82-4.57l-5.53 10.19s-10.71 23.87-11.25 39.37c0 0-3.87 34.67-10 43.33 0 0-6.17 12.17-3.5 15.83 0 0 1.5 2.5 4.67 0 0 0 6.13-4.94 8.75-4.17 21.74 6.42 39.92-13 91.08 2.67 0 0 25 3.5 22-7.17 0 0-11.88-30.45 14.84-70.88v-107z" fill="#15151f"/><path d="M461.5 531.75c-2.72 0 41.24-3.24 38.53-3.24h-4.43a22.42 22.42 0 0 0 .28-3.31c0-24.58-41.49-17.21-80.26-17.21s-80.93 46.95-82 71.5A42.33 42.33 0 0 0 335 592.9a49.22 49.22 0 0 0-4.43 17.61 33.72 33.72 0 0 0 .72 9.18c-1.45 6.94-2.38 16.45-2.72 29.32-.29 11.15 4.35 43.77 20.5 68 14.5 21.75 28.25 20.18 55.17 18.17 22.63-1.7 84.86-28.61 60.78-61.75 13.65 0-40.43-36-25.39-37.43z" transform="translate(-113.5 -87.44)" fill="#fdd1b1"/><path d="M394.67 412.73l-94.73 5.37-59.49 19.46c9.17 5.67 32.83 5.33 32.83 5.33-1 6.33-21 19.33-21 19.33 9.67 1.67 46 .67 46 .67-1.33 4.33-21 16-21 16 9 7.33 39.17 3.17 39.17 3.17 1 3.92-7.5 12.67-7.5 12.67 10 9 13.93 17.83 14.5 25 1.67 21-22.5 43.79-22.5 43.79 10.67-1.08 15 1.5 15 1.5-9 48.5 16.5 67 16.5 67l62.23-12.73V412.73z" fill="#15151f"/><path d="M378.5 594.33c-30.79 4.06-37.57-19.37-38.4-34.06-3.91 7-6.24 13.69-6.49 19.23a42.33 42.33 0 0 0 1.39 13.4 49.22 49.22 0 0 0-4.43 17.61 33.72 33.72 0 0 0 .72 9.18c-1.45 6.94-2.38 16.45-2.72 29.32 0 1.24 0 2.76.1 4.49.37.7.75 1.39 1.15 2.07a37.59 37.59 0 0 0-.61 4c1.77 15 7.37 38.71 19.86 57.44 4.57 6.85 9.06 11.38 13.91 14.32-13.28-23.83-12.65-29.72-7.86-35.66 6.9-8.57 9.18-25.24 3-22s-10.1 5.12-18.59 3.79 4.42-23.67 5.25-29 4.25-21 2.75-26-6.82-5.24-8.75-14 39.72-14.13 39.72-14.13z" transform="translate(-113.5 -87.44)" fill="#fbb88a"/><path d="M508.17 564.42v-9.09a203.7 203.7 0 0 0-7.55 19.55z" transform="translate(-113.5 -87.44)" fill="#09090b" opacity=".8"/><path d="M427.63 517.88a18.67 18.67 0 0 1 4.28 1 32.7 32.7 0 0 1 4.5 2c1.67.88 3.55 1.89 5.59 3 4.06 2.26 8.79 4.95 13.71 8.06 2.46 1.55 5 3.19 7.53 4.9s5.07 3.53 7.56 5.4 4.95 3.8 7.3 5.79c1.18 1 2.33 2 3.47 3s2.22 2 3.31 3l3.12 3c1 1 2 2 2.89 3s1.78 2 2.61 2.95 1.58 1.95 2.3 2.89a59.46 59.46 0 0 1 3.62 5.36 48.47 48.47 0 0 1 2.38 4.38c.6 1.24 1 2.28 1.26 3l.4 1.07-.89.54-.79-.8c-.52-.52-1.21-1.31-2.15-2.28l-1.54-1.59c-.53-.6-1.15-1.21-1.8-1.87l-4.35-4.39-5.23-5.09-2.89-2.75-3.08-2.81-3.26-2.83c-1.12-.94-2.24-1.9-3.4-2.85-2.32-1.87-4.66-3.8-7.08-5.64s-4.83-3.69-7.24-5.48-4.8-3.52-7.14-5.16c-4.7-3.26-9.12-6.27-13-8.74-1.93-1.23-3.71-2.35-5.3-3.33a41.09 41.09 0 0 1-4-2.77 22.85 22.85 0 0 1-3.19-3z" transform="translate(-113.5 -87.44)" fill="#212130"/><path d="M394.67 473.25c-1.54 2.57-3 5.2-4.34 7.81-.74 1.4-1.43 2.81-2.11 4.2s-1.36 2.76-2 4.12c-1.31 2.71-2.52 5.35-3.66 7.85s-2.19 4.89-3.14 7.09c-1.9 4.41-3.43 8.11-4.44 10.72l-1.58 4.12 3.2 1.3 1.81-4c1.18-2.51 2.86-6.1 5-10.35 1.06-2.13 2.21-4.43 3.47-6.84s2.59-4.95 4-7.54c1.19-2.19 2.47-4.43 3.78-6.68v-11.8z" fill="#212130"/><path d="M281.28 425.7l-.78.86s77.25 44.11 114.17 30l-12.91-30-43.85-8.74-39.41 2.24z" fill="#09090b" opacity=".8"/><path fill="#fdd1b1" d="M394.67 434.18l-19.88.41 19.88 19.85v-20.26z"/><path d="M508.17 612A241.83 241.83 0 0 1 484 600.48c-10.56-3.19-42.75 6.77-42.75 6.77l-2.25 1.5c.64 2-2.65-1.4-2.5.46a28.1 28.1 0 0 1-.11 5.26l40.61-3 31.17 7.07V612z" transform="translate(-113.5 -87.44)" fill="#09090b" opacity=".7"/><path fill="#f6af7f" d="M394.67 435.2l-18.88.39 18.88 18.85V435.2z"/><path d="M428.39 581.33L436.3 565l-25.79-6.15 5.49-11.74-24.32-5.66 8.26-10.45-13.61-7.21 7.82-12.08L353.5 525c9.17 5.67 32.83 5.33 32.83 5.33-1 6.33-21 19.33-21 19.33 9.67 1.67 46 .67 46 .67-1.33 4.33-21 16-21 16 9 7.33 39.17 3.17 39.17 3.17 1 3.92-7.5 12.67-7.5 12.67a58.68 58.68 0 0 1 6.39 6.68v-7.51z" transform="translate(-113.5 -87.44)" fill="#212130"/><path d="M394.67 647.01l-2.81.22-21 27.67-9.71 37.33 12 12.27h6.08s7.81-22.68 15.51-39.75v-37.74zM394.67 602.79c-29.88 12.3-68.49 34.64-68.49 34.64s31.79.46 68.49-1.23v-33.41z"/><path d="M340.26 614.56s-.76 11.39 7.59 12.15l34.16 4.55-1.51-8.3s-16.7.76-23.53-.76c-.01 0-7.6-7.64-16.71-7.64z" fill="#15151f"/><path d="M394.67 603.72c-43.77 16.85-71.32 2.95-79.93-2.7 4 23.46 17.26 33 17.26 33l24.73-5.06c14.36-6.2 28.53-15.3 37.94-21.87v-3.41z" fill="#212130"/><path d="M282.34 683.41l-4.22 7.78s-8.88 19.79-10.88 35c21.17-30.8 92-52.94 92-52.94-19.63-6.08-63.34 6.09-76.9 10.16z" fill="#09090b"/><path d="M394.67 644.01L382 640.06s-39.5 28.72-53.5 97.61c0 0 31 1.89 42.5 6.39 0 0 .93-43.62 23.67-79.33v-20.72z" fill="#12121d"/><path d="M458 795.5c.76-21.32 27.82-53.07 40.69-67l-3.19-1S456 756.22 442 825.11c0 0 31 1.89 42.5 6.39a174 174 0 0 1 4.72-32.76z" transform="translate(-113.5 -87.44)" fill="#1d1e2b"/><path d="M394.67 606.48c-11.09 3.77-18.89 12.68-18.89 23.08s7.8 19.32 18.89 23.08v-46.16z"/><path d="M394.67 630.77l-1.84-3.26c-5.65 8.47-2.14 11.86 1.84 13.21v-9.94z" fill="#1d1e2b"/><path d="M315.25 564.31s-32.87-8.63-53.71 10.86c0 0 33.07-18.23 55.12-7.28 1.84.91-1.41-3.58-1.41-3.58z" fill="#bf7364"/><path d="M377.5 767.23s1.67 15.67-6.67 15.33c0 0-93-11.33-110-1.33l18.33-51.33s-3 31.66-6.45 37.07c-1.79 2.81-2.62 11.51 11.12 7.93 0 0 25-4.33 58 3 0 0 23.18 2.33 26.26 0 0-.01 7.08 8.33 9.41-10.67z" fill="#1d1e2b"/><path d="M508.17 679.34a198 198 0 0 1-23.88-20.76c-23.75-21.25-54.75-5.25-54.75-5.25l-1.82.28a7.71 7.71 0 0 1 1.07.47 115.52 115.52 0 0 0-1.64 12.49l1-.49c16.8-11.83 59.7 5.31 80 14.57v-1.31z" transform="translate(-113.5 -87.44)" fill="#09090b"/><path d="M147 223.38s-22.5 58.18-59 55.18c-20.89-1.71-56-9.5-75 32 0 0 20.5-15.74 67 0 0 0 55.5 14 80-30 0 0 19.15-37.6 36.13-40l1.26-42.7s-6.39-25.3-53.39-21.8c0 0-22-3.5-51 24.5 0 0-38.5 44-93 28 0 0 5.5 27 77 25.75 0 0 18 2.25 46.5-26.75 0 0 14.5-10.85 23.5-4.18z" fill="#191926"/><path d="M224.98 212.81c0 15.88-11.75 28.75-26.24 28.75-21.52 0-26.24-18.12-26.24-34s11.75-28 26.24-28 26.24 17.37 26.24 33.25z"/><path d="M508.17 87.44h-.38c-109 2.46-187 68.5-192.5 151.5a42.23 42.23 0 0 0 .09 6.59s-10 98.43-7.83 115.91c1.55 12.54 9.95 25.94 23.58 38.57 23.18 78.74 89.8 127.35 177.05 129.36V418.16l-41-78.32 41-18V87.44z" transform="translate(-113.5 -87.44)" fill="#191926"/><path d="M394.67 233.72l-3.42.34c-38 3.5-102.5 2-134.5 9.5-40 9.38-33.54 4-26.5 13.5 11.43 15.41 49.6 78.76 164.42 73.54v-96.88z" fill="#fdd1b1"/><path d="M277.57 260.49c-.34 8.81 16.44 17.62 37.48 19.69s38.38-3.4 38.72-12.21-16.45-17.61-37.49-19.68-38.38 3.39-38.71 12.2z" fill="#fff"/><path d="M429.77 335.72a89.37 89.37 0 0 1 12.39 2.09c7 4.23 11.53 11 11.12 18.12a15.82 15.82 0 0 1-6.13 11.48 81.67 81.67 0 0 1-18.6.19 85.2 85.2 0 0 1-18.07-3.7c-3.85-3.9-6.07-8.9-5.78-13.9.37-6.54 4.82-11.82 11.3-14.53a86 86 0 0 1 13.77.25z" transform="translate(-113.5 -87.44)" fill="#3a342d"/><circle cx="315.75" cy="264.11" r="8.25" fill="#26221e"/><path d="M508.17 321.16l-3.42.34c-38 3.5-102.5 2-134.5 9.5-29.94 7-33.86 5.78-31 8.68l31.82-4.39s59.5-6.48 116.89-3.88a152.88 152.88 0 0 0 20.2-.68v-9.56z" transform="translate(-113.5 -87.44)" fill="#fbb88a"/><circle cx="308.38" cy="258.18" r="3.88" fill="#fff"/><path d="M311.76 238.67c2.41 1.17 4.89 2.31 7.38 3.42s5 2.18 7.46 3.24 4.92 2 7.29 3 4.68 1.85 6.87 2.67 4.28 1.58 6.21 2.26c3.86 1.37 7.1 2.46 9.38 3.19l3.62 1.12 1.62-5.78-3.53-1c-2.25-.65-5.49-1.58-9.34-2.79-1.93-.59-4-1.28-6.21-2s-4.52-1.5-6.92-2.29-4.86-1.68-7.35-2.59-5-1.84-7.54-2.81l-2.33-.89-8.37.38z" fill="#3a342d"/><path d="M257.5 263.5s-21.5-3.5-51 24.5a79.18 79.18 0 0 1-7.3 7c44.53-37 96.24-21.64 96.24-21.64l3.38-2.37c-7.23-6.24-16.59-9.33-41.32-7.49z" transform="translate(-113.5 -87.44)" fill="#262635"/><path d="M220.5 377c23.82-6.16 31.81-41 33.91-53.24-9 17-27.59 44.31-52.91 42.24-20.89-1.71-56-9.5-75 32 0 0 20.5-15.74 67 0a94.5 94.5 0 0 0 30.91 1.49c-6.54-10.14-3.91-22.49-3.91-22.49z" transform="translate(-113.5 -87.44)" fill="#13131a"/><path d="M162.06 212.82l.13.08zM162.19 212.9l1.43.86zM161.58 212.56l.1.06z" fill="#13131a"/><path d="M195 323.76c-15.93 3.32-28.69-.49-38.4-6.51a83.22 83.22 0 0 1-43.1-1.25s5.5 27 77 25.75c0 0 18 2.25 46.5-26.75 0 0 14.5-10.85 23.5-4.18 0 0-.52 1.34-1.53 3.6l16-14.53C259 290.29 195 323.76 195 323.76z" transform="translate(-113.5 -87.44)" fill="#13131a"/><path d="M161.58 212.56l-.08-.1zM161.68 212.56l.37.23zM168.19 216.56l.18.11zM168.37 216.63zM163.62 213.77l1.75 1.06zM167.96 216.38l.24.14zM165.37 214.82l2.58 1.56z" fill="#13131a"/><path d="M199.83 187.56s-15.24 23.29 1 33.31c0 0-21.38-.26-18.71-18.29.05-.02-.29-13.69 17.71-15.02zM177.41 222.08s3.62 13.24 23 9.21c0 0-15.39-2.6-15.86-11.21z" fill="#191926"/><path d="M255 308.74a11.18 11.18 0 0 1 4.68 1.57c11.86-8.25 26.68-7.64 26.68-7.64L286 295z" transform="translate(-113.5 -87.44)" fill="#09090b"/><path d="M394.67.56h-1.17c-75.87 1.71-136.67 34.2-168.51 81.76.66-.56 79.38-67.52 169.68-71.1V.56z" fill="#262635"/><path d="M508.17 125.73c-19.59 2.36-39.85 7-58.88 15.27a534.67 534.67 0 0 1 58.88-5.83v-9.44z" transform="translate(-113.5 -87.44)" fill="#262635"/><path d="M508.17 412.59a283.44 283.44 0 0 1-117-21c25.3 16 62.52 28.91 117 26.43v-5.45z" transform="translate(-113.5 -87.44)" fill="#fbb88a"/><path d="M394.67 434.65C278.94 428.21 236.5 330.92 236.5 330.92c46.07 36.36 109.17 49.78 158.17 54.39v-9.89c-79.33-15.63-157.17-45.18-183.5-99.74-12.83-26.61-2.82-49.49 0-68.45 3.46-23.23 170.64-34.67 170.64-34.67-106.27-16.4-175.12 29.33-170-2.67.31-1.95.62-4.07.92-6.33h-12.14c-2 20.1-9.21 95.87-7.34 111 1.55 12.54 9.95 25.94 23.58 38.57 23.25 79 90.2 127.64 177.85 129.38v-7.86z" fill="#13131a"/><path d="M483.54 382.26s-.32.6-.8 1.68a28.33 28.33 0 0 0-1.59 4.59 12.1 12.1 0 0 0-.37 3.13 4.44 4.44 0 0 0 1 3 4.72 4.72 0 0 0 3.08 1.26 16.62 16.62 0 0 0 3.83-.23c1.34-.18 2.71-.38 4.1-.44a13.89 13.89 0 0 1 4.17.37 8.76 8.76 0 0 1 3.63 1.88 9.94 9.94 0 0 1 2.18 2.8 2.65 2.65 0 0 0 .67.81 3 3 0 0 0 .9.4 11.42 11.42 0 0 0 1.94.29c.57 0 1 .06 1.34.07h.48l.09 1a15.75 15.75 0 0 1-1.89.32 9.42 9.42 0 0 1-2.32 0 4.23 4.23 0 0 1-1.55-.53 4.07 4.07 0 0 1-1.3-1.31 9.29 9.29 0 0 0-1.87-2.31 7.28 7.28 0 0 0-2.83-1.43 22.43 22.43 0 0 0-7.55-.13 16.42 16.42 0 0 1-4.23 0 6.14 6.14 0 0 1-3.87-2 5.51 5.51 0 0 1-1.09-3.86 13 13 0 0 1 .71-3.32 24.29 24.29 0 0 1 2.11-4.49c.62-1 1.03-1.55 1.03-1.55z" transform="translate(-113.5 -87.44)" fill="#bf7364"/><path d="M391.92 314.8" fill="none"/></svg>