<svg xmlns="http://www.w3.org/2000/svg" viewBox="0 0 267.04 260.1"><title>pin-ninja</title><ellipse cx="184.04" cy="244.01" rx="82.65" ry="16.09" opacity=".5"/><g><path d="M538.6 377.82c-.54-.43-13.12-10.3-22.05-10.38 0-.57.1-1.78.35-3.53.2-1.41.51-3.16 1-5.21l-.69-.08c-.5 2.13-1.26 3.93-1.45 5.36a30.75 30.75 0 0 1-.76 3.82v.37h1.2c8.69 0 21.86 10.12 22 10.21 16.45 15.28 18.8 18.7 18.8 19.36v.21c0 3-1.14 4.91-2.46 5.57a3.81 3.81 0 0 1-3.22-.29 7.54 7.54 0 0 0-2.32-5.9c-.73-.56-2.27-1.18-4.19.94-1.35 1.48-2.64 2.18-3.81 2.08a2.93 2.93 0 0 1-1.73-.83 2.32 2.32 0 0 0 1.16-.49 4.16 4.16 0 0 0 1.27-2.83c.13-1.58-4.53-7.24-10.84-13.15-6.81-6.38-9.87-4.69-10-4.61l-.18.11v.21c0 .14.14 13.64 2.78 21.46s19.18 29.66 19.88 30.59l.58-.44c-.17-.23-17.17-22.67-19.78-30.38-2.41-7.13-2.71-19.11-2.74-21 .72-.2 3.52-.49 8.95 4.59 7 6.52 10.7 11.56 10.61 12.56a3.54 3.54 0 0 1-1 2.32 1.8 1.8 0 0 1-1.45.32l-.78-.12.41.67a3.92 3.92 0 0 0 2.75 1.73c1.42.13 2.9-.65 4.41-2.32 1.17-1.29 2.24-1.57 3.19-.85 1.68 1.28 2.29 4.78 2 5.29l-.19.3.3.2c.09.06 2.19 1.42 4.11.48 1.56-.77 2.47-2.81 2.71-6.08a.52.52 0 0 0 0-.14c.27-1.47-6.42-8.61-18.82-20.12z" transform="translate(-334.63 -196.02)" fill="#262635"/><path d="M500.43 433.87l-.68-.26c.22-.59.36-3.59-1.87-9.38-2.08-5.42-.89-7.95-.09-9.62l.1-.22c.62-1.32 4-13.61 5.23-18.24l.49-1.78a27.59 27.59 0 0 0 .48-4.8c.08-2.68-.18-3.73-.35-4a2.28 2.28 0 0 0-.53.75c-2.21 4.11-8.88 13.75-8.94 13.84l-.6-.41c.07-.1 6.71-9.7 8.9-13.77.2-.38.74-1.38 1.42-1.1 1.49.6.58 8.7.31 9.66l-.49 1.77c-2.15 7.9-4.7 17.14-5.27 18.36l-.11.22c-.74 1.56-1.86 3.92.12 9.05 2.09 5.43 2.27 8.9 1.88 9.93z" transform="translate(-334.63 -196.02)" fill="#262635"/><path d="M508.16 364.82a36.78 36.78 0 0 0-.37-5.9c-.74.13-1.16.23-1.16.23l.46-.09a37.5 37.5 0 0 1 .34 5.83v2.75a10.17 10.17 0 0 0-4.71.91c-1 .58-2.62 3.72-4.89 8.44-1.53 3.17-3.11 6.45-4 7.34l-.18.18c-7.45 7.42-11.35 15-11.61 22.58v.13c0 .13 1.12 3.27 3.54 3.78a3.19 3.19 0 0 0 .66.07c1.4 0 2.9-.89 4.49-2.65a9.12 9.12 0 0 0 .53-12.38l-.54.49a9 9 0 0 1 1.76 3.45c.72 2.78 0 5.46-2.3 8-1.65 1.84-3.15 2.64-4.46 2.36-1.85-.38-2.83-2.83-3-3.24.27-7.36 4.1-14.77 11.39-22l.18-.18c1-1 2.52-4.17 4.14-7.54 1.72-3.56 3.67-7.61 4.59-8.12a10.19 10.19 0 0 1 4.69-.81h.38V368c.07-.94.08-2.05.07-3.18z" transform="translate(-334.63 -196.02)" fill="#262635"/><path d="M169.84 189.9l-.47-3.46-1.54 1-1.43-.49.83-2.36.63-3.44-2.9 1.2 1.14-2.95 1.24-2.8-1.56-.73-2.83 5.7-2.28 4.41-1.31 2.1-3 3.2-1.78 2.15s5.68-.82 8.5 5.66l4.78-7.49 1.19-2.17z" fill="#fdd1b1"/><path d="M538.86 392.16l2.28-3.27 3.08-2.15 2.66-.56 7.33 7.36 2.48 3.18a3.11 3.11 0 0 1 .52 1.87l-.79 3.41-1.7 1.7-2.13.33-1.67-.62-1-4.05-1.81-2.12-1.65.09-2 1.67-2.05 1.41-2.12.12-1.62-1.09 1.53-.72.9-1.81.21-1.27z" transform="translate(-334.63 -196.02)" fill="#262635"/><path fill="#262635" d="M162.9 198.79l-1.44-1.75-2.84-2.48-1.96-.75-1.76-.37-3.41 5.09-2.34 5.26-1.14 4.64-.35 3.16 1.81 2.16 2.44.93 2.49-1.16 2.29-2.42 1.6-3.25 1.75-4.94 2.86-4.12z"/><path d="M538.61 392.29l1.2-1.78a6.28 6.28 0 0 1 1.59-1.89l.58-.47a6.28 6.28 0 0 1 2.06-1.09l3.13-1.09-7.26-7-4.75-3.63-5.49-3.42-5.2-2.55-5.41-1.27 1.15 1.22 4.72 2.74-2.11.77-1.15.18.92 1.44 2.56 1-.94 1.3a4.92 4.92 0 0 1-2.14 1l-.78.85 2.46.58c.21.06 2.75 1.31 2.93 1.44l2.62 2 5.51 5.36z" transform="translate(-334.63 -196.02)" fill="#fdd1b1"/><path d="M172.73 163.62s1.86 3.95 4.67 3.95 5.35-4.72 5.35-4.72z" fill="#191926"/><path d="M161.25 241.34" fill="none"/><path d="M165.82 237.7" fill="none"/><path d="M516.66 442h-26.19l-.09-.24c-.17-.11-4.18-2.72-3.79-5.24.22-1.42 1.75-2.54 4.56-3.24 4.92-1.23 6.73.44 6.8.52l-.51.51s-1.64-1.49-6.12-.36c-2.46.62-3.85 1.06-4 2.15-.26 1.66 2.27 3.91 3.37 3.91h25.81c.05 0 .17.27.25 0 .33-1.19 0-4.34-5.56-13.54 0 0-4-4.95-1-12.18 1.34-3.2 2.83-4.79 4.44-4.83 1.85 0 3 2.09 3.34 2.74 1.09 2.28 8.1 19.27 8.32 21.57a64.05 64.05 0 0 1 0 6.58l22.48.31c.16-1 .39-4.68-3.47-7.9-.82-.15-7.16-1.23-9 1.26l-.58-.43c2.24-3 9.51-1.58 9.82-1.52h.09l.07.06c4.9 4 3.78 8.77 3.73 9l-.07.28-23.79-.41v-.37s.21-4.67 0-6.84-7.08-18.47-8.25-20.92a3 3 0 0 0-2.62-1.9c-1.28 0-2.59 1.17-3.79 4-2.86 6.84.86 11.35.9 11.4 5.62 9.21 6.16 12.87 5.62 14.42a1.84 1.84 0 0 1-.68 1z" transform="translate(-334.63 -196.02)" fill="#262635"/><path d="M160.14 241.47l-.68-.26c1.17-3.09 6.1-3.84 6.31-3.87l.1.72s-4.71.72-5.73 3.41z" fill="#262635"/><path d="M204.67 197.15l-.68-.88c0-.17.65-4.39 8.13-6.74l.65.63c-7.05 2.21-8.1 6.96-8.1 6.99z" fill="#262635"/><path d="M497.19 395.9a10.61 10.61 0 0 0-8.3-6l.59-.73c.19 0 5.29-.34 8.34 5.79z" transform="translate(-334.63 -196.02)" fill="#262635"/><path d="M521.48 378.11H521v-.72c2.56.14 3.36-1.11 3.61-1.74-3.74-.72-3.73-3.06-3.73-3.17V372l.48.17a3.43 3.43 0 0 0 3.12 0 16.76 16.76 0 0 0-5.29-2.75l.17-.71a17.48 17.48 0 0 1 5.93 3.14l.29.22-.22.29c0 .06-1.09 1.37-3.63.69.25.62 1 1.62 3.39 2l.36.05-.05.36s-.35 2.65-3.95 2.65z" transform="translate(-334.63 -196.02)" fill="#262635"/><path d="M502.37 383.79a3.11 3.11 0 0 1-2-.85l-.26-.26.26-.26c1.16-1.16 1.67-3.66 1.89-5.14a9.72 9.72 0 0 1-2.63 1.33l-.79.26.35-.76C501 374.4 501 373 501 373h.73a15.22 15.22 0 0 1-1.52 4.59 4.4 4.4 0 0 0 2.2-1.6l.86-2.19-.16 2.35c0 .19-.32 4.43-2 6.47a2 2 0 0 0 1.4.41 2.35 2.35 0 0 0 1.55-1.44l.64.33a3 3 0 0 1-2.09 1.82z" transform="translate(-334.63 -196.02)" fill="#262635"/><path d="M165.82 237.7s-.36 0-2.53.33c-2.68-1.92-8.18-.14-8.18-.14l-2.34 1.37-.49 2.93 3.66 3.79h26l.59-2.09-1.2-5-4-7.71-2.38-5.35-.09-5.35 2.93-5.45 2.27-1 2.45 1.45.47.83 4.8 11.56 1.9 5 1.69 5.11v6.63l23.1.37.13-3.4-2.56-4.09-4.22-4.51-11.6-16.41-6.26-10.59-2.34-7.72-.94-9.57-.25-5.52 1-1.42 2.36-1.05.72-1.35-2.89-1-.93-2.12 2.38.6 1.45-.7-4.63-3-.66-.89-3.69-.42 1.22-8.62-9.85.33.19 8.5-4.47.63-2.49 3.21.53 2-1.75 4.41 3.13-1.22-1 3.94-.92 1.81 1.62.63 1.54-1 .51 3.45-.35 5.15-1.17 7.09-1.77 6.42-2.09 7.43-1.37 3.71-.48 4.63 1.5 5 1.64 5.62z" fill="#262635"/></g><g><path d="M258.37 99.38v-20.7l-20-36.29s-120.5-4.16-121.25-3.91S96.9 56.25 96.9 56.25l-4.53 40 19.09 35.66s55.42 21 56.92 21.17 32.2-3.07 33.22-3.82 31.13-17.16 31.77-18.78 20.57-18.68 20.57-18.68z" fill="#fcd0b0"/><g><ellipse cx="540.88" cy="300.71" rx="29.83" ry="20.08" transform="translate(-142.72 615.76) rotate(-84.75)" fill="#fff"/><ellipse cx="540.62" cy="301.52" rx="25.41" ry="15.46" transform="translate(-143.76 616.24) rotate(-84.75)" fill="#1a9cff"/><circle cx="540.63" cy="303.51" r="9.42" transform="translate(-379.36 -96.85) rotate(-10.07)"/><circle cx="532.63" cy="298.45" r="3.05" transform="translate(-378.59 -98.33) rotate(-10.07)" fill="#fff"/></g><g><ellipse cx="482.52" cy="301.67" rx="20.08" ry="29.86" transform="translate(-365.18 -140.49) rotate(-6.38)" fill="#fff"/><ellipse cx="482.84" cy="302.51" rx="15.46" ry="25.41" transform="translate(-365.27 -140.45) rotate(-6.38)" fill="#1a9cff"/><circle cx="482.57" cy="304.43" r="9.42" transform="translate(-221.33 543.37) rotate(-81.92)"/><circle cx="474.47" cy="297.84" r="2.87" transform="matrix(.14 -.99 .99 .14 -221.76 529.68)" fill="#fff"/></g><path d="M218.42 71.67s-23.31 16.83-37.68 20.7l5 2s50.32-22.7 32.68-22.7z" fill="#3a342d"/><path d="M132.93 74.48s26.08 15.57 41 17.75l-4.59 3s-53.84-17.98-36.41-20.75z" fill="#3a342d"/><path d="M64.76 88.98s-9.91 23.21-26 22c-9.2-.68-24.67-3.79-33 12.77 0 0 9-6.28 29.52 0 0 0 24.45 5.59 35.25-12 0 0 8.44-15 15.92-16l.56-17s-2.82-10.12-23.52-8.72c0 0-9.69-1.4-22.47 9.78 0 0-17 17.56-41 11.17 0 0 2.42 10.78 33.93 10.28 0 0 7.93.9 20.49-10.68-.07.05 6.36-4.28 10.32-1.6z" fill="#262635"/><path d="M433.75 280.77a11.52 11.52 0 0 1-11.56 11.47c-9.48 0-11.56-7.23-11.56-13.57a11.27 11.27 0 0 1 11.56-11.17c6.38 0 11.56 6.93 11.56 13.27z" transform="translate(-334.63 -196.02)"/><path d="M597.9 277.65a1.22 1.22 0 0 0 .3-1.37s-2.43-10.18-4.52-16c-17.18-47.69-36.79-65.25-85.69-64.25-48 1-82.39 27.34-84.81 60.46a15.27 15.27 0 0 0 0 2.63s-4.4 39.28-3.45 46.26c.68 5 4.38 10.35 10.39 15.39 10.43 32.1 40.83 51.65 80.5 51.65 31.65 0 69.16-22.35 82.63-60.8a31.86 31.86 0 0 0 7.57-14.73c1.36-5.73 1.49-13.03-2.92-19.24zm-10.49 4.62c-5.4 5.65-24.45 43.1-78.42 45.5-51 2.26-67.87-23.16-72.92-29.33-3.1-3.79-5.58-3.26 12.06-7 14.1-3 38.1-8 54.85-9.36 9.11-.76 27.26-2 36.17-2.19 31.05-.62 50.47.11 48.26 2.37z" transform="translate(-334.63 -196.02)" fill="#262635"/><path d="M398.07 266.1s-9.47-1.4-22.47 9.78a33.56 33.56 0 0 1-3.22 2.79c19.62-14.77 42.4-8.64 42.4-8.64l1.49-.95c-3.18-2.48-7.27-3.71-18.2-2.98z" transform="translate(-334.63 -196.02)" fill="#49495e"/><path d="M381.77 311.4c10.49-2.46 14-16.36 14.94-21.25-4 6.77-12.15 17.68-23.31 16.86-9.2-.68-24.67-3.79-33 12.77 0 0 9-6.28 29.52 0a45.84 45.84 0 0 0 13.62.6 12.13 12.13 0 0 1-1.77-8.98z" transform="translate(-334.63 -196.02)" fill="#191926"/><g fill="#191926"><path d="M71.37 84.75h.06z"/><path d="M71.45 84.79l.63.34z"/><path d="M71.19 84.64z"/><path d="M370.53 290.15a24.39 24.39 0 0 1-16.92-2.6 40.35 40.35 0 0 1-19-.5s2.42 10.78 33.93 10.28c0 0 7.93.9 20.49-10.68 0 0 6.39-4.33 10.35-1.67 0 0-.23.54-.67 1.44l7-5.8c-6.98-3.83-35.18 9.53-35.18 9.53z" transform="translate(-334.63 -196.02)"/><path d="M71.19 84.64h-.06z"/><path d="M71.23 84.66l.16.09z"/><path d="M74.1 86.23h.08z"/><path d="M74.18 86.27z"/><path d="M72.08 85.13l.77.42z"/><path d="M73.99 86.17l.1.06z"/><path d="M72.86 85.55l1.14.62z"/></g><path d="M598.21 276.28s-2.43-10.18-4.52-16c-17.18-47.69-36.79-65.25-85.69-64.25-33.43.68-60.22 13.65-74.24 32.63.4-.31 67.27-51.83 121.91-15.43 0 0-40.62-8.82-73.09 3.95 0 0 55.6-8.58 84.24 5.79 0 0 16.34 5.31 34.35 72.4 1-5.5.76-12.08-3.26-17.75a1.22 1.22 0 0 0 .3-1.34z" transform="translate(-334.63 -196.02)" fill="#49495e"/><path d="M601 294.62s-34.07 40.86-62.85 44.32c0 0 33-2.94 47.58-21.43 0 0-20.38 38.69-51 41 0 0 19.69.42 27.42-7.57l-4 6a91.46 91.46 0 0 0 35.15-45.27 31.86 31.86 0 0 0 7.57-14.73c.18-.77.34-1.58.46-2.4z" transform="translate(-334.63 -196.02)" fill="#191926"/><path d="M111.46 54.36s96.55-19.14 121.9 0c.01 0-23.91-26.94-121.9 0z" fill="#191926"/><path d="M185.25 78.3s54.39-5.39 58.28-13.17c0 0-3.48 16.16-58.28 13.17z" fill="#191926"/><path d="M88.04 74.67s-6.67 9.31.46 13.31c0 0-9.42-.1-8.24-7.3 0-.01-.15-5.48 7.78-6.01z" fill="#191926"/><path d="M78.16 88.45s1.6 5.29 10.12 3.68c0 0-6.78-1-7-4.47z" fill="#191926"/><path d="M533.4 367.81c-69.91 11.31-94.57-39.9-94.57-39.9 38.18 27.3 102.92 22.21 102.92 22.21-43.74-4.12-92.67-15.93-108-44.72-5.65-10.62-2.56-18.16-1.32-25.72 1.52-9.27 70.42-15 70.42-15-46.82-6.55-74.27 7.45-72-5.32 1.74-9.78.06-26.46.06-26.46a52.27 52.27 0 0 0-7.71 23.6 15.27 15.27 0 0 0 0 2.63s-4.4 39.28-3.45 46.26c.68 5 4.38 10.35 10.39 15.39 10.43 32.1 40.83 51.65 80.5 51.65a77.07 77.07 0 0 0 21.42-3.18z" transform="translate(-334.63 -196.02)" fill="#191926"/><path d="M397 284.16a5.28 5.28 0 0 1 2.06.63c5.22-3.29 11.75-3.05 11.75-3.05l-.18-3.06z" transform="translate(-334.63 -196.02)" fill="#08090b"/></g></svg>