<svg xmlns="http://www.w3.org/2000/svg" xmlns:xlink="http://www.w3.org/1999/xlink" viewBox="0 0 446.52 446.52"><defs><linearGradient id="a" x1="199.53" y1="193.96" x2="238.69" y2="193.96" gradientUnits="userSpaceOnUse"><stop offset="0" stop-color="#658dc3"/><stop offset="1" stop-color="#1e6191"/></linearGradient><linearGradient id="b" x1="169.15" y1="199.57" x2="191.67" y2="199.57" xlink:href="#a"/><linearGradient id="c" x1="252.57" y1="214.53" x2="252.57" y2="188.83" xlink:href="#a"/></defs><title>step4</title><g style="isolation:isolate"><path d="M323.82 177.76a45.08 45.08 0 0 1-39-67.74 41.56 41.56 0 1 0 49.26 66.54 45.18 45.18 0 0 1-10.26 1.2z" transform="translate(-1.67 .3)" fill="#fffffe"/><path d="M29.08 330.22h391.69a222.08 222.08 0 0 0 14.29-31.68c-7.85-.8-19.19-1.34-25.88 1.09l-19.77-23.2s-14.94 16-35.59 3.45c0 0-25.48-16.49-30.76-28.37 0 0-22.41-8.49-35.59-24.91a61.69 61.69 0 0 1-24.39-22.93c4.21 12.16-36.06-23.31-14.72-13.29 0 0-17.41-14.78-30.67-28.29 0 0-6-7.33-10.34-8.21 0 0-8.21 7-19.63.85 0 0-3.79-.3-9.74 9.43 0 0-34.19 38-44 43.33 0 0-10.14 8-13 11.34v.36C96.08 238.91 51.72 262.95 10 283.61a221.84 221.84 0 0 0 19.08 46.61zm189.86-131.78v-.14z" transform="translate(-1.67 .3)" fill="#08659a" fill-rule="evenodd"/><path d="M104.33 286.37c-2.2-9.06-8.79-9-20.65-6.19s-33.82 47.06-26.35 31.78 7.91-28.15 7.91-28.15c-8.83 14.33-27.4 25.53-44.57 33.37q3.16 6.8 6.74 13.34h76.92c-2.2-10-27.68-20.67-27.68-20.67-10.11-8.49 10.55-9.91 10.55-9.91-4.87-12.45 17.13-13.57 17.13-13.57zM140.24 329.3s10.22-7.12 13.84-25.1c0 0-5.93-20.89 5.93-29.63 0 0-7.25-1.95 5.6 14.19 0 0-6.26 4.25-7.58.85s-4.61 10.93 16.81 14.59 14.17.27 15.49-9.5 10.55 7.64 8.9 17.41-1 5.52 14.17 6.79 12.52.85 12.85 5.94 13.84 5.09 13.84 5.09z" fill="#035072" fill-rule="evenodd"/><path d="M309.12 330.22S294.27 318 292.3 316.34s20.78-31.56 8.41-49.4c-5.55 31.42-23.57 31.34-23.57 31.34s-6.59-6.2-5.27-20.1c0 0-14.5-3-22.41-15.26a51.33 51.33 0 0 0 18.45 39.29s-19.11 15-24.39 28h65.59z" transform="translate(-1.67 .3)" fill="#035072" fill-rule="evenodd"/><path d="M407.94 329.52s-22.41-20.35-22.41-32.84c0 0-5.27-7.14-5.27 7.56 0 0-39.68 2.11-50.75-25.77 0 0-.66 14.22 27.68 32.9l-13.86 18.15h64.59z" fill="#035072" fill-rule="evenodd"/><path d="M212.55 150c-8.38 6.06-14.8 2.24-16.24 1.83-.92 2.78-11.64 1.44-12.51 1.34-3.4 4.58-16.33 16.89-44 47.39a85.34 85.34 0 0 1-15.35 13.6c-.63 2.42-.43 5.54-2.41 9.48 15.21-9.89 22.12-13.19 18 1.65 12-14.84 21.2-20.61 21.66-10.72s4.15-1.65 5.07 4.95 0 12.36 1.38 19 6.45-28.85 11.52-24.73 0 12.36 8.76 6.59 15-16.9 22.35-11.13 24.89 25.14 35.72 30.5 1.38-3.3-5.3-18.13-3-17.31 7.61-8.66 15.06 15.77 12.3 10 1.38-6.18 4.61-2.47 3.46-2.89 6.22-.82 32.07 27.77 43.13 28.18c1.69-.1-19.92-16.88-24-19.9-6.55-5-24.39-21.29-28-24.27-24.23-20.08-45.97-50.35-50.52-53.68z" transform="translate(-1.67 .3)" fill="#fff"/><path d="M213.11 162.68s-4.25-2.88-6.49-1.23-5.24 6.59-6.74 4.12 2.5 7.83 2.5 7.83-1.25 5.77 4.25 13.19 27.72 39.57 30 40.39a95.71 95.71 0 0 1-3.25-21.43s4-5.36 5-5.36.25-5.77-7-12a39.42 39.42 0 0 1-11.28-14.79c-1.25-2.89-6.99-10.72-6.99-10.72z" transform="translate(-1.67 .3)" opacity=".1" fill="url(#a)"/><path d="M171.9 223.27s6.49-19.37 11.49-23.08 4.75-25.14 7.74-30.91-7.49 9.07-7.49 9.07a8.81 8.81 0 0 0-3.75 4.12c-1.25 2.88-10.74 30.5-10.74 31.73s1.75 12 1.5 16.07 1.25-7 1.25-7z" transform="translate(-1.67 .3)" opacity=".1" fill="url(#b)"/><path d="M264.39 209.14l-14.74-12.78-12.24-9.06 16.49 27.2s4-2.89 5.25-1.65 3.74-5.36 5.24-3.71z" opacity=".1" fill="url(#c)"/><path d="M424 324.14c-19.42-1.22-33.72-1.71-33.72-1.71-23.74-11.75-59.27 0-59.27 0a211 211 0 0 0-37 0c-33.81-13.58-69.08 0-69.08 0-14.25-3.07-48.36-1.77-48.36-1.77-17.82-8.09-38 0-38 0-22.37-4.15-49 2.62-49 2.62-24.26-10.68-48.79-7.28-65.33-2.41q4.64 9.5 10.14 18.47l383-3.13q3.46-5.92 6.62-12.07z" transform="translate(-1.67 .3)" fill="#083e47"/><path d="M361.39 330.56s-26.71-6.77-49.09-2.62c0 0-20.21-8.12-38 0 0 0-34.14-3.73-48.39-.66 0 0-35.29-11.16-69.1 2.42a211.11 211.11 0 0 0-37 0s-35.59-11.75-59.32 0c0 0-12.93.44-30.82 1.52a223.31 223.31 0 0 0 392.92-4.29c-16.44-4.17-38.95-6.19-61.2 3.63z" transform="translate(-1.67 .3)" fill="#03232b"/><circle cx="223.26" cy="223.26" r="223.26" fill="none"/><path fill="#03232b" d="M217.41 279.22h-67.65l-2.91-5.49h73.47l-2.91 5.49zM154.18 264.58h8.79v64.22h-8.79zM145.08 299.27h4.39v32.11h-4.39zM150.39 262.73h16.37v3.69h-16.37zM153.23 315.94h10.7v15.44h-10.7zM204.2 264.58h8.79v64.22h-8.79zM200.41 262.73h16.37v3.69h-16.37zM220.32 262.73h-73.47l-5.98-5.49h85.43l-5.98 5.49z"/><path d="M185.25 253.2a419.89 419.89 0 0 1-55.54-3.79l6 7.53h99.14l6-7.53a419.88 419.88 0 0 1-55.54 3.79M164.64 274.62h-8.79a1.19 1.19 0 1 1 0-2.37h8.79a1.19 1.19 0 0 1 0 2.37M214.66 274.62h-8.79a1.19 1.19 0 0 1 0-2.37h8.79a1.19 1.19 0 0 1 0 2.37" transform="translate(-1.67 .3)" fill="#03232b"/><path fill="#03232b" d="M165.33 296.52h-24.35l1.74 3h22.61v-3zM217.54 299.27h4.39v32.11h-4.39zM203.09 315.94h10.7v15.44h-10.7zM202.33 296.52h23.71l-1.75 3h-21.96v-3z"/><path d="M392.09 277.22c-1-6-5.49-9.45-10.89-9.45a10.92 10.92 0 0 0-3.83.47 13.45 13.45 0 0 0-12.92-10.16 13.27 13.27 0 0 0-11.18 6 16.73 16.73 0 0 0-32.45 2.92 11.89 11.89 0 0 0-14.08-.85 13.32 13.32 0 0 0-10.38-5C289 261.18 283 267.65 283 275c0 .58 0 1.2.12 2.2h109z" transform="translate(-1.67 .3)" fill="#fff"/><path d="M188.82 248.24s8.57-17 15.16-20.26 6.26-22.07 10.22-27.13-9.89 8-9.89 8a10.55 10.55 0 0 0-4.94 3.62c-1.65 2.53-14.17 26.77-14.17 27.86s2.31 10.49 2 14.11 1.62-6.2 1.62-6.2z" transform="translate(-1.67 .3)" fill="#08659a" fill-rule="evenodd"/><path fill="#03232b" d="M331.8 254.99h53.33v28.84H331.8zM335.39 254.99h46.15v28.84h-46.15zM353.36 266.34h10.23v17.49h-10.23zM321.35 283.04h70.07v.79h-70.07zM321.35 275.3h70.07v.79h-70.07zM323.03 275.29h.74v8.09h-.74zM336.04 275.29h.74v8.09h-.74zM349.05 275.29h.74v8.09h-.74zM362.06 275.29h.74v8.09h-.74zM375.07 275.29h.74v8.09h-.74zM388.08 275.29h.74v8.09h-.74zM326.09 254.82h64.77v3.58h-64.77zM320.2 252h76.55v3.58H320.2zM315.08 249.27h86.79v3.59h-86.79z"/><path d="M387 238.2h-57.12a83.14 83.14 0 0 1-20 5.1s1.16 7.44 12.68 7.44h74c2.33 0 11.86-1.51 11.63-7.44a58.55 58.55 0 0 1-21.19-5.1z" transform="translate(-1.67 .3)" fill="#03232b"/><path d="M320.92 251.04h74c2.33 0 11.86-1.51 11.63-7.44-64.08 10.7-98.27 0-98.27 0s1.13 7.44 12.64 7.44z" style="mix-blend-mode:multiply" fill="#03232b" opacity=".4"/><path fill="#03232b" d="M326.41 303.64h64.58v34.93h-64.58zM330.76 303.64h55.89v34.93h-55.89zM352.51 317.38h12.39v21.18h-12.39zM313.75 337.61h91.03v.96h-91.03zM313.75 328.23h91.03v.96h-91.03zM315.93 328.23h.96v9.8h-.96zM332.84 328.23h.96v9.8h-.96zM349.74 328.23h.96v9.8h-.96zM366.64 328.23h.96v9.8h-.96zM383.54 328.23h.96v9.8h-.96zM400.44 328.23h.96v9.8h-.96zM319.49 303.43h78.43v4.34h-78.43zM312.36 300.02h92.69v4.34h-92.69zM306.15 296.72h105.1v4.34h-105.1z"/><path d="M392.89 283.38h-69.16a100.77 100.77 0 0 1-24.18 6.17s1.41 9 15.35 9h89.57c2.82 0 14.36-1.83 14.08-9a70.91 70.91 0 0 1-25.66-6.17z" transform="translate(-1.67 .3)" fill="#03232b"/><path d="M313.23 298.86h89.57c2.82 0 14.36-1.83 14.08-9-77.6 13-119 0-119 0s1.45 9 15.35 9z" style="mix-blend-mode:multiply" fill="#03232b" opacity=".4"/><path fill="#03232b" d="M336.05 214.84h44.47v24.05h-44.47zM339.05 214.84h38.49v24.05h-38.49zM354.02 224.3h8.53v14.59h-8.53zM327.34 238.23h59.02v.66h-59.02zM327.34 231.78h59.02v.66h-59.02zM328.75 231.77h.62v6.75h-.62zM339.71 231.77h.62v6.75h-.62zM350.67 231.77h.62v6.75h-.62zM361.63 231.77h.62v6.75h-.62zM372.58 231.77h.62v6.75h-.62zM383.54 231.77h.62v6.75h-.62zM331.28 214.7h54.01v2.99h-54.01zM326.37 212.35h63.83v2.99h-63.83zM322.1 210.07h72.37v2.99H322.1z"/><path d="M335.22 200.59a69.52 69.52 0 0 1-17.15 4.41s1 6.21 10.57 6.21h61.68c1.94 0 9.89-1.26 9.7-6.21a48.49 48.49 0 0 1-18.08-4.45h-46.72z" transform="translate(-1.67 .3)" fill="#03232b"/><path d="M326.98 211.55h61.68c1.94 0 9.89-1.26 9.7-6.21-53.44 8.92-82 0-82 0s.97 6.21 10.62 6.21z" style="mix-blend-mode:multiply" fill="#03232b" opacity=".4"/><path fill="#03232b" d="M339.86 181.68h36.54v19.76h-36.54zM342.32 181.68h31.62v19.76h-31.62zM354.62 189.46h7.01v11.99h-7.01zM332.7 200.9h48.71v.54H332.7zM332.7 195.6h48.71v.54H332.7zM333.86 195.59h.51v5.54h-.51zM342.91 195.59h.51v5.54h-.51zM351.95 195.59h.51v5.54h-.51zM361 195.59h.51v5.54H361zM370.04 195.59h.51v5.54h-.51zM379.09 195.59h.51v5.54h-.51zM335.94 181.57h44.38v2.46h-44.38zM331.91 179.64h52.44v2.46h-52.44zM328.4 177.76h59.46v2.46H328.4zM361.2 154.12h-4.87c-7.72 17.33-32.59 19.76-32.59 19.76s.8 5.1 8.69 5.1h50.68c1.59 0 8.13-1 8-5.1-18.5-1.2-26.46-11.41-29.91-19.76zM358.64 141.6h.24v9.47h-.24zM358.53 140.45h.46v1.51h-.46zM357.02 150.61h3.47v2.01h-3.47zM358.14 149.63h1.24v.32h-1.24zM358.14 149.07h1.24v.32h-1.24zM358.14 148.5h1.24v.32h-1.24zM358.14 147.93h1.24v.32h-1.24zM358.14 147.36h1.24v.32h-1.24zM358.14 146.8h1.24v.32h-1.24zM358.14 146.23h1.24v.32h-1.24zM358.14 145.66h1.24v.32h-1.24zM358.14 145.09h1.24v.32h-1.24zM358.14 144.52h1.24v.32h-1.24zM358.14 143.96h1.24v.32h-1.24zM358.14 143.39h1.24v.32h-1.24zM358.14 142.82h1.24v.32h-1.24zM358.14 142.25h1.24v.32h-1.24zM356.31 152.11h4.9v2.01h-4.9z"/><path d="M332.4 178.98h50.68c1.59 0 8.13-1 8-5.1-43.9 7.33-67.33 0-67.33 0s.76 5.1 8.65 5.1z" style="mix-blend-mode:multiply" fill="#03232b" opacity=".4"/><path fill="#03232b" d="M266.61 284.47h32.45v17.55h-32.45zM268.79 284.47h28.09v17.55h-28.09zM279.72 291.38h6.23v10.65h-6.23zM260.25 301.55h42.64v.48h-42.64zM260.25 296.83h42.64v.48h-42.64zM261.27 296.83h.45v4.92h-.45zM269.19 296.83h.45v4.92h-.45zM277.1 296.83h.45v4.92h-.45zM285.02 296.83h.45v4.92h-.45zM292.94 296.83h.45v4.92h-.45zM300.85 296.83h.45v4.92h-.45zM263.13 284.37h39.41v2.18h-39.41zM259.55 282.66h46.58v2.18h-46.58zM256.43 280.99h52.81v2.18h-52.81z"/><path d="M300.85 274.14h-34.76a50.59 50.59 0 0 1-12.15 3.1s.71 4.53 7.71 4.53h45c1.41 0 7.22-.92 7.08-4.53a35.63 35.63 0 0 1-12.88-3.1z" transform="translate(-1.67 .3)" fill="#03232b"/><path d="M259.98 282.07h45c1.41 0 7.22-.92 7.08-4.53-39 6.51-59.8 0-59.8 0s.72 4.53 7.72 4.53z" style="mix-blend-mode:multiply" fill="#03232b" opacity=".4"/><path fill="#03232b" d="M263.33 314.08h39.3v21.26h-39.3zM265.97 314.08h34.01v21.26h-34.01zM279.21 322.45h7.54v12.89h-7.54zM255.62 334.75h55.39v.58h-55.39zM255.62 329.05h55.39v.58h-55.39zM256.95 329.05h.58v5.96h-.58zM267.24 329.05h.58v5.96h-.58zM277.52 329.05h.58v5.96h-.58zM287.8 329.05h.58v5.96h-.58zM298.09 329.05h.58v5.96h-.58zM308.37 329.05h.58v5.96h-.58zM259.11 313.96h47.73v2.64h-47.73zM254.77 311.88h56.41v2.64h-56.41zM251 309.87h63.95v2.64H251z"/><path d="M304.43 301.64h-42.08a61.32 61.32 0 0 1-14.71 3.76s.86 5.48 9.34 5.48h54.5c1.71 0 8.74-1.11 8.57-5.48a43.15 43.15 0 0 1-15.62-3.76z" transform="translate(-1.67 .3)" fill="#03232b"/><path d="M255.33 311.18h54.5c1.71 0 8.74-1.11 8.57-5.48-47.22 7.88-72.41 0-72.41 0s.83 5.48 9.34 5.48z" style="mix-blend-mode:multiply" fill="#03232b" opacity=".4"/><path fill="#03232b" d="M269.19 260.04h27.06v14.64h-27.06zM271.01 260.04h23.42v14.64h-23.42zM280.13 265.8h5.19v8.88h-5.19zM263.89 274.28h35.92v.4h-35.92zM263.89 270.35h35.92v.4h-35.92zM264.75 270.35h.38v4.11h-.38zM271.42 270.35h.38v4.11h-.38zM278.09 270.35h.38v4.11h-.38zM284.76 270.35h.38v4.11h-.38zM291.42 270.35h.38v4.11h-.38zM298.09 270.35h.38v4.11h-.38zM266.29 259.96h32.87v1.82h-32.87zM263.3 258.53h38.84v1.82H263.3zM260.7 257.14h44.04v1.82H260.7z"/><path d="M269.34 251.26a42.3 42.3 0 0 1-10.43 2.74s.59 3.78 6.43 3.78h37.53c1.18 0 6-.77 5.9-3.78a29.51 29.51 0 0 1-11-2.71h-28.43z" transform="translate(-1.67 .3)" fill="#03232b"/><path d="M263.67 258.04h37.53c1.18 0 6-.77 5.9-3.78-32.52 5.43-49.87 0-49.87 0s.6 3.78 6.44 3.78z" style="mix-blend-mode:multiply" fill="#03232b" opacity=".4"/><path fill="#03232b" d="M271.51 239.87h22.23v12.03h-22.23zM273.01 239.87h19.24v12.03h-19.24zM280.49 244.6h4.26v7.29h-4.26zM267.15 251.56h29.64v.33h-29.64zM267.15 248.33h29.64v.33h-29.64zM267.86 248.33h.31v3.37h-.31zM273.37 248.33h.31v3.37h-.31zM278.87 248.33h.31v3.37h-.31zM284.37 248.33h.31v3.37h-.31zM289.88 248.33h.31v3.37h-.31zM295.38 248.33h.31v3.37h-.31zM269.12 239.8h27v1.49h-27zM266.67 238.62h31.91v1.49h-31.91zM264.54 237.48h36.18v1.49h-36.18zM284.5 223.1h-3c-4.7 10.55-19.83 12-19.83 12s.49 3.1 5.29 3.1h30.84c1 0 4.95-.63 4.85-3.1-11.21-.71-16.06-6.92-18.15-12zM282.94 215.48h.14v5.76h-.14zM282.87 214.78h.28v.92h-.28zM281.95 220.96h2.11v1.22h-2.11zM282.63 220.36h.75v.2h-.75zM282.63 220.02h.75v.2h-.75zM282.63 219.67h.75v.2h-.75zM282.63 219.33h.75v.2h-.75zM282.63 218.98h.75v.2h-.75zM282.63 218.64h.75v.2h-.75zM282.63 218.29h.75v.2h-.75zM282.63 217.95h.75v.2h-.75zM282.63 217.6h.75v.2h-.75zM282.63 217.26h.75v.2h-.75zM282.63 216.91h.75v.2h-.75zM282.63 216.56h.75v.2h-.75zM282.63 216.22h.75v.2h-.75zM282.63 215.87h.75v.2h-.75zM281.52 221.87h2.98v1.22h-2.98z"/><path d="M266.97 238.22h30.84c1 0 4.95-.63 4.85-3.1-26.72 4.46-41 0-41 0s.51 3.1 5.31 3.1z" style="mix-blend-mode:multiply" fill="#03232b" opacity=".4"/><path d="M24.14 306.2a1 1 0 0 1-.2 0 .22.22 0 0 0-.24 0l.91.49-.3.26h1.12c-.89.35-1.59.84-2.49.46v.15l.69.07v.14l-1.56.27v.11l1-.1-.07.22 1.19-.68.1.15-.3.49.08.07.77-1 .23.11-.2.78H26l-.09.33c.66-.12 1.3-.31 1.77.4a1.34 1.34 0 0 0 1.36.19 1.2 1.2 0 0 0 .2-.41l.19.77-1 .15.37.81-.16.12c-.08-.46-.31-.57-.67-.38l-.14.06c.24.48-.34.4-.42.68l-.36-.56h-.08l.07.36-.56.31.5.46c-.51 0-.65.22-.57.55a1.45 1.45 0 0 0 .35.46.56.56 0 0 1 .13.13c-.09.43.27.41.5.53l.26-.33a1.37 1.37 0 0 0 .23.31c.31.25.64.48 1 .74l-.16.28.49-.11.09.38c.47 0 .69.13.71.52l.33-.19a.56.56 0 0 0 .85.37.71.71 0 0 1 .55.14 2.38 2.38 0 0 0 1.79.42 1.33 1.33 0 0 0 .49-.4.78.78 0 0 0 1.39 0l.45 1.39-.86-.3-.08.27-.8-.94-.2.09.43 1-.09.06-.54-.66-.14.33-.32-.29-.07.06.54.71-.09.11-.64-.44-.32.07-.41.09v.14l1.07.3v.14l-.73-.14.42.38h-.46l-.07.13.76.33-.19-.5h1l-.18.66-.58-.16a.4.4 0 0 1-.13.17 7.56 7.56 0 0 0-.95.19l.56.06-.22.35c.24 0 .5-.28.66.14-.23.25-.29.48.07.59l-.12 1.13-.69-.42-.19.16c.17.2.34.39.5.59s.17.25.25.37l-.56.16 1 .69-1 .05c.38.55.86.26 1.41.13l-.43 1 .51-.19v.48l.53-.66c.09.34 0 .8.52.73a1.45 1.45 0 0 1-.11.53c-.12.17-.32.29-.45.48.6.06.65-.58 1-.8l.34.47-.41.11.68.22-.22.49-.34-.46c.15.74.16.75.6.52l.12.48h.11v-.66l.45-.39.2.73h.12l-.19-1.14a.7.7 0 0 1-.3-.08.29.29 0 0 1 0-.27c.36-.3.09-.61 0-1.05a1.09 1.09 0 0 1 .31.32c0 .33 0 .67.06 1l.32-.69.22-.51-.43-.74.02.61-.83-.41.05-.14h.37l.28-.9.9 1.74.62-.15c-.13-.26-.26-.57.36-.42a1.39 1.39 0 0 0 .44-.42c.6.06.89.71 1.37 1.29l.18-.91.37.67.05-.79.32.44a2.93 2.93 0 0 1 .13-.67 1.89 1.89 0 0 1 .39-.43l.12.1.3-.7h.5v-.27l.44.22c.31-.18-.23-1.08.64-.91.2-.44.36-.86.57-1.27s.48-.34 1 0c-.44-.12-.66 0-.41.36l-.46.11.29.57.36-.13.09.18-1 .56.06.11a1 1 0 0 1 .21-.12c.29-.08.56-.37.85.08a3.51 3.51 0 0 0 .74.29l-.74.26.24.47h-.6l.28.18-.26.28 1-.43-.35-.27.53-.2.47.36-.55.14.55.22-.93.56-.62.44h.64v.12l-.64.17v.45l.44.12v.15l-1.35.11 1.63.34v.19l-.86.22 1.19.35v.08l-.5.07.69.33v-.31a4.23 4.23 0 0 1 1-.29 2.42 2.42 0 0 1 .77.22v.14l-.84.23.13.32 1-.58-.25.48h.06a2 2 0 0 1 .18-.3c.12-.14.26-.26.38-.39v.66l.68-1.31.2.54a.75.75 0 0 0 .16-.2.89.89 0 0 1 1-.68.89.89 0 0 0 1-1 .7.7 0 0 1 .74-.77 1.33 1.33 0 0 0 1.25-1.28l1 .71-.83-1 .62-.26.5 1.39-.29-.09a1.38 1.38 0 0 1 .63 1.17c.3 1.43.68 2.84.91 4.28.09.58.08 1.17.2 1.77a.74.74 0 0 1-1.14.75.68.68 0 0 0-.95.17 1 1 0 0 1-.71.17c-.69 0-.69 0-1 .54a.66.66 0 0 0-.89.56.65.65 0 0 1-.72.43 1.71 1.71 0 0 1-1.24-.21.8.8 0 0 0-.43.07.71.71 0 0 1-.33.07 1.05 1.05 0 0 0-1.32.25 5.24 5.24 0 0 0-.37.41l-7.13 2.93 38.75-1.8-5.17-1a1.68 1.68 0 0 1-.26-.91.43.43 0 0 0-.27-.32 9.59 9.59 0 0 0-1.54-.13.77.77 0 0 1-.81-.35 2.61 2.61 0 0 1-.78-1.13c0-.27-.05-.54-.08-.81-.06-.5-.31-.66-.78-.46a.56.56 0 0 1-.65 0 .55.55 0 0 0-.53 0 1.74 1.74 0 0 1-1.28.22.5.5 0 0 1-.33-.32c-.3-1.05-.56-2.11-.85-3.16-.15-.55-.29-1.09-.47-1.63s-.43-1.21-.65-1.82a2.35 2.35 0 0 1-.05-.34c.77.67 1.36-.35 2.1 0l-.18-.56 2 1.26-.15-.23h1.11l.08-1.1-.6-.59.1-.15 1.12.49.53-.22-.64-.4.56-.09-.36-.3 1.28.19v-.11l-.69-.33.71-.29-1.11-.37.12-.79-.89-.16.79-.58-.01-.09.58.08v-.12l-1-.34.46-.53.39.24-.24-.3.52-.15-.7-.28.57-.44-.75.14v-.12l.4-.11-.16-.14h-.68l1.12-.94v-.08l-.56.13c.13-.67 0-.81-.84-.68l.3-.34-.44-.11a.78.78 0 0 1-.12.3.55.55 0 0 1-.27 0 .94.94 0 0 1 0-.3c.07-.22.17-.43.24-.6a2.59 2.59 0 0 0-.16-.37 1.51 1.51 0 0 0-.24-.25l.62-.46v-.13h-1l.51-.77-1.33-.12c.22.77.12 1-.65 1.45.18-.09-.09-.58.39-.41a1.43 1.43 0 0 0 .16-.63 3.06 3.06 0 0 0-.43-.73l.64-.48-.06-.13-.85.32-.2-.6-.34.29.11-.57-.41-.14-.49.25-.06-.13.5-.75h-.76a7.17 7.17 0 0 0-.07-.74 2.68 2.68 0 0 1 .72-2.18c.91-1.15 1.94-2.22 2.93-3.31a1.09 1.09 0 0 1 .44-.25 1 1 0 0 0 .88-1.27 1.27 1.27 0 0 1 0-.25l-1-.17.86-.73.1.9a5.81 5.81 0 0 0 .59-.75c.42-.84.77-1.72 1.22-2.55a5.19 5.19 0 0 1 .87-.94.88.88 0 0 1 .29-1.48c0-.52.08-1 .11-1.53a1.16 1.16 0 0 0 0-.4c-.28-.87.25-1.27.88-1.65a7 7 0 0 0 1-.66 6.75 6.75 0 0 0 .36-.57c.27-.29.58-.55.88-.82a1.28 1.28 0 0 0 .38-.32.6.6 0 0 1 .52-.69 2 2 0 0 1 1.76-.43.11.11 0 0 0 .1 0c.35-.56.8-.19 1.23-.16a1.69 1.69 0 0 0 .62-.17 2.12 2.12 0 0 0 .33-.18l.07.4.07.09.1-.38.21.08c.3.65.6 1.31.9 2a.33.33 0 0 1 0 .25c-.29.58.1 1.16 0 1.77a2.58 2.58 0 0 0 .54 1.34c-.12-.64-.25-1.28-.34-1.93a2 2 0 0 1 0-.65.53.53 0 0 1 .25-.11l-.24-.51h.12l.23.15-.76-1.39.13-.11a2 2 0 0 0 .69.74c.71 0 .35.48.49.85l-.54-.09.32 1.18.59 1.49h.37l-.45-1.13.1-.06.39.35.1-.09-.81-1 .1-.09.91.88a.57.57 0 0 1 .36 0c.48.38.53.56.29 1l.25-.17.86 2.8.07-.45.69.41-.3-.56.81-.22-1-1.75.17-.09.43.73h.09a1 1 0 0 1-.1-.27.8.8 0 0 1 .25-.16v-.41a.8.8 0 0 1 .19 1.14l.92.7v-1l1 .74v-.17l.63.26v-.07l-.48-.36.08-.13.7.14.07-.12-.77-.55.09-.13 1 .47-.13-.59.74.13c-.12-.41-.19-.89-.86-.72a1 1 0 0 1 1.59-.28l-.75.07.9.9v-.64a1.12 1.12 0 0 1 1.12 1.21l-.18-.42h-.08a1.06 1.06 0 0 0 .05.48c.08.11.24.3.46 0 .07-.1.49.08.48-.31l-.34.16v-.71c.31.12.62.17.34.55a.69.69 0 0 1 .23.05c.23.14.32.42.75.23s.87.46 1 1.13a.7.7 0 0 0 .2.42v-.36l-.1-.47 2 1-.07.12.55-.26-.44-.71.06-.1 1 .43-.32-.88h-.26v-.11l1.05-.76-.8-.02c.64-.49 1.09-.34 1.81.56l-.07-.49.9.43v-.18l.94-.57v-.09h-1.26l.28-.9-.69-.2v-.11l1-.18c-.51-.26-1.06.35-1.38-.32l.92-.39c-.47-.2-.9.54-1.35 0l1-.31v-.06l-1.2.21v-.1l1-.8-.73.11.13-.37-.77.31c.29-.28 0-.9.68-.75l-.55-.27a1.41 1.41 0 0 1-1.27.55l-.07-.14 1.56-.8h-.75l.15-.63-.61.43-.25-.06.25-.49-.35-.4.15-.13.21.26.11-.26.94.79.14-.14-.81-1.07c.39 0 .67-.74.95-.06l.22-.27c.07.09.13.19.2.27s.17.17.2.21l.43-.34.17.39.27-.24.38.19.06-.1-.68-.41.83-.25-.06-.2-.59.18.13-.34-.72-.38v-.16l1.08-.14-.56-.56.17-.42.84.13-.66-.64.08-.12h.46l-.36-.3 1.32-.09v-.06l-.49-.1.05-.29-.81-.18V281l.83-.21h-1l.35-1.2-1.31.42a2.93 2.93 0 0 0 .44-.7 1.35 1.35 0 0 0-.42-.41l1.1-.68-.05-.08-.7.34-.1-.1.37-.48-.47.31c-.09-.51-.33-.16-.6 0l.13-.56-.5-.24-.46.37.07-.67-.62-.18.24-.58-.79.26.45-.86h-.83v-.61h-.11l-.31.66c-.24-.55-.24-.55.32-1l-.58.3v-.41l-.4.55-1-.23-.21.22-.67-.15v-.33l-.24.38-.64-.29.2-.34-.07-.08-.53.49.23-1.28h-.1l-.57 1.13c-.29-.6.15-1.15 0-1.71l-.2.24-.02-.29c-.22.2-.32.74-.66.35l-.58.34a1.07 1.07 0 0 0 0-.77c-.1.24-.68.33-.38.68l-.52-.5-.42-.37.11 1-.37-.6-.14.81h-.12l-.24-.54-.39.66c-.13-.38 0-.85-.57-.64a1.06 1.06 0 0 1-.38-.3l-.17.74-.44-.86c-.07.35 0 .76-.44.54l-.07.64-.57-.47-.08.07c.28.42.57.83.83 1.26a.35.35 0 0 1 0 .3.59.59 0 0 1-.26 0l-.11.42-.49-.37a.74.74 0 0 1 0 1l-.2-.67h-.23l-.39.73h-.09l.08-.84h-.06c-.12.27-.23.53-.37.79a.3.3 0 0 1-.2.17.34.34 0 0 1-.18-.2c-.1-.21-.18-.42-.24-.57l-.44.43-.19-.45-.33.59-.38-1.17H84v.8l-.34-1c-.13.37-.52.7-.22 1l-.32 1-.24-.93-.48.86.22-1.12h-.17l-.08.35h-.4s-.3.05-.43.08l-.2-.7-.68.5-.09-.09.31-.58-.12-.07-.46.7-.21-.37H80v.67h-.15c0-.19-.09-.38-.13-.57a4.27 4.27 0 0 0-.13-.63c.09.68-.72 1.29-.22 2.06a1.38 1.38 0 0 1-.33-.4 7.43 7.43 0 0 0-.34-1.13l-.15.46c-.49-1-.21-1.63 1.06-2.35l-.26-.62c.46-.26.7-1 1.53-.64a.63.63 0 0 0 .46-.31.79.79 0 0 1 1.09-.59 3.52 3.52 0 0 0 .6-.05l-.68.75c.34.24.52.17.64-.25a1.06 1.06 0 0 1 1-.83c.29 0 .58-.12.87-.12a1.13 1.13 0 0 1 .41.18.41.41 0 0 0 .21.08.86.86 0 0 0 .52-.34.31.31 0 0 1 .34-.39 3.56 3.56 0 0 1 1 .09.89.89 0 0 1 .24.42c.13-.28.33-.52.61 0l-1.3.53.33-.49-.88.7v.34a1 1 0 0 1 1.12-.41l-.26.21.06.08.72-.54.12.07-.41.63a1.15 1.15 0 0 0 .34 0c.11-.55.56-.29 1-.46l-.22.83h.11a5.63 5.63 0 0 1 .2-.72 3.92 3.92 0 0 1 .39-.68 5 5 0 0 1 .47-.57 2.06 2.06 0 0 1 .33-.24v.39a1.29 1.29 0 0 1-.13.3c.23-.11.34-.16.44-.22a1 1 0 0 1 1 .11c1 .46 2 1.52 3.31.63l.18.52h.11l-.13-.93 1.07.53a3.38 3.38 0 0 1 .45-.26 1.26 1.26 0 0 1 .36 0l-.18-.4 1.1-.07.74 1.18.11-.06-.51-.87c.81-.11 1.19.53 1.76.87l-.57-.67c.7-.56 1.21-.07 1.76.19l-.61-.53.9-.29v-.09l-1.23.29a6.35 6.35 0 0 0 .37-.58c.07-.14.32-.3 0-.47a.9.9 0 0 1 .19-.48 1.91 1.91 0 0 1 .56-.25l-.23-.26-.41.13v-.08l.53-.48v-.07l-.89.53c-.15-.44.67-.67 0-1.15h.57c-.43-.26-.37-.48 0-.71h-.44l.53-.47c-.4-.11-.66.63-1.1.14l.26-.67-.85-.15 1-.75-1.3-.4c.08-.53.76.19.88-.27l-.91-.92-.15.06.24-.37-.38-.5-.37.25.11-.67-.38.06-.87-1.13-.42.61v-.62h-.3l.2-.44-.08-.08-.69.65-.09-.81h-.1l-.13.93h-.07l-.17-.71-.25.43h-.14l-.22-.7c-.08.29-.11.45-.16.6a.55.55 0 0 1-.18.1l-.35 1-.22-1.53-.5-.36-.29.53-.18-.67-.32.18-.05-.37-.63.68-.63-.67-.23.39-.4-.19-.13.43-.24-.7h-.1l-.21.86-.56-.52.11.62-.64-.15-.07.15-.23-.44-.28.58-.13-.05v-.52a1.26 1.26 0 0 0-.35 0 1.38 1.38 0 0 0-.3.22l-.32-.33v.32h-.09l-.2-.48-.73.56-.13-.79-.82.84-.66-1.07-.54 1-.52-.65-.08.36-.09.08v-.42l-.14.18-.8.46-.35-.59-.76.7.19.33c-.37.24-.71.42-.85-.19l-.66.15-.06-.11.5-.35-.36-.33.24-.4-.95-.06 1-1.12-1.34.07c.15-.43.88-.38.49-1L79 258a3 3 0 0 1 1.21-2.17l-.91.47.07-.26-.34.07.19-.53-.08-.1-.63.42c.38-.33-.52-.68.19-1h-.37c.09-.46.17-.93.26-1.39a.54.54 0 0 1 .89-.4l-.91 1.25.19.18a8 8 0 0 1 1.08-.79 6.23 6.23 0 0 1 1.31-.43 1.08 1.08 0 0 1 .24.32 5.44 5.44 0 0 1 .48.63 2.52 2.52 0 0 1 .24.7c0 .17 0 .36.06.54l.09-.58h.13l.18 1.2h.06v-.44h.1l.36.7.07-.16.45.21.06-.09-1-.92.83-.3.67 1.34.11-.29.36.41-.25-.67.16-.11.7.71v-.28c.62.19 1.24.39 1.87.56a.79.79 0 0 0 .37-.18l-.13-.15v.22l-.12.06c-.05-.13-.09-.27-.15-.39a.61.61 0 0 0-.59-.45l.43.54-.05.09-.63-.21v-.54l.25.12.09-.29-.42-.06-1.08.38-.09-.21c.28-.52.75-.16 1.14-.19-.06-.22 0-.31.24-.27a7.15 7.15 0 0 0 1.52.08l-1.21-.45v-.17h.63v-.12a3.26 3.26 0 0 0-.65-.09 9.46 9.46 0 0 0-1 .14v-.22l.65.07v-.08l-.71-.24.56-.1-.67-.28a.51.51 0 0 1 .91.1v-1l-.26-.14c.5-.54 1 .11 1.57-.07l-.28-.41 1.23.44v-.07l-.41-.22.11-.08-.45-.67h.62v-.11c-.25 0-.5 0-.74-.09s-.42-.1-.62-.15v-.2l2.29-.47c-.2-.37-.9-.05-1.12-.62l1.65.39v-.14l-1-.3.35-.28h-1.23v-.12a3.62 3.62 0 0 1 .37-.1 1 1 0 0 0 .2 0c.75-.52 1.08.33 1.62.48a1.63 1.63 0 0 0 .59.11l-.62-.35.26-.1-.59-.48.05-.16.75.39.21-.18-.49-.63.72.15-.49-.83-.21.61-.5-.67h.68l-.22-.38v-.78l-.5.34-.1-.02.47-.5-.6-.22c0-.14.56-.33 0-.55l.42-.35v-.07l-.51.14-.08-.15.56-.45v-.1l-1.12.35.18-.46-.46-.08.34-.66-1.64 1.28-.18-.18c.18-.28-.3-.86.61-.88l-.21-.77-1.14-.11c-.11-.27.67-.42 0-.71l-.36.45-.05-.58-.51.55-.11-.08.43-.67h-.17l-.16-.61.19-.21-.07-.08-.83.86v-1l-.94 1.15-.14-.11.45-.5-.55-.59-.43.28c0-.58.14-.64.83-.46-.47-.31-.47-.3-.93 0a.28.28 0 0 1-.3-.12h-.45l.36-.75c-.17-.18-.17-.18-1.08.7l.12-.71-.23-.05-.05.64c-.17-.26-.29-.44-.41-.61s-.2-.24-.29-.36c-.1.11-.2.21-.29.32a1.36 1.36 0 0 0-.12.22l-.7-.39-.16.33c-.29-.47.1-1.22-.57-1.52l-.42.76h-.13l-.13-.52-.31.82-.11-.55-.24.27c-.41.11-.09-1-.78-.45l.23.33-.72-.1c-.49-.12-.34-.46-.12-.81l-.12-.06-.49.57-.14-.26-.2.35-.09-.35-1.2-.21-.14.24-.26-.36-.38.43v-.48l-.29.13v-.42c-.27.07-.16.68-.65.46l-.38.33-.27-.56-.43.25a4.59 4.59 0 0 0 .12-.48.81.81 0 0 0 0-.4c-.05.2-.09.4-.15.6a4 4 0 0 1-.16.38l-.32-.24-.08.49h-.19v-1l-.76 1.35-.06-.15-.55.12-.05-.61h-.14l.18 1 .38-.29.13.07a3.77 3.77 0 0 1-.21.32 1.31 1.31 0 0 1-.22.17l-.35-.41-.18.47h-.12v-.34l-.72-.05v.56l-.67-.26-.08.79h-.21l-.2-.85-1.13.28v-.67a2.32 2.32 0 0 0-.36.49 2.4 2.4 0 0 0-.07.62l-.41-.34v.94l-.42.26-.12-.21a1 1 0 0 0-.3 0 1.76 1.76 0 0 0-.28.17l1.06.85-.5.58-.29-.25v.34l-.12.09-.83-.92-.17.41.49.24-.24.28c.65-.11.73-.31.68.53l.71-.29-.29 1.42-.71-.28-.06.15c.31.15.62.29.92.45a1.39 1.39 0 0 1 .27.27 1 1 0 0 1 1.26.28l-.69-.11.1.74.19-.33.17.07.33.88-.14.06-.54-.68-.46-.2.55.65c-.24-.06-.39-.11-.54-.14a2 2 0 0 1-.25 0 .72.72 0 0 1-.39-.2 2.11 2.11 0 0 1-.07-.67l-.18.39-.4-.33-.48.48.9.55a1.55 1.55 0 0 1-1.69-1l-.36.08.5.82-.35-.06v.06l.56.37v.14h-.88l.86.68v.07l-.73-.15.44 2-.83-.54-.07.06c.08.08.15.17.24.25s.21.16.36.28l-.45.05a1.84 1.84 0 0 1 1.36.7l-.74.06c.4.62-.25.3-.45.54l1.35.13.13-.09h-.22a.19.19 0 0 1-.14-.18 1.85 1.85 0 0 1 .44.06.31.31 0 0 1 .08.25 1.28 1.28 0 0 1-.35.16l-.88.31v.12l.73-.17.06.1-.4.46a1 1 0 0 0 1.2.15c-.07.27-.13.52-.2.78a.46.46 0 0 1-.15 0l.59.77-.16.13-.81-.85.18-.07h.28l-.57-.35-.18.41-.2-.59h-.07l.11.64L62 253c.1.09.2.19.3.27a.67.67 0 0 0 .22 0l-.6.68a1.42 1.42 0 0 0-.27-.23c-.19-.1-.4-.16-.6-.26a2.11 2.11 0 0 1-.3-.21l-.09.24-.33-.62h-.1l.1 1-.4-.43-.08.35-1-.53.1.74-.48-.46-.17.46c-.21.2-.66-.5-.71.25l-.4-.21-.13.23h-.13l.09-.75-.31.39-.42-.36a1 1 0 0 1-.34 1.1l-.51-1.09c-.09.54.1 1.11-.42 1.5a.84.84 0 0 1-.27-.17l-.17.38-.1-.66v1l-.48-1.13.18 1-.2.06-.43-1.3h-.1v.76l-.53-.24-.06.05.8.91.34.28.59.35-.37.18a5.74 5.74 0 0 1-.56-.25c-.18-.11-.35-.24-.58-.4l.27.84-.14.11-.45-.32-.56.7-.13-.09.06.75a.26.26 0 0 1-.1 0 .59.59 0 0 0-1 .33c-.08.26-.16.53-.26.78a.58.58 0 0 1-.26.05l.18.26-.52.33a2 2 0 0 0-.15-.57 1.56 1.56 0 0 0-.41-.33l.52 1.53-.68-.47-.08.09.27.28-.06.12-.66-.27-.09.22-.1.23h.48l.26.65-1-.41-.07.13a4.77 4.77 0 0 1 .63.34 2 2 0 0 1 .32.4l.5.65-.95.26v.12H50l.36.41-.82-.12-.07.13.29.46-.87.17c0 .33.62-.11.36.36l.92-.19.06.19-.54.55.16.43a1.49 1.49 0 0 1 .46-.48 2.9 2.9 0 0 1 .9 0l-.33.49a.72.72 0 0 1 .24.22.29.29 0 0 1-.15.23h-1.05a.4.4 0 0 1-.2.18 1.15 1.15 0 0 0-1.17.71A4.69 4.69 0 0 0 49 266c.42-.37.62-.35.72.16s.28.6.75.42v.21l-.84.18c.27.58-.51.6-.59 1.13l1.21-.9.07.43.43-.35.16.12-.71 1.07.3.22.92-1H51l.37-.5-.47.25.44-1 .58.56a.47.47 0 0 1 0 .22c-.17.17-.37.32-.55.48h.29l-.17.38h.05a.68.68 0 0 0 .2-.24 2 2 0 0 1 1.06-1.24.4.4 0 0 1 .32-.07c.39.4.6 0 .85-.18a.65.65 0 0 1 1 .17l.23-.37.16.24a1.75 1.75 0 0 1 .64-.52 1.82 1.82 0 0 1 .78.29A1 1 0 0 1 57 266c.35-.18.84 0 1.13-.38a4.31 4.31 0 0 1 .5.26l.61-1.15h.16l.17 1.59.19-.26.34.64a2 2 0 0 1 .43-1.8l.47.56-.41.18.99.36 1.14-.25v.18l-.5.13-.21.46-.45-.28a1.52 1.52 0 0 1 .32.61c-.09.35 0 .5.4.51l-.63.32c.61.35.82-.34 1.26-.42a3.49 3.49 0 0 0 .77-.34l.1.13-1 .83.1.12.93-.65h.07l-.37.64 1.49-.21c.48-.07.68.1.6.53a1.07 1.07 0 0 1 1.28.48c.21.3.41.61.64.91a.74.74 0 0 0 .3.13l.11-.1-.93-1.43 1.25-.32v-.14a2.56 2.56 0 0 1 1.47 1.57.19.19 0 0 1 0 .09c-.43.63.25 1.14.2 1.72 0 .3-.07.59-.09.89a1.17 1.17 0 0 0 0 .5c.29.73.62 1.43.9 2.16a3.34 3.34 0 0 1 .13.84v.64a.74.74 0 0 1-.74 1c.19.48 1.24.53.65 1.45l-.1-.49c-.56.14-.39-.28-.38-.48l-.95.71.05.72h-.12l-.55-.81-.11.06.47 1-.11.12-.66-.6-.08.07.25.42-.36.12c.26.36.46.71 0 1.08l-.32-.14.2.52-.4-.1v.06l.4.27v.1l-1.16-.54-.1.13.42.53-.3.17-.18.78-.68-.19v.09l.26.32-.21.1c.42.49.16.75-.37 1l.8.62-1.12.16.23.22-.91.58v-.1l.36-.73h.35l-.66-.21-1-.38.55-.3-.49-.07.66-.43-.75-.25-1 .14-.05-.13 1-.63h-.52l.12-.23-1.56.12.67-.53v-.08l-1.09.53-.08-.11.78-1.09a1.86 1.86 0 0 1-1.64.33l-.44-1.34-.46.58-.1-.51-.36.08v-.07l.51-.46-.81.2.39-.5-.44.1-.62 1.06-.38-1-.62.61v-.62l.68-.3.08.26.37-.62-.71.17-.09-.19 1-.57-.55.09.26-.37-.83-.13-.25.34a4.12 4.12 0 0 1 .15.7.5.5 0 0 1-.23.28.27.27 0 0 1-.22 0 2.35 2.35 0 0 1 0-.31c0-.17.09-.38-.19-.47a.41.41 0 0 1-.2-.29c0-.33 0-.66-.05-.9a1.79 1.79 0 0 1-.7.49.6.6 0 0 1-.52-.86 1.2 1.2 0 0 0-.54.07c-.39.32-.56 0-.77-.22a.43.43 0 0 0-.19 0l-.08-.45c-.29.51-.71.38-1.25.13l.36.43-.87.12-.28-.81-.61.86-.1-1.32-.54.29-.37-.37-.5.77c-.07-.19-.19-.5-.54-.08l-.23-.57-.67.29c-.17-.74-.47-.17-.79 0l-.17-.54h-.72l-.14-.45-.59 1.12-.22-.47-.19.6-.28-.66-.32.39-.27-.63-.18.35-.42-.64h-.11a1.53 1.53 0 0 1 0 .5 2.16 2.16 0 0 1-.31.47l-.11-.36h-.61l.07 1-.36-.83-.61.69-.79-.59-.23.31-.6-1.4a1.84 1.84 0 0 1-.36.49.85.85 0 0 1-.43 0l.08.4-.13.06-.3-.54h-.07v.45l-.43.11L38 275l-.17.38-.34-.29a1.55 1.55 0 0 0-.08.39 2.27 2.27 0 0 1 .05.47l-.27-.45h-.06l.1.66h-.11l-.5-1.15h-.11l.29.94h-.08l-.27-.43.12.5-.42-.05.24.45-.39.11.55 1.14-.48-.22c.07.59.84.82.72 1.5-.39-.61-.72-.75-1.1-.6l-1.1-1h-.11a3.86 3.86 0 0 0 .27.45c.22.27.46.52.67.8a.6.6 0 0 1-.12.27l.43.09v-.26h.1l.17 1.06h-.1l-.27-.31-.12.28-.16-.11v-.52l-.38.19c-.23-.13-.08-.31.26-.49-.58-.18-.53.26-.65.54l-.6-.06c.18.35-.21.78.32 1 0 0-.1.31-.16.48h-.15l-.11-.31h-.43l-.17 1.3-.52-.41a1.4 1.4 0 0 1-.13.5.76.76 0 0 1-.4 0v.52l-.49-.16v.52l-.48.31.54.42v.11h-.5l-.06.13 1.23.65-.06.13h-.74v.11l.68.42a1.55 1.55 0 0 1-1.68-.68v.46l-.67-.58-.15.67 1 .37.16-.24.37.22-.79.53.16.16 1.17.09v.15l-.45.13.88.57-1 .56-.28.47-.2-.23v.71l-.61-.42.12 1.41.56-.13.73 1.27a.57.57 0 0 1 .8.53 1.17 1.17 0 0 0 .42.49 2.8 2.8 0 0 0 .51.26l.09-.13a3.59 3.59 0 0 0 1.68.83 8 8 0 0 1 .92.3 3.26 3.26 0 0 0 1 0c.35-.06.68-.22 1-.29a.88.88 0 0 1 .39.08 3.51 3.51 0 0 1 .83-.53 5.06 5.06 0 0 0 2.3-1.08 10.66 10.66 0 0 0 1.22-1.49.47.47 0 0 1 .75-.18.84.84 0 0 0 .54.22 1.68 1.68 0 0 1 1.16.35 1.36 1.36 0 0 0 1.39 0l-.51-.1a.47.47 0 0 1 .14-.1c.33 0 .69-.34 1 .07a.16.16 0 0 0 .14 0 10.68 10.68 0 0 0 1.07-.6 1 1 0 0 0 0-.48c.24 0 .29.62.71 0v.28l-1.12.83.83.25c-.23-.54.45-1 1.41-.91l-.27 1c0 .42.66.9.19 1.56a.34.34 0 0 0 .1.31.42.42 0 0 0 .36 0c.33-.17.64-.39 1-.59.63.75.63.75-.27 1.73h.27l.08.1-.42.34v.11a1.29 1.29 0 0 0 .42-.25 2.2 2.2 0 0 0 .22-.55h.15v.49l.73.17a.83.83 0 0 0-.71.78.87.87 0 0 1 .44-.09.6.6 0 0 1 .28.42 1.68 1.68 0 0 1-.22.71c-.11.2-.29.36-.4.58.22-.4.92-.34.94-1l.2.09.25-.42a1 1 0 0 1 .73-.71c-.21.35-.22.79-.73.71.19.46-.22.76-.25 1.2l.51-.67c.4.41-.51.8.12 1.28l.61-2.06c.44-.15.44-.13.61.31a1.14 1.14 0 0 0 .46.31l.31-.23.16 1.15a1.65 1.65 0 0 0-1.11.63l.92-.43a1 1 0 0 1-.83 1.12.45.45 0 0 0-.28.33l.81-.37.09.16-.48.39.36.17-.56.42c.19.25.54-.58.65.11v-.53c.49.36.47.61 0 1-.29.23-.29.23-.09.55l.25-.57c.26.15-.06.65.42.56l.13-.18.33.37v-.8h.15l.13.42.4-.22a2.77 2.77 0 0 1-.19-.42c-.1-.36-.19-.72-.27-1.08 0-.2-.08-.39-.11-.59h-.13c0 .32.07.64.14 1s0 .59-.53.59l-.41-1.73h.16l.43 1.45.18-.05-.33-1.23h.26l-.3-.83.19-.14.72.88a.27.27 0 0 1 .08.18c-.33.58.27.95.35 1.44l-.13-.86h.14c-.08.41.38.79 0 1.22.32 0 .35-.12.26-.53a6.94 6.94 0 0 1-.09-.78 1.46 1.46 0 0 1 .5 1.72c.43-.5.28.16.49.15a7.55 7.55 0 0 0-1.58-3.25c.81.05.85.76 1.25 1.36-.13-.62-.56-1.12 0-1.54a.78.78 0 0 1 .35 1.15h.21l.15-.52 1.17.84a2.89 2.89 0 0 1-1.13 1.77 8.35 8.35 0 0 0-1.59 2.34c-.2.37-.35.76-.55 1.22l-.71-.79-1.21.95-.41-.35-.2-.12.34-.13c-.51 0-.52 0-.48-.51a.71.71 0 0 0-.27.1 1.17 1.17 0 0 1-.41.35l.16-.66-.16.32-.13-.08-.12-.49-.65.55v-.64l-.55.89c-.11-.86-.75-.56-1.17-.74l-.13.37c-.29-.31-.19-1-.87-.72l.4-.88-.15-.08-.65 1h-.09l.07-1.12-.5.17.14-.39-.11-.08-.33.32-.07-.32h-.52l.38-1-.77.37-.22.68h-.1l.18-1.23h-.15l-.09.46-.46-.53-.72-.12.2.56-.24.21-.27-.63-.11.08.14.47c-.44.19-.44.19-.42-.76a4.13 4.13 0 0 1-.16.42 4 4 0 0 1-.24.34l.1-.92h-.11l-.11.51-.69-.45.09-.17-.28.44-.85-.15c-.15 0-.4.27-.45-.12l-.13.05a.58.58 0 0 1-.85-.41l-.29 1.13h-.13l-.22-1.05h-.1l-.18.45-.29-.47-.18.52-.82-.87v.89l-.25-.4v.78h-.09l-.43-1H39l.17 1.24-.11.07-.56-.38-.34.91-.51-.6-.07.41-.42-.49h-.09l.15.79-.7-.16-.17.4-.5-.55-.16.68c-.16-.45-.92 0-.76-.71l-.18.74h-.11l-.13-.49-.86.05.08.64-.6-.69-.27.54-.46-.48.06.45-.59.32-.65-.71-.1.61-.77-.42-.35.17-.19-.49-.11.42-.33-.3.11.6-.72-.69-.07.86-.44-.22-.39.89-.25-.75-.29.21h-.9v.13l-.51-.3.23.72-.38-.31h-.06l.53.86-.12.11-.38-.65-.58 1.27-.77-.68c-.06.13.43.81-.36.65l-.08.77-.57-.52v.59l-.84-.5c.09.46-.1.93.5 1.09a1.08 1.08 0 0 1 .29.49l-.09.09-1-.76-.12.11 1 1.14-.08.1-.64-.48-1-.06.41.25.64.42c.78-.28 1.15.55 1.7 1.04zm11.56-25.35h-.17l-.37-.58.34-.47h.14zm2.52-1l-.26.78-.46-1zm.25 12c-.71 0-.83-.25-.45-1.08zm9.71-2.83l-.66-.02-.14-.57h.12l.18.4.5-.11v.42zm4.36.61l-1.43 1.24a1.08 1.08 0 0 1-.46-1.36l.58.05v-.14l-.42-.14v-.08a.55.55 0 0 0 .8-.41h-.68v-.07l-1 .08v-.16l1-.75c.48 0 .57.47.72.91l.22.36.53-.22zm5.91 6l-.33.51-1.42-.53v-.18zm-4.06-29.93a1 1 0 0 1-.5 0 .52.52 0 0 1 0-.46 1.1 1.1 0 0 1 .34-.31zm3.85-8.87l-.75-1.15.65-.12zm4.76-6.75c-.58-.16-1.06-.76-.82-1l.31.1zm2.22-5.4c-.65.22-1 .11-1.11-.28zm-1.32 19.38a2 2 0 0 1-.56.39 1.06 1.06 0 0 1-.4-.34L63 264l.8-.1zm.4-11.12l-.15.81H64a3 3 0 0 1 0-.62.84.84 0 0 1 .25-.29zm.45 14.52l.41-.24c0 .45-.3.57-1.35.54l.53-.79zm1.19-.13l-.11.07-.71-1.13c.88-.01.61.68.83 1.05zm4.3-17.59l-.1.13a5.19 5.19 0 0 1-.89-.55 6 6 0 0 1-.67-.88l.16-.13c.16.17.33.33.48.5a7.14 7.14 0 0 0 .47.57 3.78 3.78 0 0 0 .56.34zm16.94 1.07a5.3 5.3 0 0 1-.63.46l-.11-.12.51-.74a2 2 0 0 1 .24.38zm-1.41 1.39a.74.74 0 0 1 1-.58 1.21 1.21 0 0 1 .34.48l-.18.2-.48-.3zm-1.53 1.05l.91-.15.07.17-.41.5zm-.59-.53l.35-.42.56.48c-.33.43-.56.22-.9-.07zm15.64 18.2c.32-.31.51-.68 1-.3-.2.49-.56.38-.99.29zm-5.45-3.71c.1-.23.21-.45.29-.68s.11-.43.17-.64h.11l-.41 1.36zm-1-.38l.16-1.15h.17l-.17 1.18zM89.08 270l-.06.16h-.76l.12-.49.35.21zm-.87 1.2l1.19-.09c-.4.47-.59.5-1.19.06zm-7.67-1.2l-.51.83c-.11-.54.13-.83.51-.83zm18.85 12.54l-.25.33-.73-.55.06-.07.53.49.24-.26zm1.23-1.85a.82.82 0 0 1 1.11-.55l-.71.31v.09h.69a.72.72 0 0 1-1.09.18zm-.62 4.17a1 1 0 0 1 1.55.09zm-1.2-.72c.59.11 1.19-.34 1.69.24a1.23 1.23 0 0 1-1.68-.24zm-1.2 1.25l.9-.28-.25-.36a1 1 0 0 1 .95.86 1.61 1.61 0 0 1-1.6-.22zm-.28 7.61l1.09-.09-.19.8h-.12l-.1-.4-.71-.11v-.2zm-1.69-4.11l1.21-.55.07.14-1.2.63zm-.27-7.89a2.6 2.6 0 0 1-.68-.2l.06-.12.89-.15a1.3 1.3 0 0 1-.27.47zm-.89 10l.13-.07a1 1 0 0 1 .44.75l-.19.07zm-1.63-14.8l.34-.88a1.25 1.25 0 0 1 .24.37 6 6 0 0 1-.46.59zm-1.37-.83l.32-1.73a1.33 1.33 0 0 1-.31 1.71zm-1.08 13.1c.88.21.76.92.85 1.64zm0-12.57l.21-1.07c.4.45.34.75-.24 1.05zm-.27-.46l-.42.19v-1.16a1.14 1.14 0 0 0 .17.28c.32 0 .51 0 .19.32a.75.75 0 0 0 .06.37l-.61 1.35a1.38 1.38 0 0 1 .57-1.37zm-3.44 12.37v-.45c.15.7.71.29 1.11.4a.78.78 0 0 1-1.15.03zm-.39 3.51l.16-.05.38 1.2c-.75-.28-.51-.78-.58-1.16zm-1.48-3l.51.3c.35-.88.44-.93.94-.51a2.29 2.29 0 0 0-.45.67c-.11.48-.33.43-.73.37s-.33-.32-.39-.53a.64.64 0 0 1 .08-.35zM80.42 285a2 2 0 0 1 .53 0l-.52.64a1 1 0 0 1-.01-.64zm-.94-4.15h-.1l-.72-2.24h.05l.53 1 .1-.4zm-.86 4.92c.8.33 1.06.31 1.45-.2l.12.15a4.42 4.42 0 0 1-1 .65 2 2 0 0 1-.57-.62zm-2.25-30.86l-.74-.07v-.24a2.62 2.62 0 0 1 .62-.05.85.85 0 0 1 .12.34zm2.21 10.53l-.53.89-.33-.3.43.07-.15-.57zM78.31 276l.1.76c-.67-.39-.68-.48-.1-.76zm-4.05 10.9l.11-1.23 1.11.11zm0-16.29a1.83 1.83 0 0 0 .65-.19l-.5.06v-.11l.4-.34c-.15.06-.29.12-.44.17s-.41.1-.61.14a1.58 1.58 0 0 1 .56-.45c.18-.08.43-.23.49.15l.73-.09-.19.3a3 3 0 0 1 1.36-.16.56.56 0 0 0 .72-.12.38.38 0 0 1 .32.07c.42.32.84.67 1.27 1-.06.07-.12.17-.2.26-.55.58-1.13 1.14-1.64 1.76-.39.46-.67 1-1 1.51-.52.72-1.34 1.21-1.92.37a3.62 3.62 0 0 1-.54-1.46 17.07 17.07 0 0 1-.14-2.21c-.11-.76-.1-.74.64-.66zm-1.9 15.75l.85.32c-.69.25-.82.2-.89-.33zm-3.14 33.31c.57-.35.85-.24 1.06.35l-.5-.08.06-.27h-.66zM61.53 292l-.59-1c1.01.52 1.06.53.59 1zm1.06.07a.4.4 0 0 1-.28.25 2.89 2.89 0 0 1-.64-.09l.46-.34a.57.57 0 0 1 .27-.13.44.44 0 0 1 .19.29zm2-.74l-.06.18-1.13-.35.09-.21zm2.89 9.67l-.6-1.13c.57.07.39-.47.4-.89l.44.54-.11.48h.32zm-.21.17l-1.56.9-.12-.07.41-1.5h.16l-.06.5zm-1.85 4.08l.16-.81.11.11 1-.62.12.07zm-.53.81H65v1.12h-.15v-1.14zm-1.26-1.39V304h.11v.22l.85.15.21-.81.53.2-.35.42-.16-.08-.08.39c.57.23.23.71.37 1-.47-.28-.64-1.1-1.48-.78zm-.19 1.35l.13-1.02c.35.46.53.8-.14 1.06zm-1.22-13.12a1.1 1.1 0 0 0 .63-1l1.28.19v-.12l-.4-.48 1 .17-.29-1.12h.06l.65 1 .14-.08-.29-.51.87.29.06-.16-1-.43v-.07h.69v-.1l-.62-.14v-.11l.83.06v-.12l-.26-.17v-.1l.87.1-.85-.23v-.14l1-.24a1.89 1.89 0 0 0-1.54.2 1.75 1.75 0 0 1-.65 0l.16-.36-.45-.29a1.39 1.39 0 0 1 1.86.31l.03-.44.69.19v-.13l-.92-.29.64-.38v-.06l-1.4.42-.12-.19a.62.62 0 0 0 .53-.54l-.58-.13v-.1l.34-.14-.36-.25h1v-.06l-1.1-.28.86-.44-.25.49c.72 0 .74-.64 1-1.1l.6.41-.55.61.44.27.84-.73.27.32.54-.43a11.07 11.07 0 0 1-.29 2.12 10.62 10.62 0 0 1-1.59 4 .65.65 0 0 0 0 .33 5.82 5.82 0 0 1 0 .68c-.08.6-.74 1-.62 1.69a.42.42 0 0 1-.26.28 13.25 13.25 0 0 1-1.4.4.83.83 0 0 1-1.15-.66 5.27 5.27 0 0 1-.18-.59 1 1 0 0 1-.07-.61 1 1 0 0 1 .48-.23l-.22-.38c-.9-.09-.9-.09-.95-.36zm-.82 26.7h.17l.43 1.22-.21.07zm-.55-13.6l-.07-.07a2.06 2.06 0 0 1 .77-1.43l.11.07-.26.56.28.25-.83.61.15.11-.15-.1zM60 322c.62.3.23.82.34 1.2zm-.25-2l.25 1.57a1.46 1.46 0 0 1-.26-1.57zM54 304.44h.74l-.34 1-.12-.65h-.07l-.05.19h-.09zm.15-2v.8l.26-.22v.63c-.5-.25-.59-.54-.26-1.25zm-4.26 14.8l.21.22-.56.21c.65.57-.07.55-.16.86l-.35-.6zm-.08 3.23a.61.61 0 0 1 .39.92l-.92-.66c0-.53.35-.36.53-.31zm.87-4.08l-.46.32-.22-.59.46-.18zm-.21 4.82l.07-.64.61.15v.14zm-.88 2.6l.89-.28c-.11.59-.5.5-.81.55a1.54 1.54 0 0 1-.08-.32zm-.72-3.15l.9.78c-.27.05-.62.26-.56-.28-.48-.25-.48-.25-.34-.55zm-.87-3.34c-.1-.54.54-.1.75-.51h-1.57l-.2-.43.57-.23v-.07h-.88l-.16.66a1.9 1.9 0 0 1-.07-1.11 1.43 1.43 0 0 1 1-1l.07-.48.71.39c-.13-.26-.27-.52-.37-.79a.59.59 0 0 1 .12-.28.64.64 0 0 1 .26.18 3.71 3.71 0 0 1 .18.73.49.49 0 0 1-.19.16l.67.26.11.77-1.11-.45c.49.45 1.17.76 1.13 1.59l-.55-.27.53.73.42-.2a1.58 1.58 0 0 1 .12.16l-.91.82a1.85 1.85 0 0 1-.63-.63zm-1.22 3.59a.87.87 0 0 1 1.23-.65zm-.78-.35l.79-.27c-.15.58-.42.57-.73.46zm-2.29-3.84a3.86 3.86 0 0 1 .4.45.36.36 0 0 1 0 .31.28.28 0 0 1-.24.1.43.43 0 0 1-.15-.27 4.94 4.94 0 0 1-.02-.58zm-.26-6.49c.5-.51.48.38.83.35l-.51.45c-.29-.21-.65-.48-.33-.8zm-.5-1.62l-.21-.15v-.12h.64l.1.54.69-.22a.87.87 0 0 1 0 .28 1.36 1.36 0 0 1-1.28 0 .77.77 0 0 1 .05-.33zm-5.36 9.63a.87.87 0 0 1 .29-.22 1.67 1.67 0 0 1 .59 0 .37.37 0 0 1 .1.29 4 4 0 0 1-.39.19 1.49 1.49 0 0 0-.25.3zm-1.78 5.11l.55.5v.46l-.44-.08zm.44-3.93l-.38.18.89.53-.11.17a.87.87 0 0 0-.41-.15c-.49.15-.47-.24-.55-.5a.38.38 0 0 1 .16-.31 1 1 0 0 1 .39.09zm-1.59-4.51a1.14 1.14 0 0 1 .69-.77l.13.12-.69.77zm-2.78-.91c.74 0 .3.79.67 1.06-.28.02-.28.02-.67-1.06zm-1.35-4.06l.19-.11.63 1.05-.26.14zM29 308a2 2 0 0 1 .56-.85 1.92 1.92 0 0 1 .92.4l-.06.22c-.42.09-.74.73-1.42.23zm70.54-15.14zm0 0a8.65 8.65 0 0 1 .7.56 4.76 4.76 0 0 1 .45.63v-.42l.8-.44-1-.39.15-.27a.82.82 0 0 0-1.07.38zm-11.68-20.54l-1.42.81v.06l.64-.09-.07.45c.38-.37.92-.55.85-1.23zm6.7 20.52l-.17.39.42-.15.54.64.39-.42-.7-.51.23.35zm-38 7.63l-.18-1.11-.65.46zm-1.86 1.16c.18.15.34.32.5.49l-.16.09.25.37v-1.08l-.62-.11-.14.29a.31.31 0 0 1 .15-.05zm.3.58zm-.51-.51zm12.11 20.45l1.09.42v-.06l-1.4-.9zm19.67-50a.5.5 0 0 0-.22.14c-.07.22-.1.44-.17.76l.84-.87zM49.61 267l-.61-.57.34.44h-.75v.13h.49l-.08.24.61-.31zM32.5 318.91h-.36l.3.81c.36-.27.17-.54.06-.81zm0 0zM140.66 318l.33-.21.21-.13h-.49l-.33.24v-.05l.51-.58-.06-.06-.5.39a.55.55 0 0 1 .15-.25c.31-.08.21-.33.26-.56l-.43.26v-.3l-.29.26v-.39c-.4.08-.15-.27-.18-.33l-.39.35-.3-.65-.19.33-.06-.06.27-.44-.19.16.12-.37-.26.15v-.07h-.46l-.15-.11-.13.38-.2-.45-.22.11v-.44l-.37.35.06-.31-.17.15-.06-.22-.1.25-.18-.09-.39.21-.05-.31-.33.37-.3-.16v-.23l-.24.25-.14-.27-.31.35v-.33h-.44l-.06.25h-.06l-.09-.38c.08.39-.31.13-.39.36l-.08-.35-.25.28-.09-.2-.36.08.08-.4-.21.25v-.21l-.26.31-.18-.47-.29.19h-.06l.09-.59h-.05l-.22.51v-.4l-.13.2V314l-.42.44-.09-.26-.15.24-.09-.23h-.3l-.11.54h-.07l-.15-.58a.3.3 0 0 1-.44.21h-.06c0 .2-.15 0-.23.06l-.44.08-.14-.23v.09l-.35.23-.06-.26h-.05l.05.47c-.06-.08-.1-.13-.12-.17s0-.1-.08-.21c0 .48 0 .48-.22.39l.07-.22h-.06l-.14.32-.12-.11.1-.29-.37.06-.23.27v-.23h-.06l.09.63h-.05l-.11-.35-.39-.19.19.52h-.26v.16l-.15-.21h-.06l.07.2-.26-.09v.57l-.33-.51h-.08l.21.45c-.35-.17-.3.21-.45.37L126 316c-.21.09-.54-.06-.6.38l-.28-.46v.33l-.33-.28-.06.25h-.07l-.08-.16.08.29a.6.6 0 0 1-.21-.18.36.36 0 0 0-.14-.05c0 .25 0 .26-.25.26l.17.07-.1.06-.21.18-.62-.49-.36.4c-.11-.23-.18-.43-.28-.62a4.26 4.26 0 0 0-.81-1.2 1.48 1.48 0 0 1-.58-.91l.6-.43.08.27h.11a.4.4 0 0 1 .18-.59c.31.21.09.47 0 .79a.92.92 0 0 1 .64-.7A3.86 3.86 0 0 0 122 315c.11 0 0-.33.25-.08a.75.75 0 0 1 .26-.88 3.57 3.57 0 0 1 0 .4c0 .21 0 .25.13.27a.85.85 0 0 1 0-.63h.07l-.07.44a.94.94 0 0 0 .18-.73.14.14 0 0 1 0-.09l.37-.45.1.07-.15.43h.13l-.17.63h.09l.22-.74h.08l-.22.89c-.26 0-.32-.1-.27-.3s.05-.33.07-.49H123c0 .1 0 .2-.06.3s-.09.37-.14.55a1.4 1.4 0 0 1-.1.21l.23.06.06-.22h.08v.41l.17-.19.07.09c.25 0 .08-.21.22-.29l.13.29c.1-.16.1-.16 0-.28s-.24-.32 0-.5v.27c.06-.36.24.07.33-.06l-.28-.21.18-.08-.25-.2v-.08l.42.19a.23.23 0 0 0-.14-.17.51.51 0 0 1-.42-.57l.47.22a.84.84 0 0 0-.57-.32l.08-.59.16.12a.58.58 0 0 0 .24-.16c.08-.22.09-.24.31-.16l.31 1.05c.32-.24-.14-.44.06-.65l.26.34a1.21 1.21 0 0 1-.13-.61c-.26 0-.27-.19-.38-.36a.48.48 0 0 1 .38.36l.13.21.1-.06a1 1 0 0 0 .48.51c-.06-.11-.15-.19-.21-.3a.86.86 0 0 1-.11-.36.31.31 0 0 1 .14-.21.44.44 0 0 1 .22 0 .42.42 0 0 0-.36-.4l.37-.08v-.25h.07a1.13 1.13 0 0 0 .11.28.65.65 0 0 0 .21.13v-.06l-.22-.18v-.05h.14c-.46-.5-.46-.5-.14-.88.16.1.32.21.49.3a.22.22 0 0 0 .19 0 .17.17 0 0 0 0-.16.89.89 0 0 1 .1-.8l-.14-.49c.49 0 .84.19.72.47l.36-.11-.57-.42v-.14c.21.32.24 0 .36 0a.49.49 0 0 0 0 .24 5.5 5.5 0 0 0 .55.31.08.08 0 0 0 .07 0c.16-.21.34-.05.51 0a.24.24 0 0 1 .07.05h-.26a.7.7 0 0 0 .71 0 .86.86 0 0 1 .59-.18.43.43 0 0 0 .28-.11.24.24 0 0 1 .38.09 5.42 5.42 0 0 0 .62.76 2.59 2.59 0 0 0 1.17.55 1.78 1.78 0 0 1 .43.27.45.45 0 0 1 .2 0c.18 0 .35.12.53.15a1.68 1.68 0 0 0 .52 0 4.08 4.08 0 0 1 .47-.15A1.84 1.84 0 0 0 135 311v.06a1.46 1.46 0 0 0 .26-.14.6.6 0 0 0 .21-.25.29.29 0 0 1 .41-.27l.37-.65.29.07.06-.72-.31.22V309l-.1.12-.15-.24-.49-.29.45-.29-.23-.07v-.07h.58l.08-.08-.4-.27.19-.11.08.12.52-.19-.08-.34-.3.3v-.23a.79.79 0 0 1-.86.35l.38-.2v-.06h-.38v-.07l.63-.33v-.06h-.26v-.06l.27-.22-.25-.16v-.27l-.25.08v-.27a.39.39 0 0 1-.21 0 .71.71 0 0 1-.07-.26l-.27.21-.09-.67h-.22l-.06.16h-.08c0-.08-.09-.24-.08-.24.27-.11.07-.33.16-.51h-.31c-.06-.14 0-.37-.34-.28.17.09.25.18.13.25l-.19-.1v.26l-.08.06-.06-.14-.14.16h-.05l.08-.54h.05v.26h.22a.3.3 0 0 1-.06-.14c.11-.14.23-.27.34-.41a2 2 0 0 0 .14-.23h-.06l-.56.49c-.19-.08-.36 0-.56.31a2.22 2.22 0 0 1 .37-.77l-.25.11.28-.58-.2-.05.13-.23h-.21l.06-.26-.14.22.15-.48h-.05l-.26.59h-.06l.05-.34-.22.06a1.19 1.19 0 0 1 0-.24.79.79 0 0 0 0-.2l-.18.15-.09-.19-.15.25-.22-.06v-.23l-.15.28h-.06v-.2a.44.44 0 0 1-.22 0 .93.93 0 0 1-.18-.25l-.31.72-.12-.16-.4.3-.31-.35-.19.43v-.5h-.31v.19a1.11 1.11 0 0 1-.16-.24.77.77 0 0 1 0-.25h-.05l-.22.33-.09-.18-.14.32-.16-.2-.14.34-.1-.32-.11.24-.3-.57-.08.24h-.37l-.09.28c-.16-.08-.32-.37-.41 0l-.34-.15-.12.29c-.18-.21-.24-.05-.27 0l-.25-.39-.19.19-.27-.15-.05.68-.31-.44-.14.41-.45-.06.19-.22c-.28.13-.49.2-.64-.06v.22a.22.22 0 0 0-.1 0c-.11.12-.19.27-.4.11a.61.61 0 0 0-.27 0 .31.31 0 0 1-.21.43.91.91 0 0 1-.36-.25v.46a.21.21 0 0 1-.1.15c-.14 0-.09.15-.09.24a1.25 1.25 0 0 1 0 .16.14.14 0 0 1-.11 0 .26.26 0 0 1-.12-.14 2.15 2.15 0 0 1 .08-.36l-.13-.17-.43.07.13.19h-.28l.49.29v.1l-.36-.09.19.32v-.13l.35.15v.32l-.32-.33-.19.54-.25-.55-.23-.05.2.26-.41-.1.26.23h-.18v.26l-.24-.3-.23.68a1 1 0 0 1-.84-.17l.4.56v.05l-.56-.27.34.27-.8-.06.06.12h-.26l.54.32v.07l-.52-.07-.38.13.34.22h-.25l.28.15-.53.2-.34.11h.18l.18.37v.05l-.47-.3.12-.11-.57-.08.41-.32c-.27-.11-.4-.24-.19-.49l-.11-.05.13-.16-.28.1-.09-.4-.15-.09.21-.27-.05-.07-.59.27v-.05l.19-.16h-.2l.07-.22-.17.07c-.22-.19-.12-.37 0-.55l-.19-.06.13-.22-.34.31-.06-.06.24-.49h-.05l-.28.41h-.06v-.37l-.48-.37c0 .1.09.32-.2.25v.25c-.3-.47.24-.49.33-.74a.38.38 0 0 1-.38-.52v-.33a1.7 1.7 0 0 1 .07-.43c.14-.37.31-.73.46-1.1a.6.6 0 0 0 0-.25v-.46a1.39 1.39 0 0 0 .1-.88 1.31 1.31 0 0 1 .75-.8v.07l.64.16-.47.75h.06a.38.38 0 0 0 .15-.07c.12-.15.22-.31.33-.46a.54.54 0 0 1 .65-.25c0-.22.06-.31.31-.27l.76.11-.19-.33.47.33v-.05l-.52-.42v-.07a1.79 1.79 0 0 0 .4.17c.22 0 .33.39.64.21l-.32-.16c.19 0 .25-.08.21-.26a.79.79 0 0 1 .16-.31l-.23.14-.11-.24-.26-.07v-.09l.58.13.48-.19-.21-.09.23-.27a1 1 0 0 1 .22.92l.17-.33.1.13.09-.81h.08l.31.59a2.19 2.19 0 0 1 .26-.14 1 1 0 0 0 .58.2.52.52 0 0 1 .12.12.94.94 0 0 1 .4-.15.89.89 0 0 1 .33.27l.08-.12.12.19a.33.33 0 0 1 .51-.08c.12.11.23.3.43.09a.21.21 0 0 1 .16 0 1 1 0 0 1 .54.63.35.35 0 0 0 .1.12l-.09-.2h.14c-.1-.08-.19-.16-.28-.25a.24.24 0 0 1 0-.11l.28-.3.23.53-.24-.13-.08.11h-.19l.47.49.15-.11-.37-.55.08-.06.22.18v-.22l.62.46c0-.27-.44-.28-.3-.58l-.43-.09v-.11c.24.1.34 0 .38-.21s.15-.27.37-.08a2.5 2.5 0 0 0 .22.14.59.59 0 0 0-.6-.36.2.2 0 0 1-.1-.09h-.54a.15.15 0 0 1-.08-.12.36.36 0 0 1 .12-.11l-.17-.25a1.46 1.46 0 0 1 .46 0 .76.76 0 0 1 .24.25l.08-.22-.27-.28v-.06l.47.1c-.13-.24.2 0 .18-.18l-.45-.08.15-.23v-.06l-.42.06.17-.24h.56v-.06l-.48-.14.26-.33a1 1 0 0 1 .16-.21 2.48 2.48 0 0 1 .32-.17v-.06l-.51.21.13-.33h.24V294.87l-.34.17v-.06l.14-.15-.35.24.26-.78a.79.79 0 0 0-.21.17 1 1 0 0 0-.08.29l-.27-.17.09-.13a.29.29 0 0 1-.13 0c-.05-.13-.09-.27-.13-.4a.3.3 0 0 0-.53-.17h-.05v-.38h-.07l-.28-.36-.23.16-.07-.06.14-.43c-.12.08-.2.15-.3.2a3.09 3.09 0 0 1-.28.13l-.19-.09.3-.18.2-.1.41-.47-.27.12v-.52l-.22.66h-.1l.09-.5-.2.55v-.5l-.05.34-.09-.19a.43.43 0 0 1-.14.09 1 1 0 0 1-.21-.77l-.26.56a.51.51 0 0 1-.18-.56l-.21.18-.16-.2v.39h-.07l-.07-.12-.2.11c0-.38-.25 0-.36-.13l-.09-.23-.25.24.06-.36-.53.27v-.18l-.2.22.05-.49-.17.32v-.12a1.06 1.06 0 0 1-.15.11l-.31.13a.74.74 0 0 0-.14.12l-.31-.35a.34.34 0 0 0 .11 0l.15-.14-.18.08.06-.33-.1.3-.09-.21-.29.18h.19l-.41.43-.08-.07.3-.4h-.07c0-.13-.07-.26-.1-.4a.53.53 0 0 0 .61-.08l-.21-.24v-.05l.37.09v-.06l-.45-.16a.66.66 0 0 1-.18-.08.16.16 0 0 1 0-.13 1 1 0 0 1 .23 0 .1.1 0 0 1-.07.09h-.11.07l.69-.06c-.11-.12-.44 0-.23-.28h-.35a.94.94 0 0 1 .69-.36h-.23l.19-.15.12-.13-.38.27.23-1-.37.08.44-.35h-.45v-.07l.28-.19h-.18l.25-.42h-.19a.79.79 0 0 1-.86.53l.46-.28-.24-.24-.21.17-.09-.2a1.09 1.09 0 0 1 0 .34.37.37 0 0 1-.2.1 1 1 0 0 1-.13 0l-.27.07.28-.33-.24.1-.28.34h-.07l.17-.45h.09l.1.17.07-.39-.35.06a.53.53 0 0 1 .64-.14.7.7 0 0 1 .14-.14l.47-.23v-.08l-.36.14-.16-.71.37.15c0-.43 0-.33.35-.27l-.12-.15.25-.12-.09-.21-.42.47h-.06v-.18l-.15.13-.26-.29.54-.44a.92.92 0 0 0-.15-.09.52.52 0 0 0-.15 0l-.06.11-.22-.13V285l-.21.18a1.24 1.24 0 0 0 0-.32 1.18 1.18 0 0 0-.18-.25v.34l-.58-.14-.1.44h-.11v-.4l-.34.13v-.31h-.37v.17h-.06l-.53-.54-.18.21a.7.7 0 0 1-.11-.09 1.88 1.88 0 0 1-.11-.16h.07l.2.15.09-.5h-.07v.28l-.28-.06v.08l-.39-.69v.48h-.07v-.25l-.16.13a2 2 0 0 1-.08-.2c0-.1-.05-.21-.08-.31a.41.41 0 0 0 0 .2 2.4 2.4 0 0 0 .06.24l-.22-.13-.14.29-.2-.17c-.25.12-.19-.2-.33-.23v.22l-.15-.07v.28l-.19-.22-.13.19-.07-.12-.63.11v.18l-.1-.18-.07.13-.25-.29h-.06c.11.18.19.35-.06.41l-.37.05.12-.17c-.35-.28-.19.28-.4.23l-.12-.14-.06.28-.16-.42-.07.27h-.07l-.21-.39a1.12 1.12 0 0 0-.29.78l-.08-.17-.36.2a.71.71 0 0 0-.06-.11l-.15-.16-.15.18-.21.31v-.33l-.14.07.06.37c-.46-.45-.46-.45-.55-.36l.18.38h-.23a.15.15 0 0 1-.15.06c-.23-.14-.23-.15-.47 0 .35-.09.41-.06.43.24l-.22-.14-.28.3.23.26-.07.06-.48-.59v.51l-.42-.44.1.11-.08.31h-.09l.22.34h-.06l-.26-.28v.3l-.19-.23c-.33.15.07.23 0 .37l-.58.06-.11.39c.46 0 .22.31.31.45h-.06l-.84-.66.17.34h-.24l.09.23-.82-.07.29.23v.07l-.26-.07.21.18c-.29.11 0 .21 0 .28l-.31.11.24.26-.26-.18v.4l-.11.19h.35l-.26.34-.11-.31-.25.43.37-.08-.25.32.11.09.38-.2v.07l-.3.24.14.05-.32.18a.84.84 0 0 0 .3-.06c.28-.08.44-.51.83-.25a.46.46 0 0 0 .1 0l.19.05v.06h-.64l.18.14-.52.16v.07l.74-.21a1.78 1.78 0 0 1-.57.32l1.17.24v.1l-.32.08h-.38v.05h.32l-.23.34h.06l-.21.11.63-.23-.14.21a1.18 1.18 0 0 1 .8 0l-.13.07v.53a.26.26 0 0 1 .46-.05l-.34.14h.29l-.36.12h.33v.11c-.16 0-.32-.06-.49-.07a1.68 1.68 0 0 0-.34 0v.06h.32v.09l-.62.23a3.64 3.64 0 0 0 .78 0c.14 0 .16 0 .12.14.2 0 .44-.17.58.1v.1l-.55-.2h-.22v.15l.13-.06v.76l-.32.11.22-.27a.31.31 0 0 0-.3.23c0 .06-.05.13-.08.2h-.06v-.11l-.07.07a.4.4 0 0 0 .19.09c.32-.08.64-.19 1-.28v.15l.36-.36.08.06-.13.34.18-.21.06.15.34-.69.43.16-.49.47.23-.11v.08l.19-.36h.05v.23l.09-.62h.07v.3-.28a1.27 1.27 0 0 1 .12-.36 2.76 2.76 0 0 1 .25-.32.56.56 0 0 1 .12-.16 3.21 3.21 0 0 1 .67.22 4.06 4.06 0 0 1 .55.4l.22-.13-.47-.64a.28.28 0 0 1 .45.2c0 .23.09.47.13.71h-.19c.36.15-.1.33.1.5l-.32-.21v.05l.1.27h-.17v.13l-.47-.24a1.56 1.56 0 0 1 .62 1.11h-.23c-.2.29.18.27.25.49h-.68l.52.57-.48.05.12.2-.19.17.26.18v.06l-.34-.08c-.07.32-.25.22-.44.1l.1-.17-.39-.36-.19.31-.41-.23-.07-.09v.21-.18l-.26.33-.28-.53-.34.55-.42-.43v.43l-.37-.29-.1.25v-.17l-.16.17a.72.72 0 0 0-.15-.11.66.66 0 0 0-.18 0v.27h-.07l-.14-.29-.12.23v-.08l-.33.08v-.3l-.29.26-.11-.44H106l-.12.36-.08-.4-.2.1-.1-.22-.32.34-.32-.35v.19l-.16-.09-.09.35-.15-.27-.26.19-.11.78-.18-.5a.29.29 0 0 1-.09-.05c0-.08 0-.16-.08-.31l-.11.36h-.07l-.13-.22-.08.36-.07-.47h-.05v.42l-.36-.33.1.22h-.15v.32l-.21-.31-.44.58h-.19l.05.34-.19-.13-.19.25.12.19h-.08l-.44.48c.06.24.41-.13.45.14l-.67.21.49.38-.52.05.13.34c-.23.25-.36-.13-.56-.07l.27.24h-.24c.17.12.2.23 0 .36h.29c-.35.25.07.37 0 .59l-.46-.27.27.25-.21-.07-.12.13a1 1 0 0 1 .29.13.45.45 0 0 1 .1.24c-.16.09 0 .17 0 .24a3.26 3.26 0 0 0 .19.3l-.63-.15.46.15-.31.27a.73.73 0 0 1 .9-.1l-.37.42a1.35 1.35 0 0 1 .9-.44l-.26.45h.06l.38-.6h.56l-.09.2a.64.64 0 0 1 .18 0 1.78 1.78 0 0 1 .23.13l.55-.27-.07.47h.06l.09-.27c.67.45 1.17-.09 1.7-.32a.49.49 0 0 1 .53-.06l.23.11a.66.66 0 0 1-.07-.15v-.2a1 1 0 0 1 .17.12 2.58 2.58 0 0 1 .24.29 2 2 0 0 1 .2.35 2.89 2.89 0 0 1 .1.37h.06l-.11-.42c.2.08.43 0 .49.23a.59.59 0 0 0 .17 0l-.21-.32h.06l.37.27-.12-.13a.49.49 0 0 1 .57.21v-.18l-.45-.36.17.25-.66-.27c.15-.28.25-.16.31 0a.46.46 0 0 1 .12-.21 1.83 1.83 0 0 1 .51 0 .16.16 0 0 1 .18.2.44.44 0 0 0 .2.18.21.21 0 0 0 .11 0 .58.58 0 0 1 .21-.09c.15 0 .29.05.44.06a.54.54 0 0 1 .53.43c.06.22.15.25.33.13l-.35-.39a1.8 1.8 0 0 0 .31 0 .41.41 0 0 1 .56.3.33.33 0 0 0 .24.16c.42-.2.55.2.78.33l-.13.32c.65.37.79.69.54 1.2l-.07-.24a3.82 3.82 0 0 0-.17.58.7.7 0 0 1-.17.2c.25-.4-.16-.71-.11-1.06a2.27 2.27 0 0 0-.07.32c0 .1 0 .2-.06.29h-.08v-.35l-.11.19-.23-.36h-.06l.21.35-.35-.26-.1.36H110v-.18h-.08l.11.57-.24-.44-.12.48-.17-.53c.15-.17 0-.34-.11-.53l-.17.52v-.38l-.2.6-.17-.3-.1.23-.23-.22c0 .08-.07.19-.12.29a.17.17 0 0 1-.09.1.15.15 0 0 1-.1-.08c-.07-.13-.13-.27-.19-.41v.43l-.2-.38h-.08l-.1.34a.38.38 0 0 1 0-.51l-.25.19-.06-.22a.3.3 0 0 1-.14 0 .18.18 0 0 1 0-.15c.14-.22.28-.43.43-.64l-.29.24v-.33c-.25.11-.19-.1-.23-.28l-.22.38-.09-.38a.54.54 0 0 1-.19.15c-.3-.11-.23.14-.29.33l-.2-.34-.12.27h-.29l-.07-.41-.19.31.06-.5-.22.19-.27.26c.15-.18-.14-.23-.2-.35a.55.55 0 0 0 0 .4l-.3-.17c-.17.2-.23-.08-.34-.18v.17l-.1-.12a3 3 0 0 1 0 .87l-.22-.6h-.05l.12.66-.27-.25.1.18-.33.15-.12-.19v.17l-.34.07-.11-.11-.5.12-.21-.28v.21l-.29-.16c.29.25.29.25.17.53l-.16-.34h-.16v.31h-.42l.23.44-.4-.13.12.29-.32.09v.34l-.23-.19-.26.12.06.29c-.14-.1-.26-.28-.3 0L100 304l.19.24v.05l-.36-.17.56.35a.69.69 0 0 0-.21.21 1.51 1.51 0 0 0 .23.36l-.67-.22.18.61h-.5l.42.11v.07l-.41.09v.15l-.25.05h.67l-.18.15h.24v.06l-.34.33.43-.06.09.21-.29.29.55.07v.08l-.37.19.07.17-.3-.09v.1l.43.13-.35.21.2-.1.07.36.09-.2.22.17.1-.1.1-.14.11.14c.14-.35.28 0 .49 0l-.42.55.07.07.48-.4.06.13.11-.13.08.07-.18.2.13.25h-.06l-.31-.22.08.32h-.38l.8.41v.07a.72.72 0 0 1-.65-.28l-.28.14c.34-.08.2.24.35.39l-.39-.16.07.19-.37-.06.5.41v.05l-.61-.11.49.16c-.23.28-.45-.1-.69 0l.47.2c-.16.34-.44 0-.71.16l.5.09v.05l-.35.1.14.46h-.73l.48.29v.09l.46-.22v.25c.37-.46.6-.54.93-.29h-.39l.54.39v.05h-.12l-.16.45.53-.22v.05l-.23.36.28.13v-.06l1-.51c0 .09 0 .17-.05.24s0 .12 0 .18a.35.35 0 0 0 .1-.22c.07-.34.32-.66.51-.58s.27 0 .38-.12a.36.36 0 0 1 .12 0c-.15-.2 0-.22.17-.28v.37l-.17-.08c0 .2.21.11.25.16s.19 0 .23 0a.55.55 0 0 0 0-.25h-.06l-.09.22a.57.57 0 0 1 .61-.61v.33l.46-.46h-.38a.49.49 0 0 1 .81.14c-.34-.08-.38.16-.44.37l.38-.07-.07.3.51-.24v.06l-.39.28v.06l.32-.11v.07l-.25.18.32-.13v.09l.52-.38v.5l.47-.36a.41.41 0 0 1 .1-.58v.21a.4.4 0 0 1 .13.08.5.5 0 0 1 0 .14l.22-.37h.09l-.51.9.41.11-.15.29.35-.21v.23l.44-1.43.23.23c-.12-.23-.1-.32.15-.51a.29.29 0 0 1 .19 0l.47-.45h.05l-.41.51h.05l.2-.18h.05l-.23.58h.18l.3-.76.17-.6h-.28c.07-.19-.12-.46.25-.43a1 1 0 0 0 .35-.38l.06.05-.39.71.12-.08h.06l-.13.26a.28.28 0 0 1 .13.06 1 1 0 0 1 0 .33c0 .33-.12.66-.18 1a1.32 1.32 0 0 0 .28-.68 2.78 2.78 0 0 0 0-.9.17.17 0 0 1 0-.13l.46-1h.07l.05.19v-.2a1.1 1.1 0 0 0 .17.09.87.87 0 0 0 .32.08c.22 0 .45-.2.63.08a1 1 0 0 1 .9.22.31.31 0 0 1 .27.35.65.65 0 0 0 .2.16c.15.14.31.27.45.42a3.35 3.35 0 0 0 .19.29 3.6 3.6 0 0 0 .5.34.67.67 0 0 1 .45.84.59.59 0 0 0 0 .2c0 .26 0 .52.06.78a.45.45 0 0 1 .15.76 2.66 2.66 0 0 1 .44.48c.23.42.41.87.63 1.3a3.05 3.05 0 0 0 .26.38v-.46l.44.37-.49.09a.68.68 0 0 1 0 .13.51.51 0 0 0 .45.65.56.56 0 0 1 .22.13c.51.56 1 1.1 1.5 1.69a1.37 1.37 0 0 1 .37 1.11 3.63 3.63 0 0 0 0 .38h-.39l.25.38v.07l-.25-.13-.21.07.05.29-.18-.15-.12.28-.43-.16v.07l.33.25a1.56 1.56 0 0 0-.22.38.73.73 0 0 0 .08.32c.25-.09.11.16.2.21-.39-.24-.44-.34-.33-.74h-.65l.44.61h-.49l.31.24a.75.75 0 0 0-.12.12 1.38 1.38 0 0 0-.08.19c0 .09.09.19.12.3a.48.48 0 0 1 0 .16.28.28 0 0 1-.14 0 .39.39 0 0 1-.06-.15l-.23.06.16.18c-.41-.07-.5 0-.43.35l-.29-.06.57.48h-.37l-.08.07.13.06v.06l-.38-.07.29.22-.36.14.27.08-.12.16.2-.12.24.27-.51.18v.06h.3v.06l.41.3h-.48l.06.4-.57.19.36.15-.35.17v.06l.65-.09-.18.15h.29l-.33.2.27.11.57-.25v.07l-.31.3v.56h.68l-.08.12 1-.64-.09.28c.38-.16.68.36 1.07 0a1.2 1.2 0 0 1 0 .17c-.11.31-.23.62-.33.93s-.16.55-.24.83c-.14.54-.28 1.08-.43 1.62a.26.26 0 0 1-.17.17.89.89 0 0 1-.65-.11.28.28 0 0 0-.27 0 .29.29 0 0 1-.33 0c-.24-.1-.37 0-.4.23s0 .28 0 .41a1.33 1.33 0 0 1-.4.58.4.4 0 0 1-.41.18 5 5 0 0 0-.79.06.22.22 0 0 0-.14.16.86.86 0 0 1-.13.47l-2.64.52 19.82.92-3.65-1.5-.19-.21a.54.54 0 0 0-.68-.13.36.36 0 0 1-.17 0 .41.41 0 0 0-.22 0 .87.87 0 0 1-.63.11.33.33 0 0 1-.37-.22.34.34 0 0 0-.48-.31c-.16-.29-.16-.28-.51-.28a.52.52 0 0 1-.36-.09.35.35 0 0 0-.48-.09.38.38 0 0 1-.58-.39c.06-.3.05-.61.1-.9.12-.74.31-1.46.47-2.19a.71.71 0 0 1 .32-.6h-.15l.26-.71.32.13-.43.53.51-.36a.68.68 0 0 0 .64.66.36.36 0 0 1 .38.4.46.46 0 0 0 .52.53.46.46 0 0 1 .54.35.38.38 0 0 0 .08.1l.1-.23.35.67v-.34l.2.2a1 1 0 0 1 .09.15l-.1-.28.53.3.07-.16-.43-.12v.02a1.23 1.23 0 0 1 .4-.11 2.18 2.18 0 0 1 .49.15v.16l.35-.17h-.25l.61-.18-.44-.11v-.1l.83-.17-.69-.06v-.08l.23-.06v-.23l-.33-.09v-.06h.33l-.32-.22-.47-.29.29-.11-.28-.07.21-.18.27.1-.15.18.5.22-.13-.14.14-.09h-.31l.12-.24-.38-.13a1.8 1.8 0 0 0 .38-.15c.15-.23.29-.08.43 0a.49.49 0 0 1 .11.06v-.05l-.49-.29v-.09l.19.07.15-.29-.23-.06c.13-.21 0-.24-.21-.18.25-.2.41-.2.5 0s.19.42.29.65c.44-.09.17.37.33.46l.23-.11v.14h.25l.15.36h.06a1 1 0 0 1 .2.22 1.49 1.49 0 0 1 .07.34l.17-.23v.4l.19-.34.09.47a1.33 1.33 0 0 1 .7-.66.7.7 0 0 0 .22.21c.31-.08.25.08.18.21l.32.08.46-.89.14.46h.19v.07l-.42.21v-.32l-.22.38.11.26.16.35v-.51a.55.55 0 0 1 .16-.16c0 .23-.18.39 0 .54a.15.15 0 0 1 0 .14.35.35 0 0 1-.16 0l-.09.58h.06l.07-.38.23.2v.34h.06l.06-.25c.22.12.23.12.3-.26l-.17.23.02-.43.35-.11-.21-.05.17-.24a.86.86 0 0 0 .53.41c-.07-.1-.17-.15-.23-.24a.75.75 0 0 1-.05-.27c.27 0 .22-.2.26-.38l.27.34v-.25l.26.1-.22-.51c.28.06.52.21.72-.07h-.53l.53-.36-.29-.08a2.2 2.2 0 0 1 .13-.19l.26-.3-.1-.08-.35.22-.06-.58c.18-.05.15-.17 0-.3.08-.22.22-.1.34-.07l-.11-.18h.29a3.83 3.83 0 0 0-.49-.1.2.2 0 0 1-.07-.09l-.3.08-.09-.34h.49l-.1.25.39-.17v-.06h-.2l.22-.19-.37.07v-.07l.55-.16v-.07h-.37l-.34.21v-.06l.3-.34-.16.15-.07-.17-.28.34.22-.52h-.1l-.41.48v-.14l-.48.14.23-.71a.4.4 0 0 0 .71 0 .68.68 0 0 0 .25.21 1.21 1.21 0 0 0 .91-.22.36.36 0 0 1 .28-.07.28.28 0 0 0 .43-.19l.17.1c0-.2.12-.28.36-.27v-.19l.25.06-.08-.14.51-.38a.68.68 0 0 0 .12-.16l.14.17c.11-.06.3-.05.25-.27a.27.27 0 0 1 .07-.07.74.74 0 0 0 .18-.24c0-.17 0-.3-.29-.28l.25-.23-.29-.16v-.18l-.19.29c0-.14-.34-.1-.21-.35h-.07c-.19-.1-.3 0-.34.19l-.08-.06.19-.41-.5-.08.09-.39a.62.62 0 0 0 .1.21.69.69 0 0 0 .69-.1.75.75 0 0 1 .91-.2v-.17h.58l-.1-.4.12-.05.39.52-.16-.25v-.08l.61.35v-.11l.51.05v-.39l-.8-.14v-.07h.35v-.08a1.59 1.59 0 0 1-1.27-.24h.57l-.15-.13.46-.25a.11.11 0 0 0-.12 0h-.1c.16-.26.34-.69.73-.49zm-6.74-13h.07l.18.24-.19.3h-.09zm-1-.11l-.24.5-.13-.4zm-.27 5.71c.19.42.14.55-.23.55zm-5.2-1.11l.26.06.09-.2h.06l-.07.29-.34.06v-.2zm-2.16.15l.27.11.11-.18c.08-.23.12-.48.37-.47l.49.38v.08h-.85a.28.28 0 0 0 .41.21v.07l-.21.07v.09h.29a.55.55 0 0 1-.23.69l-.73-.64zm-2.15 3.36v.09l-.73.27-.17-.26zm1.3-15.61a.56.56 0 0 1 .17.16.27.27 0 0 1 0 .23.52.52 0 0 1-.26 0zm-2-4.78l.33.06-.39.59zm-2.24-3.28l.16-.05c.12.13-.12.43-.42.52zm-.83-2.44c-.08.2-.24.26-.57.14zm.15 10l.41.05v.08a.53.53 0 0 1-.2.17 1 1 0 0 1-.29-.2zm-.2-5.64a.43.43 0 0 1 .13.15 1.5 1.5 0 0 1 0 .32h-.09l-.08-.41zm-.07 7.23l.27.4c-.54 0-.7 0-.69-.28l.21.12zm-.4-.36l-.36.58h-.06c.1-.3-.03-.65.41-.65zm-2.34-8.64a3.54 3.54 0 0 0 .24-.29l.25-.26.08.07a3.07 3.07 0 0 1-.34.45 2.71 2.71 0 0 1-.45.28l-.05-.06a2 2 0 0 0 .27-.26zm-8.83.52l.26.38-.06.06a2.68 2.68 0 0 1-.32-.23 1 1 0 0 1 .12-.28zm.26.81l-.24.17-.09-.1a.61.61 0 0 1 .18-.25.38.38 0 0 1 .5.29zm.83.92l-.21-.26v-.08l.47.08zm.12-.5l.29-.25.19.21c-.16.08-.3.18-.48-.03zm-8 9.12c.23-.19.33 0 .49.15-.23-.05-.38.03-.51-.23zm3.2-1.72l-.22-.69h.06c0 .11 0 .22.09.33s.1.23.15.35zm.5-.2l-.05-.6h.09l.06.58zm2.19 1.5l.18-.11.04.18h-.39v-.08zm-.34.65h.61c-.32.21-.44.19-.62-.07zm4.8-.11L111 300c.15-.06.28.11.22.4zm-9.84 5.94l.12.13.29-.23-.38.28-.13-.17zm-1.26-1h.35l-.36-.16a.42.42 0 0 1 .57.28.37.37 0 0 1-.58-.16zm.1 2.24a.51.51 0 0 1 .79 0zm.54-.29a1.08 1.08 0 0 1 .86-.12.63.63 0 0 1-.89.08zm.67.63a.52.52 0 0 1 .48-.44l-.13.18.46.14a.82.82 0 0 1-.84.13zm1 3.88l-.36.06v.21h-.06l-.1-.41h.56v.08zm.83-2.07l-.61-.32v-.07l.62.28zm0-4.39l.45.08v.06a1.35 1.35 0 0 1-.35.1.66.66 0 0 1-.14-.28zm.4 5.72h-.1a.48.48 0 0 1 .23-.39h.07zm1-7.91a3.11 3.11 0 0 1-.23-.3.63.63 0 0 1 .12-.19l.17.45zm.6-1.35l.16.88a.68.68 0 0 1-.24-.93zm.28 8.42c0-.37 0-.73.44-.84zm.35-7.81l.11.55c-.38-.21-.42-.37-.19-.61zm.56 1l-.31-.69a.38.38 0 0 0 0-.19c-.17-.19-.06-.18.1-.16a.55.55 0 0 0 .09-.14v.59l-.22-.1a.7.7 0 0 1 .26.64zm.86 5.62c.2-.06.49.15.57-.21v.23a.4.4 0 0 1-.65-.12zm.52 2.41l.2-.61h.08c-.13.16 0 .41-.37.55zm1.09-2c0 .11 0 .24-.2.27s-.32.06-.38-.19a1.18 1.18 0 0 0-.23-.34c.25-.22.3-.19.48.26l.26-.15a.32.32 0 0 1-.01.1zM111 308l-.27-.33a1.07 1.07 0 0 1 .27 0 .51.51 0 0 1 0 .33zm.56-3.32v.2l.27-.51-.37 1.14h.04zm.07 3.68a2.24 2.24 0 0 1-.51-.33l.06-.08c.2.26.33.27.74.1a1 1 0 0 1-.27.27zm1.53-16.36a1.34 1.34 0 0 1 .32 0v.12h-.38a.44.44 0 0 1 .06-.12zm-.91 5.63l-.06.28h.22l-.17.16-.27-.46zm-.25 5.77l.05-.39c.34.16.34.21-.05.39zm1.5 4.63l.57-.06.06.63zm1-7.42a8.75 8.75 0 0 1-.07 1.13 1.85 1.85 0 0 1-.28.75c-.3.43-.72.18-1-.19s-.32-.53-.52-.77-.56-.6-.84-.9l-.1-.13.65-.52a.2.2 0 0 1 .17 0 .29.29 0 0 0 .37.06 1.52 1.52 0 0 1 .69.08l-.1-.15h.38c0-.19.16-.12.25-.08a.8.8 0 0 1 .29.23l-.31-.07-.23-.08.2.18v.06h-.26a.92.92 0 0 0 .33.1c.45-.08.46-.09.45.3zm.17 7.88l.43-.16c.03.27-.04.29-.37.16zm1.72 16.87v.14h-.25c.11-.3.25-.36.54-.18h-.32zm4.61-14.65l-.3.49c-.24-.2-.23-.2.3-.49zm-.75.37a.28.28 0 0 1 .14.07l.23.18a1.44 1.44 0 0 1-.32 0 .2.2 0 0 1-.15-.13.23.23 0 0 1 .09-.12zm-.56-.41v.11l-.58.18v-.09zm-2.27 4.66h.17l-.06-.25.23-.27c0 .21-.09.49.2.45l-.31.58zm.94.5v-.24h.08l.21.76-.07.06-.8-.46zm-.36 1.53l.54.32.06-.06.08.42zm1 1.64h-.08v-.57h.08v.57zm-.12-.88c.08-.16-.1-.41.19-.53v-.2h-.08l-.18-.21.27-.1.11.41.43-.08v-.11h.06v.37c-.5-.12-.59.33-.83.46zm.79-.28l.07.56c-.37-.13-.28-.3-.1-.55zm.23-5.95l-.11.19a.5.5 0 0 1 .25.12.53.53 0 0 1 0 .31 2.58 2.58 0 0 1-.09.3.42.42 0 0 1-.59.34 6.77 6.77 0 0 1-.71-.2.22.22 0 0 1-.13-.14 2.55 2.55 0 0 0-.32-.87 3 3 0 0 1 0-.35.34.34 0 0 0 0-.17 5.43 5.43 0 0 1-.81-2 5.63 5.63 0 0 1-.15-1.08l.28.22.14-.16.43.37.22-.14-.28-.31.31-.21a.66.66 0 0 0 .52.56l-.13-.25.44.22-.56.15h.49l-.19.13.17.07v.01l-.3.07a.32.32 0 0 0 .27.28l-.06.1-.72-.21.33.19-.47.15v.07l.37-.07v.21a.71.71 0 0 1 1-.16l-.23.15.08.18a.88.88 0 0 1-.33 0 1 1 0 0 0-.79-.1l.53.12v.07l-.44.12.44-.06-.18.11v.06h.43v.06l-.34.08v.05h.35l-.5.22v.08l.45-.15-.15.26h.07l.33-.51-.15.57.53-.09-.21.25v.06l.65-.1a.56.56 0 0 0 .32.52c-.06.25-.06.25-.49.32zm.63 14.11h-.11l.24-.64h.09zm.5-7.62l-.06.06.06-.06-.43-.31.14-.13-.13-.29h.06a1.06 1.06 0 0 1 .39.73zm.26 8.8c.06-.2-.14-.46.17-.62zm.18-.83l.12-.81a.75.75 0 0 1-.11.8zm3-8.46v-.1l-.06.33-.17-.52h.38zm-.22-.73v-.32l.13.11v-.41c.25.36.2.46-.11.61zm2.8 7.31l-.18.31c0-.16-.42-.15-.08-.44l-.29-.11.11-.11zm-.13 1.43l-.47.34a.31.31 0 0 1 .2-.47c.12-.05.29-.13.29.12zm-.6-2.43l.23.09-.11.28-.24-.16zm-.32 2.48v-.07l.31-.07v.33zm.77 1.65c-.16 0-.36 0-.41-.28l.46.14a.81.81 0 0 1-.07.14zm.24-1.49c0 .27-.15.17-.29.14l.46-.4c.05.15.05.15-.18.26zm.3-1.62l-.47-.42.06-.08.21.1.27-.37-.28.14a1.06 1.06 0 0 1 .58-.81l-.57.23.06-.43.34-.13a.25.25 0 0 1-.1-.08 1.9 1.9 0 0 1 .09-.38.32.32 0 0 1 .13-.09.3.3 0 0 1 .06.14c-.05.14-.12.27-.19.4l.36-.2v.25a.73.73 0 0 1 .5.53 1 1 0 0 1 0 .57l-.08-.34h-.43l.29.12-.1.22h-.78c.11.21.43 0 .38.26a1 1 0 0 1-.36.37zm.33 1.17a.44.44 0 0 1 .63.33zm1 .26c-.16.05-.3.06-.37-.24l.4.14zm1.2-1.76a.22.22 0 0 1-.08.14.14.14 0 0 1-.12-.05.18.18 0 0 1 0-.16 2 2 0 0 1 .21-.23 2.48 2.48 0 0 1-.05.3zm0-3.21l-.26-.23c.18 0 .17-.44.43-.18s-.1.3-.24.41zm.44-1a.7.7 0 0 1-.65 0 .46.46 0 0 1 0-.15l.36.11.05-.27h.33v.06l-.11.08a.39.39 0 0 1-.04.12zm2.54 5a.77.77 0 0 0-.13-.15 2.07 2.07 0 0 1-.2-.1.19.19 0 0 1 0-.15.86.86 0 0 1 .3 0 .44.44 0 0 1 .15.11zm1 2.76h-.22v-.23l.28-.25zm0-2.5a.19.19 0 0 1 .08.16c0 .13 0 .33-.28.26a.44.44 0 0 0-.21.08l-.05-.09.45-.27-.2-.09a.5.5 0 0 1 .22-.06zm.53-2.2l-.35-.39.07-.06a.58.58 0 0 1 .35.39zm1.14 0c.19-.14 0-.52.34-.54-.18.53-.18.53-.32.53zm.74-2.06l-.13-.07.32-.54.1.06zm.33-1.63v-.11a1 1 0 0 1 .44-.21 1 1 0 0 1 .29.44c-.29.22-.48-.11-.71-.14zm-35.35-7.63zm-.57-.17l.08.14-.49.2.41.22v.22a2.39 2.39 0 0 1 .23-.32 4.23 4.23 0 0 1 .36-.29.42.42 0 0 0-.57-.18zm7-9.73v-.23h.33l-.73-.41a.74.74 0 0 0 .39.63zm-4.21 10l.12-.18-.36.26.2.22.27-.33.21.08-.09-.2zm20.24 3.41l-.33-.23-.09.57zm.61 1l-.08-.2-.32.05v.55l.13-.19h-.08l.26-.25a.16.16 0 0 1 .08.01zm-.26.26zm.27-.26zm-6.05 10.19l-.72.46.56-.22zm-10.46-25.29l.43.44c0-.16-.05-.28-.08-.39a.25.25 0 0 0-.11-.07zm19-2.68l.31.16v-.12h.25-.34l.17-.23-.32.28zm8.79 27l.15-.41h-.19c-.06.11-.15.25.03.39zm0-.42z" transform="translate(-1.67 .3)" fill="#03232b" fill-rule="evenodd"/></g></svg>