<svg xmlns="http://www.w3.org/2000/svg" viewBox="0 0 526.09 424.55"><defs><style>.cls-1{fill:#7c5a39;}.cls-2{fill:#5e422a;}.cls-3{fill:#dd9a58;}.cls-4{fill:#feda7a;}.cls-5{fill:#42593d;}.cls-6{fill:#2f3f2c;}.cls-7{fill:#ffff9a;}</style></defs><title>step2</title><path class="cls-1" d="M23.52 302.22h485.23a274.82 274.82 0 0 0 17.45-38.8c-9.72-1-23.76-1.64-32 1.36l-24.47-28.7s-18.49 19.77-44 4.28c0 0-31.54-20.4-38.06-35.11 0 0-27.73-10.51-44-30.82 0 0-18.76-8.76-30.18-28.37 5.21 15-44.63-28.85-18.21-16.45 0 0-21.55-18.29-38-35 0 0-7.44-9.07-12.79-10.17 0 0-10.16 8.72-24.3 1 0 0-4.69-.37-12.05 11.67 0 0-42.4 47.06-54.58 53.62 0 0-12.19 9.83-16.19 13.92v.35c-31 24.42-85.62 54.14-137.26 79.68a274.82 274.82 0 0 0 23.41 57.54zm235.21-162.64z" transform="translate(-.11 -21.67)"/><path class="cls-2" d="M118.89 226.33c-2.72-11.21-10.88-11.19-25.56-7.69s-41.87 58.18-32.63 39.27 9.79-35 9.79-35c-11 17.77-34 31.6-55.28 41.25q3.85 8.32 8.22 16.34h95.46c-2.72-12-34.26-25.36-34.26-25.36-12.51-10.51 13.05-12 13.05-12-6-15.42 21.21-16.81 21.21-16.81zm44.55 74.8s12.64-8.81 17.13-31.07c0 0-7.34-25.85 7.34-36.67 0 0-9-2.41 6.93 17.56 0 0-7.75 5.25-9.38 1.05s-5.71 13.52 20.8 18.06 17.54.33 19.17-11.75 13.05 9.46 11 21.54-1.22 6.83 17.54 8.41 15.5 1 15.91 7.36 17.13 6.3 17.13 6.3zm206.91 1.09s-18.37-14.86-20.82-17 25.71-39 10.41-61c-6.87 38.88-29.17 38.84-29.17 38.84s-8.16-7.65-6.52-24.85c0 0-18-3.72-27.73-18.87 0 0-1.63 27.77 22.84 48.41 0 0-23.65 18.45-30.18 34.45h81.18zm124.37-1S467 276.14 467 260.68c0 0-6.53-8.78-6.53 9.41 0 0-49.1 2.63-62.8-31.86 0 0-.82 17.51 34.26 40.63l-17.14 22.36h79.91z"/><path class="cls-3" d="M250.71 58c-10.38 7.5-18.32 2.77-20.1 2.26-1.14 3.44-14.41 1.79-15.48 1.66-4.24 5.66-20.24 20.91-54.43 58.65-4.69 5.17-11.76 12.12-19 16.83-.78 3-.53 6.86-3 11.73 18.82-12.24 27.38-16.32 22.24 2 14.83-18.36 26.24-25.5 26.81-13.26s5.13-2 6.27 6.12 0 15.3 1.71 23.46 8-35.71 14.26-30.6 0 15.3 10.84 8.16 18.56-20.86 27.69-13.76 30.8 31.12 44.2 37.75 1.71-4.08-6.56-22.44-3.71-21.42 9.41-10.71 18.64 19.55 15.22 12.4 1.71-7.65 5.7-3.06 4.28-3.57 7.7-1 39.68 34.36 53.37 34.87c2.1-.13-24.65-20.9-29.69-24.63-8.1-6.17-30.18-26.35-34.63-30-30-24.89-56.93-62.35-62.53-66.43z"/><path class="cls-4" d="M251.51 95.32s-5.25-3.57-8-1.53-6.49 8.16-8.35 5.1 3.09 9.69 3.09 9.69-1.55 7.14 5.25 16.32 34.31 49 37.09 50a118.45 118.45 0 0 1-4-26.52s5-6.63 6.18-6.63.31-7.14-8.66-14.79-12.36-14.79-13.91-18.36-8.69-13.28-8.69-13.28zM200.51 170.3s8-24 14.22-28.57 5.87-31.11 9.58-38.25S215 114.7 215 114.7a10.9 10.9 0 0 0-4.64 5.1c-1.54 3.57-13.29 37.74-13.29 39.27s2.2 14.79 1.93 19.93 1.54-8.66 1.54-8.66z" transform="translate(-.11 -21.67)"/><path class="cls-4" d="M316.89 130.77l-18.2-15.81-15.14-11.22 20.4 33.66s5-3.57 6.49-2 4.64-6.67 6.49-4.63z"/><path class="cls-5" d="M512.5 295.12c-23.91-1.5-41.6-2.09-41.6-2.09-29.37-14.54-73.5 0-73.5 0a261.22 261.22 0 0 0-45.81 0c-41.84-16.8-85.51 0-85.51 0-17.63-3.8-59.88-2.19-59.88-2.19-22-10-47 0-47 0-27.69-5.14-60.7 3.24-60.7 3.24-29.93-13.2-60.21-9.1-80.74-3.13q5.76 11.8 12.59 23l474-3.86q4.25-7.35 8.15-14.97z" transform="translate(-.11 -21.67)"/><path class="cls-6" d="M24.42 303.86c47.15 84.9 137.7 142.36 241.7 142.36 106.14 0 198.29-59.86 244.57-147.66-20.29-5.13-48.15-7.63-75.68 4.52 0 0-33.06-8.38-60.75-3.24 0 0-25-10-47.06 0 0 0-42.25-4.61-59.89-.81 0 0-43.68-13.81-85.51 3A261.26 261.26 0 0 0 136 302s-44-14.54-73.42 0c0-.06-16 .48-38.15 1.83z" transform="translate(-.11 -21.67)"/><circle class="cls-7" cx="370.28" cy="54.13" r="54.13"/><path class="cls-2" d="M221.31 179.53s10.6-21 18.76-25.07 7.75-27.31 12.64-33.58-12.24 9.85-12.24 9.85-4.08 1.34-6.12 4.48-17.54 33.12-17.54 34.47 2.86 13 2.45 17.46 2.05-7.61 2.05-7.61z"/></svg>