<svg xmlns="http://www.w3.org/2000/svg" viewBox="0 0 442.19 442.19"><title>step7</title><g style="isolation:isolate"><path d="M409.25 346.8H42.56a221.14 221.14 0 0 0 366.69 0z" transform="translate(-4.81 -2.11)" fill="#49463e"/><path d="M440.51 276.54V169.86a219.45 219.45 0 0 0-13-37.56h-1.91l-3.07 4.38H425v2.57h-2v72.4h-22.36v21.81h-16.39v-39.81L363.76 152v-45.83h-4.86v-3.26h4.43l-4.95-6.48h-18.45l-4.54 6.48H339v3.26h-3.15v55l-13.93-6v6.47l-14.34-6.19v6.47l-14.34-6.19v6.47l-14.34-6.19v53.25l-21.43 1.5v-44h-4.69V164h4.28l-4.78-6.26h-17.83l-4.38 6.26h3.49v2.61h-4v44.52l-25.56 5.4V106.17h-3.5v-3.08h4.28L200 96.82h-17.83l-4.38 6.26h3.49v3.08h-2.41v53.27H160v12.45l-.43 54.38-8-.17h-7v-6.33c5.84-.9 10.25-5 10.25-9.86s-4.41-9-10.25-9.86V189h-5.12v11.12c-5.71 1-10 5-10 9.82s4.28 8.84 10 9.81v6.37h-8.19v-2s-4.44-9.12-8.79-9.12-8.11 9.12-8.11 9.12-4.44-9.12-8.79-9.12-8.11 9.12-8.11 9.12-4.44-9.12-8.79-9.12c-3.36 0-6.36 5.42-7.56 7.9v-9.51h2.52v-5.25H58.84v5.25h2.3v18.3h-30v-56.15l-16.9-7.3v51.36H4.86v3.59a220.1 220.1 0 0 0 25.66 103.55h390.77a219.58 219.58 0 0 0 19.22-50.2z" transform="translate(-4.81 -2.11)" style="mix-blend-mode:multiply" fill="#eff0f0"/><path fill="#769798" d="M80.95 135.65h34.98v7.37H80.95z"/><path fill="#acccbf" d="M123.73 135.65H74.61l7.97-11.4h32.45l8.7 11.4zM74.2 141.91h49.46v185.16H74.2z"/><path fill="#45504a" d="M80.79 300.1h36.27v4.72H80.79zM80.79 290.66h36.27v4.72H80.79zM80.79 281.21h36.27v4.72H80.79zM80.79 271.77h36.27v4.72H80.79zM80.79 262.33h36.27v4.72H80.79zM80.79 252.89h36.27v4.72H80.79zM80.79 243.45h36.27v4.72H80.79zM80.79 234.01h36.27v4.72H80.79zM80.79 224.57h36.27v4.72H80.79zM80.79 215.12h36.27v4.72H80.79zM80.79 205.68h36.27v4.72H80.79zM80.79 196.24h36.27v4.72H80.79zM80.79 186.8h36.27v4.72H80.79zM80.79 177.36h36.27v4.72H80.79zM80.79 167.91h36.27v4.72H80.79zM80.79 158.47h36.27v4.72H80.79zM80.79 149.03h36.27v4.72H80.79z"/><path fill="#54666a" d="M402.6 187.5h25.31v5.33H402.6z"/><path fill="#5d7074" d="M433.55 187.5h-35.54l5.77-8.25h23.47l6.3 8.25z"/><path d="M438.31 194.14h-35.78v134h18a219.7 219.7 0 0 0 17.74-43.36v-90.64z" transform="translate(-4.81 -2.11)" fill="#5d7074"/><path d="M402.49 306.48v3.41h21.13c.5-1.13 1-2.27 1.47-3.42h-22.6zM402.49 299.65v3.41h24c.45-1.13.89-2.27 1.32-3.41h-25.32zM402.49 292.82h26.24v3.42h-26.24zM402.49 285.99h26.24v3.42h-26.24zM402.49 279.16h26.24v3.42h-26.24zM402.49 272.33h26.24v3.42h-26.24zM402.49 265.49h26.24v3.41h-26.24zM402.49 258.66h26.24v3.42h-26.24zM402.49 251.83h26.24v3.41h-26.24zM402.49 245h26.24v3.42h-26.24zM402.49 238.17h26.24v3.42h-26.24zM402.49 231.34h26.24v3.42h-26.24zM402.49 224.51h26.24v3.42h-26.24zM402.49 217.68h26.24v3.41h-26.24zM402.49 210.84h26.24v3.42h-26.24zM402.49 204.01h26.24v3.42h-26.24zM402.49 197.18h26.24v3.41h-26.24z" fill="#45504a"/><path fill="#6f9393" d="M31.56 211.89h87.31v18.61H31.56z"/><path d="M18.32 309.32q3.73 8.55 8.13 16.72h105.66v-96.26H18.32v79.54z" fill="#81a5a5"/><g style="mix-blend-mode:multiply" fill="#333e38"><path d="M23.33 234.89h6.41v3.38h-6.41zM23.33 241.96h6.41v3.38h-6.41zM23.33 249.03h6.41v3.38h-6.41zM23.33 256.09h6.41v3.38h-6.41zM23.33 263.16h6.41v3.38h-6.41zM23.33 270.23h6.41v3.38h-6.41zM23.33 277.3h6.41v3.38h-6.41zM23.33 284.36h6.41v3.38h-6.41zM23.33 291.43h6.41v3.38h-6.41zM23.33 298.49h6.41v3.38h-6.41zM23.33 305.56h6.41v3.38h-6.41zM33.43 234.89h6.41v3.38h-6.41zM33.43 241.96h6.41v3.38h-6.41zM33.43 249.03h6.41v3.38h-6.41zM33.43 256.09h6.41v3.38h-6.41zM33.43 263.16h6.41v3.38h-6.41zM33.43 270.23h6.41v3.38h-6.41zM33.43 277.3h6.41v3.38h-6.41zM33.43 284.36h6.41v3.38h-6.41zM33.43 291.43h6.41v3.38h-6.41zM33.43 298.49h6.41v3.38h-6.41zM33.43 305.56h6.41v3.38h-6.41zM45.18 234.89h6.41v3.38h-6.41zM45.18 241.96h6.41v3.38h-6.41zM45.18 249.03h6.41v3.38h-6.41zM45.18 256.09h6.41v3.38h-6.41zM45.18 263.16h6.41v3.38h-6.41zM45.18 270.23h6.41v3.38h-6.41zM45.18 277.3h6.41v3.38h-6.41zM45.18 284.36h6.41v3.38h-6.41zM45.18 291.43h6.41v3.38h-6.41zM45.18 298.49h6.41v3.38h-6.41zM45.18 305.56h6.41v3.38h-6.41zM55.28 234.89h6.41v3.38h-6.41zM55.28 241.96h6.41v3.38h-6.41zM55.28 249.03h6.41v3.38h-6.41zM55.28 256.09h6.41v3.38h-6.41zM55.28 263.16h6.41v3.38h-6.41zM55.28 270.23h6.41v3.38h-6.41zM55.28 277.3h6.41v3.38h-6.41zM55.28 284.36h6.41v3.38h-6.41zM55.28 291.43h6.41v3.38h-6.41zM55.28 298.49h6.41v3.38h-6.41zM55.28 305.56h6.41v3.38h-6.41zM67.02 234.89h6.41v3.38h-6.41zM67.02 241.96h6.41v3.38h-6.41zM67.02 249.03h6.41v3.38h-6.41zM67.02 256.09h6.41v3.38h-6.41zM67.02 263.16h6.41v3.38h-6.41zM67.02 270.23h6.41v3.38h-6.41zM67.02 277.3h6.41v3.38h-6.41zM67.02 284.36h6.41v3.38h-6.41zM67.02 291.43h6.41v3.38h-6.41zM67.02 298.49h6.41v3.38h-6.41zM67.02 305.56h6.41v3.38h-6.41zM77.12 234.89h6.41v3.38h-6.41zM77.12 241.96h6.41v3.38h-6.41zM77.12 249.03h6.41v3.38h-6.41zM77.12 256.09h6.41v3.38h-6.41zM77.12 263.16h6.41v3.38h-6.41zM77.12 270.23h6.41v3.38h-6.41zM77.12 277.3h6.41v3.38h-6.41zM77.12 284.36h6.41v3.38h-6.41zM77.12 291.43h6.41v3.38h-6.41zM77.12 298.49h6.41v3.38h-6.41zM77.12 305.56h6.41v3.38h-6.41zM88.87 234.89h6.41v3.38h-6.41zM88.87 241.96h6.41v3.38h-6.41zM88.87 249.03h6.41v3.38h-6.41zM88.87 256.09h6.41v3.38h-6.41zM88.87 263.16h6.41v3.38h-6.41zM88.87 270.23h6.41v3.38h-6.41zM88.87 277.3h6.41v3.38h-6.41zM88.87 284.36h6.41v3.38h-6.41zM88.87 291.43h6.41v3.38h-6.41zM88.87 298.49h6.41v3.38h-6.41zM88.87 305.56h6.41v3.38h-6.41zM98.97 234.89h6.41v3.38h-6.41zM98.97 241.96h6.41v3.38h-6.41zM98.97 249.03h6.41v3.38h-6.41zM98.97 256.09h6.41v3.38h-6.41zM98.97 263.16h6.41v3.38h-6.41zM98.97 270.23h6.41v3.38h-6.41zM98.97 277.3h6.41v3.38h-6.41zM98.97 284.36h6.41v3.38h-6.41zM98.97 291.43h6.41v3.38h-6.41zM98.97 298.49h6.41v3.38h-6.41zM98.97 305.56h6.41v3.38h-6.41zM110.71 234.89h6.41v3.38h-6.41zM110.71 241.96h6.41v3.38h-6.41zM110.71 249.03h6.41v3.38h-6.41zM110.71 256.09h6.41v3.38h-6.41zM110.71 263.16h6.41v3.38h-6.41zM110.71 270.23h6.41v3.38h-6.41zM110.71 277.3h6.41v3.38h-6.41zM110.71 284.36h6.41v3.38h-6.41zM110.71 291.43h6.41v3.38h-6.41zM110.71 298.49h6.41v3.38h-6.41zM110.71 305.56h6.41v3.38h-6.41zM120.81 234.89h6.41v3.38h-6.41zM120.81 241.96h6.41v3.38h-6.41zM120.81 249.03h6.41v3.38h-6.41zM120.81 256.09h6.41v3.38h-6.41zM120.81 263.16h6.41v3.38h-6.41zM120.81 270.23h6.41v3.38h-6.41zM120.81 277.3h6.41v3.38h-6.41zM120.81 284.36h6.41v3.38h-6.41zM120.81 291.43h6.41v3.38h-6.41zM120.81 298.49h6.41v3.38h-6.41zM120.81 305.56h6.41v3.38h-6.41z"/></g><g style="mix-blend-mode:multiply" fill="#333e38"><path d="M41.38 215.95h6.13v3.16h-6.13zM41.38 222.57h6.13v3.16h-6.13zM51.04 215.95h6.13v3.16h-6.13zM51.04 222.57h6.13v3.16h-6.13zM62.28 215.95h6.13v3.16h-6.13zM62.28 222.57h6.13v3.16h-6.13zM71.94 215.95h6.13v3.16h-6.13zM71.94 222.57h6.13v3.16h-6.13zM83.18 215.95h6.13v3.16h-6.13zM83.18 222.57h6.13v3.16h-6.13zM92.84 215.95h6.13v3.16h-6.13zM92.84 222.57h6.13v3.16h-6.13zM104.08 215.95h6.13v3.16h-6.13zM104.08 222.57h6.13v3.16h-6.13z"/></g><path fill="#54666a" d="M324.72 146.46h32.86v6.93h-32.86z"/><path fill="#5d7074" d="M364.9 146.46h-46.14l7.49-10.7h30.48l8.17 10.7zM318.38 152.34h46.46v173.93h-46.46z"/><path fill="#45504a" d="M324.57 300.94h34.07v4.43h-34.07zM324.57 292.07h34.07v4.43h-34.07zM324.57 283.2h34.07v4.44h-34.07zM324.57 274.33h34.07v4.43h-34.07zM324.57 265.46h34.07v4.44h-34.07zM324.57 256.59h34.07v4.44h-34.07zM324.57 247.72h34.07v4.43h-34.07zM324.57 238.85h34.07v4.43h-34.07zM324.57 229.99h34.07v4.43h-34.07zM324.57 221.12h34.07v4.43h-34.07zM324.57 212.25h34.07v4.43h-34.07zM324.57 203.38h34.07v4.43h-34.07zM324.57 194.51h34.07v4.43h-34.07zM324.57 185.64h34.07v4.43h-34.07zM324.57 176.77h34.07v4.44h-34.07zM324.57 167.9h34.07v4.44h-34.07zM324.57 159.03h34.07v4.43h-34.07z"/><path d="M278.96 326.7h54.29V130.54s-2-27.05-27.14-27.05-27.15 27.05-27.15 27.05V326.7z" fill="#adcec3"/><path fill="#45504a" d="M288.18 312.36h35.34v5.12h-35.34zM288.18 301.61h35.34v5.12h-35.34zM288.18 290.85h35.34v5.12h-35.34zM288.18 280.09h35.34v5.12h-35.34zM288.18 269.34h35.34v5.12h-35.34zM288.18 258.58h35.34v5.12h-35.34zM288.18 247.83h35.34v5.12h-35.34zM288.18 237.07h35.34v5.12h-35.34zM288.18 226.31h35.34v5.12h-35.34zM288.18 215.56h35.34v5.12h-35.34zM288.18 204.8h35.34v5.12h-35.34zM288.18 194.05h35.34v5.12h-35.34zM288.18 183.29h35.34v5.12h-35.34zM288.18 172.54h35.34v5.12h-35.34zM288.18 161.78h35.34v5.12h-35.34zM288.18 151.02h35.34v5.12h-35.34zM288.18 140.27h35.34v5.12h-35.34zM288.18 129.51h35.34v5.12h-35.34z"/><path d="M312.32 105.6a39.84 39.84 0 0 1 16.78 32.55v190.66h-1.54V138.15a38.25 38.25 0 0 0-16.77-31.73A38.18 38.18 0 0 0 294 138.15v190.66h-1.54V138.15a39.85 39.85 0 0 1 16.72-32.51 23 23 0 0 1 3.14-.04z" transform="translate(-4.81 -2.11)" fill="#45504a"/><path d="M15.55 291.4a219.79 219.79 0 0 0 15.58 36.49h42.11V163.12H15.55V291.4z" transform="translate(-4.81 -2.11)" fill="#5d7074"/><path fill="#45504a" d="M21.83 169.32h6.1v3.78h-6.1zM21.83 177.22h6.1V181h-6.1zM21.83 185.11h6.1v3.78h-6.1zM21.83 193h6.1v3.78h-6.1zM21.83 200.9h6.1v3.78h-6.1zM21.83 208.79h6.1v3.78h-6.1zM21.83 216.69h6.1v3.78h-6.1zM21.83 224.58h6.1v3.78h-6.1zM21.83 232.48h6.1v3.77h-6.1zM21.83 240.37h6.1v3.78h-6.1zM21.83 248.27h6.1v3.78h-6.1zM21.83 256.16h6.1v3.78h-6.1zM21.83 264.06h6.1v3.78h-6.1zM21.83 271.95h6.1v3.78h-6.1zM21.83 279.84h6.1v3.78h-6.1zM21.83 287.74h6.1v3.77h-6.1zM21.83 295.63h6.1v3.78h-6.1zM21.83 303.53h6.1v3.78h-6.1zM31.43 169.32h6.09v3.78h-6.09zM31.43 177.22h6.09V181h-6.09zM31.43 185.11h6.09v3.78h-6.09zM31.43 193h6.09v3.78h-6.09zM31.43 200.9h6.09v3.78h-6.09zM31.43 208.79h6.09v3.78h-6.09zM31.43 216.69h6.09v3.78h-6.09zM31.43 224.58h6.09v3.78h-6.09zM31.43 232.48h6.09v3.77h-6.09zM31.43 240.37h6.09v3.78h-6.09zM31.43 248.27h6.09v3.78h-6.09zM31.43 256.16h6.09v3.78h-6.09zM31.43 264.06h6.09v3.78h-6.09zM31.43 271.95h6.09v3.78h-6.09zM31.43 279.84h6.09v3.78h-6.09zM31.43 287.74h6.09v3.77h-6.09zM31.43 295.63h6.09v3.78h-6.09zM31.43 303.53h6.09v3.78h-6.09zM41.12 169.32h6.1v3.78h-6.1zM41.12 177.22h6.1V181h-6.1zM41.12 185.11h6.1v3.78h-6.1zM41.12 193h6.1v3.78h-6.1zM41.12 200.9h6.1v3.78h-6.1zM41.12 208.79h6.1v3.78h-6.1zM41.12 216.69h6.1v3.78h-6.1zM41.12 224.58h6.1v3.78h-6.1zM41.12 232.48h6.1v3.77h-6.1zM41.12 240.37h6.1v3.78h-6.1zM41.12 248.27h6.1v3.78h-6.1zM41.12 256.16h6.1v3.78h-6.1zM41.12 264.06h6.1v3.78h-6.1zM41.12 271.95h6.1v3.78h-6.1zM41.12 279.84h6.1v3.78h-6.1zM41.12 287.74h6.1v3.77h-6.1zM41.12 295.63h6.1v3.78h-6.1zM41.12 303.53h6.1v3.78h-6.1zM50.73 169.32h6.09v3.78h-6.09zM50.73 177.22h6.09V181h-6.09zM50.73 185.11h6.09v3.78h-6.09zM50.73 193h6.09v3.78h-6.09zM50.73 200.9h6.09v3.78h-6.09zM50.73 208.79h6.09v3.78h-6.09zM50.73 216.69h6.09v3.78h-6.09zM50.73 224.58h6.09v3.78h-6.09zM50.73 232.48h6.09v3.77h-6.09zM50.73 240.37h6.09v3.78h-6.09zM50.73 248.27h6.09v3.78h-6.09zM50.73 256.16h6.09v3.78h-6.09zM50.73 264.06h6.09v3.78h-6.09zM50.73 271.95h6.09v3.78h-6.09zM50.73 279.84h6.09v3.78h-6.09zM50.73 287.74h6.09v3.77h-6.09zM50.73 295.63h6.09v3.78h-6.09zM50.73 303.53h6.09v3.78h-6.09z"/><path fill="#54666a" d="M18.41 153.64h41.05v7.37H18.41z"/><path fill="#5d7074" d="M68.61 154.31H10.97l9.36-11.4H58.4l10.21 11.4z"/><path fill="#9cbbb1" d="M35.15 318.08h66.91v7.69H35.15z"/><path fill="#adcec3" d="M37.71 293.25h61.78v32.52H37.71z"/><path fill="#45504a" d="M47.32 302.12h10.64v23.65H47.32zM63.28 302.12h10.64v23.65H63.28zM79.25 302.12h10.64v23.65H79.25zM38.58 276.1h60.04v6.8H38.58z"/><path fill="#adcec3" d="M68.81 281.72H68.4l-42.97.15 12.49 11.67H99.29l12.49-11.67-42.97-.15z"/><path d="M93.9 259.1H43.31c-.44 3.4-4.73 6.8-4.73 6.8h60s-4.24-3.4-4.68-6.8z" fill="#45504a"/><path fill="#adcec3" d="M25.43 264.87l12.49 11.68h61.37l12.49-11.68H25.43zM351.81 161.23h57.69v164.78h-57.69z"/><path fill="#45504a" d="M392.31 169.54h6.1v3.78h-6.1zM392.31 177.43h6.1v3.78h-6.1zM392.31 185.33h6.1v3.78h-6.1zM392.31 193.22h6.1V197h-6.1zM392.31 201.12h6.1v3.78h-6.1zM392.31 209.01h6.1v3.78h-6.1zM392.31 216.91h6.1v3.78h-6.1zM392.31 224.8h6.1v3.78h-6.1zM392.31 232.7h6.1v3.77h-6.1zM392.31 240.59h6.1v3.78h-6.1zM392.31 248.49h6.1v3.78h-6.1zM392.31 256.38h6.1v3.78h-6.1zM392.31 264.27h6.1v3.78h-6.1zM392.31 272.17h6.1v3.78h-6.1zM392.31 280.06h6.1v3.78h-6.1zM392.31 287.96h6.1v3.77h-6.1zM392.31 295.85h6.1v3.78h-6.1zM392.31 303.75h6.1v3.78h-6.1zM382.7 169.54h6.09v3.78h-6.09zM382.7 177.43h6.09v3.78h-6.09zM382.7 185.33h6.09v3.78h-6.09zM382.7 193.22h6.09V197h-6.09zM382.7 201.12h6.09v3.78h-6.09zM382.7 209.01h6.09v3.78h-6.09zM382.7 216.91h6.09v3.78h-6.09zM382.7 224.8h6.09v3.78h-6.09zM382.7 232.7h6.09v3.77h-6.09zM382.7 240.59h6.09v3.78h-6.09zM382.7 248.49h6.09v3.78h-6.09zM382.7 256.38h6.09v3.78h-6.09zM382.7 264.27h6.09v3.78h-6.09zM382.7 272.17h6.09v3.78h-6.09zM382.7 280.06h6.09v3.78h-6.09zM382.7 287.96h6.09v3.77h-6.09zM382.7 295.85h6.09v3.78h-6.09zM382.7 303.75h6.09v3.78h-6.09zM373.01 169.54h6.1v3.78h-6.1zM373.01 177.43h6.1v3.78h-6.1zM373.01 185.33h6.1v3.78h-6.1zM373.01 193.22h6.1V197h-6.1zM373.01 201.12h6.1v3.78h-6.1zM373.01 209.01h6.1v3.78h-6.1zM373.01 216.91h6.1v3.78h-6.1zM373.01 224.8h6.1v3.78h-6.1zM373.01 232.7h6.1v3.77h-6.1zM373.01 240.59h6.1v3.78h-6.1zM373.01 248.49h6.1v3.78h-6.1zM373.01 256.38h6.1v3.78h-6.1zM373.01 264.27h6.1v3.78h-6.1zM373.01 272.17h6.1v3.78h-6.1zM373.01 280.06h6.1v3.78h-6.1zM373.01 287.96h6.1v3.77h-6.1zM373.01 295.85h6.1v3.78h-6.1zM373.01 303.75h6.1v3.78h-6.1zM363.41 169.54h6.1v3.78h-6.1zM363.41 177.43h6.1v3.78h-6.1zM363.41 185.33h6.1v3.78h-6.1zM363.41 193.22h6.1V197h-6.1zM363.41 201.12h6.1v3.78h-6.1zM363.41 209.01h6.1v3.78h-6.1zM363.41 216.91h6.1v3.78h-6.1zM363.41 224.8h6.1v3.78h-6.1zM363.41 232.7h6.1v3.77h-6.1zM363.41 240.59h6.1v3.78h-6.1zM363.41 248.49h6.1v3.78h-6.1zM363.41 256.38h6.1v3.78h-6.1zM363.41 264.27h6.1v3.78h-6.1zM363.41 272.17h6.1v3.78h-6.1zM363.41 280.06h6.1v3.78h-6.1zM363.41 287.96h6.1v3.77h-6.1zM363.41 295.85h6.1v3.78h-6.1zM363.41 303.75h6.1v3.78h-6.1z"/><path fill="#769798" d="M360.77 153.85h41.05v7.37h-41.05z"/><path fill="#adcec3" d="M351.63 153.85h57.63l-9.36-11.39h-38.06l-10.21 11.39z"/><path d="M170.67 286.38c-37.29 0-50.89-25.23-51-25.49l2.23-1.17c.13.24 13.09 24.14 48.8 24.14s49.75-23.97 49.88-24.17l2.19 1.24c-.14.26-14.84 25.45-52.1 25.45zM126.46 267.61h1.52v23.58h-1.52zM131.18 271.91h1.52v19.28h-1.52zM135.89 274.74h1.52v16.45h-1.52zM140.61 278.2h1.52v13h-1.52zM145.32 280.71h1.52v10.48h-1.52zM150.04 281.55h1.52v9.64h-1.52zM154.75 282.26h1.52v8.93h-1.52zM159.47 283.44h1.52v7.75h-1.52zM164.19 284.8h1.52v6.39h-1.52zM168.9 284.8h1.52v6.39h-1.52zM173.62 285.97h1.52v5.22h-1.52zM216.06 267.61h1.52v23.58h-1.52zM211.34 271.91h1.52v19.28h-1.52zM206.63 274.74h1.52v16.45h-1.52zM201.91 278.2h1.52v13h-1.52zM197.2 280.71h1.52v10.48h-1.52zM192.48 281.55H194v9.64h-1.52zM187.77 282.26h1.52v8.93h-1.52zM183.05 283.44h1.52v7.75h-1.52zM178.33 284.8h1.52v6.39h-1.52zM173.62 284.8h1.52v6.39h-1.52zM168.9 285.97h1.52v5.22h-1.52zM279.54 286.38c-37.28 0-50.89-25.23-51-25.49l2.23-1.17c.13.24 13.09 24.14 48.79 24.14s49.76-23.97 49.89-24.17l2.19 1.24c-.14.26-14.84 25.45-52.1 25.45zM235.33 267.61h1.52v23.58h-1.52zM240.05 271.91h1.52v19.28h-1.52zM244.76 274.74h1.52v16.45h-1.52zM249.48 278.2H251v13h-1.52zM254.19 280.71h1.52v10.48h-1.52zM258.91 281.55h1.52v9.64h-1.52zM263.63 282.26h1.52v8.93h-1.52zM268.34 283.44h1.52v7.75h-1.52zM273.06 284.8h1.52v6.39h-1.52zM277.77 284.8h1.52v6.39h-1.52zM282.49 285.97h1.52v5.22h-1.52zM324.93 267.61h1.52v23.58h-1.52zM320.22 271.91h1.52v19.28h-1.52zM315.5 274.74h1.52v16.45h-1.52zM310.78 278.2h1.52v13h-1.52zM306.07 280.71h1.52v10.48h-1.52zM301.35 281.55h1.52v9.64h-1.52zM296.64 282.26h1.52v8.93h-1.52zM291.92 283.44h1.52v7.75h-1.52zM287.21 284.8h1.52v6.39h-1.52zM282.49 284.8h1.52v6.39h-1.52zM277.77 285.97h1.52v5.22h-1.52z" fill="#5d7074"/><path fill="#81a5a5" d="M226.96 298.86h99.82v1.89h-99.82zM226.96 291.15h99.82v1.89h-99.82zM236.8 292.57l-1.05-1.05-3.09 3.09-3.1-3.09-1.04 1.05 3.09 3.09-3.09 3.09 1.04 1.05 3.1-3.1 3.09 3.1 1.05-1.05-3.09-3.09 3.09-3.09zM245.08 292.57l-1.05-1.05-3.09 3.09-3.1-3.09-1.04 1.05 3.09 3.09-3.09 3.09 1.04 1.05 3.1-3.1 3.09 3.1 1.05-1.05-3.1-3.09 3.1-3.09zM253.36 292.57l-1.05-1.05-3.09 3.09-3.09-3.09-1.05 1.05 3.09 3.09-3.09 3.09 1.05 1.05 3.09-3.1 3.09 3.1 1.05-1.05-3.1-3.09 3.1-3.09zM261.64 292.57l-1.05-1.05-3.09 3.09-3.1-3.09-1.04 1.05 3.09 3.09-3.09 3.09 1.04 1.05 3.1-3.1 3.09 3.1 1.05-1.05-3.1-3.09 3.1-3.09zM269.92 292.57l-1.05-1.05-3.09 3.09-3.1-3.09-1.04 1.05 3.09 3.09-3.09 3.09 1.04 1.05 3.1-3.1 3.09 3.1 1.05-1.05-3.1-3.09 3.1-3.09zM278.2 292.57l-1.05-1.05-3.09 3.09-3.1-3.09-1.04 1.05 3.09 3.09-3.09 3.09 1.04 1.05 3.1-3.1 3.09 3.1 1.05-1.05-3.1-3.09 3.1-3.09zM286.48 292.57l-1.05-1.05-3.09 3.09-3.1-3.09-1.04 1.05 3.09 3.09-3.09 3.09 1.04 1.05 3.1-3.1 3.09 3.1 1.05-1.05-3.1-3.09 3.1-3.09zM294.76 292.57l-1.05-1.05-3.09 3.09-3.1-3.09-1.04 1.05 3.09 3.09-3.09 3.09 1.04 1.05 3.1-3.1 3.09 3.1 1.05-1.05-3.1-3.09 3.1-3.09zM303.04 292.57l-1.05-1.05-3.09 3.09-3.1-3.09-1.04 1.05 3.09 3.09-3.09 3.09 1.04 1.05 3.1-3.1 3.09 3.1 1.05-1.05-3.1-3.09 3.1-3.09zM311.31 292.57l-1.04-1.05-3.09 3.09-3.1-3.09-1.04 1.05 3.09 3.09-3.09 3.09 1.04 1.05 3.1-3.1 3.09 3.1 1.04-1.05-3.09-3.09 3.09-3.09zM319.59 292.57l-1.04-1.05-3.1 3.09-3.09-3.09-1.05 1.05 3.1 3.09-3.1 3.09 1.05 1.05 3.09-3.1 3.1 3.1 1.04-1.05-3.09-3.09 3.09-3.09zM327.87 292.57l-1.04-1.05-3.1 3.09-3.09-3.09-1.05 1.05 3.1 3.09-3.1 3.09 1.05 1.05 3.09-3.1 3.1 3.1 1.04-1.05-3.09-3.09 3.09-3.09zM120.76 298.57h99.82v1.89h-99.82zM120.76 290.87h99.82v1.89h-99.82zM130.6 292.28l-1.05-1.05-3.09 3.09-3.09-3.09-1.05 1.05 3.09 3.09-3.09 3.09 1.05 1.05 3.09-3.09 3.09 3.09 1.05-1.05-3.09-3.09 3.09-3.09zM138.88 292.28l-1.05-1.05-3.09 3.09-3.09-3.09-1.05 1.05 3.09 3.09-3.09 3.09 1.05 1.05 3.09-3.09 3.09 3.09 1.05-1.05-3.09-3.09 3.09-3.09zM147.16 292.28l-1.05-1.05-3.09 3.09-3.09-3.09-1.05 1.05 3.09 3.09-3.09 3.09 1.05 1.05 3.09-3.09 3.09 3.09 1.05-1.05-3.09-3.09 3.09-3.09zM155.44 292.28l-1.05-1.05-3.09 3.09-3.09-3.09-1.05 1.05 3.09 3.09-3.09 3.09 1.05 1.05 3.09-3.09 3.09 3.09 1.05-1.05-3.1-3.09 3.1-3.09zM163.72 292.28l-1.05-1.05-3.09 3.09-3.09-3.09-1.05 1.05 3.09 3.09-3.09 3.09 1.05 1.05 3.09-3.09 3.09 3.09 1.05-1.05-3.09-3.09 3.09-3.09zM172 292.28l-1.05-1.05-3.09 3.09-3.1-3.09-1.04 1.05 3.09 3.09-3.09 3.09 1.04 1.05 3.1-3.09 3.09 3.09 1.05-1.05-3.09-3.09 3.09-3.09zM180.28 292.28l-1.05-1.05-3.09 3.09-3.1-3.09-1.04 1.05 3.09 3.09-3.09 3.09 1.04 1.05 3.1-3.09 3.09 3.09 1.05-1.05-3.1-3.09 3.1-3.09zM188.56 292.28l-1.05-1.05-3.09 3.09-3.1-3.09-1.04 1.05 3.09 3.09-3.09 3.09 1.04 1.05 3.1-3.09 3.09 3.09 1.05-1.05-3.1-3.09 3.1-3.09zM196.84 292.28l-1.05-1.05-3.09 3.09-3.1-3.09-1.04 1.05 3.09 3.09-3.09 3.09 1.04 1.05 3.1-3.09 3.09 3.09 1.05-1.05-3.1-3.09 3.1-3.09zM205.12 292.28l-1.05-1.05-3.09 3.09-3.1-3.09-1.04 1.05 3.09 3.09-3.09 3.09 1.04 1.05 3.1-3.09 3.09 3.09 1.05-1.05-3.1-3.09 3.1-3.09zM213.4 292.28l-1.05-1.05-3.09 3.09-3.1-3.09-1.04 1.05 3.09 3.09-3.09 3.09 1.04 1.05 3.1-3.09 3.09 3.09 1.05-1.05-3.1-3.09 3.1-3.09zM221.68 292.28l-1.05-1.05-3.09 3.09-3.1-3.09-1.04 1.05 3.09 3.09-3.09 3.09 1.04 1.05 3.1-3.09 3.09 3.09 1.05-1.05-3.1-3.09 3.1-3.09z"/><path fill="#5d7074" d="M326.78 259.06h9.43v67.59h-9.43z"/><path fill="#9cbbb1" d="M219.89 259.06h9.43v67.59h-9.43z"/><path fill="#5d7074" d="M112.89 259.06h9.43v67.59h-9.43z"/><path d="M242.85 255.73c-6.75-30.51-9.78-73.87-9.78-98.76s-4.43-65.45-4.43-65.45v-44h-6.21v44A498.67 498.67 0 0 0 218 157c0 35.64-3 68.25-9.78 98.76S170.72 327 170.72 327h15.14s2.8-8.39 13.28-23.53a35.41 35.41 0 0 1 26.4-15.37 35.41 35.41 0 0 1 26.4 15.37c10.47 15.15 13.27 23.53 13.27 23.53h15.14s-30.75-40.76-37.5-71.27z" transform="translate(-4.81 -2.11)" fill="#adcec3"/><path fill="#5d7074" d="M220.88 197.72h-15.84v8.7h31.36v-8.7h-15.52z"/><path fill="#81a5a5" d="M220.88 206.42h-15.84v3.57h31.36v-3.57h-15.52z"/><path d="M234.79 94.16c0 12.16-3.84 9.59-9 9.59s-9 7.74-9-9.59c0-5.3 4-9.59 9-9.59a9.31 9.31 0 0 1 9 9.59z" transform="translate(-4.81 -2.11)" fill="#5d7074"/><path fill="#81a5a5" d="M220.88 99.84h-8.39v6.73h16.46v-6.73h-8.07zM406.07 327.69H345.2l-2.39-18.68h65.65l-2.39 18.68z"/><path d="M400.19 290.76h-49.14c-.48 3.65-7.66 7.3-7.66 7.3h64.49s-7.18-3.65-7.69-7.3z" fill="#45504a"/><path fill="#81a5a5" d="M329.26 296.96l13.41 12.54h65.93l13.41-12.54h-92.75z"/><path d="M394 276.77h-36.72c-.37 2.81-6.49 5.63-6.49 5.63h49.7s-6.13-2.81-6.49-5.63z" fill="#45504a"/><path fill="#81a5a5" d="M339.89 281.55l10.34 9.66h50.81l10.34-9.66h-71.49z"/><path d="M390.72 265.28h-30.17c-.3 2.32-5.36 4.61-5.36 4.61h40.83s-5-2.29-5.3-4.61z" fill="#45504a"/><path fill="#81a5a5" d="M346.27 269.21l8.5 7.94h41.73l8.5-7.94h-58.73z"/><path fill="#45504a" d="M360.55 256.12h30.17v9.41h-30.17z"/><path d="M352.93 257.95h45.41s-22.57-7-22.57-16.91c0 9.74-22.84 16.91-22.84 16.91z" fill="#81a5a5"/><path fill="#45504a" d="M350.78 312.09h4.63v7.03h-4.63zM359.75 312.09h4.63v7.03h-4.63zM368.72 312.09h4.63v7.03h-4.63zM377.69 312.09h4.63v7.03h-4.63zM386.65 312.09h4.63v7.03h-4.63zM395.62 312.09h4.63v7.03h-4.63z"/><path fill="#5d7074" d="M220.88 105.95H210.86v7.13h19.72v-7.13h-9.7z"/><path fill="#743419" d="M367.77 315.51h1.95v10.26h-1.95z"/><circle cx="368.64" cy="309.62" r="8.16" fill="#af672c"/><path fill="#743419" d="M31.47 315.95h1.73v9.12h-1.73z"/><circle cx="32.25" cy="310.72" r="7.25" fill="#af672c"/><path d="M431.39 303a8.15 8.15 0 0 0-5.39 14.31q3.3-7 6.11-14.25c-.23-.06-.47-.06-.72-.06z" transform="translate(-4.81 -2.11)" fill="#d78b4f"/><path fill="#743419" d="M287.96 313.08h2.26v11.89h-2.26z"/><circle cx="288.97" cy="306.25" r="9.46" fill="#d78b4f"/><path fill="#743419" d="M138.97 314.27H141v10.69h-2.03z"/><circle cx="139.88" cy="308.13" r="8.51" fill="#d78b4f"/><path d="M23.78 300.87a8.74 8.74 0 0 0-4.46 1.23q3.12 8.17 6.86 16a8.79 8.79 0 0 0-2.4-17.23z" transform="translate(-4.81 -2.11)" fill="#d78b4f"/><path fill="#743419" d="M352.26 312.01h2.52v13.28h-2.52z"/><circle cx="353.39" cy="304.38" r="10.57" fill="#d78b4f"/><path d="M53.71 361.86H398.1a221.4 221.4 0 0 0 23-34.86H30.66a221.4 221.4 0 0 0 23.05 34.86z" transform="translate(-4.81 -2.11)" fill="#cdc7ad"/><path d="M193.53 341.42a3 3 0 1 0 0 6h8.18a3 3 0 0 0 0-6h-8.18zM168.31 341.42a3 3 0 0 0 0 6h8.18a3 3 0 0 0 0-6h-8.18zM117.86 341.42a3 3 0 1 0 0 6H126a3 3 0 0 0 0-6h-8.18zM143.09 341.42a3 3 0 0 0 0 6h8.18a3 3 0 0 0 0-6h-8.18zM78.61 344.43a3 3 0 0 0-3-3h-8.2a3 3 0 0 0 0 6h8.18a3 3 0 0 0 3.02-3zM395.32 347.45h8.18a3 3 0 0 0 0-6h-8.18a3 3 0 0 0 0 6zM43 347.45h7.36a3 3 0 0 0 0-6h-8.17a3 3 0 0 0-2.39 1.19q1.57 2.41 3.2 4.81zM252.16 347.45a3 3 0 0 0 0-6H244a3 3 0 0 0 0 6h8.18zM92.64 341.42a3 3 0 0 0 0 6h8.18a3 3 0 0 0 0-6h-8.18zM353.06 347.45a3 3 0 0 0 0-6h-8.18a3 3 0 0 0 0 6h8.18zM378.28 341.42h-8.18a3 3 0 0 0 0 6h8.18a3 3 0 0 0 0-6zM327.83 347.45a3 3 0 0 0 0-6h-8.18a3 3 0 0 0 0 6h8.18zM302.61 347.45a3 3 0 0 0 0-6h-8.18a3 3 0 0 0 0 6h8.18zM230 344.43a3 3 0 0 0-3-3h-8.18a3 3 0 0 0 0 6H227a3 3 0 0 0 3-3zM277.39 347.45a3 3 0 0 0 0-6h-8.19a3 3 0 0 0 0 6h8.18z" transform="translate(-4.81 -2.11)" fill="#fff"/><circle cx="221.09" cy="221.09" r="221.09" fill="none"/></g></svg>