<svg xmlns="http://www.w3.org/2000/svg" viewBox="0 0 430.47 431.48"><title>step8</title><circle cx="215.24" cy="216.24" r="215.24" fill="#e0ddd3"/><path d="M226.76 5C107.89 5 11.53 101.36 11.53 220.23a214.67 214.67 0 0 0 15 79c75 29.46 174 47.37 282.57 47.37a951.74 951.74 0 0 0 95.24-4.71A214.23 214.23 0 0 0 442 220.23C442 101.36 345.63 5 226.76 5z" transform="translate(-11.53 -4)" fill="#306e99"/><path d="M39.71 113.7a214.24 214.24 0 0 0-28.18 106.53c0 118.87 96.36 215.24 215.24 215.24S442 339.1 442 220.23a214.35 214.35 0 0 0-49.61-137.45 948.71 948.71 0 0 0-101.24-5.34C197 77.44 110 90.92 39.71 113.7z" transform="translate(-11.53 -4)" fill="#5f9cce"/><path d="M11.68 228c4.09 115.27 98.81 207.47 215.08 207.47C345.63 435.47 442 339.1 442 220.23a216.21 216.21 0 0 0-4.28-42.88A939.36 939.36 0 0 0 319.23 170c-121.13 0-230.37 22.27-307.55 58z" transform="translate(-11.53 -4)" fill="#76bde5"/><path d="M430.39 222h-2.37v-11.5h-2.87v-7.67h-3.83v7.67h-2.85v10.84h-2.2v21.48h2.2v23.38h-5.11v20.08h-9.24v-16.4h2.35v-16.2h-2.4V242h-10.79v32h-8.81v-12.23h-4.58v-8.91h-7.33v-11.67h-7.33v40.93h-4.46V259.3h-5.42v22.82h-6.37V245h-9.84v20.64h-6.57v16.5h-4.1v-22.73h-22.1v22.71h-7.06v-18.35h-6.62v-50h-4V203h-5v10.7h-3v-3.41h-6.06v3.41h-2.18v7.44h-1.68V232h1.77v17.51h-3.24v14.25h-5v-22.5h-1.65v-12.58h-2.87v12.58h-5v-9.17h-.81v-6.18h-2v-7.23h-4.59v7.23h-3.35v6.18h-11.56v194.05h30.5C357.08 404.81 427.76 321.89 430.39 222z" fill="#4081a5"/><path d="M132.95 156.95h-11.82v-18h-10.87v-7.66h-2.82v7.66h-3.16v12.42h-8.73V157h-5.31v22.51H80v-30h-.34V131h-2.55v18.44h-7.33v36.67H53.85v-23.39h-4.78v23.42H34.46v36.16h-1.2v-36.58h-5.87v-11.33h-5.1v-7.5h-4.1q-.7 2.73-1.32 5.49v13.34h-2.58q-1.08 6.7-1.75 13.53v23.05h-1a215.3 215.3 0 0 0 137.65 198.75h13.92L132.95 227v-70z" transform="translate(-11.53 -4)" fill="#306e99"/><path d="M430.52 289.74v-3.39h-6.35v-32.58h2.74v-29.95h-2.74v-15.11h-3.56V198h-4.76v10.69h-3.57v16h-6.74v-5.81h-12.3v-16.21h-2v-17.44h-9.92v33.71h-2v-26.73h-6.72v26.73h-2.78v70.9h-1.59v-44.17h-22.61v24.41h-6v19.76H327v120.9a215.89 215.89 0 0 0 103.52-121z" transform="translate(-11.53 -4)" fill="#4081a5"/><path d="M402.17 323h-1.12v-.89h1.62q1.9-3.36 3.69-6.8h-5.49v-.9h-2.79v1.15h2.88v6.54h-2.88v1.15h2.88V325c.41-.64.81-1.33 1.21-2z" fill="#004e71"/><path d="M431.58 196h5.52v1.16h-5.52v7.7h-15.39v9.24h-3.69v4.23h-2.88v1.15h2.88V226h-2.88v1.15h2.88v6.54h6.24v.9h-6.34v-.9h-2.79v1.16h2.88v6.54h-2.88v1.15h2.88v2.5h2.91v55.42h-2.91V303h-2.88v1.16h2.88v6.54h-2.88v1.15h2.88v6.54h5.87A214.32 214.32 0 0 0 442 220.23a217.38 217.38 0 0 0-1.5-25.38h-8.92V196zm-12.85 115.59h-6.15v-.9h6.15v.9zm0-7.7h-6V303h6v.9zm0-61.57h-6.15v-.9h6.15v.9zm-4-26.83h2.32v1.84h-2.32v-1.84zm4 11.44h-6.15V226h6.15v.89zm0-7.7h-6v-.9h6v.9zm2.95-9.56h-3.14v-2.5h3.14v2.5zm15.17-4.33h-3.14v-2.5h3.14v2.5zm0-3.85h-3.14V199h3.14v2.5zM370.56 380.37a216.33 216.33 0 0 0 37.43-44V186.06h-37.43v194.31z" transform="translate(-11.53 -4)" fill="#004e71"/><path d="M357.55 258.65v-.87h-2.08v-.31h-3v-2.17h3v-1h-3v-2.17h3v-1h-3v-2.18h3v-1h-3v-2.17h3v-1h-3v-2.38h3v-1h-3v-2.18h3v-1h-3v-2.53h-3v-8.91h-10.2v-1.57h-4.32v1.57h-.57v8.91h-9.5v-1.4h-3.31v1.4h-1.87v7.16h1.15v2.62h-1.15v7.86h1.15v2.62h-1.15v7.86h1.15v2.62h-1.15v7.86h1.15v2.62h-1.15v94h8.91v8.14h23.61v-8.14h.25v-9.08h3v-1h-3v-2.18h3v-1h-3V352h3v-1h-3v-2.18h3v-1h-3v-2.18h3v-1h-3v-2.18h3v-1h-3v-2.18h3v-1h-3v-2.18h3v-1h-3v-8.62h3v-1h-3V323h3v-1h-3v-2.18h3v-1h-3v-2.18h3v-1h-3v-2.18h3v-1h-3v-2.36h3v-1h-3v-2.17h3v-1h-3v-2.18h3v-1h-3v-5.4h3v-1h-3V294h3v-1h-3v-2.18h3v-1h-3v-2.17h3v-1h-3v-2.18h3v-1h-3v-2.17h3V280h-3v-2.18h3v-1h-3v-2.18h3v-1h-3v-2.17h3v-1h-3v-1.87h4.75v-7.86h-4.75v-2.09h5zm6.48 107h-.28v-1h.25v1zm0-3.23h-.28v-1h.25v1zm0-6.45h-.28v-1h.25v1zm0-3.23h-.28v-1h.25v1zm0-3.22h-.28v-1h.25v1zm0-3.22h-.28v-1h.25v1zm0-3.23h-.28v-1h.25v1zm0-3.22h-.28v-1h.25v1zm0-9.67h-.28v-1h.25v1zm0-3.22h-.28v-1h.25v1zm0-3.22h-.28v-1h.25v1zm0-3.22h-.28v-1h.25v1zm0-3.22h-.28v-1h.25v1zm0-3.23h-.28v-1h.25v1zm0-3.22h-.28v-1h.25v1zm0-3.23h-.28v-1h.25v1zm0-6.45h-.28v-1h.25v1zm0-3.22h-.28v-1h.25v1zm0-3.22h-.28v-1h.25v1zm0-3.22h-.28v-1h.25v1zm0-3.23h-.28v-1h.25v1zm0-3.22h-.28V284h.25v1.05zm0-3.23h-.28v-1h.25v1zm0-3.22h-.28v-1h.25v1zm0-3.22h-.28v-1h.25v1zm0-12.9h-.28v-1h.25v1zm0-3.22h-.28v-1h.25v1zm0-3.22h-.28v-1h.25v1zm0-3.23h-.28v-1h.25v1zm0-3.22h-.28v-1h.25v1zm0-3.22h-.28v-1h.25v1zm0-3.23h-.28v-1h.25v1z" fill="#004e71"/><path d="M325.82 227.82h-23v-3.57h-5v22.11h.08v177.05a214 214 0 0 0 27.89-12.05v-66.6h2.09v-1h-2.09V342h2.09v-1h-2.09v-1.83h2.09v-.95h-2.09v-4.61h2.09v-1h-2.09v-1.83h2.09v-1h-2.09v-1.83h2.09v-1h-2.09v-1.83h2.09v-1h-2.09v-1.83h2.09v-1h-2.09v-7.4h2.09v-.69h-2.09v-4.61h2.09v-.95h-2.09v-1.84h2.09v-1h-2.09V303h2.09v-1h-2.09v-1.83h2.09v-1h-2.09v-4.61h2.09v-1h-2.09v-1.83h2.09v-1h-2.09v-1.83h2.09v-1h-2.09v-1.83h2.09v-.95h-2.09v-4.61h2.09v-1h-2.09V278h2.09v-1h-2.09v-7.4h2.09v-.95h-2.09v-1.83h2.09v-1h-2.09v-1.83h2.09v-1h-2.09v-1.83h2.09v-1h-2.09v-1.66h2.09v-1h-2.09v-1.83h2.09v-.95h-2.09v-1.83h2.09V252h-2.09v-7.4h2.09v-1h-2.09v-1.8h2.09v-1h-2.09V239h2.09v-.95h-2.09v-1.83h2.09v-1h-2.09v-1.83h2.09v-1h-2.09v-4.68zm-24.5 106.61h-1.92v-1h1.92v1zm0-2.94h-1.92v-1h1.92v1zm0-2.93h-1.92v-1h1.92v1zm0-2.94h-1.92v-1h1.92v1zm0-2.94h-1.92v-1h1.92v1zm0-2.94h-1.92v-1h1.92v1zm0-2.94h-1.92v-1h1.92v1zm0-2.94h-1.92v-1h1.92v1zm0-2.94h-1.92v-1h1.92v1zm0-2.94h-1.92v-1h1.92v1zm0-2.94h-1.92v-1h1.92v1zm0-2.93h-1.92v-1h1.92v1zm0-2.94h-1.92v-1h1.92v1zm0-2.94h-1.92v-1h1.92v1zm0-2.94h-1.92v-1h1.92v1zm0-2.94h-1.92v-1h1.92v1zm0-2.94h-1.92v-1h1.92v1zm0-2.94h-1.92v-1h1.92v1zm0-2.94h-1.92v-1h1.92v1zm0-2.94h-1.92v-1h1.92v1zm0-2.94h-1.92v-1h1.92v1zm0-2.94h-1.92v-1h1.92v1zm0-2.93h-1.92v-1h1.92v1zm0-2.94h-1.92v-1h1.92v1zm0-2.94h-1.92v-1h1.92v1zm0-2.94h-1.92v-1h1.92v1zm0-2.94h-1.92v-1h1.92v1zm0-2.94h-1.92v-1h1.92v1zm0-2.94h-1.92v-1h1.92v1zm0-2.94h-1.92v-1h1.92v1zm0-2.94h-1.92v-1h1.92v1zm0-2.93h-1.92v-1h1.92v1zm0-2.94h-1.92v-1h1.92v1zm0-2.93h-1.92v-1h1.92v1zm0-2.94h-1.92v-1h1.92v1zm0-2.94h-1.92v-1h1.92v1zm0-2.94h-1.92v-1h1.92v1zm0-2.94h-1.92v-1h1.92v1z" transform="translate(-11.53 -4)" fill="#004e71"/><path fill="#004e71" d="M200.73 227.14h19.21V365.8h-19.21z"/><path d="M185.86 431.57a215.18 215.18 0 0 0 23.22 3.17v-2.68h.65V202.29h-23.87v229.28zm21.36-221.16h1.35v7.18h-1.35v-7.18zm-2.24 0h1.35v7.18H205v-7.18zm-2.25 0h1.35v7.18h-1.35v-7.18zm-2.24 0h1.35v7.18h-1.35v-7.18zm-2.25 0h1.35v7.18h-1.35v-7.18zm-2.24 0h1.35v7.16h-.65v.08h-.7v-7.26zm-2.24 0h1.35v7.26h-1.35v-7.26zm-2.24 0h1.35v7.26h-1.35v-7.26zm-2.25 0h1.35v7.22h-1.35v-7.26zm-2.24 0h1.35v7.26H187v-7.26z" transform="translate(-11.53 -4)" fill="#004e71"/><path fill="#004e71" d="M226.96 268.76v-55.37l5.67-5.68v-10.16l2.47-2.47V124.3l5.16-5.16v-5.86l30.82-30.81V65.82l2.72-2.71v63.96l3.9 3.91v53.56l-4.79 4.8v9.53l6.86 6.86v140.59h-54.04l1.23-77.56z"/><path fill="#4081a5" d="M238.98 262.74v-38.16l5.09-5.09v-15.95l4.06-4.05v77.93h-9.15v-14.68zM260.13 240.13v-38.16l-5.09-5.09v-15.95l-4.05-4.05v157.34h9.14v-94.09z"/><path d="M172.31 202.1v-1.44h-2.84v-4.53h-3v-23.4h2.79V157h-18.79v-10h-4.18v7.86h-2.09V147h-16.73v10h-3.14v16.77h1.61v2.44h-4.4v1.44h4.4v2.78h-4.4v1.44h4.4v2.77h-4.4v1.44h4.4v2.77h-4.4v1.44h4.4v2.77h-4.4v1.44h4.4v2.78h-4.4v1.44h4.4v2.77h-4.4v1.44h4.4v2.77h-4.4v1.44h4.4v2.77h-4.4v1.44h4.4v2.77h-4.4v1.44h4.4v2.77h-4.4v1.44h4.4v2.78h-4.4V224h4.4v2.77h-4.4v1.44h4.4v2.67h-1.61v92.21h-3v2.67h3v.94h-3v2.66h3v.94h-3v2.7h3v.95h-3v2.66h3v.94h-3v2.67h3v.94h-3v2.67h3v.94h-3v2.67h3V352h-3v2.67h3v4.55h-3v2.67h3v.94h-3v2.67h3v.94h-3v2.67h3v.89h-3v2.67h3v.94h-3v2.67h3v.94h-3v2.67h3v4.56h-3v2.66h3v.94h-3v2.67h3v.94h-3v2.67h3v12.05h45v-8.83h.14v-19.19h2.79V377h-2.79v-2.77h2.79v-1.44h-2.79V370h2.79v-1.44h-2.79v-2.77h2.79v-1.44h-2.79v-2.77h2.79v-1.44h-2.79v-2.77h2.79v-1.47h-2.79v-2.77h2.79v-1.44h-2.79v-2.77h2.79v-1.44h-2.79v-2.78h2.79v-1.44h-2.79v-2.78h2.79V339h-2.79v-2.78h2.79v-1.44h-2.79v-2.77h2.79v-1.44h-2.79v-2.77h2.79v-1.4h-2.79v-10.86h2.79v-1.44h-2.79v-2.77h2.79v-1.44h-2.79v-2.77h2.79v-1.44h-2.79v-2.77h2.79v-1.44h-2.79v-2.77h2.79v-1.44h-2.79v-2.77h2.79V293h-2.79v-2.77h2.79v-1.44h-2.79V286h2.79v-1.4h-2.79v-2.77h2.79v-1.44h-2.79v-2.78h2.79v-1.44h-2.79v-2.77h2.79V272h-2.79v-2.77h2.79v-1.44h-2.79V265h2.79v-1.44h-2.79v-10.89h2.79v-1.44h-2.79v-2.77h2.79V247h-2.79v-2.77h2.79v-1.43h-2.79V240h2.79v-1.44h-2.79v-2.77h2.79v-1.44h-2.79v-2.75h2.79v-1.44h-2.79v-2.77h2.79v-1.44h-2.79v-2.77h2.79v-1.44h-2.79V219h2.79v-1.44h-2.79v-2.77h2.79v-1.49h-2.79v-2.77h2.79v-1.44h-2.79v-2.77h2.79v-1.44h-2.79v-2.78h2.79zm-31.76 196.24h-4.48v-.18h4.48v.18zM124.95 220.24v-.87h-2.48v-.31h-3.57v-2.18h3.57v-1h-3.57v-2.18h3.57v-1h-3.57v-2.18h3.57v-1.05h-3.57v-2.17h3.57v-1h-3.57V204h3.57v-1h-3.57v-2.17h3.57v-1h-3.57v-2.53h-3.66v-8.91h-12.43v-1.57h-5.23v1.57h-.7v8.91h-11.5v-1.4h-4v1.4H79.1v7.16h1.37V207H79.1v7.86h1.37v2.62H79.1v7.86h1.37v2.62H79.1v7.86h1.37v2.62H79.1v94h39.75v-9.08h3.62v-1.05h-3.57v-2.17h3.57v-1h-3.57v-5.4h3.57v-1h-3.57v-2.18h3.57v-1h-3.57v-2.18h3.57v-1h-3.57v-2.17h3.57v-1h-3.57v-2.17h3.57v-1h-3.57v-2.18h3.57v-1h-3.57v-8.63h3.57v-1h-3.57v-2.18h3.57v-1h-3.57v-2.18h3.57v-1h-3.57v-2.18h3.57v-1h-3.57v-2.17h3.57v-1h-3.57v-2.82h3.57v-1h-3.57v-2.17h3.57v-1h-3.57v-2.18h3.57v-1h-3.57v-5.4h3.57v-1h-3.57v-2.17h3.57v-1h-3.57v-2.18h3.57v-1h-3.57v-2.17h3.57v-1h-3.57v-2.53h3.57v-1h-3.57v-2.18h3.57v-1h-3.57v-2.18h3.57v-1h-3.57v-2.18h3.57v-1h-3.57V233h3.57v-1h-3.57v-1.8h5.76v-7.86h-5.76v-2.1h6.1zm5.41 107h-.13v-1.05h.13v1.05zm0-3.22h-.13v-1h.13v1zm0-6.45h-.13v-1h.13v1zm0-3.23h-.13v-1h.13v1zm0-3.22h-.13v-1h.13v1zm0-3.22h-.13v-1h.13v1zm0-3.22h-.13v-1h.13v1zm0-3.23h-.13v-1h.13v1zm0-9.67h-.13v-1h.13v1zm0-3.22h-.13v-1h.13v1zm0-3.22h-.13v-1h.13v1zm0-3.23h-.13v-1h.13v1zm0-3.22h-.13v-1h.13v1zm0-3.23h-.13v-1h.13v1zm0-3.22h-.13v-1h.13v1zm0-3.22h-.13v-1h.13v1zm0-6.45h-.13v-1h.13v1zm0-3.22h-.13v-1h.13v1zm0-3.23h-.13v-1h.13v1zm0-3.22h-.13v-1h.13v1zm0-3.23h-.13v-1h.13v1zm0-3.22h-.13v-1h.13v1zm0-3.23h-.13v-1h.13v1zm0-3.22h-.13v-1h.13v1zm0-3.22h-.13v-1h.13v1zm0-12.9h-.13v-1h.13v1zm0-3.22h-.13v-1h.13v1zm0-3.22h-.13v-1h.13v1zm0-3.22h-.13v-1.05h.13v1.05zm0-3.22h-.13v-1h.13v1zm0-3.22h-.13v-1h.13v1zm0-3.22h-.13v-1h.13v1z" fill="#004e71"/><path d="M35.91 201H20.75v12.58h-4.19V223h2.61v9.43h-2.61v7.34h2.61v9.43h-2.61v.9h-.1v2.33h-2.29v1.45h2.29V256h-2c.08.48.16 1 .24 1.44h1.73v2.1h-1.32c.09.48.18.95.27 1.42h1.07V263h-.66c.1.47.19.94.29 1.42h.38v1.73a213.84 213.84 0 0 0 24.26 62.33h2.38v1h-1.76c.43.72.85 1.45 1.29 2.17h.48v.77c.5.82 1 1.64 1.53 2.45H68v1H45.29q5.24 8.2 11.2 15.88H74.1V249.2h-2.62v-9.43h2.62v-7.34h-2.62V223h2.62v-9.43H35.91V201zm8.5 127.52H68v1H44.41v-1zm0 3.22H68v1H44.41v-1zM22.32 238h-3.14v-3.49h3.14V238zm.17-17.81h-3.14v-3.5h3.14v3.5zm11-7h-3.15v-3.49h3.14v3.49zm0-6.29h-3.15v-3.49h3.14v3.49z" transform="translate(-11.53 -4)" fill="#004e71"/><path d="M226.76 435.47a215.08 215.08 0 0 0 182.77-101.53v-5h-5.68v11.44h-10V332h-1.6v-5.62h-3.93v-6.58h-9.1v6.58h-6.63V332H263.07v-63.7h-23.42v-16.41h-21.54v-7h-5.6v7h-6.26v11.29h-17.31v5.12h-10.53v20.48h-20.32v-27.29h-.63v-16.77h-5.06v16.77h-14.53v33.35h-31.59v-21.3h-9.47v21.3h-29v32.9h-2.33v-33.28H53.85v-10.3H43.74v-6.83H33v17.13h-8.33C54.91 376.76 134 435.47 226.76 435.47z" transform="translate(-11.53 -4)" fill="#003551"/><path d="M340.74 375.94h-.9v-2.31h2.87v-1.15h-2.87v-6.54h2.87v-1.16h-2.84v.9h-.17v-.9h.13v-6.54h2.87v-1.15h-2.87v.91h-.13v-.89h.13v-6.55h2.87v-1.15h-2.87v-4.23h-.13v-1.07h-8.45l-6.2-7.9h-4.31v-10.3h-19.35v1.15h5.53v1.16h-5.53v7.7H286v9.24h-3.7v4.23h-2.88v1.15h2.88v6.55h-2.88v1.15h2.88v6.54h6.24v.9h-6.33v-.9h-2.79v1.16h2.88v6.54h-2.88v1.15h2.88v2.5h2.91v51.31a214.16 214.16 0 0 0 59.19-26.94v-.57h-3.66v-1.54h3.66v-3.08h-3.66v-1.54h3.66v-3.08h-3.66v-1.54h3.66v-3.08h-3.66v-1.54h3.66v-3.08h-3.66v-1.54h3.66v-3.08h-3.66v-.9zm-52.2-2.57h-6.15v-.9h6.15v.9zm-4-26.83h2.32v1.84h-2.32v-1.84zm4 11.44h-6.15v-.89h6.15v.91zm0-7.7h-6v-.9h6v.9zm2.95-9.56h-3.14v-2.5h3.14v2.5zm15.17-4.33h-3.14v-2.5h3.14v2.5zm0-3.85h-3.14V330h3.14v2.5zm12.29 1h-3.14V331h3.14v2.5zm0-3.85h-3.14v-2.5h3.14v2.5zM269.78 321.88h-3v-23.4h2.79v-15.72h-18.8v-10h-4.18v7.86h-2.09v-7.86h-16.74v10h-3.14v16.77h1.61V302h-4.4v1.44h4.4v2.78h-4.4v1.44h4.4v2.77h-4.4v1.44h4.4v2.77h-4.4V316h4.4v2.77h-4.4v1.44h4.4V323h-4.4v1.44h4.4v2.77h-4.4v1.44h4.4v2.77h-4.4v1.44h4.4v2.77h-4.4v1.44h4.4v2.77h-4.4v1.44h4.4v2.77h-4.4v1.44h4.4v2.78h-4.4v1.44h4.4v2.77h-4.4V354h4.4v2.67h-1.61v78.81h2.14a216.21 216.21 0 0 0 43-4.3v-2.52h2.79v-1.44h-2.79v-2.77h2.79V423h-2.79v-2.77h2.79v-1.44h-2.79V416h2.79v-1.44h-2.79v-2.76h2.79v-1.44h-2.79v-2.77h2.79v-1.44h-2.79v-2.78h2.79v-1.44h-2.79v-2.78h2.79v-1.44h-2.79v-2.77h2.79v-1.44h-2.79v-2.77h2.79v-1.44h-2.79v-10.87h2.79V377h-2.79v-2.8h2.79v-1.44h-2.79V370h2.79v-1.44h-2.79v-2.77h2.79v-1.44h-2.79v-2.77h2.79v-1.44h-2.79v-2.77h2.79v-1.44h-2.79v-2.77h2.79v-1.46h-2.79v-2.77h2.79v-1.44h-2.79v-2.77h2.79v-1.44h-2.79v-2.78h2.79v-1.44h-2.79v-2.77h2.79v-1.44h-2.79v-2.77h2.79v-1.44h-2.79v-2.77h2.79v-1.44h-2.79v-4.53zM227.25 374.7h-2.61v-9.43h2.61v-7.34h-2.61v-9.43h2.61v-9.43h-38.18V326.5H173.9v12.58h-4.18v9.43h2.61v9.43h-2.61v7.34h2.61v9.43h-2.61v.9h-.1v2.33h-2.29v1.45h2.29v2.08h-2.29v1.44h2.29V385h-2.29v1.43h2.29v2.11h-2.29V390h2.29v2.12h-2.29v1.4h2.29v2.13h-2.29V397h2.29v2.14h-2.29v1.38h2.29v2.16h-2.29v1.37h2.29v2.17h-2.29v1.36h2.29v2.18h-2.29v1.34h2.29v2.19h-2.29v1.34h2.29v2.2h-2.29v1.33h2.29v2.21h-2.29v1.31h2.29v2.22h-2.29v1.3h2.29v2.23h-1.27a215.39 215.39 0 0 0 58.42 8h.49V374.7zm-51.78-11.18h-3.14V360h3.14v3.49zm.17-17.81h-3.14v-3.5h3.14v3.5zm11-7h-3.14v-3.49h3.14v3.49zm0-6.29h-3.14v-3.49h3.14v3.49zM91.62 387.74v-35.43h-3.74v-26.5h-12v-6.63H59.1v6.63H42.37v5.49a216.32 216.32 0 0 0 49.25 56.44zm-9.68-58.84h3.49v4.29h-3.49v-4.29zm-11.85-7.51h3.49v5.3h-3.49v-5.3z" transform="translate(-11.53 -4)" fill="#002438"/><path d="M83.82 386.69v-2.59h-3.29q1.63 1.31 3.29 2.59z" fill="#002438"/><path d="M182.61 331H179v-2.18h3.57v-1H179v-2.17h3.57v-1H179v-2.18h3.57v-1.05H179v-2.17h3.57v-1H179v-2.18h3.57v-1H179v-2.18h3.57v-1H179v-2.53h-3.66v-8.9H163v-1.57h-5.23v1.57h-.7v8.9h-11.5v-1.4h-4v1.4h-2.26v7.16h1.39v2.62h-1.39V327h1.39v2.62h-1.39v7.86h1.39v2.62h-1.39v7.86h1.39v2.62h-1.39v66.62A213.6 213.6 0 0 0 179 430.15v-4.62h3.57v-1H179v-2.18h3.57v-1H179v-2.18h3.57v-1H179v-2.18h3.57v-1H179v-2.18h3.57v-1H179v-2.18h3.57v-1H179v-8.62h3.57v-1H179v-2.18h3.57v-1H179v-2.18h3.57v-1H179v-2.18h3.57v-1H179v-2.17h3.57v-1H179v-2.18h3.57v-1H179v-2.17h3.57v-1H179v-2.18h3.57v-1H179v-5.4h3.57v-1H179v-2.87h3.57v-1H179v-2.18h3.57v-1H179V361h3.57v-1H179v-2.18h3.57v-1H179v-2.22h3.57v-1H179v-2.18h3.57v-1H179v-2.18h3.57v-1H179v-2.18h3.57v-1H179v-1.77h5.76v-7.86H179v-2.1h6.11v-.87h-2.53V331zM179 425.53h-.13v-1h.13v1zm0-3.23h-.13v-1h.13v1zm0-3.22h-.13v-1h.13v1zm0-3.22h-.13v-1h.13v1zm0-3.22h-.13v-1h.13v1zm0-3.23h-.13v-1h.13v1zm0-9.67h-.13v-1h.13v1zm0-3.22h-.13v-1h.13v1zm0-3.22h-.13v-1h.13v1zm0-3.23h-.13v-1h.13v1zm0-3.22h-.13v-1h.13v1zm0-3.23h-.13v-1h.13v1zm0-3.22h-.13v-1h.13v1zm0-3.22h-.13v-1h.13v1zm0-6.45h-.13v-1h.13v1zm0-3.22h-.13v-1h.13v1zm0-3.23h-.13v-1h.13v1zm0-3.22h-.13v-1h.13v1zm0-3.23h-.13v-1h.13v1zm0-3.22h-.13v-1h.13v1zm0-3.23h-.13v-1h.13v1zm0-3.22h-.13v-1h.13v1zm0-3.22h-.13v-1h.13v1zm0-12.9h-.13v-1h.13v1zm0-3.22h-.13v-1h.13v1zm0-3.22h-.13v-1h.13v1zm0-3.22h-.13v-1.05h.13v1.05zm0-3.22h-.13v-1h.13v1zm0-3.22h-.13v-1h.13v1zm0-3.22h-.13v-1h.13v1z" transform="translate(-11.53 -4)" fill="#002438"/><path d="M292.68 397.69v27.48a213.82 213.82 0 0 0 30-12.21h-10.5v-15.27h-19.5zM222.41 419.2H205v-23.7h-21.48v8.63h-4.76v12h4.76v12.14h-12.14a216.25 216.25 0 0 0 121.28-3.09h-12.6v-16.89h-10.73v16.89h-8.83v-30.29H246v8.64h-14.52v6.59h-9.07v9.08zM73.1 363.41v7.52a215.13 215.13 0 0 0 92.12 55.6V413.4h-10.1v-17.3h4.36v-15.9h-4.36v-8h-5.67v-5.7h-7.57v5.68h-5.68v8.52h-10.73v-3.1h-19.56V369h-3.15v-9.26H87v17.9h-3.17v-14.23H73.1z" transform="translate(-11.53 -4)" fill="#001525"/><path fill="#003551" d="M264.87 202.68l-7.7-7.69v-35.71l4.23-4.23v-24.08l3.7-3.7-.23 75.41z"/><path fill="#fff" d="M260.64 160.41h1.01v1.01h-1.01zM260.64 162.26h1.01v1.01h-1.01zM260.64 164.11h1.01v1.01h-1.01zM260.64 165.95h1.01v1.01h-1.01zM260.64 167.8h1.01v1.01h-1.01zM243.05 227.68h1.01v1.01h-1.01zM243.05 229.52h1.01v1.01h-1.01zM243.05 231.3h1.01v1.01h-1.01zM243.05 233.14h1.01v1.01h-1.01zM243.05 234.99h1.01V236h-1.01zM154.76 220.12"/><path fill="#fff" d="M162.39 169.34h.82v.82h-.82zM162.39 176.96h.82v.82h-.82z"/><path fill="#76bde5" d="M162.39 178.47h.82v.82h-.82zM159.84 172.29h.82v.82h-.82zM157.3 169.34h.82v.82h-.82z"/><path fill="#fff" d="M154.76 179.92h.82v.82h-.82zM152.22 169.34h.82v.82h-.82zM149.68 170.84h.82v.82h-.82z"/><path fill="#76bde5" d="M149.68 175.3h.82v.82h-.82z"/><path fill="#fff" d="M134.76 176.96h.82v.82h-.82zM132.22 169.34h.82v.82h-.82zM129.68 170.84h.82v.82h-.82z"/><path fill="#76bde5" d="M129.68 175.3h.82v.82h-.82z"/><path fill="#fff" d="M144.59 178.47h.82v.82h-.82zM142.05 169.34h.82v.82h-.82zM134.76 213.9h.82v.82h-.82z"/><path fill="#76bde5" d="M129.68 212.24h.82v.82h-.82z"/><path fill="#fff" d="M139.51 212.24h.82v.82h-.82zM134.64 238.45v-.82h.82v.82z"/><path fill="#76bde5" d="M132.98 243.54v-.82h.82v.82z"/><path fill="#fff" d="M132.98 233.71v-.82h.82v.82z"/><path fill="#003551" d="M162.39 194.88h.82v.82h-.82z"/><path fill="#fff" d="M162.39 196.39h.82v.82h-.82zM160.58 251.7h.82v.82h-.82z"/><path fill="#76bde5" d="M160.58 253.2h.82v.82h-.82z"/><path fill="#003551" d="M160.58 269.61h.82v.82h-.82z"/><path fill="#fff" d="M160.58 271.12h.82v.82h-.82z"/><path fill="#76bde5" d="M152.22 187.25h.82v.82h-.82z"/><path fill="#003551" d="M149.68 188.76h.82v.82h-.82z"/><path fill="#76bde5" d="M149.68 193.22h.82v.82h-.82zM134.76 194.88h.82v.82h-.82z"/><path fill="#003551" d="M132.22 187.25h.82v.82h-.82z"/><path fill="#fff" d="M129.68 188.76h.82v.82h-.82zM129.68 193.22h.82v.82h-.82zM149.68 197.83h.82v.82h-.82z"/><path fill="#76bde5" d="M147.13 199.34h.82v.82h-.82z"/><path fill="#fff" d="M144.59 196.39h.82v.82h-.82z"/><path fill="#76bde5" d="M156.48 234.58h.82v.82h-.82z"/><path fill="#fff" d="M156.48 239.19h.82v.82h-.82z"/><path fill="#76bde5" d="M153.94 240.69h.82v.82h-.82z"/><path fill="#fff" d="M151.4 237.74h.82v.82h-.82zM142.05 187.25h.82v.82h-.82zM156.48 204.34h.82v.82h-.82zM166.65 217.79h.82v.82h-.82z"/><path fill="#003551" d="M164.11 217.79h.82v.82h-.82zM159.02 211.67h.82v.82h-.82z"/><path fill="#76bde5" d="M159.02 216.13h.82v.82h-.82z"/><path fill="#fff" d="M146.65 210.17h.82v.82h-.82z"/><path fill="#76bde5" d="M144.11 217.79h.82v.82h-.82zM156.48 222.25h.82v.82h-.82z"/><path fill="#fff" d="M153.94 223.76h.82v.82h-.82zM151.4 210.17h.82v.82h-.82z"/><path fill="#003551" d="M148.86 210.17h.82v.82h-.82z"/><path fill="#fff" d="M148.86 216.13h.82v.82h-.82zM49.49 217.41h.82v.82h-.82zM49.49 225.03h.82v.82h-.82z"/><path fill="#76bde5" d="M49.49 226.54h.82v.82h-.82zM46.95 220.36h.82v.82h-.82z"/><path fill="#fff" d="M19.32 217.41h.82v.82h-.82zM16.78 218.91h.82v.82h-.82zM31.87 261.59v-.82h.82v.82z"/><path fill="#76bde5" d="M30.21 266.68v-.82h.82v.82z"/><path fill="#fff" d="M30.21 256.85v-.82h.82v.82z"/><path fill="#003551" d="M49.49 242.95h.82v.82h-.82z"/><path fill="#fff" d="M49.49 244.46h.82v.82h-.82zM57.81 279.51h.82v.82h-.82z"/><path fill="#76bde5" d="M57.81 281.02h.82v.82h-.82zM39.32 235.32h.82v.82h-.82z"/><path fill="#003551" d="M36.78 236.83h.82v.82h-.82z"/><path fill="#76bde5" d="M21.86 242.95h.82v.82h-.82z"/><path fill="#fff" d="M16.78 241.29h.82v.82h-.82z"/><path fill="#76bde5" d="M53.71 262.39h.82v.82h-.82z"/><path fill="#fff" d="M53.71 267h.82v.82h-.82z"/><path fill="#76bde5" d="M51.17 268.51h.82v.82h-.82z"/><path fill="#fff" d="M48.63 265.56h.82v.82h-.82zM29.15 235.32h.82v.82h-.82z"/><path fill="#76bde5" d="M53.71 250.07h.82v.82h-.82z"/><path fill="#fff" d="M51.17 251.57h.82v.82h-.82zM255.06 240.3h1.01v1.01h-1.01zM255.06 242.15h1.01v1.01h-1.01zM255.06 244h1.01v1.01h-1.01zM255.06 245.84h1.01v1.01h-1.01zM255.06 247.69h1.01v1.01h-1.01zM243.05 251.35h1.01v1.01h-1.01zM243.05 253.2h1.01v1.01h-1.01zM243.05 255.05h1.01v1.01h-1.01zM243.05 256.89h1.01v1.01h-1.01zM243.05 258.74h1.01v1.01h-1.01z"/><path fill="#003551" d="M244.25 115.58l22-22.01v-7.69l3-3-19.16-19.16v22.62l-6 6 .16 23.24z"/><circle cx="78.24" cy="57.45" r=".81" fill="#fff"/><circle cx="96.7" cy="38.06" r=".81" fill="#fff"/><circle cx="59.77" cy="85.15" r=".81" fill="#fff"/><circle cx="87.47" cy="86.07" r=".81" fill="#fff"/><circle cx="106.86" cy="123.01" r=".81" fill="#fff"/><circle cx="144.72" cy="86.07" r=".81" fill="#fff"/><circle cx="190.88" cy="29.75" r=".81" fill="#fff"/><circle cx="163.18" cy="10.36" r=".81" fill="#fff"/><circle cx="229.66" cy="19.59" r=".81" fill="#fff"/><circle cx="239.82" cy="28.82" r=".81" fill="#fff"/><circle cx="249.06" cy="38.98" r=".81" fill="#fff"/><circle cx="285.99" cy="40.83" r=".81" fill="#fff"/><circle cx="314.61" cy="77.76" r=".81" fill="#fff"/><circle cx="323.85" cy="49.14" r=".81" fill="#fff"/><circle cx="261.06" cy="67.6" r=".81" fill="#fff"/><circle cx="232.43" cy="113.77" r=".81" fill="#fff"/><circle cx="194.58" cy="141.47" r=".81" fill="#fff"/><circle cx="184.42" cy="159.94" r=".81" fill="#fff"/><circle cx="202.89" cy="160.86" r=".81" fill="#fff"/><circle cx="156.72" cy="123.01" r=".81" fill="#fff"/><circle cx="193.65" cy="75.91" r=".81" fill="#fff"/><circle cx="202.89" cy="93.46" r=".81" fill="#fff"/><circle cx="357.09" cy="61.35" r=".81" fill="#fff"/><circle cx="367.24" cy="70.59" r=".81" fill="#fff"/><circle cx="376.48" cy="80.74" r=".81" fill="#fff"/><circle cx="388.48" cy="109.37" r=".81" fill="#fff"/><circle cx="359.86" cy="155.53" r=".81" fill="#fff"/><circle cx="322" cy="183.23" r=".81" fill="#fff"/><circle cx="311.84" cy="201.7" r=".81" fill="#fff"/><circle cx="330.31" cy="202.62" r=".81" fill="#fff"/><circle cx="284.14" cy="164.77" r=".81" fill="#fff"/><circle cx="330.31" cy="135.22" r=".81" fill="#fff"/><circle cx="332.05" cy="84.37" r=".81" fill="#fff"/><circle cx="341.29" cy="94.52" r=".81" fill="#fff"/><circle cx="353.29" cy="123.15" r=".81" fill="#fff"/><circle cx="324.67" cy="169.31" r=".81" fill="#fff"/><circle cx="295.12" cy="149" r=".81" fill="#fff"/><circle cx="187.46" cy="33.44" r=".81" fill="#fff"/><circle cx="167.8" cy="50.98" r=".81" fill="#fff"/><circle cx="121.63" cy="61.14" r=".81" fill="#fff"/><circle cx="215.24" cy="215.24" r="215.24" fill="none"/></svg>