<svg xmlns="http://www.w3.org/2000/svg" xmlns:xlink="http://www.w3.org/1999/xlink" viewBox="0 0 424.82 308.58"><defs><linearGradient id="a" x1="200.65" y1="194.79" x2="239.77" y2="194.79" gradientUnits="userSpaceOnUse"><stop offset="0" stop-color="#658dc3"/><stop offset="1" stop-color="#1e6191"/></linearGradient><linearGradient id="b" x1="170.29" y1="200.39" x2="192.79" y2="200.39" xlink:href="#a"/><linearGradient id="c" x1="253.64" y1="215.34" x2="253.64" y2="189.66" xlink:href="#a"/><clipPath id="d" transform="translate(-11.17 -138.26)"><path fill="none" d="M66.59 294.54h2.9v4.64h-2.9z"/></clipPath><clipPath id="e" transform="translate(-11.17 -138.26)"><path fill="none" d="M47.03 310.05h9.71v12.15h-9.71z"/></clipPath></defs><title>step3</title><g style="isolation:isolate"><circle cx="250.71" cy="52.45" r="52.45" fill="#ac162c"/><path d="M29.95 330.22h392.14a221.88 221.88 0 0 0 13.9-31c-7.84-.78-19.19-1.32-25.88 1.11l-19.75-23.16s-14.93 16-35.56 3.46c0 0-25.46-16.47-30.73-28.34 0 0-22.39-8.48-35.56-24.88a61.62 61.62 0 0 1-24.37-22.9c4.21 12.15-36-23.29-14.71-13.28 0 0-17.4-14.77-30.65-28.27 0 0-6-7.32-10.33-8.21 0 0-8.2 7-19.62.85 0 0-3.79-.29-9.73 9.42 0 0-34.16 38-44 43.29 0 0-10.13 7.85-13 11.15v.18c-24.86 19.72-69.25 43.7-111 64.28a221.65 221.65 0 0 0 18.85 46.3zM220 199.27v-.14z" transform="translate(-11.17 -138.26)" fill="#08659a" fill-rule="evenodd"/><path d="M96.04 148.52c-2.19-9-8.78-9.06-20.63-6.23s-33.8 46.93-26.34 31.66 7.9-28.31 7.9-28.31c-8.86 14.38-27.53 25.52-44.73 33.27q3.07 6.64 6.54 13h77.26c-2.19-9-27.66-20.3-27.66-20.3-10.1-8.48 10.54-9.56 10.54-9.56-4.83-12.39 17.12-13.53 17.12-13.53zM131.9 191.44s10.21-7.11 13.83-25.08c0 0-5.93-20.87 5.93-29.6 0 0-7.24-1.94 5.6 14.17 0 0-6.26 4.24-7.57.85s-4.61 10.92 16.79 14.58 14.16.27 15.47-9.49 10.54 7.64 8.89 17.39-1 5.51 14.16 6.79 12.51.85 12.84 5.94 13.83 5.09 13.83 5.09z" fill="#035072" fill-rule="evenodd"/><path d="M310.14 330.22s-14.83-11.82-16.81-13.51 20.76-31.36 8.4-49.17c-5.55 31.39-23.55 31.4-23.55 31.4s-6.58-6.15-5.27-20c0 0-14.49-3-22.39-15.23A50.77 50.77 0 0 0 269 302.58s-19.1 14.64-24.36 27.64h65.54z" transform="translate(-11.17 -138.26)" fill="#035072" fill-rule="evenodd"/><path d="M399.38 190.96s-22.39-20-22.39-32.46c0 0-5.27-7-5.27 7.74 0 0-39.64 2.19-50.7-25.66 0 0-.66 13.89 27.66 32.56l-13.85 17.82h64.53z" fill="#035072" fill-rule="evenodd"/><path d="M213.65 150.91c-8.38 6.06-14.79 2.24-16.22 1.83-.92 2.78-11.63 1.44-12.5 1.34-3.39 4.57-16.31 16.88-43.94 47.35A85.26 85.26 0 0 1 125.65 215c-.63 2.42-.43 5.54-2.41 9.47 15.2-9.88 22.1-13.18 18 1.65 12-14.83 21.18-20.59 21.64-10.71s4.14-1.65 5.07 4.94 0 12.35 1.38 18.94 6.45-28.83 11.51-24.71 0 12.35 8.75 6.59 15-16.88 22.33-11.12 24.86 25.12 35.69 30.47 1.38-3.29-5.3-18.12-3-17.3 7.6-8.65 15 15.76 12.29 10 1.38-6.18 4.61-2.47 3.45-2.88 6.22-.82 32 27.74 43.09 28.16c1.69-.1-19.9-16.87-24-19.88-6.54-5-24.36-21.27-28-24.25-24.2-20.04-45.92-50.29-50.47-53.58z" transform="translate(-11.17 -138.26)" fill="#fff"/><path d="M214.21 163.54s-4.24-2.88-6.49-1.23-5.24 6.59-6.74 4.12 2.5 7.82 2.5 7.82-1.25 5.77 4.24 13.18 27.7 39.54 29.95 40.36a95.63 95.63 0 0 1-3.25-21.41s4-5.35 5-5.35.25-5.77-7-11.94a39.38 39.38 0 0 1-11.23-14.83c-1.24-2.89-6.98-10.72-6.98-10.72z" transform="translate(-11.17 -138.26)" opacity=".1" fill="url(#a)"/><path d="M173 224.08s6.49-19.36 11.48-23.06 4.74-25.12 7.73-30.88-7.49 9.06-7.49 9.06a8.8 8.8 0 0 0-3.74 4.12c-1.25 2.88-10.73 30.47-10.73 31.71s1.75 11.94 1.5 16.06 1.25-7.01 1.25-7.01z" transform="translate(-11.17 -138.26)" opacity=".1" fill="url(#b)"/><path d="M255.95 71.4l-14.73-12.76-12.23-9.06 16.47 27.16s4-2.88 5.24-1.65 3.75-5.35 5.25-3.69z" opacity=".1" fill="url(#c)"/><path d="M424.91 324.86c-19.38-1.22-33.65-1.7-33.65-1.7-23.72-11.74-59.27 0-59.27 0a210.88 210.88 0 0 0-37 0c-33.78-13.57-69 0-69 0-14.24-3.07-48.33-1.77-48.33-1.77-17.8-8.09-38 0-38 0-22.35-4.15-49 2.62-49 2.62-24.16-10.64-48.66-7.31-65.18-2.48q4.65 9.52 10.15 18.51l382.64-3.12q3.5-5.92 6.64-12.06z" transform="translate(-11.17 -138.26)" fill="#85d333"/><path d="M423.45 327.65c-16.36-4.16-38.89-6.21-61.18 3.62 0 0-26.64-6.77-49-2.62 0 0-20.17-8.11-38 0 0 0-34.1-3.72-48.34-.66 0 0-35.26-11.15-69 2.41a210.88 210.88 0 0 0-37 0s-35.53-11.74-59.25 0c0 0-13.16.43-30.83 1.5q3.48 6.27 7.34 12.3l373.6 3a223 223 0 0 0 11.66-19.55z" transform="translate(-11.17 -138.26)" fill="#5a9614"/><path fill="#ac162c" d="M116.97 141.42H49.38l-2.91-5.48h73.41l-2.91 5.48z"/><path fill="#e14741" d="M53.8 126.8h8.78v64.17H53.8zM44.7 161.46h4.39v32.08H44.7z"/><path fill="#cf0a2c" d="M50.01 124.95h16.36v3.69H50.01z"/><path fill="#1e252b" d="M52.84 178.11h10.69v15.43H52.84z"/><path fill="#e14741" d="M103.77 126.8h8.78v64.17h-8.78z"/><path fill="#cf0a2c" d="M99.99 124.95h16.36v3.69H99.99z"/><path fill="#ac162c" d="M119.88 124.95H46.47l-5.97-5.49h85.35l-5.97 5.49z"/><path d="M94.34 254a419.52 419.52 0 0 1-55.5-3.78l6 7.53h99l6-7.53a419.52 419.52 0 0 1-55.5 3.78M73.75 275.38H65a1.19 1.19 0 1 1 0-2.38h8.78a1.19 1.19 0 0 1 0 2.37M123.72 275.38h-8.78a1.19 1.19 0 0 1 0-2.37h8.78a1.19 1.19 0 0 1 0 2.37" transform="translate(-11.17 -138.26)" fill="#1e252b"/><path fill="#ac162c" d="M64.83 158.96H40.6l1.75 3h22.48v-3z"/><path fill="#e14741" d="M117.1 161.46h4.39v32.08h-4.39z"/><path fill="#1e252b" d="M102.66 178.11h10.69v15.43h-10.69z"/><path fill="#ac162c" d="M101.83 158.96h23.76l-1.75 3h-22.01v-3z"/><path fill="#939598" d="M44.15 197.56H59.7l4.37-12.92H24.23l4.36 12.92h15.56z"/><path fill="#808285" d="M22.43 183.94h43.44v1.39H22.43zM29.77 197.56h3.02v1.76h-3.02zM55.51 197.56h3.02v1.76h-3.02z"/><path d="M64.57 310.27a1.46 1.46 0 0 1-.36 0c-12-3.11-17.56-10-17.56-13.75a1.44 1.44 0 0 1 2.88 0c0 2.05 4.43 8.12 15.4 11a1.44 1.44 0 0 1-.36 2.84" transform="translate(-11.17 -138.26)" fill="#89756e"/><path d="M35.83 183.94c0-2.59 2.29-8.28 7.13-10.87 4.41-2.33 12.87-4.79 12.87-16.79h2.54s-.68 9-1.87 12.71c-1.48 4.68-11.7 10.63-11.7 15" fill="#7d6358"/><path d="M67 294.54a21.21 21.21 0 0 1-.36 4 5.87 5.87 0 0 0 2.45.65c.29-2.57.45-4.64.45-4.64H67z" transform="translate(-11.17 -138.26)" fill="#66463b" clip-path="url(#d)"/><path d="M50.78 172.52c2.49.71 16.52-2.55 16.52-6.2 0 0 1.7-3.06 1.7-1 0 6.57-14.36 11.39-19 10-1.6-.46-1-3.32.8-2.81" fill="#89756e"/><path d="M42.99 173.07c-4.84 2.59-7.16 8.28-7.16 10.87h2.06c0-2.14.44-7.87 7.65-12.15-.94.46-1.82.87-2.58 1.28" fill="#66463b" clip-path="url(#e)"/><path d="M58 293.47a1.74 1.74 0 0 0-1 .31 2.5 2.5 0 0 0-3.24-2.13A3 3 0 0 0 50.5 290a4.07 4.07 0 0 0-7 .59 3.05 3.05 0 0 0-3.87 1 2 2 0 0 0-.55-.08 2.08 2.08 0 0 0-.63 4.06v.18a2.08 2.08 0 0 0 2.08 2.08 2.06 2.06 0 0 0 .57-.09 4.08 4.08 0 0 0 7 1.59 3 3 0 0 0 4.8-.42 2.52 2.52 0 0 0 1.61.59 2.45 2.45 0 0 0 2.49-2.83 1.75 1.75 0 1 0 1-3.2z" transform="translate(-11.17 -138.26)" fill="#39842c"/><path d="M58 292.76a1.74 1.74 0 0 0-1 .32 2.54 2.54 0 0 0-2.52-2.25 2.5 2.5 0 0 0-.72.12 3 3 0 0 0-3.31-1.67 4.07 4.07 0 0 0-7 .59 3.06 3.06 0 0 0-3.87 1 2 2 0 0 0-.55-.08 2.08 2.08 0 0 0-.63 4.06v.18a2.06 2.06 0 0 0 2.65 2 4.08 4.08 0 0 0 7 1.59 3 3 0 0 0 4.8-.42 2.53 2.53 0 0 0 4.15-2 2.57 2.57 0 0 0 0-.3 1.75 1.75 0 1 0 1-3.14z" transform="translate(-11.17 -138.26)" fill="#3fae2a"/><path d="M89.37 302.71a1.42 1.42 0 0 0-.82.26 2 2 0 0 0-2.64-1.74 2.48 2.48 0 0 0-2.23-1.41 2.44 2.44 0 0 0-.47 0 3.33 3.33 0 0 0-5.7.48 2.49 2.49 0 0 0-1.09-.26 2.52 2.52 0 0 0-2.07 1.09 1.69 1.69 0 0 0-1 3.25v.14a1.7 1.7 0 0 0 1.7 1.7 1.67 1.67 0 0 0 .46-.07 3.33 3.33 0 0 0 5.73 1.3 2.47 2.47 0 0 0 3.92-.34 2.05 2.05 0 0 0 1.31.48 2 2 0 0 0 2.05-2.32 1.43 1.43 0 1 0 .85-2.56z" transform="translate(-11.17 -138.26)" fill="#39842c"/><path d="M89.37 302.13a1.43 1.43 0 0 0-.82.26 2.07 2.07 0 0 0-2.05-1.83 2 2 0 0 0-.59.09 2.48 2.48 0 0 0-2.23-1.41 2.44 2.44 0 0 0-.47 0 3.33 3.33 0 0 0-5.7.48 2.48 2.48 0 0 0-1.09-.26 2.52 2.52 0 0 0-2.07 1.09 1.66 1.66 0 0 0-.45-.07 1.7 1.7 0 0 0-.51 3.31v.15a1.68 1.68 0 0 0 2.16 1.63 3.33 3.33 0 0 0 5.73 1.3 2.47 2.47 0 0 0 3.92-.34 2.05 2.05 0 0 0 1.31.48 2 2 0 0 0 2.05-2.32 1.42 1.42 0 0 0 .81.26 1.43 1.43 0 1 0 0-2.82z" transform="translate(-11.17 -138.26)" fill="#3fae2a"/><path d="M82.06 287.38h-.28a3.5 3.5 0 0 0-4.64-1.38 4.3 4.3 0 0 0-4.63-1.9 5.9 5.9 0 0 0-8.8-1.19 4.32 4.32 0 0 0-6.3 3.16 3.26 3.26 0 0 0-3.5.75 3.27 3.27 0 0 0-2.94 2.7 2.31 2.31 0 0 0 .21 4.61h.12a4.19 4.19 0 0 0 5.48 2.12 4.77 4.77 0 0 0 5.56-.38 4.31 4.31 0 0 0 5.26.38 5.9 5.9 0 0 0 8.07-.22 4.26 4.26 0 0 0 6.09-2.13h.3a3.27 3.27 0 0 0 0-6.54" transform="translate(-11.17 -138.26)" fill="#549b48"/><path d="M82.06 286.66h-.28a3.5 3.5 0 0 0-4.64-1.38 4.3 4.3 0 0 0-4.63-1.9 5.9 5.9 0 0 0-8.8-1.19 4.32 4.32 0 0 0-6.3 3.16 3.26 3.26 0 0 0-3.5.75 3.27 3.27 0 0 0-2.94 2.7 2.31 2.31 0 0 0 .21 4.61h.12a4.19 4.19 0 0 0 5.48 2.12 4.77 4.77 0 0 0 5.56-.38 4.31 4.31 0 0 0 5.26.38 5.9 5.9 0 0 0 8.07-.22 4.26 4.26 0 0 0 6.09-2.13h.3a3.27 3.27 0 0 0 0-6.54" transform="translate(-11.17 -138.26)" fill="#6cc04a"/><path d="M189.95 249s8.56-17 15.15-20.24 6.26-22 10.21-27.11-9.88 8-9.88 8a10.54 10.54 0 0 0-4.94 3.61c-1.65 2.53-14.16 26.75-14.16 27.83s2.31 10.48 2 14.1 1.62-6.19 1.62-6.19z" transform="translate(-11.17 -138.26)" fill="#08659a" fill-rule="evenodd"/><path fill="#b43829" d="M323.3 117.21h53.29v28.82H323.3z"/><path fill="#c0a27f" d="M326.89 117.21H373v28.82h-46.11z"/><path fill="#9d2824" d="M344.84 128.55h10.22v17.48h-10.22z"/><path fill="#610d04" d="M312.86 145.24h70.01v.79h-70.01zM312.86 137.51h70.01v.79h-70.01zM314.54 137.5h.74v8.09h-.74zM327.54 137.5h.74v8.09h-.74zM340.54 137.5h.74v8.09h-.74zM353.54 137.5h.74v8.09h-.74zM366.53 137.5h.74v8.09h-.74zM379.53 137.5h.74v8.09h-.74z"/><path fill="#b43829" d="M317.59 117.04h64.71v3.58h-64.71z"/><path fill="#9d2824" d="M311.71 114.23h76.48v3.58h-76.48z"/><path fill="#610d04" d="M306.59 111.5h86.71v3.58h-86.71z"/><path d="M387.95 239h-57.07a83.07 83.07 0 0 1-20 5.09s1.16 7.44 12.67 7.44h73.9c2.32 0 11.85-1.51 11.62-7.44a58.5 58.5 0 0 1-21.12-5.09z" transform="translate(-11.17 -138.26)" fill="#bea07e"/><path d="M312.43 113.26h73.9c2.32 0 11.85-1.51 11.62-7.44-64 10.69-98.19 0-98.19 0s1.17 7.44 12.67 7.44z" style="mix-blend-mode:multiply" fill="#bea07e" opacity=".4"/><path fill="#b43829" d="M317.92 165.83h64.52v34.9h-64.52z"/><path fill="#c0a27f" d="M322.26 165.83h55.84v34.9h-55.84z"/><path fill="#9d2824" d="M343.99 179.56h12.38v21.17h-12.38z"/><path fill="#610d04" d="M305.27 199.77h90.95v.96h-90.95zM305.27 190.4h90.95v.96h-90.95zM307.45 190.39h.96v9.79h-.96zM324.33 190.39h.96v9.79h-.96zM341.22 190.39h.96v9.79h-.96zM358.11 190.39h.96v9.79h-.96zM374.99 190.39h.96v9.79h-.96zM391.88 190.39h.96v9.79h-.96z"/><path fill="#b43829" d="M311 165.62h78.36v4.34H311z"/><path fill="#9d2824" d="M303.87 162.21h92.61v4.34h-92.61z"/><path fill="#610d04" d="M297.67 158.91h105v4.34h-105z"/><path d="M393.84 284.13h-69.1a100.69 100.69 0 0 1-24.16 6.17s1.41 9 15.34 9h89.49c2.81 0 14.35-1.83 14.07-9a70.85 70.85 0 0 1-25.64-6.17z" transform="translate(-11.17 -138.26)" fill="#bea07e"/><path d="M304.75 161.05h89.49c2.81 0 14.35-1.83 14.07-9-77.53 12.95-118.9 0-118.9 0s1.42 9 15.34 9z" style="mix-blend-mode:multiply" fill="#bea07e" opacity=".4"/><path fill="#b43829" d="M327.55 77.1h44.44v24.03h-44.44z"/><path fill="#c0a27f" d="M330.54 77.1H369v24.03h-38.46z"/><path fill="#9d2824" d="M345.5 86.56h8.52v14.58h-8.52z"/><path fill="#610d04" d="M318.84 100.48h58.97v.66h-58.97zM318.84 94.02h58.97v.66h-58.97zM320.25 94.02h.62v6.74h-.62zM331.2 94.02h.62v6.74h-.62zM342.15 94.02h.62v6.74h-.62zM353.1 94.02h.62v6.74h-.62zM364.05 94.02h.62v6.74h-.62zM375 94.02h.62v6.74H375z"/><path fill="#b43829" d="M322.78 76.96h53.97v2.99h-53.97z"/><path fill="#9d2824" d="M317.88 74.61h63.78v2.99h-63.78z"/><path fill="#610d04" d="M313.61 72.34h72.31v2.99h-72.31z"/><path d="M336.22 201.42a69.46 69.46 0 0 1-17.13 4.45s1 6.2 10.56 6.2h61.63c1.94 0 9.88-1.26 9.69-6.2a48.45 48.45 0 0 1-18.06-4.45h-46.69z" transform="translate(-11.17 -138.26)" fill="#bea07e"/><path d="M318.48 73.81h61.63c1.94 0 9.88-1.26 9.69-6.2-53.39 8.92-81.88 0-81.88 0s.97 6.2 10.56 6.2z" style="mix-blend-mode:multiply" fill="#bea07e" opacity=".4"/><path fill="#b43829" d="M331.35 43.97h36.51v19.75h-36.51z"/><path fill="#c0a27f" d="M333.81 43.97h31.59v19.75h-31.59z"/><path fill="#9d2824" d="M346.1 51.74h7v11.98h-7z"/><path fill="#610d04" d="M324.2 63.18h48.67v.54H324.2zM324.2 57.88h48.67v.54H324.2zM325.36 57.87h.51v5.54h-.51zM334.4 57.87h.51v5.54h-.51zM343.44 57.87h.51v5.54h-.51zM352.47 57.87h.51v5.54h-.51zM361.51 57.87h.51v5.54h-.51zM370.55 57.87h.51v5.54h-.51z"/><path fill="#b43829" d="M327.44 43.86h44.34v2.45h-44.34z"/><path fill="#9d2824" d="M323.41 41.93h52.4v2.45h-52.4z"/><path fill="#610d04" d="M319.9 40.06h59.41v2.45H319.9z"/><path d="M352.68 16.43h-4.85c-7.71 17.32-32.56 19.74-32.56 19.74s.8 5.09 8.68 5.09h50.58c1.59 0 8.12-1 8-5.09-18.45-1.2-26.41-11.43-29.85-19.74z" fill="#bea07e"/><path fill="#b43829" d="M350.12 3.92h.24v9.46h-.24zM350 2.77h.46v1.51H350z"/><path fill="#9d2824" d="M348.5 12.93h3.46v2.01h-3.46zM349.62 11.95h1.23v.32h-1.23zM349.62 11.39h1.23v.32h-1.23zM349.62 10.82h1.23v.32h-1.23zM349.62 10.25h1.23v.32h-1.23zM349.62 9.68h1.23V10h-1.23zM349.62 9.12h1.23v.32h-1.23zM349.62 8.55h1.23v.32h-1.23zM349.62 7.98h1.23v.32h-1.23zM349.62 7.41h1.23v.32h-1.23zM349.62 6.85h1.23v.32h-1.23zM349.62 6.28h1.23v.32h-1.23zM349.62 5.71h1.23v.32h-1.23zM349.62 5.15h1.23v.32h-1.23zM349.62 4.58h1.23v.32h-1.23z"/><path fill="#610d04" d="M347.79 14.42h4.9v2.01h-4.9z"/><path d="M323.9 41.27h50.63c1.59 0 8.12-1 8-5.09-43.87 7.32-67.27 0-67.27 0s.76 5.09 8.64 5.09z" style="mix-blend-mode:multiply" fill="#bea07e" opacity=".4"/><path d="M38.25 344.23a223.12 223.12 0 0 0 375.54 0H38.25z" transform="translate(-11.17 -138.26)" fill="#ffac04" fill-rule="evenodd"/></g></svg>