<svg xmlns="http://www.w3.org/2000/svg" viewBox="0 0 428.77 364.18"><title>step6</title><g style="isolation:isolate"><circle cx="145.25" cy="92.26" r="38.15" fill="#f5db00"/><path d="M405.23 344.45H48.79a215 215 0 0 0 356.44 0z" transform="translate(-12.12 -75.04)" fill="#8f6330"/><path d="M45.19 338.92h363.64a214.34 214.34 0 0 0 14.85-27.87H30.34a214.34 214.34 0 0 0 14.85 27.87z" transform="translate(-12.12 -75.04)" fill="#cdc7ad"/><path d="M37.67 270.85h354.44q2.36-3.44 4.59-7H33.07q2.23 3.57 4.6 7z" fill="#45b600"/><path d="M35 321h384a213.5 213.5 0 0 0 21.92-75.62l-19.62 9.06-12.37-.93L362 216.46l-34.3 30.35-14.82 5.32s-29-10.72-31-11.18-29.46 22.34-29.46 22.34l-37.25-11.37-19 .21-18.35-22.7-25.5 26.41-18.32 20s-11-1-13.36-4.69a86.52 86.52 0 0 0-5.73-7.83l-9.55-1.9-8.36-9.29-8.31 4.63-34.76-31-23.19 15.19-18.62-14.69A213.94 213.94 0 0 0 35 321z" transform="translate(-12.12 -75.04)" fill="#2c2e35"/><path fill="#fff7d1" d="M165.67 154.39v64.25l18.35-41.55-18.35-22.7zM84.88 177.09c-.56 3.59 0 19.23 0 19.23l8.35-10zM269.71 165.91v44.3l31.03-33.12-31.03-11.18zM349.88 141.42s-1.28 71.22 0 71.4 46.93-34.33 46.93-34.33z"/><path d="M14.76 258.16l3.47-8.81 12.51-8.4-18.62-14.69a216.35 216.35 0 0 0 2.64 31.9z" transform="translate(-12.12 -75.04)" fill="#fff7d1"/><path fill="#fff7d1" d="M41.78 150.68v72.3l34.75-41.26-34.75-31.04zM102.75 188.26v21.95l5.74-14.13-5.74-7.82z"/><path fill="#2c2e35" d="M169.74 56.73h4.34L172.64.04 171.18 0l-1.44 56.73z"/><path d="M199 264.15c-5.63-25.43-8.26-52.54-8.45-82.05v-64.73h-13.06v65.13c-.21 29.36-2.84 56.35-8.45 81.66-5.85 26.41-32.46 61.69-32.46 61.69h13.1s2.42-7.26 11.49-20.36A30.65 30.65 0 0 1 184 292.18a30.65 30.65 0 0 1 22.85 13.3c9.07 13.11 11.49 20.36 11.49 20.36h13.1s-26.58-35.28-32.44-61.69z" transform="translate(-12.12 -75.04)" fill="#24262b"/><path fill="#54666a" d="M368.5 104.91h27.01v5.69H368.5z"/><path fill="#5d7074" d="M401.53 104.91H363.6l6.16-8.8h25.05l6.72 8.8zM363.29 109.74h38.19v142.98h-38.19z"/><path fill="#45504a" d="M368.38 231.9h28.01v3.65h-28.01zM368.38 224.61h28.01v3.64h-28.01zM368.38 217.32h28.01v3.65h-28.01zM368.38 210.03h28.01v3.65h-28.01zM368.38 202.73h28.01v3.65h-28.01zM368.38 195.44h28.01v3.65h-28.01zM368.38 188.15h28.01v3.64h-28.01zM368.38 180.86h28.01v3.65h-28.01zM368.38 173.57h28.01v3.64h-28.01zM368.38 166.28h28.01v3.65h-28.01zM368.38 158.99h28.01v3.65h-28.01zM368.38 151.7h28.01v3.64h-28.01zM368.38 144.41h28.01v3.65h-28.01zM368.38 137.12h28.01v3.64h-28.01zM368.38 129.83h28.01v3.65h-28.01zM368.38 122.53h28.01v3.65h-28.01zM368.38 115.24h28.01v3.64h-28.01z"/><path fill="#54666a" d="M285.37 61.11h35.07v7.39h-35.07z"/><path fill="#5d7074" d="M328.26 61.11h-49.25l8-11.42h32.53l8.72 11.42zM278.61 67.39h49.58v185.63h-49.58z"/><path fill="#45504a" d="M285.21 225.98h36.37v4.73h-36.37zM285.21 216.52h36.37v4.73h-36.37zM285.21 207.05h36.37v4.74h-36.37zM285.21 197.58h36.37v4.73h-36.37zM285.21 188.12h36.37v4.73h-36.37zM285.21 178.65h36.37v4.73h-36.37zM285.21 169.19h36.37v4.73h-36.37zM285.21 159.72h36.37v4.73h-36.37zM285.21 150.26h36.37v4.73h-36.37zM285.21 140.79h36.37v4.73h-36.37zM285.21 131.32h36.37v4.73h-36.37zM285.21 121.86h36.37v4.73h-36.37zM285.21 112.39h36.37v4.73h-36.37zM285.21 102.93h36.37v4.73h-36.37zM285.21 93.46h36.37v4.73h-36.37zM285.21 83.99h36.37v4.73h-36.37zM285.21 74.53h36.37v4.73h-36.37z"/><path d="M236.54 253.48h57.94V44.12s-2.18-28.87-29-28.87-29 28.87-29 28.87v209.36z" fill="#adcec3"/><path fill="#45504a" d="M246.38 238.17h37.72v5.47h-37.72zM246.38 226.7h37.72v5.47h-37.72zM246.38 215.22h37.72v5.47h-37.72zM246.38 203.74h37.72v5.47h-37.72zM246.38 192.26h37.72v5.47h-37.72zM246.38 180.78h37.72v5.47h-37.72zM246.38 169.3h37.72v5.47h-37.72zM246.38 157.82h37.72v5.47h-37.72zM246.38 146.34h37.72v5.47h-37.72zM246.38 134.86h37.72v5.47h-37.72zM246.38 123.38h37.72v5.47h-37.72zM246.38 111.9h37.72v5.47h-37.72zM246.38 100.42h37.72v5.47h-37.72zM246.38 88.94h37.72v5.47h-37.72zM246.38 77.46h37.72v5.47h-37.72zM246.38 65.98h37.72v5.47h-37.72zM246.38 54.5h37.72v5.47h-37.72zM246.38 43.02h37.72v5.47h-37.72z"/><path d="M279.12 90.29A42.52 42.52 0 0 1 297 125v203.52h-1.64V125a40.82 40.82 0 0 0-17.9-33.86A40.74 40.74 0 0 0 259.59 125v203.52H258V125a42.53 42.53 0 0 1 17.85-34.7 24.6 24.6 0 0 1 3.27-.01z" transform="translate(-12.12 -75.04)" fill="#45504a"/><path fill="#adcec3" d="M314.28 76.87h61.57v175.87h-61.57z"/><path fill="#45504a" d="M357.51 85.74h6.51v4.03h-6.51zM357.51 94.17h6.51v4.03h-6.51zM357.51 102.59h6.51v4.03h-6.51zM357.51 111.02h6.51v4.03h-6.51zM357.51 119.45h6.51v4.03h-6.51zM357.51 127.87h6.51v4.03h-6.51zM357.51 136.3h6.51v4.03h-6.51zM357.51 144.72h6.51v4.03h-6.51zM357.51 153.15h6.51v4.03h-6.51zM357.51 161.57h6.51v4.03h-6.51zM357.51 170h6.51v4.03h-6.51zM357.51 178.43h6.51v4.03h-6.51zM357.51 186.85h6.51v4.03h-6.51zM357.51 195.28h6.51v4.03h-6.51zM357.51 203.7h6.51v4.03h-6.51zM357.51 212.13h6.51v4.03h-6.51zM357.51 220.55h6.51v4.03h-6.51zM357.51 228.98h6.51v4.03h-6.51zM347.26 85.74h6.5v4.03h-6.5zM347.26 94.17h6.5v4.03h-6.5zM347.26 102.59h6.5v4.03h-6.5zM347.26 111.02h6.5v4.03h-6.5zM347.26 119.45h6.5v4.03h-6.5zM347.26 127.87h6.5v4.03h-6.5zM347.26 136.3h6.5v4.03h-6.5zM347.26 144.72h6.5v4.03h-6.5zM347.26 153.15h6.5v4.03h-6.5zM347.26 161.57h6.5v4.03h-6.5zM347.26 170h6.5v4.03h-6.5zM347.26 178.43h6.5v4.03h-6.5zM347.26 186.85h6.5v4.03h-6.5zM347.26 195.28h6.5v4.03h-6.5zM347.26 203.7h6.5v4.03h-6.5zM347.26 212.13h6.5v4.03h-6.5zM347.26 220.55h6.5v4.03h-6.5zM347.26 228.98h6.5v4.03h-6.5zM336.92 85.74h6.51v4.03h-6.51zM336.92 94.17h6.51v4.03h-6.51zM336.92 102.59h6.51v4.03h-6.51zM336.92 111.02h6.51v4.03h-6.51zM336.92 119.45h6.51v4.03h-6.51zM336.92 127.87h6.51v4.03h-6.51zM336.92 136.3h6.51v4.03h-6.51zM336.92 144.72h6.51v4.03h-6.51zM336.92 153.15h6.51v4.03h-6.51zM336.92 161.57h6.51v4.03h-6.51zM336.92 170h6.51v4.03h-6.51zM336.92 178.43h6.51v4.03h-6.51zM336.92 186.85h6.51v4.03h-6.51zM336.92 195.28h6.51v4.03h-6.51zM336.92 203.7h6.51v4.03h-6.51zM336.92 212.13h6.51v4.03h-6.51zM336.92 220.55h6.51v4.03h-6.51zM336.92 228.98h6.51v4.03h-6.51zM326.67 85.74h6.51v4.03h-6.51zM326.67 94.17h6.51v4.03h-6.51zM326.67 102.59h6.51v4.03h-6.51zM326.67 111.02h6.51v4.03h-6.51zM326.67 119.45h6.51v4.03h-6.51zM326.67 127.87h6.51v4.03h-6.51zM326.67 136.3h6.51v4.03h-6.51zM326.67 144.72h6.51v4.03h-6.51zM326.67 153.15h6.51v4.03h-6.51zM326.67 161.57h6.51v4.03h-6.51zM326.67 170h6.51v4.03h-6.51zM326.67 178.43h6.51v4.03h-6.51zM326.67 186.85h6.51v4.03h-6.51zM326.67 195.28h6.51v4.03h-6.51zM326.67 203.7h6.51v4.03h-6.51zM326.67 212.13h6.51v4.03h-6.51zM326.67 220.55h6.51v4.03h-6.51zM326.67 228.98h6.51v4.03h-6.51z"/><path fill="#769798" d="M323.85 69h43.81v7.87h-43.81z"/><path fill="#adcec3" d="M314.09 69h61.52l-9.99-12.16h-40.63L314.09 69z"/><path fill="#c1272d" d="M172.11 137.44H158.4v7.53h27.15v-7.53h-13.44z"/><path fill="#4d4d4d" d="M172.11 144.97H158.4v3.09h27.15v-3.09h-13.44z"/><path d="M184 114.08a8.06 8.06 0 0 0-7.8 8.3c0 1.93.06 3.5.16 4.77h15.28c.11-1.27.16-2.84.16-4.77a8.06 8.06 0 0 0-7.8-8.3z" transform="translate(-12.12 -75.04)" fill="#c1272d"/><path fill="#4d4d4d" d="M164.34 52.12h15.14v4.61h-15.14z"/><path fill="#81a5a5" d="M376.84 257.54h-64.96l-2.56-19.94h70.08l-2.56 19.94z"/><path d="M370.61 218.12h-52.49c-.51 3.9-8.17 7.79-8.17 7.79h68.83s-7.67-3.89-8.17-7.79z" fill="#45504a"/><path fill="#81a5a5" d="M294.87 224.73l14.31 13.39h70.36l14.32-13.39h-98.99z"/><path d="M363.96 203.19h-39.19c-.39 3-6.93 6-6.93 6h53s-6.49-3-6.88-6z" fill="#45504a"/><path fill="#81a5a5" d="M306.21 208.28l11.04 10.32h54.22l11.04-10.32h-76.3z"/><path d="M360.46 190.96h-32.2c-.32 2.47-5.69 4.94-5.69 4.94h43.58s-5.37-2.51-5.69-4.94z" fill="#45504a"/><path fill="#81a5a5" d="M313.02 195.11l9.07 8.48h44.54l9.07-8.48h-62.68z"/><path fill="#45504a" d="M328.26 181.14h32.2v10.05h-32.2z"/><path d="M320.13 183.1h48.47s-24.09-7.51-24.09-18c0 10.35-24.38 18-24.38 18z" fill="#81a5a5"/><path fill="#45504a" d="M317.84 240.89h4.95v7.5h-4.95zM327.41 240.89h4.95v7.5h-4.95zM336.98 240.89h4.95v7.5h-4.95zM346.55 240.89h4.95v7.5h-4.95zM356.12 240.89h4.95v7.5h-4.95zM365.69 240.89h4.95v7.5h-4.95z"/><path d="M407.11 305.19a20.82 20.82 0 1 1-20.82-20.82 20.82 20.82 0 0 1 20.82 20.82" transform="translate(-12.12 -75.04)" fill="#f264a8"/><path d="M398.53 302.62A15.67 15.67 0 1 1 382.86 287a15.67 15.67 0 0 1 15.67 15.67" transform="translate(-12.12 -75.04)" style="mix-blend-mode:multiply" fill="#f264a8" opacity=".4"/><path fill="#563316" d="M382.53 234.99l4.1.68-3.2-1.26 4.82-2.79-14.24 4.92-.3-4.48 10.67-5.17-4.73 1.26-.08-2.34-.41 2.48-5.57 2.04-.64-9.42-1 11.71-5.29-2.44-.32-2.25-.14 2.11-3.64-1.39 9.25 5.64-.6 6.95-5.14-2.78-1.08-4.19v3.64l-3.37-1.21 9.43 6.41-2.03 21.85 6.9-.05-1.2-17.79 11.19-5.97-2.84.78-.13-2.8-.54 2.97-7.83 2.8-.36-5.34 8.32-4.57z"/><path fill="#9cbbb1" d="M57.38 244.16h71.41v8.2H57.38z"/><path fill="#adcec3" d="M60.11 217.66h65.94v34.7H60.11z"/><path fill="#45504a" d="M70.37 227.13h11.36v25.24H70.37zM87.4 227.13h11.36v25.24H87.4zM104.44 227.13h11.36v25.24h-11.36zM61.04 199.36h64.09v7.26H61.04z"/><path fill="#adcec3" d="M93.3 205.36h-.44l-45.86.15 13.33 12.47h65.5l13.33-12.47-45.86-.15z"/><path d="M120.08 181.22h-54c-.47 3.63-5 7.26-5 7.26h64.09s-4.62-3.63-5.09-7.26z" fill="#45504a"/><path fill="#adcec3" d="M47 187.37l13.33 12.47h65.5l13.33-12.47H47z"/><path d="M81.92 305.19a20.82 20.82 0 1 1-20.82-20.81 20.82 20.82 0 0 1 20.82 20.82" transform="translate(-12.12 -75.04)" fill="#f264a8"/><path d="M73.34 302.62A15.67 15.67 0 1 1 57.67 287a15.67 15.67 0 0 1 15.67 15.67" transform="translate(-12.12 -75.04)" style="mix-blend-mode:multiply" fill="#f264a8" opacity=".4"/><path fill="#563316" d="M57.35 234.99l4.09.68-3.19-1.26 4.81-2.79-14.24 4.92-.3-4.48 10.67-5.17-4.72 1.26-.09-2.34-.41 2.48-5.57 2.04-.63-9.42-1.01 11.71-5.29-2.44-.32-2.25-.13 2.11-3.64-1.39 9.24 5.64-.6 6.95-5.14-2.78-1.08-4.19v3.64l-3.37-1.21 9.44 6.41-2.04 21.85 6.9-.05-1.2-17.79 11.19-5.97-2.83.78-.14-2.8-.54 2.97-7.83 2.8-.36-5.34 8.33-4.57z"/></g></svg>