<svg xmlns="http://www.w3.org/2000/svg" viewBox="0 0 552.59 552.59"><title>step1</title><circle cx="276.3" cy="276.3" r="276.3" fill="none"/><circle cx="276.3" cy="276.3" r="276.3" fill="none"/><circle cx="323.71" cy="259.34" r="56.77" fill="#fff151"/><path d="M77.32 361.74c-14.76 2.87-36.24 11.81-55.94 21.18a246.15 246.15 0 0 0 12.25 25.38H519a272.27 272.27 0 0 0 32.82-110.81c-11.8-5.6-22.15-10.73-25.69-12.85-8.35-5-22.43-13.34-32.21-19.06s-13.6-10-22.43-16.21-35.17-17.93-46-23-16.7-1-20.87 0-19.65-.45-30.15 1.46-16.54 5.73-35.94 19.41S210 315 210 315c-12.44 3.8-98.33 40.06-132.68 46.74zm-62.83 3.56H237.1s-12.58-14-16.87-17-20.16-5.69-32.17-10a276.79 276.79 0 0 0-31-8.64c-2-.29-7.72-4.32-14-6.35s-27-11.92-30.78-14.17-10.08-6-14.48-8.59-6.11-4.51-10.08-7.3S71.86 285.24 67 283s-7.51-.46-9.38 0-8.83-.2-13.55.66-7.43 2.57-16.16 8.72C24.18 295 13.13 301.11 1.68 307a283.46 283.46 0 0 0 12.81 58.3z" fill="#7cc0d8"/><path d="M33.52 408.3h485.56a274.83 274.83 0 0 0 17.29-38.54c-9.72-1-23.77-1.63-32.06 1.38l-24.47-28.69s-18.49 19.78-44 4.28c0 0-31.54-20.4-38.06-35.11 0 0-27.73-10.51-44-30.82 0 0-18.76-8.76-30.18-28.37-21.91-12-29.38.6-45.79-16.12 0 0-13.89.25-19.24-.84 0 0-6.86 3.5-21-4.18 0 0-25.21-4-32.57 8.07 0 0-28.91 11.21-41.09 17.78 0 0-13 9.75-16 13.85v.26c-31 24.42-85.87 54.13-137.52 79.64a274.19 274.19 0 0 0 23.13 57.41zM268.89 246v-.18z" fill="#2f86ad" fill-rule="evenodd"/><path d="M129.14 354.36c-2.72-11.21-10.88-11.21-25.56-7.71S61.71 404.79 71 385.88s9.79-35 9.79-35c-11 17.8-34.06 31.61-55.36 41.22q3.82 8.26 8.14 16.22h95.62c-2.72-11.91-34.26-25.22-34.26-25.22-12.51-10.51 13.05-11.91 13.05-11.91-6.03-15.43 21.16-16.83 21.16-16.83zm44.41 53.15s12.64-8.81 17.13-31.07c0 0-7.34-25.85 7.34-36.67 0 0-9-2.41 6.93 17.56 0 0-7.75 5.25-9.38 1.05s-5.71 13.52 20.8 18.06 17.54.33 19.17-11.75 13.05 9.46 11 21.54-1.22 6.83 17.54 8.41 15.5 1.05 15.91 7.36 17.13 6.3 17.13 6.3zm206.94.79s-18.37-14.71-20.82-16.81 25.71-38.88 10.41-60.95c-6.87 38.88-29.17 38.88-29.17 38.88s-8.16-7.63-6.52-24.83c0 0-17.95-3.71-27.73-18.86 0 0-1.63 27.62 22.84 48.27 0 0-23.65 18.54-30.18 34.31h81.18zm124.37-1s-27.73-24.94-27.73-40.39c0 0-6.53-8.71-6.53 9.49 0 0-49.1 2.67-62.8-31.83 0 0-.82 17.38 34.26 40.5l-17.14 22.23h79.93z" fill="#1b627a" fill-rule="evenodd"/><path d="M522.67 401.47c-23.78-1.48-41.4-2.07-41.4-2.07-29.37-14.54-73.71 0-73.71 0a261.14 261.14 0 0 0-45.8 0c-41.84-16.8-85.49 0-85.49 0-17.63-3.8-59.85-2.19-59.85-2.19-22-10-47 0-47 0-27.69-5.14-60.6 3.24-60.6 3.24-30.07-13.26-60.43-9.07-80.9-3q5.75 11.76 12.55 22.87l474-3.86q4.3-7.36 8.2-14.99z" fill="#85d333"/><path d="M445.18 409.45s-33.06-8.38-60.75-3.24c0 0-25-10-47.06 0 0 0-42.25-4.61-59.89-.81 0 0-43.68-13.81-85.51 3a261.26 261.26 0 0 0-45.81 0s-44-14.54-73.42 0c0 0-16 .54-38.15 1.89 47.15 84.9 137.7 142.36 241.7 142.36 106.14 0 198.29-59.86 244.57-147.66-20.28-5.19-48.14-7.68-75.68 4.46z" fill="#5a9614"/><path d="M199.52 256.06a16 16 0 0 0 2.5-.24l3.63-.47c2.83-.39 5.66-.48 8.49-.73a17 17 0 0 1 4.37.06c1.17.21 2.39.62 3.55.78a14 14 0 0 1 3.17 1.05c-.7 2 .94 3.69 2.85 4a3.21 3.21 0 0 0 .5 0 1.33 1.33 0 0 0 .81.4.62.62 0 0 0 .2.08.35.35 0 0 0 .34 0 .52.52 0 0 0 .25-.07 1.35 1.35 0 0 0 .52-.89 2.5 2.5 0 0 0 .83.47.08.08 0 0 0 .06-.15 3.51 3.51 0 0 1-.53-.44l.25.14a2.3 2.3 0 0 0 1 .4.08.08 0 0 0 0-.16 3.43 3.43 0 0 1-1.28-1.07 3 3 0 0 0 2 1 .06.06 0 0 0 0-.11 2.35 2.35 0 0 1-.85-.55l.29.18a3.38 3.38 0 0 0 .83.18.05.05 0 0 0 0-.09l-.43-.3a2.36 2.36 0 0 0 .9 0 .07.07 0 0 0 0-.12 4.49 4.49 0 0 1-2.12-1.57 7 7 0 0 1-.4-1v-.61a6.92 6.92 0 0 0 .79-.31 45.65 45.65 0 0 0 4.12-2.49c1-.62 2-1.86 2.81-2.31a5.12 5.12 0 0 1 2.13-.86 1 1 0 0 0 .72-.3c-.43.39.36-.08.5-.15 2.7-1.18 5.48-2.26 8.2-3.38 1-.42 2.44-.55 3.31-1.28.48-.4 2.54-1.11 2.41-1.75a.06.06 0 0 0 .12 0v-.07a.08.08 0 0 0-.14-.06 6.2 6.2 0 0 1-1.75 1 16.56 16.56 0 0 1-2.19 1 16.15 16.15 0 0 1-3.89.94 31.18 31.18 0 0 0-4.62 1 15 15 0 0 0-3 1 8.64 8.64 0 0 0-3.62 1.48c-1.14.77-2.39 1.41-3.51 2.23a12.1 12.1 0 0 0-3.21 2.8 7.4 7.4 0 0 0-2.12.09 5.66 5.66 0 0 0-2.57.74c-1.09-.32-2.21-.75-3.23-1.16a23.77 23.77 0 0 0-4.16-1.27 15.09 15.09 0 0 0-4.33.16c-1.34.11-2.61.52-3.94.66a31.28 31.28 0 0 0-4.19.77c-1.49.38-3 .48-4.55.71-.86.13-3-.06-3.66.69a3.87 3.87 0 0 1 1.84-.05zm134.06-63.49a20.15 20.15 0 0 1 1.67 1.28c.48.29.87.77 1.33 1.11.65.47 1.27.93 1.9 1.42s1.38 1.48 2.23 2.33a4.24 4.24 0 0 0-.42.42 4.21 4.21 0 0 1-3 1.45v.08a5.06 5.06 0 0 0 1.48 0 3.48 3.48 0 0 1-.7.46c-.06 0 0 .12 0 .11a4.25 4.25 0 0 0 1.48-.4 5.92 5.92 0 0 1-1.14.74v.07a3.85 3.85 0 0 0 1.24-.24 2.69 2.69 0 0 0 .67-.54 3.17 3.17 0 0 1-1.19 1v.06a1.93 1.93 0 0 0 1.41-.43 1.62 1.62 0 0 0 .92.93 3 3 0 0 0 2.36-.23 2.51 2.51 0 0 0 1.34-1.42 2.16 2.16 0 0 0 1.14-.82l.37-.1a1.62 1.62 0 0 0 .42-.24l.21-.06v-.06a3.88 3.88 0 0 0-.77-.39h-.07a1.75 1.75 0 0 0-.66-1.19 23 23 0 0 1 2-1.54 13.38 13.38 0 0 1 2.76-1.65 29.13 29.13 0 0 0 2.95-1.21 12.31 12.31 0 0 1 7.1-.61 9.78 9.78 0 0 1 2.71.79c.59.3.71 1.14 1.37 1.1a.09.09 0 0 0 .06-.15c-.55-.58-.56-1.33-1.35-1.73a22.64 22.64 0 0 0-2.46-1.21 13.06 13.06 0 0 0-6.85-.41c-2.45.42-4 2.1-6.06 3.29a36.35 36.35 0 0 0-3.17 2.38 7.29 7.29 0 0 0-.68.57 3 3 0 0 0-.53-.09 1.79 1.79 0 0 0-1.69 0 4.15 4.15 0 0 1-.39-.28c-.93-.79-1.68-1.74-2.67-2.51-1.95-1.52-3.83-3.76-6.4-4.07-1.2-.14-2.37-.18-3.57-.26-1.54-.1-3.07-.51-4.64-.62a25.25 25.25 0 0 0-6.62 0 .08.08 0 0 0 0 .16c1.9.39 3.85.69 5.79.95 2.86.37 5.63 1 8.49 1.43a5 5 0 0 1 1.63.33zm-127.41-39.94c-.39-.88-1.81-1.33-2.61-1.77a19.81 19.81 0 0 0-4.1-2 12.53 12.53 0 0 0-5.05 0 18 18 0 0 0-2.4.43 7.71 7.71 0 0 0-4.18.39c-.47 0-.92 0-1.26-.07-1-.1-1.81-.58-2.77-.64a3.3 3.3 0 0 0-2.32.89c-.89.72-2.94 1.69-4.24 2.49-1.67 1-3.48 2-5.24 2.87 3.29-.62 5.92-2.89 9-4.09l1.74-.69a5.31 5.31 0 0 1 3 0 11.27 11.27 0 0 0 1.16.16.42.42 0 0 0 0 .27c.31.62.9.63 1.4 1a3.86 3.86 0 0 0 1.42.9 2.89 2.89 0 0 0 2.29-.92 2.07 2.07 0 0 0 .65.08 1.86 1.86 0 0 0 .91 0 .24.24 0 0 0 .08-.07.17.17 0 0 0 0-.08 1 1 0 0 0-.5-.78 3.89 3.89 0 0 1-.38-.34 1.42 1.42 0 0 0-.07-.74l1.15-.16a14.61 14.61 0 0 1 4.74.34 35.5 35.5 0 0 1 7.44 2.47l.14.06zm20.96 21.5a3.91 3.91 0 0 0-1.79-1.22 13.6 13.6 0 0 0-2.82-1.38 8.62 8.62 0 0 0-3.47 0 12.16 12.16 0 0 0-1.65.3 5.29 5.29 0 0 0-2.87.27h-.86c-.66-.07-1.25-.4-1.91-.44a2.28 2.28 0 0 0-1.6.61c-.62.49-2 1.16-2.92 1.71-1.15.71-2.39 1.38-3.6 2 2.26-.43 4.07-2 6.18-2.81l1.2-.47a3.66 3.66 0 0 1 2.09 0 7.64 7.64 0 0 0 .8.11.29.29 0 0 0 0 .18 2.53 2.53 0 0 0 1 .71 2.65 2.65 0 0 0 1 .62 2 2 0 0 0 1.58-.63 1.46 1.46 0 0 0 .45.05 1.29 1.29 0 0 0 .63 0h.05a.11.11 0 0 0 0-.06.67.67 0 0 0-.34-.54 2.74 2.74 0 0 1-.26-.24 1 1 0 0 0 0-.51l.79-.11a10.05 10.05 0 0 1 3.26.24 24.34 24.34 0 0 1 5.11 1.7l-.05-.09z" fill="#232323"/></svg>