<svg xmlns="http://www.w3.org/2000/svg" viewBox="0 0 422.62 422.62"><title>step5</title><g style="isolation:isolate"><circle cx="257.65" cy="202.4" r="60.34" fill="#dd3642"/><path d="M400.93 344.11H50.46a211.36 211.36 0 0 0 350.47 0z" transform="translate(-14.38 -14.68)" fill="#8f6330"/><path d="M46.92 338.68h357.54a210.75 210.75 0 0 0 14.6-27.4H32.32a210.75 210.75 0 0 0 14.6 27.4z" transform="translate(-14.38 -14.68)" fill="#99bc2b"/><path d="M37.06 330.85h348.5q2.32-3.38 4.52-6.85H32.54q2.2 3.48 4.52 6.85z" fill="#fff2c5"/><path d="M36.94 321.07h377.5A209.92 209.92 0 0 0 436 246.71l-19.29 8.9-12.16-.91-46.14-36.44-33.72 29.84-14.57 5.23s-28.53-10.54-30.51-11-29 22-29 22L214 253.14l-18.65.2L177.3 231l-25.08 26-18 19.64s-10.86-1-13.14-4.61a85.07 85.07 0 0 0-5.64-7.7l-9.44-1.88-8.21-9.11-8.17 4.55-34.14-30.51-22.77 15-18.3-14.44a210.35 210.35 0 0 0 22.53 93.13z" transform="translate(-14.38 -14.68)" fill="#2c2e35"/><path fill="#fff7d1" d="M162.92 216.34v63.18l18.04-40.86-18.04-22.32zM83.45 238.66c-.55 3.53 0 18.9 0 18.9l8.21-9.79zM265.21 227.67v43.56l30.51-32.57-30.51-10.99zM344.01 203.59s-1.25 70 0 70.2 46.14-33.76 46.14-33.76z"/><path d="M17 259.27l3.41-8.67 12.3-8.26-18.3-14.44A212.71 212.71 0 0 0 17 259.27z" transform="translate(-14.38 -14.68)" fill="#fff7d1"/><path fill="#fff7d1" d="M41.1 212.7v71.08l34.18-40.56L41.1 212.7zM101.06 249.64v21.59l5.63-13.89-5.63-7.7z"/><path fill="#2c2e35" d="M212.87 120.32h4.27l-1.41-55.74-1.44-.04-1.42 55.78z"/><path d="M244.12 265.17c-5.53-25-8.12-51.66-8.31-80.68v-63.64H223v64c-.21 28.87-2.79 55.4-8.3 80.29-5.75 26-31.91 60.65-31.91 60.65h12.88s2.38-7.14 11.3-20a30.14 30.14 0 0 1 22.47-13.08 30.14 30.14 0 0 1 22.46 13.08c8.92 12.89 11.3 20 11.3 20H276s-26.13-34.66-31.88-60.62z" transform="translate(-14.38 -14.68)" fill="#24262b"/><path fill="#c1272d" d="M215.21 199.68h-13.48v7.4h26.69v-7.4h-13.21z"/><path fill="#4d4d4d" d="M215.21 207.08h-13.48v3.04h26.69v-3.04h-13.21z"/><path d="M229.39 117.61a7.93 7.93 0 0 0-7.67 8.16c0 1.9.05 3.44.16 4.69h15c.1-1.25.16-2.79.16-4.69a7.93 7.93 0 0 0-7.65-8.16z" transform="translate(-14.38 -14.68)" fill="#c1272d"/><path fill="#4d4d4d" d="M207.56 115.79h14.89v4.53h-14.89z"/><path fill="#998675" d="M65.35 285.1h71.15v29.55H65.35zM68.89 250.66h63.48v23.08H68.89zM72.78 222.57h55.71v20.26H72.78zM76.25 197.83h48.76v17.73H76.25z"/><path fill="#38393d" d="M68.89 289.54h13.98v25.11H68.89zM85.64 289.54h13.98v25.11H85.64zM102.39 289.54h13.98v25.11h-13.98zM119.14 289.54h13.98v25.11h-13.98zM74.23 256.15h11.66v17.28H74.23zM88.2 256.15h11.66v17.28H88.2zM102.16 256.15h11.66v17.28h-11.66zM116.12 256.15h11.66v17.28h-11.66zM79.88 226.93h9.2v12.39h-9.2zM90.9 226.93h9.2v12.39h-9.2zM101.92 226.93h9.2v12.39h-9.2zM112.94 226.93h9.2v12.39h-9.2zM81.1 202.21h8.67v10.48H81.1zM91.48 202.21h8.67v10.48h-8.67zM101.86 202.21h8.67v10.48h-8.67zM112.25 202.21h8.67v10.48h-8.67z"/><path fill="#fff7d1" d="M68.89 252.17h63.48v1.71H68.89z"/><path fill="#c6bfa3" d="M68.89 253.03h63.48v.91H68.89z"/><path fill="#fff7d1" d="M72.91 223.77h55.58v1.71H72.91z"/><path fill="#c6bfa3" d="M72.91 224.63h55.58v.91H72.91z"/><path fill="#fff7d1" d="M76.25 198.6h48.76v1.71H76.25z"/><path fill="#c6bfa3" d="M76.25 199.45h48.76v.91H76.25z"/><path fill="#fff7d1" d="M65.35 286.29h71.15V288H65.35z"/><path fill="#c6bfa3" d="M65.35 287.15h71.15v.91H65.35z"/><path d="M83.25 288.42a12.36 12.36 0 0 1-7.42 4.58 31.63 31.63 0 0 1-11.66.2s6.7 6.25 14.88 6.59h35.47v-11.37H83.25z" transform="translate(-14.38 -14.68)" fill="#dd3642"/><path d="M154.32 293a12.36 12.36 0 0 1-7.42-4.54h-32.38v11.35H151.11c8.17-.34 14.88-6.59 14.88-6.59a31.63 31.63 0 0 1-11.67-.22z" transform="translate(-14.38 -14.68)" fill="#bf2b3d"/><path d="M86.93 254a12.35 12.35 0 0 1-7.42 4.54 31.64 31.64 0 0 1-11.66.2s6.7 6.25 14.88 6.59H114.52V254H86.93z" transform="translate(-14.38 -14.68)" fill="#dd3642"/><path d="M118.24 265.34h29.01c8.18-.34 14.88-6.59 14.88-6.59a31.63 31.63 0 0 1-11.66-.2A12.35 12.35 0 0 1 143 254h-28.48v11.35h3.72z" transform="translate(-14.38 -14.68)" fill="#bf2b3d"/><path d="M90.37 227.29a10.84 10.84 0 0 1-6.51 4 27.76 27.76 0 0 1-10.23.18s5.88 5.49 13.05 5.79h27.83v-10H90.37z" transform="translate(-14.38 -14.68)" fill="#dd3642"/><path d="M117.84 237.25h25.45c7.17-.3 13.05-5.79 13.05-5.79a27.76 27.76 0 0 1-10.23-.18 10.85 10.85 0 0 1-6.51-4h-25.08v10h3.32z" transform="translate(-14.38 -14.68)" fill="#bf2b3d"/><path d="M102.67 199.63c-4.67 6.5-12.67 7.11-14.93 7.64a24.3 24.3 0 0 1-9 .16s5.15 4.8 11.43 5.06h24.3v-32.1z" transform="translate(-14.38 -14.68)" fill="#dd3642"/><path d="M126.37 199.63c5.16 7.18 12.72 7.11 14.92 7.64a24.3 24.3 0 0 0 9 .16s-5.15 4.8-11.43 5.06h-24.3v-32.1z" transform="translate(-14.38 -14.68)" fill="#bf2b3d"/><path d="M217.27 294.81a20.47 20.47 0 1 1-20.47-20.47 20.47 20.47 0 0 1 20.47 20.47" transform="translate(-14.38 -14.68)" fill="#f264a8"/><path d="M208.83 292.28a15.41 15.41 0 1 1-15.41-15.41 15.41 15.41 0 0 1 15.41 15.41" transform="translate(-14.38 -14.68)" style="mix-blend-mode:multiply" fill="#f264a8" opacity=".4"/><path fill="#563316" d="M190.65 284.88l4.02.67-3.14-1.24 4.73-2.74-14 4.83-.3-4.4 10.5-5.08-4.65 1.24-.08-2.3-.4 2.44-5.48 2-.63-9.26-.98 11.51-5.21-2.4-.31-2.21-.13 2.08-3.58-1.37 9.09 5.55-.59 6.83-5.05-2.74-1.06-4.11v3.58l-3.32-1.19 9.27 6.3-1.99 21.48 6.78-.05-1.18-17.49 11-5.87-2.78.77-.14-2.76-.53 2.92-7.69 2.76-.36-5.25 8.19-4.5z"/><path d="M83 294.81a20.47 20.47 0 1 1-20.47-20.47A20.47 20.47 0 0 1 83 294.81" transform="translate(-14.38 -14.68)" fill="#f264a8"/><path d="M74.6 292.28a15.41 15.41 0 1 1-15.41-15.41 15.41 15.41 0 0 1 15.41 15.41" transform="translate(-14.38 -14.68)" style="mix-blend-mode:multiply" fill="#f264a8" opacity=".4"/><path fill="#563316" d="M56.41 284.88l4.03.67-3.14-1.24 4.73-2.74-14.01 4.83-.29-4.4 10.49-5.08-4.64 1.24-.09-2.3-.4 2.44-5.48 2-.62-9.26-.99 11.51-5.2-2.4-.31-2.21-.14 2.08-3.58-1.37 9.09 5.55-.58 6.83-5.06-2.74-1.06-4.11v3.58l-3.32-1.19 9.28 6.3-2 21.48 6.79-.05-1.18-17.49 11-5.87-2.79.77-.13-2.76-.53 2.92-7.7 2.76-.35-5.25 8.18-4.5z"/><path d="M319.65 294.81a20.47 20.47 0 1 1-20.47-20.47 20.47 20.47 0 0 1 20.47 20.47" transform="translate(-14.38 -14.68)" fill="#f264a8"/><path d="M311.21 292.28a15.41 15.41 0 1 1-15.41-15.41 15.41 15.41 0 0 1 15.41 15.41" transform="translate(-14.38 -14.68)" style="mix-blend-mode:multiply" fill="#f264a8" opacity=".4"/><path fill="#563316" d="M293.02 284.88l4.03.67-3.14-1.24 4.73-2.74-14 4.83-.3-4.4 10.5-5.08-4.65 1.24-.08-2.3-.4 2.44-5.48 2-.63-9.26-.98 11.51-5.21-2.4-.31-2.21-.13 2.08-3.58-1.37 9.09 5.55-.59 6.83-5.05-2.74-1.07-4.11v3.58l-3.31-1.19 9.28 6.3-2 21.48 6.78-.05-1.18-17.49 11-5.87-2.78.77-.14-2.76-.53 2.92-7.69 2.76-.36-5.25 8.18-4.5z"/><path d="M402.77 294.81a20.47 20.47 0 1 1-20.47-20.47 20.47 20.47 0 0 1 20.47 20.47" transform="translate(-14.38 -14.68)" fill="#f264a8"/><path d="M394.33 292.28a15.41 15.41 0 1 1-15.41-15.41 15.4 15.4 0 0 1 15.41 15.41" transform="translate(-14.38 -14.68)" style="mix-blend-mode:multiply" fill="#f264a8" opacity=".4"/><path fill="#563316" d="M376.14 284.88l4.03.67-3.14-1.24 4.73-2.74-14 4.83-.3-4.4 10.5-5.08-4.65 1.24-.09-2.3-.39 2.44-5.48 2-.63-9.26-.98 11.51-5.21-2.4-.31-2.21-.13 2.08-3.59-1.37 9.1 5.55-.59 6.83-5.06-2.74-1.06-4.11v3.58l-3.31-1.19 9.27 6.3-1.99 21.48 6.78-.05-1.18-17.49 11-5.87-2.79.77-.13-2.76-.53 2.92-7.7 2.76-.35-5.25 8.18-4.5z"/><path fill="#dd3642" d="M341.94 245.04h9.14v19.16h-9.14zM309.45 238.01h7.03v79.09h-7.03zM380.1 238.01h7.03v79.09h-7.03zM302.42 261.91h92.1v4.57h-92.1z"/><path style="mix-blend-mode:multiply" fill="#ccc" d="M312.96 266.48h3.51v50.62h-3.51zM383.62 266.48h3.52v50.62h-3.52zM383.62 242.76h3.52v19.14h-3.52zM312.96 242.76h3.51v19.14h-3.51zM346.51 245.74h4.57v16.17h-4.57z"/><path d="M347.06 238.32c-31.46 0-52.88-8-59.41-15.57v12.57c13.64 8.44 37 12.87 59.41 12.87 21.84 0 44.53-4.2 58.31-12.21v-12c-7.62 7.15-28.45 14.34-58.31 14.34z" fill="#dd3642"/><path d="M287.62 220.21v6.68c13.64 8.44 37 12.87 59.41 12.87 21.84 0 44.53-4.2 58.31-12.21v-6.68c-13.77 8-36.47 12.21-58.31 12.21-22.41 0-45.73-4.43-59.41-12.87z" fill="#24262b"/><path fill="#dd3642" d="M302.42 281.95h3.52v35.15h-3.52zM390.12 281.95h3.52v35.15h-3.52zM304.82 296.42h5.74v1.93h-5.74zM304.82 305.85h5.74v1.93h-5.74zM387.13 296.42h5.74v1.93h-5.74zM387.13 305.85h5.74v1.93h-5.74z"/><path style="mix-blend-mode:multiply" fill="#ccc" d="M304.18 281.95h1.76v35.15h-1.76zM392 281.95h1.76v35.15H392z"/><circle cx="211.31" cy="211.31" r="211.31" fill="none"/></g></svg>